<svg width="1728" height="596" viewBox="0 0 1728 596" fill="none" xmlns="http://www.w3.org/2000/svg">
<g clip-path="url(#clip0_81_3)">
<path d="M10.0437 12.9124C21.3301 19.0038 124.431 61.5625 162.822 75.3691C237.968 102.695 285.875 114.463 378.068 127.388C418.414 133.317 448.595 141.923 488.393 159.787C543.929 184.923 567.355 190.188 638.973 195.291C681.511 198.046 695.046 200.021 712.476 206.64C739.205 216.244 799.032 246.645 801.756 251.935C805.605 258.776 801.401 270.77 793.292 276.865C781.81 285.526 757.884 282.78 714.849 268.108C689.04 259.117 675.232 255.891 663.218 256.088C643.891 256.404 616.011 264.392 599.578 274.39L587.824 281.8L596.928 299.538C605.759 316.026 607.406 317.568 624.267 326.392C649.656 339.47 656.241 345.639 659.509 360.648C661.483 369.716 660.744 374.749 656.564 382.036C653.474 387.107 648.613 391.266 645.74 391.313C640.778 391.395 641.187 393.271 649.436 425.145C657.959 458.269 659.625 476.757 656.542 504.737C655.268 515.741 645.263 521.554 635.362 517.009C629.787 514.276 626.653 514.327 623.018 516.897C619.191 519.784 615.989 519.523 608.052 515.573C595.131 509.195 584.198 491.486 575.653 463.069C567.243 435.278 558.139 417.54 542.813 397.707C514.669 361.138 508.514 359.356 520.875 390.848C530.296 414.858 544.161 476.138 543.239 489.961C542.295 501.273 535.469 504.837 524.262 500.314C511.613 495.186 504.983 483.997 495.484 451.202C489.356 430.277 484.078 416.87 477.721 406.932C469.774 394.51 467.537 392.663 459.305 392.171C421.014 389.66 389.653 373.228 347.974 334.684C327.889 315.87 312.107 303.576 300.628 297.802C284.095 289.286 281.938 289.007 245.634 289.602C224.74 289.944 192.24 292.359 173.457 295.178C124.411 302.257 66.7823 298.808 64.5357 288.489C63.7869 285.049 65.479 284.394 72.3488 285.85C91.5844 289.929 140.958 290.375 167.565 286.174C182.827 284.041 211.796 281.056 231.964 279.784C287.572 276.362 306.841 284.206 356.105 331.099C392.527 365.963 426.761 382.348 461.498 381.779C476.908 381.527 478.021 381.822 479.189 388.393C479.813 392.462 483.683 401.813 487.997 409.588C492.05 417.367 498.474 434.835 502.253 448.581C509.879 476.386 516.849 489.138 526.217 492.436C536.958 496.026 537.528 486.602 529.154 448.14C520.372 407.802 509.59 377.539 505.104 379.809C500.425 382.397 496.111 374.622 500.325 371.101C502.596 369.495 507.117 363.772 510.729 358.692C518.793 347.576 524.074 346.548 524.026 355.963C524.003 360.671 528.112 367.508 537.615 378.649C558.005 402.479 570.549 425.182 582.149 459.197C592.738 489.777 599.901 502.213 609.745 507.7C619.851 513.183 621.169 507.199 614.541 488.793C611.193 479.433 607.459 463.49 606.258 453.154C604.557 438.119 601.402 428.442 591.334 405.071C584.001 388.245 576.168 373.938 573.341 371.788C570.514 369.637 550.417 356.786 529.071 343.015C492.487 319.45 489.603 318.242 482.449 321.498C478.156 323.451 464.926 326.492 452.798 328.573C413.87 335.173 386.493 326.207 359.211 298.411C350.185 289.458 347.074 284.802 348.619 282.266C349.971 280.048 354.83 283.106 364.844 292.984C390.866 318.604 411.884 324.85 450.687 318.88C464.383 316.772 475.659 314.391 476.238 313.44C476.886 312.802 474.842 310.639 471.89 309.118C467.03 306.059 462.967 297.025 466.623 296.966C470.28 296.906 507.045 318.898 547.898 345.217C594.927 375.828 606.406 381.602 624.711 383.813C639.291 385.77 652.545 378.022 653.364 367.339C654.355 353.829 645.998 346.748 603.226 324.854C567.209 306.301 558.932 300.788 536.94 280.437C513.233 258.231 471.851 209.012 470.013 200.569C467.971 191.189 475.475 197.969 496.808 224.922C524.611 259.927 557.015 290.778 578.145 302.356C586.547 307.24 593.496 310.264 593.36 309.639C591.726 302.134 582.27 288.795 579.01 289.476C570.8 291.493 572.028 282.686 581.102 275.006C598.411 260.601 626.722 249.782 653.283 247.777C676.71 245.825 679.458 246.407 714.567 258.385C758.454 273.356 778.201 276.171 788.32 268.474C792.408 265.583 795.112 261.145 794.499 258.331C793.818 255.204 781.147 247.566 760.288 237.238C710.896 212.628 697.997 208.76 657.288 205.975C576.914 200.387 547.345 194.596 506.502 176.75C433.867 145.303 423.783 142.33 351.666 132.528C265.229 120.764 187.834 97.5539 74.1734 49.8333C12.7557 24.1652 3.37681 19.6117 2.62795 16.172C1.5387 11.1688 4.92289 9.85814 10.0437 12.9124ZM591.893 387.175C592.37 389.363 595.968 397.464 599.952 404.93C604.538 413.955 608.704 427.067 611.71 442.081C621.229 491.821 624.838 501.177 636.783 507.885C645.378 512.451 649.172 505.799 649.653 486.335C650.076 467.813 643.577 427.124 637.471 408.709C632.715 395.293 632.647 394.98 618.317 391.763C610.334 390.011 601.886 387.325 599.456 385.795C593.086 381.82 590.804 382.171 591.893 387.175Z" fill="#99B4FF" fill-opacity="0.74"/>
<path d="M1479.93 576.357C1496.93 575.075 1509.55 569.115 1523.09 556.446C1542.08 538.374 1661.06 485.413 1695.53 479.495C1701.17 478.502 1706.43 475.455 1706.93 473.119C1710.29 460.476 1650.89 478.335 1586.94 509.098C1550 527.376 1537.19 528.927 1569.08 511.34C1633.74 476.224 1667.88 455.398 1667.71 451.327C1667.6 448.613 1666.91 446.539 1666.01 446.482C1665.11 446.424 1643.16 458.217 1617.42 472.475C1575.62 496.195 1559.43 502.604 1572.12 491.234C1574.43 489.013 1576.35 485.076 1576.26 482.701C1576.1 478.969 1569.75 477.549 1546.65 476.073L1517.56 474.552L1505.84 494.78C1490.21 521.865 1466.9 551.164 1456.36 556.581C1451.1 559.628 1439.17 560.557 1421.76 559.445L1395.36 557.758L1416.45 546.925C1453.97 528.346 1488.45 479.797 1505.19 422.334L1510.7 403.739L1548.42 404.119C1591.83 404.524 1613.79 400.176 1641.59 385.035C1660.02 375.047 1690.18 344.832 1689.84 336.69C1689.52 329.226 1682.49 332.837 1673.43 345.115C1659.81 362.854 1636.23 378.602 1609.37 387.374C1589.59 393.893 1579.76 394.956 1545.59 393.788C1523.42 393.048 1502.77 393.082 1499.51 393.889C1492.72 396.162 1488.55 389.467 1487.95 375.218C1487.41 362.327 1490.31 360.144 1516.99 354.066C1548.7 346.619 1580.47 333.423 1602.85 317.598C1624.66 302.412 1646.12 279.085 1651.5 264.542C1656.33 251.317 1650.29 249.915 1642.43 262.27C1621.07 295.417 1583.89 322.138 1539.3 336.545C1525.13 341.052 1513.59 344.376 1513.55 343.358C1513.49 342.001 1528.43 319.948 1555.01 283.076C1583.57 243.284 1635.38 194.151 1647.98 194.957C1649.48 195.053 1650.88 192.774 1650.77 190.06C1650.46 182.596 1644.81 183.589 1627.88 193.672C1606.27 206.502 1562.51 254.795 1530.31 300.444C1498.1 346.093 1478.73 362.11 1442.67 373.001C1429.67 376.907 1417.52 379.853 1415.42 379.719C1413.32 379.585 1406.08 371.002 1398.76 360.722C1391.45 350.443 1378.01 336.727 1368.75 330.045C1353.02 318.89 1348.46 317.245 1314.42 312.026C1227.99 299.059 1226.78 298.643 1184.53 261.772C1164.03 243.883 1159.91 238.545 1161.19 233.213C1164.53 220.231 1161.12 203.096 1153.96 196.548C1144.29 187.134 1138.65 188.126 1125.68 200.155C1117.34 208.08 1112.94 210.167 1109.54 207.582C1107.06 205.732 1099.51 203.896 1092.3 203.436C1062.9 201.557 1055.53 239.995 1080.83 265.296C1087.08 271.447 1088.49 276.612 1090.32 298.721L1092.32 325.24L1066.24 295.491C1051.79 279.343 1035.01 257.293 1028.58 246.732C1012.18 219.632 1002.11 207.823 994.309 207.324C990.408 207.075 982.149 202.826 975.949 197.693C962.005 186.313 939.142 183.499 936.526 192.467C932.851 204.751 973.099 308.149 995.856 344.113C1001.33 353.26 1004.91 360.256 1003.71 360.179C1002.51 360.102 988.439 345.67 972.724 327.748C934.109 284.68 913.892 273.576 888.813 282.124C875.837 286.708 873.164 294.32 880.277 306.954C883.506 312.574 906.521 340.435 931.364 369.09C980.737 426.041 987.224 430.854 1039.05 453.451C1054.59 460.196 1082.48 475.85 1100.67 488.516C1136.39 512.452 1155.25 519.747 1199.53 526.637C1263.38 536.469 1364.18 556.442 1379.07 561.792C1388.18 565.081 1404.48 568.492 1415.3 569.521C1426.1 570.211 1441.46 572.546 1449.91 574.101C1458.07 575.975 1471.88 577.197 1479.93 576.357ZM1484.22 543.136C1494.47 530.595 1507.78 512.498 1513.05 502.685L1523.37 484.736L1542.28 485.943C1552.78 486.615 1561.52 488.188 1561.56 489.206C1561.79 494.634 1519.99 546.774 1509.24 554.546C1494.14 565.423 1491.19 566.588 1476.8 566.007L1465.41 565.618L1484.22 543.136ZM1411.32 524.606C1433.15 502.654 1460.66 459.413 1470.28 431.945C1473.78 422.696 1478.63 416.915 1485.66 413.304C1491.53 410.634 1496.86 409.283 1498.11 410.378C1499.06 411.792 1493.17 428.333 1485.3 447.454C1466.53 492.269 1442.62 521.53 1413.34 536.915C1401.9 542.613 1391.93 547.389 1391.03 547.331C1390.13 547.274 1399.27 537.031 1411.32 524.606ZM1307.32 535.216C1277.78 529.945 1235.57 522.511 1214.18 519.114C1163.25 510.785 1140.8 503.599 1114.96 486.722C1103.56 478.888 1093.98 471.848 1093.94 470.83C1094.2 469.832 1098.83 466.068 1104.36 462.361C1111.63 457.412 1119.34 455.536 1129.84 456.207C1154.44 457.779 1214.5 476.842 1271.78 501.141C1323.27 523.04 1326.3 523.91 1358.72 526.32C1377.34 527.848 1392.66 529.165 1392.67 529.504C1392.75 531.201 1367.62 545.836 1364.62 545.644C1362.82 545.529 1337.19 540.846 1307.32 535.216ZM1323.05 510.507C1312.13 507.102 1293.87 499.845 1282.57 494.387C1235.58 472.775 1156.72 447.774 1129.41 446.03L1116.81 445.224L1116.15 429.619C1115.8 421.137 1113.89 411.203 1112.23 407.376C1108.97 401.077 1110.16 400.815 1139.87 402.713L1170.77 404.688L1228.38 436.789C1259.94 454.37 1288.19 471.4 1291.32 474.645C1294.13 477.532 1303.39 484.213 1311.66 488.802C1324.54 496.053 1332.09 497.889 1358.5 499.577C1387.91 501.456 1391.18 500.988 1405.78 492.448C1424.78 481.481 1438.13 464.402 1449.82 436.39C1455.28 423.882 1459.77 416.725 1461.07 419.176C1464.31 425.135 1448.93 457.987 1429.46 486.179C1412.25 511.131 1409.92 512.674 1381.7 517.638C1368.33 519.828 1341.56 516.765 1323.05 510.507ZM1313.92 478.458C1299.83 470.791 1275.5 447.244 1278.68 444.402C1279.25 443.761 1288.64 439.286 1299.2 434.209C1335.88 416.929 1353.66 391.336 1355.04 352.853L1355.94 331.596L1371.13 344.07C1379.2 351.014 1391.48 365.332 1397.9 375.893C1409.12 393.526 1424.63 406.698 1441.65 412.861C1447.72 414.94 1447.75 415.619 1443.76 427.544C1434.47 455.709 1412.73 479.696 1388.85 488.321C1372.35 494.371 1333.52 489.184 1313.92 478.458ZM1039.52 443.331C1002.3 426.404 982.954 414.679 973.797 403.267C968.425 396.495 968.411 396.156 977.1 389.268C982.016 385.184 987.09 377.726 988.677 372.752L990.979 363.426L1007.84 372.962C1023.47 381.742 1052.29 391.027 1085.78 397.566C1097.56 400.01 1100.94 402.256 1103.63 409.194C1108.05 421.996 1108.08 436.885 1103.45 447.754C1096.37 464.557 1084.67 463.81 1039.52 443.331ZM1247.99 433.305C1247.69 426.181 1255.17 426.321 1260.59 434.111C1269.16 445.824 1267.8 449.12 1257.34 442.362C1252.11 438.983 1248.06 435.002 1247.99 433.305ZM1248.89 404.942L1228.03 378.572L1236.06 377.394C1240.52 376.664 1248.4 371.753 1253.87 366.69C1262.8 358.464 1263.87 355.487 1264.26 336.226L1264.87 314.949L1300.68 319.606C1320.54 322.228 1338.63 325.414 1341.07 326.585C1344.11 327.795 1345.58 334.317 1346.14 347.548C1347.11 370.617 1339.87 390.794 1325.5 404.762C1314.56 415.229 1282.65 432.137 1274.55 431.619C1271.85 431.447 1260.58 419.561 1248.89 404.942ZM1226.4 425.159C1220.54 421.063 1220.54 421.063 1226.73 411.647L1232.9 401.891L1240.12 409.795C1246.7 416.983 1247.05 418.02 1242.49 423.48C1237.08 430.24 1234.7 430.426 1226.4 425.159ZM1199.41 409.563C1189.65 405.217 1186.39 398.919 1193.89 399.398C1196.29 399.552 1202.4 395.205 1207.24 389.424C1216.12 379.841 1216.7 379.54 1220.84 385.557C1224.37 391.196 1224.47 393.57 1221.2 401.143C1219.03 406.418 1215.62 410.937 1213.57 411.821C1211.51 412.704 1209.75 413.607 1209.45 413.588C1209.17 413.908 1204.89 411.943 1199.41 409.563ZM926.981 350.201C885.437 301.532 883.523 298.703 890.482 293.396C905.545 281.502 932.463 295.402 961.75 330.092C979.379 350.843 981.636 354.708 980.52 363.772C979.389 372.497 966.884 388.277 961.182 387.912C959.982 387.836 944.61 370.951 926.981 350.201ZM1150.64 388.515C1147.8 384.949 1148.86 381.634 1155.4 373.593C1162.23 365.233 1165.76 363.767 1176.88 364.815C1183.8 365.596 1193.74 367.246 1198.6 368.91L1207.39 371.501L1200.58 380.54C1190.66 393.779 1158.26 398.813 1150.64 388.515ZM1088.41 381.832C1083.44 377.454 1078.78 373.435 1077.84 372.359C1076.91 371.623 1078.63 369.703 1081.54 367.859C1084.47 366.354 1089.02 360.555 1091.81 355.658L1096.49 346.145L1118.11 369.18L1140.02 392.235L1118.73 391.213C1101.33 390.1 1095.57 388.379 1088.41 381.832ZM1043.32 376.92C1041.15 375.09 1042.8 371.812 1047.71 367.389L1055.5 360.443L1066.21 373.308L1076.91 385.833L1061.81 382.5C1053.35 380.606 1045.16 378.053 1043.32 376.92ZM1466.4 396.51C1460.83 384.989 1459.99 379.183 1463.89 379.432C1465.39 379.528 1467.33 383.036 1468.42 387.504C1469.19 391.613 1471.25 397.834 1472.59 401.304C1476.6 411.372 1471.96 407.692 1466.4 396.51ZM1430.21 396.904C1420.09 391.183 1420.86 388.187 1432.17 386.541C1437.51 385.529 1444.64 384.293 1447.9 383.486C1452.33 382.077 1454.17 383.21 1454.37 387.959C1454.81 391.371 1456.26 397.215 1457.6 400.684C1460.24 406.605 1459.36 406.887 1449.07 404.199C1442.71 402.44 1434.19 399.189 1430.21 396.904ZM1475.73 383.573C1474.59 377.748 1475.01 373.376 1476.51 373.472C1477.71 373.548 1479.04 376.678 1479.21 380.749C1479.36 384.481 1481.13 391.023 1483.41 395.228C1486.68 401.866 1486.39 402.186 1482.33 398.205C1479.53 395.657 1476.56 389.039 1475.73 383.573ZM1121.55 358.574C1112.73 347.859 1105.64 335.903 1103.2 327.627C1098.94 311.791 1096.78 281.54 1100.08 281.751C1101.58 281.847 1109.56 286.756 1118.19 292.721C1131.15 302.007 1134.31 305.931 1138.14 318.694C1140.56 326.631 1145.56 338.792 1148.83 345.43L1155.32 357.348L1147.62 366.329C1143.34 371.469 1139.03 375.592 1137.83 375.515C1136.93 375.458 1129.43 367.873 1121.55 358.574ZM1008.89 347.991C995.43 326.831 975.49 286.647 975.234 280.541C975.162 278.845 977.492 277.302 980.793 277.513C983.793 277.704 989.367 275.015 993.425 271.891L1000.64 265.586L1023.88 305.98C1037.78 330.552 1046.64 349.05 1045.58 352.366C1044.32 358.037 1030.69 368.331 1025 368.306C1023.2 368.191 1015.93 358.93 1008.89 347.991ZM1193.35 343.537L1168.64 318.275L1174.63 311.214C1179.19 305.753 1180.72 299.423 1180.2 286.87C1180.1 277.39 1180.08 269.946 1180.68 269.984C1181.28 270.023 1187.5 275.495 1194.67 282.382C1212.42 298.741 1225 306.312 1241.32 310.061L1254.91 312.96L1255.68 331.279C1256.33 346.885 1255.3 350.879 1248.7 357.562C1241.81 364.566 1226.23 371.352 1220.46 369.292C1219.25 368.876 1207.09 357.272 1193.35 343.537ZM1064.24 354.912C1061.7 351.366 1050.8 334.09 1040.17 316.156C1021.52 285.19 1020.86 283.794 1026.03 278.712C1028.9 275.85 1032.72 274.064 1033.93 274.48C1035.46 275.254 1048.35 289.949 1062.84 307.115C1089.92 339.297 1090.25 339.995 1079.17 354.174C1072.06 362.854 1070.86 362.778 1064.24 354.912ZM1154.7 335.315C1150.42 326.246 1147.35 317.253 1147.87 315.255C1148.63 311.92 1190.66 350.809 1190.83 354.88C1190.89 356.237 1184.58 355.834 1176.44 354.299C1163.17 351.759 1161.92 350.664 1154.7 335.315ZM1125.41 286.415C1085.39 259.835 1075.69 249.742 1075.07 234.815C1074.09 204.302 1095.69 205.682 1142.6 239.468C1163.27 254.323 1167.35 258.982 1170.17 268.974C1175.18 288.58 1170.32 308.231 1159.89 309.257C1159.59 309.237 1143.9 299.1 1125.41 286.415ZM1008.05 256.585C995.72 226.7 993.335 219.781 995.35 217.88C997.636 215.319 1011.91 234.501 1020.08 250.925C1024.99 261.051 1025.72 264.143 1022.6 268.342C1017.23 275.781 1015.37 274.309 1008.05 256.585ZM959.308 243.321C953.895 228.426 948.425 212.175 947.012 207.009C944.855 198.413 945.413 197.433 952.314 197.874C966.718 198.795 978.219 209.003 987.146 229.197C996.758 251.465 995.628 260.19 982.695 265.792C977.408 268.161 972.392 269.871 971.206 270.133C970.306 270.076 964.707 257.876 959.308 243.321ZM1137.47 224.254C1133.14 220.932 1129.11 217.629 1128.48 216.913C1126 214.724 1140.33 199.738 1144.53 200.006C1149.63 200.332 1155.7 216.622 1153.94 224.63C1151.87 232.279 1147.38 232.331 1137.47 224.254Z" fill="#99B4FF" fill-opacity="0.74"/>
<path d="M1322.17 389.645C1332.82 384.565 1338.54 371.071 1337.29 354.711C1335.26 328.086 1309.59 317.142 1293.57 336.386C1282.61 349.4 1280.69 364.516 1288.18 378.26C1296.39 393.343 1307.7 396.925 1322.17 389.645ZM1299.35 379.916C1291.57 374.428 1291.4 352.115 1299.34 343.601C1318.29 322.715 1339.3 352.984 1321.68 375.266C1314.44 384.798 1307.79 386.103 1299.35 379.916Z" fill="#99B4FF" fill-opacity="0.74"/>
<g filter="url(#filter0_f_81_3)">
<path d="M890.286 231.573L872.656 262.078L894.788 287.197L861.76 280.931L844.131 311.436L841.348 277.058L808.32 270.792L839.628 255.812L836.846 221.435L858.978 246.554L890.286 231.573Z" fill="#EDD7FF"/>
</g>
<path d="M598.511 67.2916C596.678 67.2916 594.801 67.3541 592.881 67.4791C590.961 67.604 589.188 67.6665 587.563 67.6665C582.063 67.6665 577.434 67.0626 573.676 65.8547C569.919 64.6052 566.517 62.5643 563.471 59.732C561.441 57.8161 559.654 55.3795 558.111 52.4223C556.568 49.4651 555.847 46.1539 555.949 42.4887C556.014 40.1562 556.475 37.803 557.332 35.4289C559.228 30.1809 562.716 26.0783 567.798 23.1211C572.882 20.1223 578.84 18.6228 585.673 18.6228C594.548 18.6228 602.444 20.1223 609.361 23.1211C616.278 26.12 622.048 29.8893 626.672 34.4293C627.484 35.2206 627.874 36.1786 627.843 37.3032C627.815 38.3028 627.414 39.2399 626.64 40.1146C625.908 40.9476 624.959 41.3849 623.791 41.4266C622.666 41.4266 621.697 41.0517 620.885 40.302C616.992 36.4285 612.061 33.2006 606.091 30.6182C600.12 28.0359 593.385 26.7447 585.885 26.7447C580.802 26.7447 576.38 27.6819 572.62 29.5561C568.861 31.3888 566.304 34.2002 564.949 37.9904C564.407 39.4898 564.115 40.9892 564.074 42.4887C564.007 44.9044 564.488 47.0911 565.517 49.0486C566.589 50.9646 567.815 52.5681 569.196 53.8593C571.35 55.8169 573.873 57.2538 576.764 58.1701C579.697 59.0865 583.372 59.5446 587.788 59.5446C589.33 59.5446 591.061 59.4821 592.981 59.3572C594.901 59.2322 596.757 59.1698 598.549 59.1698C606.174 59.1698 612.04 60.2527 616.146 62.4185C619.227 64.0012 622.034 66.4586 624.567 69.7907C627.141 73.1227 628.368 76.9546 628.248 81.2862C628.21 82.6607 628.005 84.0352 627.634 85.4097C625.532 93.5732 620.262 99.5709 611.822 103.403C606.505 105.818 600.888 107.026 594.972 107.026C593.597 107.026 592.203 106.964 590.79 106.839C577.2 105.548 566.015 100.945 557.235 93.0317C556.341 92.1987 555.91 91.2408 555.94 90.1578C555.97 89.0749 556.413 88.0961 557.271 87.2215C558.129 86.3468 559.12 85.9095 560.245 85.9095C561.162 85.9095 561.986 86.2427 562.717 86.9091C570.321 93.6981 580.023 97.655 591.825 98.7795C592.907 98.8628 593.968 98.9045 595.01 98.9045C599.843 98.9045 604.559 97.8632 609.159 95.7807C614.771 93.24 618.276 89.2832 619.675 83.9102C619.908 83.0356 620.036 82.1817 620.059 81.3487C620.135 78.5998 619.326 76.2049 617.633 74.164C615.94 72.1231 614.066 70.582 612.011 69.5408C609.178 68.0413 604.678 67.2916 598.511 67.2916ZM696.428 63.5431C696.54 64.0012 696.589 64.4802 696.575 64.98C696.549 65.938 696.331 67.0417 695.921 68.2912C695.113 74.872 694.638 80.7448 694.495 85.9095C694.295 93.115 694.737 98.967 695.821 103.465C695.934 103.882 695.986 104.277 695.975 104.652C695.943 105.818 695.459 106.735 694.524 107.401C693.629 108.109 692.661 108.463 691.619 108.463C690.828 108.463 690.084 108.234 689.389 107.776C688.693 107.318 688.214 106.568 687.951 105.527C686.792 100.737 686.273 94.6561 686.394 87.2839C682.259 93.6565 677.87 98.6754 673.227 102.341C670.416 104.548 667.548 105.798 664.623 106.089C662.859 106.589 661.144 106.839 659.477 106.839C657.102 106.839 654.947 106.402 653.013 105.527C651.079 104.652 649.422 103.549 648.043 102.216C645.567 99.8416 643.673 96.7803 642.36 93.0317C641.09 89.2415 640.524 84.8682 640.661 79.9118C640.838 73.5392 642.486 67.4582 645.605 61.6688C650.173 53.1721 656.914 47.5076 665.826 44.6753C669.232 43.5508 672.498 42.9885 675.623 42.9885C679.539 42.9885 683.201 43.9048 686.609 45.7374C692.562 48.9445 695.834 54.8797 696.428 63.5431ZM688.287 64.1054C688.023 60.1069 686.798 56.9414 684.613 54.609C682.469 52.2766 679.481 51.1103 675.647 51.1103C673.356 51.1103 670.844 51.5477 668.111 52.4223C661.344 54.5465 656.334 58.6491 653.082 64.7301C650.357 69.8531 648.924 74.9553 648.783 80.0367C648.683 83.6187 649.074 86.8258 649.953 89.658C650.833 92.4903 652.003 94.6145 653.464 96.0306C655.291 97.7799 657.391 98.6546 659.766 98.6546C660.558 98.6546 661.31 98.5713 662.023 98.4047C662.779 98.1964 663.617 98.0506 664.536 97.9673C665.246 97.884 666.666 97.0302 668.794 95.4058C670.924 93.7398 673.197 91.3865 675.615 88.346C678.074 85.3055 680.398 81.8902 682.586 78.1C684.775 74.3098 686.568 70.4987 687.966 66.6669C688.019 66.2504 688.072 65.8339 688.126 65.4173C688.18 64.9592 688.234 64.5219 688.287 64.1054ZM709.679 61.2315C709.787 57.3579 710.897 54.1092 713.012 51.4852C715.127 48.8196 717.829 46.8203 721.116 45.4875C724.403 44.1547 727.879 43.4883 731.546 43.4883C743.463 43.4883 753.295 47.2785 761.043 54.8589C761.855 55.6503 762.245 56.5874 762.215 57.6703C762.187 58.7116 761.786 59.6487 761.012 60.4817C760.281 61.3148 759.331 61.7521 758.164 61.7937C756.997 61.7937 756.048 61.4397 755.318 60.7317C753.007 58.4409 749.856 56.3583 745.866 54.4841C741.919 52.5681 737.863 51.6102 733.696 51.6102C725.113 51.6102 719.985 53.9426 718.314 58.6075C717.953 59.6071 717.76 60.565 717.735 61.4814C717.665 63.9804 718.768 66.292 721.042 68.4162C723.56 70.7903 727.86 71.9773 733.944 71.9773C734.944 71.9773 736.007 71.9357 737.135 71.8524C738.262 71.7691 739.388 71.7274 740.513 71.7274C745.888 71.7274 750.22 72.5396 753.508 74.164C756.797 75.7467 759.269 78.2874 760.922 81.7861C761.982 84.1185 762.482 86.3885 762.42 88.5959C762.393 89.5956 762.261 90.5952 762.025 91.5948C760.481 97.6758 756.587 102.112 750.343 104.902C746.419 106.693 742.29 107.589 737.956 107.589C737.081 107.589 736.187 107.547 735.272 107.464C725.423 106.547 717.307 103.215 710.924 97.4675C710.03 96.6762 709.6 95.6557 709.634 94.4062C709.665 93.2816 710.087 92.3445 710.9 91.5948C711.755 90.8034 712.724 90.4077 713.808 90.4077C714.849 90.4077 715.736 90.7201 716.469 91.3449C719.315 93.8856 722.51 95.864 726.055 97.2801C729.599 98.6962 733.683 99.4043 738.308 99.4043C744.1 99.4043 748.563 97.7383 751.697 94.4062C753.414 92.5736 754.3 90.6993 754.353 88.7834C754.384 87.6588 754.124 86.5134 753.573 85.3472C751.883 81.6819 748.142 79.8493 742.35 79.8493C741.1 79.8493 739.808 79.891 738.472 79.9743C737.137 80.0159 735.929 80.0367 734.845 80.0367C729.887 80.0367 726.229 79.7243 723.871 79.0996C720.604 78.2249 717.732 76.6214 715.255 74.2889C712.778 71.9565 711.105 69.1659 710.237 65.9172C709.821 64.3761 709.635 62.8142 709.679 61.2315ZM775.039 91.095L776.829 19.7474C776.865 18.4562 777.309 17.4774 778.161 16.811C779.054 16.1446 780.001 15.8114 781.001 15.8114C782.043 15.8114 782.971 16.1446 783.786 16.811C784.601 17.4774 784.99 18.4562 784.954 19.7474L783.984 56.9831C788.963 48.7363 795.09 44.1755 802.364 43.3009C803.326 43.1759 804.265 43.1134 805.182 43.1134C811.015 43.1134 816.371 45.3001 821.25 49.6734C824.869 52.8805 827.713 57.0039 829.782 62.0436C831.893 67.0417 832.855 72.9145 832.668 79.6619C832.437 87.992 830.011 96.5929 825.39 105.464C824.642 106.881 823.415 107.589 821.706 107.589C820.54 107.589 819.451 107.026 818.44 105.902C817.473 104.736 817.406 103.382 818.241 101.841C822.244 94.2188 824.344 86.8258 824.543 79.6619C824.691 74.3306 823.946 69.6449 822.308 65.6048C820.713 61.523 818.533 58.2534 815.767 55.796C812.393 52.7556 808.769 51.2353 804.894 51.2353C801.394 51.2353 798.382 52.4223 795.858 54.7964C793.335 57.1289 791.233 60.0444 789.553 63.5431C787.915 67.0001 786.653 70.4363 785.767 73.8516C784.463 78.808 783.593 84.6183 783.158 91.2824L782.819 103.528C782.783 104.819 782.318 105.798 781.425 106.464C780.573 107.13 779.626 107.464 778.585 107.464C777.585 107.464 776.677 107.151 775.861 106.527C775.086 105.902 774.696 104.965 774.689 103.715C774.657 101.841 774.67 99.8833 774.726 97.8424C774.759 96.6762 774.791 95.5308 774.822 94.4062C774.895 93.2816 774.967 92.1779 775.039 91.095ZM900.928 63.5431C901.04 64.0012 901.089 64.4802 901.075 64.98C901.049 65.938 900.831 67.0417 900.421 68.2912C899.613 74.872 899.138 80.7448 898.995 85.9095C898.795 93.115 899.237 98.967 900.321 103.465C900.434 103.882 900.485 104.277 900.475 104.652C900.443 105.818 899.959 106.735 899.024 107.401C898.129 108.109 897.161 108.463 896.119 108.463C895.328 108.463 894.584 108.234 893.888 107.776C893.193 107.318 892.714 106.568 892.451 105.527C891.292 100.737 890.773 94.6561 890.894 87.2839C886.759 93.6565 882.37 98.6754 877.727 102.341C874.915 104.548 872.048 105.798 869.123 106.089C867.359 106.589 865.644 106.839 863.977 106.839C861.602 106.839 859.447 106.402 857.513 105.527C855.579 104.652 853.922 103.549 852.543 102.216C850.067 99.8416 848.173 96.7803 846.86 93.0317C845.59 89.2415 845.024 84.8682 845.161 79.9118C845.338 73.5392 846.986 67.4582 850.105 61.6688C854.673 53.1721 861.414 47.5076 870.326 44.6753C873.732 43.5508 876.998 42.9885 880.123 42.9885C884.039 42.9885 887.701 43.9048 891.109 45.7374C897.062 48.9445 900.334 54.8797 900.928 63.5431ZM892.787 64.1054C892.523 60.1069 891.298 56.9414 889.113 54.609C886.969 52.2766 883.981 51.1103 880.147 51.1103C877.856 51.1103 875.343 51.5477 872.611 52.4223C865.844 54.5465 860.834 58.6491 857.582 64.7301C854.857 69.8531 853.424 74.9553 853.283 80.0367C853.183 83.6187 853.574 86.8258 854.453 89.658C855.333 92.4903 856.503 94.6145 857.964 96.0306C859.791 97.7799 861.891 98.6546 864.266 98.6546C865.058 98.6546 865.81 98.5713 866.523 98.4047C867.279 98.1964 868.117 98.0506 869.035 97.9673C869.746 97.884 871.166 97.0302 873.294 95.4058C875.424 93.7398 877.697 91.3865 880.115 88.346C882.574 85.3055 884.898 81.8902 887.086 78.1C889.275 74.3098 891.068 70.4987 892.466 66.6669C892.519 66.2504 892.572 65.8339 892.626 65.4173C892.68 64.9592 892.734 64.5219 892.787 64.1054Z" fill="#5BB9B8"/>
<path d="M983.291 100.029C989.082 100.029 993.927 98.8628 997.825 96.5304C1001.72 94.1563 1004.86 90.8867 1007.22 86.7217C1009.63 82.5149 1011.39 77.6626 1012.5 72.1648C1013.61 66.6669 1014.25 60.7733 1014.43 54.4841C1014.69 44.9044 1013.86 33.5962 1011.93 20.5596C1011.9 20.3097 1011.88 20.0598 1011.89 19.8099C1011.92 18.5604 1012.39 17.6024 1013.28 16.936C1014.22 16.2279 1015.21 15.8739 1016.25 15.8739C1017.12 15.8739 1017.91 16.1446 1018.6 16.6861C1019.34 17.1859 1019.79 17.9981 1019.97 19.1226C1021.93 32.5758 1022.77 44.5295 1022.48 54.9839C1021.87 77.0587 1016.19 92.4278 1005.45 101.091C1002.64 103.382 999.295 105.152 995.427 106.402C991.559 107.651 987.479 108.276 983.187 108.276C975.854 108.276 970.08 106.881 965.866 104.09C961.651 101.299 958.467 97.4467 956.311 92.5319C954.199 87.5755 952.605 81.9318 951.531 75.6009C949.961 66.1046 949.416 52.6931 949.896 35.3664C950.025 30.7432 950.222 25.8701 950.489 20.747C950.561 19.6641 951.024 18.7478 951.878 17.9981C952.775 17.2067 953.744 16.811 954.786 16.811C955.828 16.811 956.733 17.2275 957.501 18.0606C958.27 18.8936 958.638 19.8724 958.607 20.9969C958.332 26.4115 958.129 31.4929 957.997 36.2411C957.54 52.7347 958.045 65.3132 959.513 73.9766C961.449 85.3055 964.415 92.5319 968.412 95.6557C972.165 98.5713 977.124 100.029 983.291 100.029ZM1040.25 15.9988C1041.25 15.9988 1042.13 16.4154 1042.9 17.2484C1043.71 18.0814 1044.1 19.0185 1044.07 20.0598L1042.54 104.59C1042.5 105.923 1042.04 106.922 1041.14 107.589C1040.29 108.255 1039.35 108.588 1038.3 108.588C1037.3 108.588 1036.4 108.255 1035.58 107.589C1034.77 106.964 1034.38 106.006 1034.41 104.715L1035.94 20.1223C1035.97 19.0393 1036.42 18.0814 1037.27 17.2484C1038.17 16.4154 1039.16 15.9988 1040.25 15.9988ZM1058.73 118.022C1057.6 118.022 1056.64 117.626 1055.82 116.835C1055.06 116.044 1054.69 115.086 1054.72 113.961C1054.73 113.378 1054.9 112.795 1055.2 112.212L1101.97 21.5592C1102.76 20.0598 1103.97 19.3101 1105.59 19.3101C1106.67 19.3101 1107.64 19.6641 1108.5 20.3722C1109.35 21.0802 1109.77 21.9965 1109.74 23.1211C1109.72 23.7459 1109.56 24.3706 1109.25 24.9954L1062.42 115.711C1062.11 116.335 1061.62 116.877 1060.94 117.335C1060.3 117.793 1059.56 118.022 1058.73 118.022ZM1155.29 100.029C1161.08 100.029 1165.93 98.8628 1169.83 96.5304C1173.72 94.1563 1176.86 90.8867 1179.22 86.7217C1181.63 82.5149 1183.39 77.6626 1184.5 72.1648C1185.61 66.6669 1186.25 60.7733 1186.43 54.4841C1186.69 44.9044 1185.86 33.5962 1183.93 20.5596C1183.9 20.3097 1183.88 20.0598 1183.89 19.8099C1183.92 18.5604 1184.39 17.6024 1185.28 16.936C1186.22 16.2279 1187.21 15.8739 1188.25 15.8739C1189.12 15.8739 1189.91 16.1446 1190.6 16.6861C1191.34 17.1859 1191.79 17.9981 1191.97 19.1226C1193.93 32.5758 1194.77 44.5295 1194.48 54.9839C1193.87 77.0587 1188.19 92.4278 1177.45 101.091C1174.64 103.382 1171.29 105.152 1167.43 106.402C1163.56 107.651 1159.48 108.276 1155.19 108.276C1147.85 108.276 1142.08 106.881 1137.87 104.09C1133.65 101.299 1130.47 97.4467 1128.31 92.5319C1126.2 87.5755 1124.61 81.9318 1123.53 75.6009C1121.96 66.1046 1121.42 52.6931 1121.9 35.3664C1122.02 30.7432 1122.22 25.8701 1122.49 20.747C1122.56 19.6641 1123.02 18.7478 1123.88 17.9981C1124.77 17.2067 1125.74 16.811 1126.79 16.811C1127.83 16.811 1128.73 17.2275 1129.5 18.0606C1130.27 18.8936 1130.64 19.8724 1130.61 20.9969C1130.33 26.4115 1130.13 31.4929 1130 36.2411C1129.54 52.7347 1130.05 65.3132 1131.51 73.9766C1133.45 85.3055 1136.42 92.5319 1140.41 95.6557C1144.16 98.5713 1149.12 100.029 1155.29 100.029ZM1281.19 101.404C1281.75 102.153 1282.02 102.965 1282 103.84C1281.97 104.923 1281.48 105.881 1280.54 106.714C1279.64 107.547 1278.65 107.963 1277.57 107.963C1276.36 107.963 1275.38 107.443 1274.61 106.402C1269.75 99.8208 1264.87 93.24 1259.97 86.6592C1255.11 80.0784 1250.23 73.5184 1245.33 66.9792L1212.77 107.651C1211.95 108.692 1210.93 109.213 1209.72 109.213C1208.64 109.213 1207.65 108.797 1206.76 107.963C1205.91 107.13 1205.5 106.152 1205.53 105.027C1205.55 104.194 1205.86 103.403 1206.47 102.653L1240.33 60.3568C1235.59 53.9842 1230.85 47.6117 1226.11 41.2391C1221.41 34.8249 1216.67 28.4316 1211.89 22.059C1211.33 21.3093 1211.06 20.4971 1211.08 19.6225C1211.11 18.5395 1211.58 17.6024 1212.47 16.811C1213.41 15.978 1214.42 15.5615 1215.51 15.5615C1216.72 15.5615 1217.7 16.0821 1218.46 17.1234C1223 23.2044 1227.54 29.3062 1232.08 35.4289C1236.62 41.5099 1241.16 47.5909 1245.7 53.6719L1273.93 18.3729C1274.75 17.3317 1275.77 16.811 1276.97 16.811C1278.06 16.811 1279.02 17.2275 1279.88 18.0606C1280.77 18.8519 1281.2 19.8099 1281.17 20.9344C1281.15 21.7675 1280.83 22.5588 1280.23 23.3085L1250.64 60.3568L1281.19 101.404Z" fill="#C493EA"/>
</g>
<defs>
<filter id="filter0_f_81_3" x="778.32" y="191.435" width="146.469" height="150.001" filterUnits="userSpaceOnUse" color-interpolation-filters="sRGB">
<feFlood flood-opacity="0" result="BackgroundImageFix"/>
<feBlend mode="normal" in="SourceGraphic" in2="BackgroundImageFix" result="shape"/>
<feGaussianBlur stdDeviation="15" result="effect1_foregroundBlur_81_3"/>
</filter>
<clipPath id="clip0_81_3">
<rect width="1728" height="596" fill="white"/>
</clipPath>
</defs>
</svg>
