<svg width="1081" height="959" viewBox="0 0 1081 959" fill="none" xmlns="http://www.w3.org/2000/svg">
<g filter="url(#filter0_f_59_73)">
<circle cx="541" cy="479" r="350" fill="#BC4EFF"/>
</g>
<g filter="url(#filter1_f_59_73)">
<circle cx="551" cy="479" r="285" stroke="#E4AFD9" stroke-width="60"/>
</g>
<circle cx="541" cy="479" r="250" fill="#373737"/>
<path d="M463.822 367.861C463.822 368.727 463.868 369.958 463.959 371.553C464.096 373.148 464.232 374.902 464.369 376.816C464.551 378.685 464.734 380.622 464.916 382.627C465.098 384.587 465.258 386.387 465.395 388.027C465.577 389.622 465.714 390.967 465.805 392.061C465.941 393.109 466.01 393.656 466.01 393.701C466.01 394.202 465.85 394.635 465.531 395C465.212 395.365 464.734 395.57 464.096 395.615C463.594 395.615 463.161 395.456 462.797 395.137C462.478 394.818 462.273 394.408 462.182 393.906C462.182 393.77 462.113 393.154 461.977 392.061C461.885 390.967 461.749 389.622 461.566 388.027C461.43 386.387 461.27 384.587 461.088 382.627C460.906 380.667 460.723 378.753 460.541 376.885C460.404 374.971 460.268 373.216 460.131 371.621C460.04 370.026 459.994 368.773 459.994 367.861C459.994 366.904 459.971 365.742 459.926 364.375C459.88 363.008 459.789 361.549 459.652 360C459.561 358.451 459.447 356.878 459.311 355.283C459.174 353.688 459.037 352.184 458.9 350.771C457.807 352.64 456.599 354.531 455.277 356.445C453.956 358.314 452.771 360 451.723 361.504C451.267 362.142 450.652 363.099 449.877 364.375C449.102 365.651 448.259 367.064 447.348 368.613C446.482 370.163 445.593 371.758 444.682 373.398C443.816 374.993 442.995 376.452 442.221 377.773C441.492 379.095 440.876 380.189 440.375 381.055C439.919 381.921 439.691 382.376 439.691 382.422C439.327 383.06 438.78 383.379 438.051 383.379C437.732 383.379 437.413 383.311 437.094 383.174C436.456 382.809 436.137 382.24 436.137 381.465C436.137 381.146 436.205 380.85 436.342 380.576L437.367 378.252C437.276 378.161 436.911 377.728 436.273 376.953C435.635 376.133 434.838 375.13 433.881 373.945C432.924 372.715 431.853 371.37 430.668 369.912C429.529 368.454 428.412 367.018 427.318 365.605C426.27 364.193 425.29 362.894 424.379 361.709C423.513 360.479 422.852 359.499 422.396 358.77C421.622 357.493 420.733 356.081 419.73 354.531C418.773 352.982 417.771 351.478 416.723 350.02C416.905 351.523 417.064 353.141 417.201 354.873C417.338 356.559 417.452 358.223 417.543 359.863C417.634 361.458 417.702 362.962 417.748 364.375C417.839 365.742 417.885 366.904 417.885 367.861C417.885 368.727 417.93 369.958 418.021 371.553C418.158 373.148 418.295 374.902 418.432 376.816C418.614 378.685 418.796 380.622 418.979 382.627C419.161 384.587 419.343 386.387 419.525 388.027C419.708 389.622 419.844 390.967 419.936 392.061C420.072 393.109 420.141 393.656 420.141 393.701C420.141 394.202 419.958 394.635 419.594 395C419.275 395.365 418.819 395.57 418.227 395.615C417.725 395.615 417.292 395.456 416.928 395.137C416.609 394.818 416.404 394.408 416.312 393.906C416.312 393.77 416.244 393.154 416.107 392.061C416.016 390.967 415.88 389.622 415.697 388.027C415.515 386.387 415.333 384.587 415.15 382.627C414.968 380.667 414.786 378.753 414.604 376.885C414.467 374.971 414.33 373.216 414.193 371.621C414.102 370.026 414.057 368.773 414.057 367.861C414.057 366.494 413.988 364.74 413.852 362.598C413.76 360.456 413.624 358.268 413.441 356.035C413.259 353.757 413.054 351.592 412.826 349.541C412.598 347.49 412.37 345.85 412.143 344.619C412.143 344.528 412.143 344.437 412.143 344.346C412.188 344.209 412.188 343.981 412.143 343.662C412.143 343.115 412.325 342.66 412.689 342.295C413.145 341.93 413.601 341.748 414.057 341.748C414.604 341.748 415.059 341.93 415.424 342.295C416.29 343.161 417.178 344.209 418.09 345.439C419.001 346.624 419.89 347.878 420.756 349.199C421.667 350.475 422.533 351.774 423.354 353.096C424.219 354.417 424.994 355.625 425.678 356.719C426.225 357.585 427.113 358.861 428.344 360.547C429.574 362.188 430.896 363.919 432.309 365.742C433.721 367.565 435.089 369.32 436.41 371.006C437.777 372.646 438.803 373.9 439.486 374.766C440.215 373.398 441.013 371.963 441.879 370.459C442.79 368.91 443.656 367.428 444.477 366.016C445.297 364.557 446.072 363.236 446.801 362.051C447.53 360.82 448.122 359.886 448.578 359.248C449.307 358.245 450.105 357.129 450.971 355.898C451.837 354.668 452.68 353.438 453.5 352.207C454.32 350.931 455.095 349.678 455.824 348.447C456.553 347.217 457.123 346.077 457.533 345.029C457.624 344.801 457.807 344.551 458.08 344.277C458.217 343.411 458.855 342.887 459.994 342.705C460.997 342.705 461.612 343.206 461.84 344.209C462.113 345.485 462.364 347.194 462.592 349.336C462.82 351.432 463.025 353.643 463.207 355.967C463.389 358.291 463.526 360.547 463.617 362.734C463.754 364.876 463.822 366.585 463.822 367.861ZM487.748 392.402C488.705 392.402 489.753 391.969 490.893 391.104C492.032 390.192 493.126 388.984 494.174 387.48C495.268 385.977 496.247 384.222 497.113 382.217C497.979 380.166 498.617 378.001 499.027 375.723C498.708 373.535 498.458 371.234 498.275 368.818C498.093 366.403 497.979 363.828 497.934 361.094C497.432 360.684 497.182 360.182 497.182 359.59C496.863 359.453 496.521 359.339 496.156 359.248C495.837 359.157 495.473 359.111 495.062 359.111C494.47 359.111 493.627 359.248 492.533 359.521C491.439 359.749 490.255 360.16 488.979 360.752C487.702 361.299 486.404 362.028 485.082 362.939C483.806 363.851 482.621 364.967 481.527 366.289C480.479 367.611 479.613 369.137 478.93 370.869C478.246 372.601 477.904 374.561 477.904 376.748C477.904 380.212 478.178 382.969 478.725 385.02C479.317 387.07 480.069 388.643 480.98 389.736C481.938 390.83 482.986 391.559 484.125 391.924C485.31 392.243 486.518 392.402 487.748 392.402ZM502.924 375.723C503.334 378.548 503.812 381.077 504.359 383.311C504.906 385.544 505.408 387.435 505.863 388.984C506.365 390.534 506.775 391.742 507.094 392.607C507.458 393.428 507.641 393.861 507.641 393.906C507.686 394.043 507.709 394.18 507.709 394.316C507.755 394.408 507.777 394.521 507.777 394.658C507.777 395.479 507.413 396.071 506.684 396.436C506.319 396.527 506.046 396.572 505.863 396.572C504.997 396.572 504.428 396.208 504.154 395.479C504.063 395.296 503.63 394.225 502.855 392.266C502.126 390.26 501.352 387.48 500.531 383.926C499.802 385.703 498.936 387.344 497.934 388.848C496.977 390.352 495.928 391.65 494.789 392.744C493.695 393.838 492.533 394.681 491.303 395.273C490.118 395.911 488.933 396.23 487.748 396.23C483.1 396.23 479.659 394.635 477.426 391.445C475.193 388.255 474.076 383.356 474.076 376.748C474.076 374.014 474.486 371.598 475.307 369.502C476.127 367.36 477.175 365.492 478.451 363.896C479.773 362.301 481.231 360.957 482.826 359.863C484.467 358.77 486.062 357.881 487.611 357.197C489.161 356.514 490.596 356.035 491.918 355.762C493.24 355.443 494.288 355.283 495.062 355.283C496.43 355.283 497.615 355.557 498.617 356.104C499.62 356.605 500.44 357.197 501.078 357.881C501.762 358.519 502.263 359.134 502.582 359.727C502.901 360.273 503.061 360.57 503.061 360.615C503.197 360.843 503.266 361.094 503.266 361.367C503.266 361.823 503.061 362.301 502.65 362.803C503.061 364.945 503.266 367.77 503.266 371.279C503.266 372.008 503.22 372.738 503.129 373.467C503.083 374.196 503.015 374.948 502.924 375.723ZM535.941 359.316C536.352 359.408 536.693 359.658 536.967 360.068C537.24 360.479 537.354 361.003 537.309 361.641C537.081 362.598 536.306 363.076 534.984 363.076C534.984 363.031 534.141 362.871 532.455 362.598C530.769 362.324 528.513 362.165 525.688 362.119C525.824 364.717 525.893 366.859 525.893 368.545C525.893 369.411 525.938 370.641 526.029 372.236C526.166 373.831 526.303 375.586 526.439 377.5C526.622 379.368 526.804 381.305 526.986 383.311C527.169 385.27 527.351 387.07 527.533 388.711C527.715 390.306 527.852 391.65 527.943 392.744C528.08 393.792 528.148 394.339 528.148 394.385C528.148 394.886 527.966 395.296 527.602 395.615C527.283 395.98 526.827 396.208 526.234 396.299C525.733 396.299 525.3 396.139 524.936 395.82C524.571 395.501 524.366 395.091 524.32 394.59C524.32 394.453 524.252 393.838 524.115 392.744C523.979 391.65 523.819 390.306 523.637 388.711C523.5 387.07 523.34 385.27 523.158 383.311C522.976 381.351 522.794 379.437 522.611 377.568C522.475 375.654 522.338 373.9 522.201 372.305C522.11 370.71 522.064 369.456 522.064 368.545C522.064 366.813 521.996 364.717 521.859 362.256C520.674 362.347 519.512 362.461 518.373 362.598C517.234 362.734 516.208 362.871 515.297 363.008C514.431 363.099 513.702 363.19 513.109 363.281C512.562 363.372 512.243 363.418 512.152 363.418C511.697 363.418 511.286 363.258 510.922 362.939C510.557 362.62 510.329 362.142 510.238 361.504C510.238 361.048 510.375 360.661 510.648 360.342C510.967 359.977 511.378 359.749 511.879 359.658C511.924 359.658 512.221 359.613 512.768 359.521C513.36 359.385 514.089 359.271 514.955 359.18C515.867 359.043 516.892 358.929 518.031 358.838C519.171 358.701 520.355 358.587 521.586 358.496C521.495 357.22 521.381 355.967 521.244 354.736C521.153 353.46 521.039 352.253 520.902 351.113C520.811 349.928 520.697 348.835 520.561 347.832C520.424 346.829 520.287 345.964 520.15 345.234C520.15 344.779 520.31 344.368 520.629 344.004C520.948 343.639 521.426 343.411 522.064 343.32C522.52 343.32 522.908 343.457 523.227 343.73C523.591 344.004 523.819 344.391 523.91 344.893C524.229 346.305 524.525 348.242 524.799 350.703C525.072 353.164 525.323 355.693 525.551 358.291C527.1 358.291 528.49 358.337 529.721 358.428C530.997 358.519 532.068 358.633 532.934 358.77C533.845 358.906 534.551 359.043 535.053 359.18C535.6 359.271 535.896 359.316 535.941 359.316ZM560.414 391.172C560.733 390.99 561.098 390.898 561.508 390.898C562.191 390.898 562.715 391.172 563.08 391.719C563.308 392.083 563.422 392.448 563.422 392.812C563.422 393.405 563.126 393.929 562.533 394.385L562.055 394.727C561.69 394.954 561.212 395.182 560.619 395.41C560.027 395.638 559.343 395.843 558.568 396.025C557.839 396.253 557.042 396.367 556.176 396.367C555.082 396.367 553.76 396.025 552.211 395.342C550.661 394.704 549.135 393.61 547.631 392.061C546.173 390.465 544.874 388.392 543.734 385.84C542.595 383.242 541.889 380.052 541.615 376.27C541.57 375.996 541.547 375.745 541.547 375.518C541.547 375.244 541.547 374.971 541.547 374.697C541.547 371.735 542.071 369.069 543.119 366.699C544.213 364.329 545.512 362.324 547.016 360.684C548.52 358.997 550.069 357.699 551.664 356.787C553.305 355.83 554.695 355.306 555.834 355.215C556.062 355.169 556.29 355.146 556.518 355.146C556.791 355.146 557.042 355.146 557.27 355.146C558.591 355.146 559.73 355.283 560.688 355.557C561.69 355.785 562.374 355.99 562.738 356.172C563.24 356.263 563.764 356.628 564.311 357.266C564.857 357.858 565.131 359.02 565.131 360.752C565.131 361.299 564.926 361.755 564.516 362.119C564.151 362.484 563.718 362.666 563.217 362.666C562.67 362.666 562.214 362.484 561.85 362.119C561.485 361.755 561.303 361.299 561.303 360.752C561.303 360.387 561.257 360.023 561.166 359.658C560.893 359.567 560.414 359.43 559.73 359.248C559.047 359.066 558.227 358.975 557.27 358.975C557.087 358.975 556.905 358.975 556.723 358.975C556.586 358.975 556.404 358.997 556.176 359.043C555.447 359.134 554.467 359.544 553.236 360.273C552.051 361.003 550.867 362.051 549.682 363.418C548.542 364.74 547.54 366.357 546.674 368.271C545.808 370.186 545.375 372.35 545.375 374.766C545.375 374.993 545.375 375.199 545.375 375.381C545.375 375.563 545.398 375.768 545.443 375.996C545.626 379.095 546.15 381.693 547.016 383.789C547.882 385.885 548.861 387.594 549.955 388.916C551.094 390.192 552.211 391.126 553.305 391.719C554.444 392.266 555.401 392.539 556.176 392.539C556.723 392.539 557.247 392.471 557.748 392.334C558.249 392.197 558.705 392.061 559.115 391.924C559.525 391.742 559.844 391.559 560.072 391.377L560.414 391.172ZM602.455 387.549C602.455 388.141 602.523 388.779 602.66 389.463C602.842 390.101 603.025 390.716 603.207 391.309C603.435 391.855 603.663 392.38 603.891 392.881C604.118 393.337 604.301 393.678 604.438 393.906C604.529 394.089 604.597 394.248 604.643 394.385C604.688 394.521 604.711 394.681 604.711 394.863C604.711 395.592 604.369 396.139 603.686 396.504C603.458 396.686 603.161 396.777 602.797 396.777C602.022 396.777 601.452 396.458 601.088 395.82C601.088 395.775 600.951 395.501 600.678 395C600.404 394.499 600.108 393.861 599.789 393.086C599.516 392.266 599.242 391.377 598.969 390.42C598.741 389.463 598.627 388.506 598.627 387.549C598.627 387.321 598.604 387.07 598.559 386.797C598.559 386.523 598.536 386.204 598.49 385.84C598.445 385.247 598.399 384.587 598.354 383.857C598.308 383.128 598.285 382.262 598.285 381.26C598.285 380.622 598.24 379.938 598.148 379.209C598.057 378.48 597.966 377.705 597.875 376.885C597.738 375.791 597.602 374.629 597.465 373.398C597.374 372.168 597.328 370.846 597.328 369.434C597.328 368.568 597.146 367.633 596.781 366.631C596.417 365.628 595.87 364.717 595.141 363.896C594.411 363.031 593.523 362.324 592.475 361.777C591.426 361.185 590.219 360.889 588.852 360.889C587.12 360.889 585.57 361.208 584.203 361.846C582.882 362.438 581.719 363.213 580.717 364.17C579.714 365.081 578.871 366.107 578.188 367.246C577.504 368.34 576.957 369.365 576.547 370.322C576.775 372.829 577.071 375.495 577.436 378.32C577.8 381.146 578.165 383.789 578.529 386.25C578.939 388.665 579.281 390.693 579.555 392.334C579.828 393.975 579.965 394.863 579.965 395C579.965 395.456 579.805 395.866 579.486 396.23C579.167 396.595 578.689 396.823 578.051 396.914C577.549 396.914 577.117 396.755 576.752 396.436C576.433 396.162 576.228 395.798 576.137 395.342C576.137 395.205 576.023 394.521 575.795 393.291C575.613 392.061 575.362 390.511 575.043 388.643C574.77 386.774 574.451 384.701 574.086 382.422C573.721 380.098 573.38 377.773 573.061 375.449C572.058 375.221 571.579 374.469 571.625 373.193C571.807 372.191 572.149 371.029 572.65 369.707C572.559 368.704 572.491 367.77 572.445 366.904C572.4 365.993 572.377 365.15 572.377 364.375C572.377 362.188 572.309 359.863 572.172 357.402C572.035 354.941 571.876 352.663 571.693 350.566C571.557 348.424 571.397 346.647 571.215 345.234C571.078 343.822 571.01 343.07 571.01 342.979C571.01 342.477 571.169 342.067 571.488 341.748C571.853 341.383 572.331 341.156 572.924 341.064C573.425 341.064 573.858 341.224 574.223 341.543C574.587 341.862 574.792 342.272 574.838 342.773C574.838 342.91 574.906 343.662 575.043 345.029C575.18 346.351 575.339 348.014 575.521 350.02C575.704 352.025 575.863 354.235 576 356.65C576.137 359.02 576.205 361.299 576.205 363.486C577.618 361.709 579.35 360.205 581.4 358.975C583.497 357.699 585.98 357.061 588.852 357.061C590.674 357.061 592.338 357.425 593.842 358.154C595.391 358.883 596.69 359.84 597.738 361.025C598.832 362.165 599.675 363.486 600.268 364.99C600.86 366.449 601.156 367.93 601.156 369.434C601.156 370.755 601.202 371.986 601.293 373.125C601.43 374.264 601.566 375.358 601.703 376.406C601.794 377.272 601.885 378.115 601.977 378.936C602.068 379.71 602.113 380.485 602.113 381.26C602.113 383.037 602.182 384.427 602.318 385.43C602.364 385.84 602.387 386.204 602.387 386.523C602.432 386.842 602.455 387.184 602.455 387.549ZM630.688 370.938C631.462 371.165 631.827 371.917 631.781 373.193C631.645 374.196 631.075 374.697 630.072 374.697C629.343 374.561 628.546 374.401 627.68 374.219C626.905 374.128 625.993 374.036 624.945 373.945C623.897 373.809 622.712 373.74 621.391 373.74C620.069 373.74 618.702 373.809 617.289 373.945C615.876 374.082 614.577 374.242 613.393 374.424C612.253 374.561 611.273 374.697 610.453 374.834C609.678 374.971 609.268 375.039 609.223 375.039C608.858 375.039 608.539 374.88 608.266 374.561C608.038 374.242 607.878 373.763 607.787 373.125C607.787 372.624 607.901 372.214 608.129 371.895C608.357 371.53 608.653 371.302 609.018 371.211C609.109 371.211 609.542 371.143 610.316 371.006C611.091 370.869 612.071 370.732 613.256 370.596C614.441 370.413 615.74 370.254 617.152 370.117C618.611 369.98 620.023 369.912 621.391 369.912C624.216 369.912 626.449 370.072 628.09 370.391C629.73 370.71 630.596 370.892 630.688 370.938ZM654.682 361.162C656.14 361.39 657.462 361.755 658.646 362.256C659.877 362.712 660.993 363.258 661.996 363.896C662.999 364.489 663.887 365.127 664.662 365.811C665.482 366.494 666.189 367.178 666.781 367.861C668.604 369.867 669.903 371.94 670.678 374.082C671.498 376.224 671.908 378.024 671.908 379.482V380.303L671.771 381.328C671.635 382.513 671.452 383.789 671.225 385.156C670.997 386.478 670.495 387.777 669.721 389.053C668.946 390.329 667.807 391.536 666.303 392.676C664.844 393.77 662.816 394.681 660.219 395.41C658.897 395.775 657.689 396.025 656.596 396.162C655.548 396.344 654.568 396.436 653.656 396.436C652.243 396.436 650.831 396.276 649.418 395.957C648.051 395.638 646.41 395.228 644.496 394.727C642.719 394.271 641.192 393.542 639.916 392.539C638.686 391.536 637.683 390.511 636.908 389.463C636.133 388.415 635.564 387.458 635.199 386.592C634.835 385.68 634.63 385.111 634.584 384.883C634.584 384.473 634.721 384.108 634.994 383.789C635.268 383.47 635.769 383.197 636.498 382.969C636.908 382.969 637.273 383.083 637.592 383.311C637.956 383.538 638.207 383.857 638.344 384.268C638.754 385.316 639.301 386.273 639.984 387.139C640.577 387.913 641.329 388.688 642.24 389.463C643.197 390.192 644.337 390.739 645.658 391.104C647.436 391.605 648.917 391.992 650.102 392.266C651.286 392.493 652.471 392.607 653.656 392.607C655.16 392.607 657.006 392.311 659.193 391.719C661.153 391.172 662.68 390.511 663.773 389.736C664.913 388.962 665.756 388.118 666.303 387.207C666.895 386.25 667.283 385.247 667.465 384.199C667.647 383.105 667.807 382.012 667.943 380.918L668.08 379.482C668.08 378.48 667.761 377.135 667.123 375.449C666.485 373.763 665.414 372.1 663.91 370.459C663.318 369.775 662.611 369.092 661.791 368.408C661.016 367.725 660.082 367.109 658.988 366.562C657.94 366.016 656.755 365.583 655.434 365.264C654.112 364.899 652.631 364.717 650.99 364.717C650.899 364.717 650.785 364.694 650.648 364.648C650.512 364.603 650.261 364.489 649.896 364.307L649.35 363.828C649.35 363.783 649.327 363.737 649.281 363.691C649.281 363.6 649.236 363.418 649.145 363.145C649.099 363.099 649.076 363.053 649.076 363.008C649.076 362.917 649.099 362.712 649.145 362.393C649.145 362.347 649.145 362.301 649.145 362.256C649.19 362.165 649.304 361.96 649.486 361.641C650.124 360.775 650.854 359.795 651.674 358.701C652.54 357.607 653.451 356.468 654.408 355.283C655.502 353.962 656.596 352.617 657.689 351.25C658.783 349.837 659.74 348.561 660.561 347.422C659.604 347.331 658.487 347.262 657.211 347.217C655.98 347.126 654.613 347.08 653.109 347.08C651.332 347.08 649.509 347.148 647.641 347.285C645.772 347.422 644.04 347.559 642.445 347.695C640.896 347.832 639.597 347.969 638.549 348.105C637.546 348.242 636.999 348.311 636.908 348.311C636.407 348.311 635.974 348.151 635.609 347.832C635.29 347.513 635.085 347.035 634.994 346.396C634.994 345.895 635.131 345.485 635.404 345.166C635.723 344.847 636.133 344.642 636.635 344.551C636.726 344.551 637.273 344.482 638.275 344.346C639.324 344.209 640.622 344.072 642.172 343.936C643.767 343.753 645.521 343.594 647.436 343.457C649.35 343.32 651.241 343.252 653.109 343.252C655.342 343.252 657.302 343.32 658.988 343.457C660.72 343.594 662.11 343.73 663.158 343.867C663.432 343.639 663.796 343.525 664.252 343.525C664.525 343.525 664.844 343.594 665.209 343.73C665.3 343.822 665.391 343.913 665.482 344.004C665.619 344.095 665.733 344.209 665.824 344.346C666.599 344.665 666.986 345.371 666.986 346.465C666.758 347.467 666.052 347.969 664.867 347.969C664.047 349.199 662.953 350.68 661.586 352.412C660.264 354.144 658.874 355.898 657.416 357.676C656.915 358.314 656.436 358.929 655.98 359.521C655.525 360.068 655.092 360.615 654.682 361.162ZM372.118 493.934C372.483 493.569 372.938 493.387 373.485 493.387C374.032 493.387 374.465 493.546 374.784 493.865C375.194 494.275 375.399 494.754 375.399 495.301C375.399 495.802 375.217 496.235 374.853 496.6C374.807 496.645 374.442 496.964 373.759 497.557C373.121 498.149 372.209 498.787 371.024 499.471C369.885 500.154 368.495 500.792 366.854 501.385C365.214 501.932 363.368 502.205 361.317 502.205C358.902 502.205 356.304 501.749 353.524 500.838C350.79 499.881 348.215 498.354 345.8 496.258C343.43 494.161 341.448 491.45 339.853 488.123C338.303 484.751 337.528 480.626 337.528 475.75C337.528 474.246 337.574 472.947 337.665 471.854C337.756 470.714 337.893 469.712 338.075 468.846C338.303 467.934 338.554 467.114 338.827 466.385C339.146 465.656 339.511 464.949 339.921 464.266C339.966 464.174 340.285 463.628 340.878 462.625C341.516 461.577 342.291 460.392 343.202 459.07C344.114 457.749 345.139 456.473 346.278 455.242C347.463 453.966 348.625 453.055 349.765 452.508C351.086 451.915 352.408 451.482 353.729 451.209C355.051 450.936 356.304 450.799 357.489 450.799C358.765 450.799 359.882 450.936 360.839 451.209C361.295 451.3 361.887 451.482 362.616 451.756C363.345 451.984 364.075 452.257 364.804 452.576C365.578 452.895 366.285 453.237 366.923 453.602C367.561 453.966 368.017 454.308 368.29 454.627C368.655 455.128 368.882 455.743 368.974 456.473C369.11 457.156 369.179 457.817 369.179 458.455C369.179 458.956 368.996 459.412 368.632 459.822C368.267 460.187 367.812 460.369 367.265 460.369C366.763 460.369 366.308 460.187 365.897 459.822C365.533 459.412 365.351 458.956 365.351 458.455C365.351 458.227 365.351 457.977 365.351 457.703C365.351 457.43 365.328 457.202 365.282 457.02C364.826 456.792 364.052 456.45 362.958 455.994C361.91 455.493 360.907 455.128 359.95 454.9C359.586 454.809 359.198 454.741 358.788 454.695C358.424 454.65 358.013 454.627 357.558 454.627C356.601 454.627 355.575 454.741 354.481 454.969C353.433 455.151 352.431 455.493 351.474 455.994C350.836 456.268 350.129 456.792 349.354 457.566C348.625 458.341 347.873 459.23 347.099 460.232C346.369 461.189 345.663 462.192 344.979 463.24C344.296 464.288 343.726 465.245 343.271 466.111C342.951 466.704 342.655 467.296 342.382 467.889C342.154 468.481 341.949 469.142 341.767 469.871C341.63 470.6 341.516 471.443 341.425 472.4C341.379 473.357 341.356 474.474 341.356 475.75C341.356 478.849 341.721 481.561 342.45 483.885C343.179 486.163 344.114 488.146 345.253 489.832C346.438 491.518 347.759 492.908 349.218 494.002C350.722 495.096 352.203 495.984 353.661 496.668C355.165 497.306 356.578 497.762 357.899 498.035C359.267 498.263 360.406 498.377 361.317 498.377C362.958 498.377 364.439 498.149 365.761 497.693C367.082 497.238 368.199 496.736 369.11 496.189C370.067 495.643 370.819 495.118 371.366 494.617L372.118 493.934ZM393.446 499.607C394.312 499.607 395.406 499.197 396.728 498.377C398.095 497.511 399.416 496.326 400.692 494.822C401.968 493.273 403.062 491.427 403.974 489.285C404.885 487.143 405.341 484.751 405.341 482.107C405.341 479.555 405.022 477.322 404.384 475.408C403.791 473.449 403.085 471.808 402.265 470.486C401.49 469.119 400.692 468.094 399.872 467.41C399.097 466.727 398.528 466.339 398.163 466.248C397.388 466.248 396.682 466.316 396.044 466.453C395.451 466.544 395.041 466.613 394.813 466.658C394.267 466.658 393.765 466.43 393.31 465.975C392.17 466.43 390.985 467.456 389.755 469.051C388.524 470.646 387.385 472.514 386.337 474.656C385.289 476.753 384.423 479.008 383.739 481.424C383.056 483.794 382.714 485.981 382.714 487.986C382.714 490.083 383.078 491.883 383.808 493.387C384.537 494.845 385.448 496.03 386.542 496.941C387.636 497.853 388.798 498.536 390.028 498.992C391.259 499.402 392.398 499.607 393.446 499.607ZM398.231 462.42C399.188 462.42 400.282 462.898 401.513 463.855C402.789 464.767 403.974 466.089 405.067 467.82C406.207 469.507 407.164 471.557 407.938 473.973C408.759 476.388 409.169 479.1 409.169 482.107C409.169 485.161 408.645 487.986 407.597 490.584C406.549 493.182 405.227 495.438 403.632 497.352C402.082 499.266 400.373 500.77 398.505 501.863C396.682 502.911 394.996 503.436 393.446 503.436C391.669 503.436 389.914 503.094 388.183 502.41C386.451 501.727 384.901 500.747 383.534 499.471C382.167 498.149 381.05 496.531 380.185 494.617C379.319 492.703 378.886 490.493 378.886 487.986C378.886 486.391 379.091 484.637 379.501 482.723C379.911 480.809 380.458 478.895 381.142 476.98C381.871 475.021 382.714 473.152 383.671 471.375C384.674 469.552 385.744 467.934 386.884 466.521C388.023 465.109 389.231 463.992 390.507 463.172C391.783 462.306 393.082 461.873 394.403 461.873C394.905 461.873 395.338 461.941 395.702 462.078C396.112 462.169 396.477 462.306 396.796 462.488C397.024 462.488 397.252 462.488 397.479 462.488C397.707 462.443 397.958 462.42 398.231 462.42ZM432.685 478.621C440.751 482.54 444.784 486.665 444.784 490.994C444.784 492.316 444.488 493.615 443.896 494.891C443.303 496.167 442.597 497.352 441.776 498.445C440.956 499.493 440.09 500.428 439.179 501.248C438.313 502.023 437.584 502.57 436.991 502.889C436.444 503.208 435.715 503.504 434.804 503.777C433.938 504.096 433.026 504.37 432.069 504.598C431.158 504.826 430.269 505.008 429.403 505.145C428.583 505.281 427.899 505.35 427.353 505.35C426.168 505.35 424.892 505.145 423.524 504.734C422.203 504.37 420.927 503.732 419.696 502.82C418.466 501.954 417.349 500.792 416.347 499.334C415.39 497.876 414.638 496.076 414.091 493.934C414.091 492.931 414.729 492.293 416.005 492.02C416.415 492.02 416.802 492.156 417.167 492.43C417.532 492.658 417.759 492.999 417.851 493.455C418.352 495.369 419.058 496.873 419.97 497.967C420.927 499.015 421.884 499.812 422.841 500.359C423.843 500.906 424.755 501.248 425.575 501.385C426.441 501.476 427.034 501.521 427.353 501.521C427.763 501.521 428.332 501.476 429.062 501.385C429.791 501.248 430.52 501.089 431.249 500.906C432.024 500.678 432.753 500.451 433.437 500.223C434.166 499.995 434.713 499.767 435.077 499.539C435.487 499.311 436.034 498.901 436.718 498.309C437.401 497.671 438.039 496.964 438.632 496.189C439.27 495.369 439.817 494.503 440.272 493.592C440.728 492.68 440.956 491.814 440.956 490.994C440.956 490.538 440.819 490.014 440.546 489.422C440.272 488.784 439.771 488.1 439.042 487.371C438.358 486.596 437.356 485.776 436.034 484.91C434.758 484.044 433.095 483.11 431.044 482.107C429.722 481.469 428.332 480.809 426.874 480.125C425.461 479.441 424.14 478.826 422.909 478.279C421.679 477.687 420.653 477.186 419.833 476.775L418.603 476.229L417.509 475.75V474.52C417.509 472.423 418.033 470.6 419.081 469.051C420.129 467.456 421.405 466.134 422.909 465.086C424.413 463.992 425.985 463.172 427.626 462.625C429.312 462.078 430.793 461.805 432.069 461.805C433.391 461.805 434.507 461.964 435.419 462.283C436.33 462.602 437.082 462.967 437.675 463.377C438.267 463.742 438.7 464.106 438.974 464.471C439.293 464.79 439.475 464.995 439.521 465.086C439.748 465.405 439.862 465.747 439.862 466.111C439.862 466.795 439.566 467.319 438.974 467.684C438.609 467.911 438.267 468.025 437.948 468.025C437.265 468.025 436.741 467.729 436.376 467.137C436.33 467.137 436.216 467.068 436.034 466.932C435.897 466.749 435.647 466.567 435.282 466.385C434.963 466.202 434.53 466.043 433.983 465.906C433.482 465.724 432.844 465.633 432.069 465.633C431.295 465.633 430.36 465.792 429.267 466.111C428.173 466.43 427.079 466.932 425.985 467.615C424.892 468.253 423.912 469.051 423.046 470.008C422.18 470.965 421.633 472.081 421.405 473.357C421.998 473.631 422.727 473.973 423.593 474.383C424.459 474.747 425.393 475.18 426.396 475.682C427.444 476.137 428.515 476.639 429.608 477.186C430.702 477.687 431.728 478.165 432.685 478.621ZM509.452 493.045C509.452 493.592 509.429 494.139 509.384 494.686C509.338 495.232 509.27 495.757 509.179 496.258C509.088 496.759 509.019 497.238 508.974 497.693C508.928 498.149 508.905 498.605 508.905 499.061C508.905 499.881 509.042 500.633 509.315 501.316C509.361 501.453 509.384 501.59 509.384 501.727C509.429 501.818 509.452 501.932 509.452 502.068C509.452 502.889 509.042 503.481 508.222 503.846C507.857 503.937 507.629 503.982 507.538 503.982C506.672 503.982 506.057 503.572 505.692 502.752C505.465 502.114 505.305 501.499 505.214 500.906C505.123 500.314 505.077 499.699 505.077 499.061C505.077 498.468 505.1 497.898 505.146 497.352C505.191 496.805 505.259 496.281 505.351 495.779C505.442 495.278 505.51 494.822 505.556 494.412C505.601 493.956 505.624 493.501 505.624 493.045C505.624 492.407 505.578 491.814 505.487 491.268C505.396 490.721 505.282 490.151 505.146 489.559C505.054 488.875 504.94 488.169 504.804 487.439C504.713 486.71 504.667 485.913 504.667 485.047C504.667 484.409 504.667 483.839 504.667 483.338C504.713 482.837 504.758 482.335 504.804 481.834C504.849 481.014 504.895 479.943 504.94 478.621C504.986 477.299 505.009 475.34 505.009 472.742C505.009 470.646 504.507 469.096 503.505 468.094C502.685 467.273 501.682 466.795 500.497 466.658C499.312 466.521 498.378 466.453 497.694 466.453C497.056 466.453 496.35 466.59 495.575 466.863C494.8 467.137 494.003 467.479 493.183 467.889C492.408 468.299 491.679 468.709 490.995 469.119C490.312 469.529 489.742 469.871 489.286 470.145C489.058 470.281 488.853 470.395 488.671 470.486C488.489 470.577 488.329 470.669 488.192 470.76C487.965 470.896 487.6 471.307 487.099 471.99C486.597 472.628 486.142 473.335 485.731 474.109C485.458 474.52 485.116 474.793 484.706 474.93C484.706 476.115 484.752 477.231 484.843 478.279C484.979 479.327 485.093 480.307 485.185 481.219C485.276 482.13 485.367 483.019 485.458 483.885C485.549 484.705 485.595 485.503 485.595 486.277C485.595 487.234 485.618 488.077 485.663 488.807C485.709 489.49 485.754 490.128 485.8 490.721C485.937 491.541 486.005 492.27 486.005 492.908C486.005 493.546 486.073 494.207 486.21 494.891C486.392 495.574 486.575 496.235 486.757 496.873C486.985 497.465 487.213 498.012 487.44 498.514C487.668 499.015 487.851 499.402 487.987 499.676C488.17 499.904 488.261 500.2 488.261 500.564C488.261 500.929 488.17 501.271 487.987 501.59C487.851 501.863 487.6 502.091 487.235 502.273C486.962 502.41 486.666 502.479 486.347 502.479C485.572 502.479 485.002 502.16 484.638 501.521C484.638 501.476 484.501 501.202 484.228 500.701C483.954 500.154 483.658 499.471 483.339 498.65C483.065 497.83 482.792 496.919 482.519 495.916C482.291 494.913 482.177 493.911 482.177 492.908C482.177 492.68 482.154 492.407 482.108 492.088C482.108 491.769 482.086 491.427 482.04 491.062C481.949 490.47 481.881 489.786 481.835 489.012C481.789 488.237 481.767 487.326 481.767 486.277C481.767 485.639 481.721 484.933 481.63 484.158C481.539 483.383 481.448 482.563 481.356 481.697C481.265 480.512 481.151 479.282 481.015 478.006C480.878 476.73 480.81 475.34 480.81 473.836C480.81 472.924 480.604 471.945 480.194 470.896C479.83 469.803 479.283 468.823 478.554 467.957C477.825 467.046 476.913 466.294 475.819 465.701C474.771 465.109 473.541 464.812 472.128 464.812C470.351 464.812 468.756 465.154 467.343 465.838C465.976 466.521 464.768 467.365 463.72 468.367C462.717 469.37 461.874 470.464 461.19 471.648C460.507 472.833 459.937 473.95 459.481 474.998C459.071 476.001 458.775 476.844 458.593 477.527L458.319 478.621C458.274 478.986 458.091 479.327 457.772 479.646V480.809C457.772 481.948 457.932 483.224 458.251 484.637C458.616 486.049 458.98 487.553 459.345 489.148C459.892 491.199 460.393 493.341 460.849 495.574C461.35 497.807 461.601 500.086 461.601 502.41C461.601 502.911 461.396 503.344 460.985 503.709C460.621 504.119 460.188 504.324 459.687 504.324C459.14 504.324 458.684 504.119 458.319 503.709C457.955 503.344 457.772 502.911 457.772 502.41C457.772 500.314 457.545 498.217 457.089 496.121C456.633 494.025 456.155 492.02 455.653 490.105C455.198 488.374 454.787 486.733 454.423 485.184C454.104 483.634 453.944 482.176 453.944 480.809C453.944 479.487 453.853 477.846 453.671 475.887C453.489 473.882 453.261 471.945 452.987 470.076C452.759 468.162 452.554 466.521 452.372 465.154C452.19 463.742 452.099 462.99 452.099 462.898C452.099 462.397 452.258 461.987 452.577 461.668C452.896 461.303 453.375 461.076 454.013 460.984C454.468 460.984 454.856 461.144 455.175 461.463C455.539 461.736 455.767 462.124 455.858 462.625C455.858 462.716 455.904 463.012 455.995 463.514C456.086 463.969 456.177 464.585 456.269 465.359C456.405 466.134 456.519 467.046 456.61 468.094C456.747 469.096 456.884 470.145 457.021 471.238C457.704 469.962 458.524 468.709 459.481 467.479C460.438 466.248 461.532 465.154 462.763 464.197C464.039 463.24 465.451 462.465 467.001 461.873C468.55 461.281 470.259 460.984 472.128 460.984C473.586 460.984 474.953 461.235 476.229 461.736C477.506 462.192 478.645 462.83 479.647 463.65C480.65 464.425 481.516 465.359 482.245 466.453C482.974 467.501 483.544 468.618 483.954 469.803C484.319 469.301 484.706 468.846 485.116 468.436C485.526 467.98 485.937 467.638 486.347 467.41C486.575 467.319 486.871 467.137 487.235 466.863C487.828 466.499 488.534 466.089 489.354 465.633C490.22 465.132 491.109 464.653 492.021 464.197C492.978 463.742 493.957 463.377 494.96 463.104C495.963 462.785 496.92 462.625 497.831 462.625C498.241 462.625 498.765 462.648 499.403 462.693C500.087 462.693 500.816 462.785 501.591 462.967C502.366 463.149 503.163 463.423 503.983 463.787C504.804 464.152 505.556 464.676 506.239 465.359C507.971 467.182 508.837 469.643 508.837 472.742C508.837 475.431 508.791 477.459 508.7 478.826C508.655 480.148 508.609 481.242 508.563 482.107C508.518 482.609 508.495 483.087 508.495 483.543C508.495 483.953 508.495 484.454 508.495 485.047C508.495 485.73 508.541 486.368 508.632 486.961C508.723 487.553 508.814 488.169 508.905 488.807C509.042 489.445 509.156 490.128 509.247 490.857C509.384 491.541 509.452 492.27 509.452 493.045ZM519.843 461.121C519.068 461.121 518.407 460.87 517.86 460.369C517.359 459.822 517.108 459.161 517.108 458.387C517.108 457.612 517.359 456.974 517.86 456.473C518.407 455.971 519.068 455.721 519.843 455.721C520.572 455.721 521.187 455.971 521.688 456.473C522.235 456.974 522.509 457.612 522.509 458.387C522.509 459.161 522.235 459.822 521.688 460.369C521.187 460.87 520.572 461.121 519.843 461.121ZM520.731 463.992C521.233 463.992 521.643 464.152 521.962 464.471C522.326 464.744 522.554 465.109 522.646 465.564C522.646 465.701 522.737 466.408 522.919 467.684C523.147 468.96 523.397 470.509 523.671 472.332C523.944 474.155 524.195 476.115 524.423 478.211C524.696 480.262 524.879 482.107 524.97 483.748C525.061 485.343 525.22 487.212 525.448 489.354C525.676 491.495 525.927 493.546 526.2 495.506C526.474 497.42 526.701 499.083 526.884 500.496C527.112 501.863 527.226 502.592 527.226 502.684C527.226 503.185 527.066 503.595 526.747 503.914C526.428 504.279 525.95 504.507 525.312 504.598C524.81 504.598 524.377 504.438 524.013 504.119C523.694 503.846 523.489 503.458 523.397 502.957C523.397 502.82 523.284 502.068 523.056 500.701C522.873 499.334 522.646 497.693 522.372 495.779C522.099 493.82 521.848 491.769 521.62 489.627C521.392 487.485 521.233 485.594 521.142 483.953C521.05 482.358 520.868 480.535 520.595 478.484C520.367 476.434 520.116 474.497 519.843 472.674C519.615 470.851 519.387 469.301 519.159 468.025C518.977 466.704 518.886 465.997 518.886 465.906C518.886 465.451 519.022 465.04 519.296 464.676C519.569 464.311 519.957 464.083 520.458 463.992H520.731ZM553.065 498.172C553.384 497.99 553.749 497.898 554.159 497.898C554.843 497.898 555.367 498.172 555.731 498.719C555.959 499.083 556.073 499.448 556.073 499.812C556.073 500.405 555.777 500.929 555.185 501.385L554.706 501.727C554.341 501.954 553.863 502.182 553.271 502.41C552.678 502.638 551.994 502.843 551.22 503.025C550.491 503.253 549.693 503.367 548.827 503.367C547.733 503.367 546.412 503.025 544.862 502.342C543.313 501.704 541.786 500.61 540.282 499.061C538.824 497.465 537.525 495.392 536.386 492.84C535.246 490.242 534.54 487.052 534.267 483.27C534.221 482.996 534.198 482.745 534.198 482.518C534.198 482.244 534.198 481.971 534.198 481.697C534.198 478.735 534.722 476.069 535.771 473.699C536.864 471.329 538.163 469.324 539.667 467.684C541.171 465.997 542.72 464.699 544.315 463.787C545.956 462.83 547.346 462.306 548.485 462.215C548.713 462.169 548.941 462.146 549.169 462.146C549.442 462.146 549.693 462.146 549.921 462.146C551.243 462.146 552.382 462.283 553.339 462.557C554.341 462.785 555.025 462.99 555.39 463.172C555.891 463.263 556.415 463.628 556.962 464.266C557.509 464.858 557.782 466.02 557.782 467.752C557.782 468.299 557.577 468.755 557.167 469.119C556.802 469.484 556.369 469.666 555.868 469.666C555.321 469.666 554.866 469.484 554.501 469.119C554.136 468.755 553.954 468.299 553.954 467.752C553.954 467.387 553.909 467.023 553.817 466.658C553.544 466.567 553.065 466.43 552.382 466.248C551.698 466.066 550.878 465.975 549.921 465.975C549.739 465.975 549.556 465.975 549.374 465.975C549.237 465.975 549.055 465.997 548.827 466.043C548.098 466.134 547.118 466.544 545.888 467.273C544.703 468.003 543.518 469.051 542.333 470.418C541.194 471.74 540.191 473.357 539.325 475.271C538.459 477.186 538.026 479.35 538.026 481.766C538.026 481.993 538.026 482.199 538.026 482.381C538.026 482.563 538.049 482.768 538.095 482.996C538.277 486.095 538.801 488.693 539.667 490.789C540.533 492.885 541.513 494.594 542.606 495.916C543.746 497.192 544.862 498.126 545.956 498.719C547.095 499.266 548.052 499.539 548.827 499.539C549.374 499.539 549.898 499.471 550.399 499.334C550.901 499.197 551.356 499.061 551.767 498.924C552.177 498.742 552.496 498.559 552.724 498.377L553.065 498.172ZM583.759 477.938C584.534 478.165 584.898 478.917 584.853 480.193C584.716 481.196 584.146 481.697 583.144 481.697C582.414 481.561 581.617 481.401 580.751 481.219C579.976 481.128 579.065 481.036 578.017 480.945C576.968 480.809 575.784 480.74 574.462 480.74C573.14 480.74 571.773 480.809 570.36 480.945C568.948 481.082 567.649 481.242 566.464 481.424C565.325 481.561 564.345 481.697 563.524 481.834C562.75 481.971 562.34 482.039 562.294 482.039C561.929 482.039 561.61 481.88 561.337 481.561C561.109 481.242 560.95 480.763 560.858 480.125C560.858 479.624 560.972 479.214 561.2 478.895C561.428 478.53 561.724 478.302 562.089 478.211C562.18 478.211 562.613 478.143 563.388 478.006C564.162 477.869 565.142 477.732 566.327 477.596C567.512 477.413 568.811 477.254 570.224 477.117C571.682 476.98 573.095 476.912 574.462 476.912C577.287 476.912 579.521 477.072 581.161 477.391C582.802 477.71 583.668 477.892 583.759 477.938ZM612.196 468.025C614.384 468.618 616.343 469.598 618.075 470.965C619.807 472.286 621.265 473.813 622.45 475.545C623.635 477.231 624.547 479.008 625.185 480.877C625.823 482.7 626.142 484.409 626.142 486.004L626.073 487.029C626.028 488.26 625.937 489.581 625.8 490.994C625.663 492.361 625.253 493.729 624.569 495.096C623.886 496.417 622.792 497.671 621.288 498.855C619.83 499.995 617.779 500.929 615.136 501.658C613.814 502.068 612.606 502.342 611.513 502.479C610.465 502.661 609.439 502.752 608.437 502.752C606.978 502.752 605.52 502.592 604.062 502.273C602.649 501.954 600.917 501.521 598.866 500.975C596.998 500.519 595.403 499.79 594.081 498.787C592.759 497.739 591.666 496.714 590.8 495.711C589.934 494.663 589.296 493.751 588.886 492.977C588.476 492.156 588.248 491.701 588.202 491.609C588.065 491.427 587.997 491.176 587.997 490.857C587.997 490.083 588.384 489.49 589.159 489.08C589.524 488.989 589.774 488.943 589.911 488.943C590.276 488.943 590.618 489.057 590.937 489.285C591.301 489.467 591.552 489.741 591.688 490.105L592.167 490.994C592.486 491.632 592.987 492.361 593.671 493.182C594.354 493.956 595.22 494.754 596.269 495.574C597.317 496.349 598.57 496.941 600.028 497.352C601.942 497.853 603.515 498.24 604.745 498.514C606.021 498.787 607.252 498.924 608.437 498.924C609.986 498.924 611.877 498.628 614.11 498.035C616.07 497.443 617.597 496.759 618.69 495.984C619.784 495.21 620.582 494.344 621.083 493.387C621.584 492.43 621.881 491.404 621.972 490.311C622.108 489.217 622.2 488.077 622.245 486.893L622.313 485.662C622.313 484.705 622.063 483.52 621.562 482.107C621.106 480.695 620.422 479.305 619.511 477.938C618.599 476.57 617.437 475.317 616.024 474.178C614.657 473.038 613.062 472.241 611.239 471.785C610.009 471.421 608.687 471.17 607.274 471.033C605.907 470.896 604.54 470.76 603.173 470.623C601.578 470.486 600.006 470.327 598.456 470.145C596.952 469.962 595.585 469.643 594.354 469.188C593.124 468.686 592.099 468.025 591.278 467.205C590.504 466.339 590.048 465.177 589.911 463.719C589.911 463.536 589.888 463.377 589.843 463.24C589.843 463.104 589.843 462.967 589.843 462.83C589.843 461.053 590.185 459.549 590.868 458.318C591.597 457.042 592.463 455.971 593.466 455.105C594.514 454.24 595.585 453.533 596.679 452.986C597.818 452.439 598.798 451.984 599.618 451.619C600.666 451.118 601.92 450.776 603.378 450.594C604.882 450.366 606.5 450.252 608.231 450.252C609.781 450.252 611.33 450.343 612.88 450.525C614.475 450.708 616.024 450.981 617.528 451.346C618.531 451.574 619.009 452.326 618.964 453.602C618.873 454.057 618.622 454.422 618.212 454.695C617.802 454.969 617.278 455.083 616.64 455.037C615.318 454.673 613.905 454.422 612.401 454.285C610.943 454.148 609.53 454.08 608.163 454.08C606.705 454.08 605.36 454.171 604.13 454.354C602.945 454.49 601.942 454.741 601.122 455.105C600.165 455.516 599.231 455.971 598.319 456.473C597.408 456.928 596.61 457.475 595.927 458.113C595.243 458.751 594.696 459.503 594.286 460.369C593.922 461.235 593.739 462.26 593.739 463.445C593.83 464.63 594.719 465.428 596.405 465.838C598.137 466.248 600.484 466.567 603.446 466.795C604.905 466.932 606.363 467.091 607.821 467.273C609.325 467.41 610.784 467.661 612.196 468.025ZM656.356 466.316C656.767 466.408 657.108 466.658 657.382 467.068C657.655 467.479 657.769 468.003 657.724 468.641C657.496 469.598 656.721 470.076 655.399 470.076C655.399 470.031 654.556 469.871 652.87 469.598C651.184 469.324 648.928 469.165 646.103 469.119C646.239 471.717 646.308 473.859 646.308 475.545C646.308 476.411 646.353 477.641 646.444 479.236C646.581 480.831 646.718 482.586 646.854 484.5C647.037 486.368 647.219 488.305 647.401 490.311C647.584 492.27 647.766 494.07 647.948 495.711C648.131 497.306 648.267 498.65 648.358 499.744C648.495 500.792 648.563 501.339 648.563 501.385C648.563 501.886 648.381 502.296 648.017 502.615C647.698 502.98 647.242 503.208 646.649 503.299C646.148 503.299 645.715 503.139 645.351 502.82C644.986 502.501 644.781 502.091 644.735 501.59C644.735 501.453 644.667 500.838 644.53 499.744C644.394 498.65 644.234 497.306 644.052 495.711C643.915 494.07 643.756 492.27 643.573 490.311C643.391 488.351 643.209 486.437 643.026 484.568C642.89 482.654 642.753 480.9 642.616 479.305C642.525 477.71 642.479 476.456 642.479 475.545C642.479 473.813 642.411 471.717 642.274 469.256C641.09 469.347 639.927 469.461 638.788 469.598C637.649 469.734 636.623 469.871 635.712 470.008C634.846 470.099 634.117 470.19 633.524 470.281C632.978 470.372 632.659 470.418 632.567 470.418C632.112 470.418 631.701 470.258 631.337 469.939C630.972 469.62 630.744 469.142 630.653 468.504C630.653 468.048 630.79 467.661 631.063 467.342C631.382 466.977 631.793 466.749 632.294 466.658C632.34 466.658 632.636 466.613 633.183 466.521C633.775 466.385 634.504 466.271 635.37 466.18C636.282 466.043 637.307 465.929 638.446 465.838C639.586 465.701 640.771 465.587 642.001 465.496C641.91 464.22 641.796 462.967 641.659 461.736C641.568 460.46 641.454 459.253 641.317 458.113C641.226 456.928 641.112 455.835 640.976 454.832C640.839 453.829 640.702 452.964 640.565 452.234C640.565 451.779 640.725 451.368 641.044 451.004C641.363 450.639 641.841 450.411 642.479 450.32C642.935 450.32 643.323 450.457 643.642 450.73C644.006 451.004 644.234 451.391 644.325 451.893C644.644 453.305 644.94 455.242 645.214 457.703C645.487 460.164 645.738 462.693 645.966 465.291C647.515 465.291 648.905 465.337 650.136 465.428C651.412 465.519 652.483 465.633 653.349 465.77C654.26 465.906 654.966 466.043 655.468 466.18C656.015 466.271 656.311 466.316 656.356 466.316ZM694.774 463.104C695.412 463.468 695.731 464.015 695.731 464.744C695.731 465.154 695.64 465.473 695.458 465.701L694.911 466.658C694.547 467.342 694.091 468.208 693.544 469.256C692.997 470.258 692.405 471.375 691.767 472.605C691.129 473.79 690.536 474.952 689.989 476.092C689.534 477.049 689.237 477.846 689.101 478.484C688.964 479.077 688.85 479.715 688.759 480.398C688.668 480.854 688.576 481.333 688.485 481.834C688.44 482.335 688.326 482.928 688.144 483.611C688.007 484.249 687.802 484.979 687.528 485.799C687.255 486.619 686.89 487.553 686.435 488.602C685.432 490.88 684.794 492.771 684.521 494.275C684.247 495.734 684.019 497.192 683.837 498.65L683.7 500.496C683.7 500.815 683.632 501.111 683.495 501.385C683.404 501.886 683.313 502.387 683.222 502.889C683.131 503.436 683.017 504.028 682.88 504.666C682.515 506.215 682.174 507.469 681.854 508.426C681.581 509.428 681.285 510.385 680.966 511.297C680.601 512.345 680.214 513.507 679.804 514.783C679.439 516.059 679.029 517.814 678.573 520.047C678.163 522.098 677.799 523.989 677.479 525.721C677.16 527.498 676.91 529.025 676.728 530.301C676.545 531.577 676.409 532.579 676.317 533.309L676.181 534.402C676.09 534.904 675.862 535.291 675.497 535.564C675.132 535.883 674.654 536.043 674.062 536.043C672.922 535.906 672.353 535.2 672.353 533.924C672.353 533.878 672.398 533.468 672.489 532.693C672.626 531.964 672.785 530.939 672.968 529.617C673.15 528.341 673.401 526.814 673.72 525.037C674.039 523.305 674.403 521.391 674.813 519.295C675.041 518.11 675.269 517.062 675.497 516.15C675.725 515.239 675.93 514.419 676.112 513.689C676.34 512.96 676.545 512.299 676.728 511.707C676.955 511.115 677.16 510.545 677.343 509.998C677.662 509.132 677.958 508.243 678.231 507.332C678.505 506.421 678.801 505.258 679.12 503.846C679.257 503.299 679.348 502.775 679.394 502.273C679.485 501.818 679.576 501.362 679.667 500.906C679.211 500.268 678.573 499.38 677.753 498.24C676.978 497.055 676.226 495.825 675.497 494.549C675.087 493.82 674.494 492.885 673.72 491.746C672.945 490.561 672.125 489.354 671.259 488.123C670.438 486.893 669.618 485.73 668.798 484.637C668.023 483.497 667.408 482.586 666.952 481.902L666.405 481.082C666.132 480.717 665.767 480.011 665.312 478.963C664.901 477.915 664.263 476.297 663.397 474.109C663.033 473.243 662.668 472.355 662.304 471.443C661.939 470.532 661.575 469.666 661.21 468.846C660.891 467.98 660.572 467.228 660.253 466.59C659.934 465.906 659.66 465.382 659.433 465.018C659.25 464.562 659.159 464.243 659.159 464.061C659.159 463.331 659.478 462.785 660.116 462.42C660.344 462.238 660.663 462.146 661.073 462.146C661.848 462.146 662.395 462.443 662.714 463.035C663.215 463.901 663.853 465.245 664.628 467.068C665.403 468.846 666.177 470.737 666.952 472.742C667.226 473.38 667.476 474.041 667.704 474.725C667.978 475.363 668.228 475.978 668.456 476.57C668.729 477.117 668.957 477.618 669.14 478.074C669.322 478.53 669.459 478.826 669.55 478.963L670.097 479.715C670.552 480.398 671.168 481.31 671.942 482.449C672.763 483.589 673.606 484.796 674.472 486.072C675.338 487.348 676.158 488.579 676.933 489.764C677.707 490.949 678.323 491.906 678.778 492.635C679.006 493.09 679.257 493.546 679.53 494.002C679.849 494.412 680.146 494.845 680.419 495.301C680.647 494.207 680.92 493.022 681.239 491.746C681.604 490.424 682.151 488.898 682.88 487.166C683.655 485.252 684.156 483.771 684.384 482.723C684.657 481.629 684.862 480.672 684.999 479.852C685.09 479.077 685.227 478.279 685.409 477.459C685.591 476.639 685.956 475.636 686.503 474.451C687.05 473.312 687.642 472.127 688.28 470.896C688.918 469.666 689.511 468.549 690.058 467.547C690.65 466.499 691.129 465.633 691.493 464.949C691.903 464.266 692.131 463.878 692.177 463.787C692.541 463.149 693.088 462.83 693.817 462.83C694.228 462.83 694.547 462.921 694.774 463.104ZM705.028 471.375C705.028 472.833 705.119 474.588 705.302 476.639C705.484 478.689 705.689 480.831 705.917 483.064C706.19 485.298 706.464 487.531 706.737 489.764C707.056 491.951 707.353 493.956 707.626 495.779C707.899 497.557 708.127 499.015 708.31 500.154C708.492 501.294 708.583 501.909 708.583 502C708.583 503.048 707.945 503.686 706.669 503.914C706.168 503.914 705.735 503.755 705.37 503.436C705.051 503.162 704.846 502.775 704.755 502.273C704.709 502.137 704.595 501.476 704.413 500.291C704.231 499.106 704.003 497.625 703.729 495.848C703.502 494.07 703.228 492.088 702.909 489.9C702.636 487.667 702.362 485.434 702.089 483.201C701.815 480.923 701.588 478.758 701.405 476.707C701.269 474.656 701.2 472.879 701.2 471.375C701.2 469.188 701.132 466.863 700.995 464.402C700.858 461.941 700.722 459.663 700.585 457.566C700.448 455.424 700.312 453.647 700.175 452.234C700.038 450.822 699.97 450.07 699.97 449.979C699.97 449.477 700.129 449.067 700.448 448.748C700.767 448.383 701.246 448.156 701.884 448.064C702.385 448.064 702.795 448.247 703.114 448.611C703.479 448.93 703.707 449.34 703.798 449.842C703.798 449.979 703.866 450.753 704.003 452.166C704.14 453.579 704.276 455.356 704.413 457.498C704.55 459.594 704.687 461.873 704.823 464.334C704.96 466.795 705.028 469.142 705.028 471.375ZM731.073 467.547C730.663 467.547 729.843 467.775 728.612 468.23C727.427 468.641 726.174 469.415 724.853 470.555C723.576 471.648 722.369 473.198 721.229 475.203C720.136 477.163 719.452 479.692 719.179 482.791C719.953 482.609 720.819 482.404 721.776 482.176C722.779 481.948 723.759 481.743 724.716 481.561C725.718 481.333 726.653 481.15 727.519 481.014C728.43 480.877 729.159 480.809 729.706 480.809C730.344 480.809 731.142 480.672 732.099 480.398C733.101 480.079 734.081 479.76 735.038 479.441C735.813 479.168 736.542 478.94 737.226 478.758C737.909 478.53 738.57 478.325 739.208 478.143C739.026 476.32 738.638 474.747 738.046 473.426C737.453 472.104 736.77 471.01 735.995 470.145C735.22 469.279 734.4 468.641 733.534 468.23C732.668 467.775 731.848 467.547 731.073 467.547ZM743.993 498.855C744.494 498.855 744.905 499.015 745.224 499.334C745.588 499.653 745.816 500.132 745.907 500.77C745.907 501.271 745.748 501.681 745.429 502C745.155 502.365 744.768 502.592 744.267 502.684C744.175 502.684 743.765 502.729 743.036 502.82C742.307 502.957 741.441 503.094 740.438 503.23C739.436 503.367 738.388 503.481 737.294 503.572C736.2 503.663 735.266 503.709 734.491 503.709C728.43 503.709 723.782 502.114 720.546 498.924C717.31 495.688 715.533 491.154 715.214 485.32C715.123 482.358 715.373 479.76 715.966 477.527C716.604 475.294 717.424 473.38 718.427 471.785C719.475 470.19 720.637 468.868 721.913 467.82C723.189 466.772 724.42 465.952 725.604 465.359C726.835 464.767 727.929 464.357 728.886 464.129C729.888 463.855 730.618 463.719 731.073 463.719C732.258 463.719 733.511 464.015 734.833 464.607C736.2 465.2 737.453 466.111 738.593 467.342C739.778 468.527 740.78 470.053 741.601 471.922C742.421 473.79 742.922 476.001 743.104 478.553C743.378 478.917 743.515 479.327 743.515 479.783C743.515 480.239 743.378 480.626 743.104 480.945C742.877 481.857 742.261 482.312 741.259 482.312C740.803 482.312 740.416 482.176 740.097 481.902C738.866 482.176 737.59 482.563 736.269 483.064C735.084 483.475 733.922 483.839 732.782 484.158C731.643 484.477 730.618 484.637 729.706 484.637C729.205 484.637 728.521 484.705 727.655 484.842C726.835 484.979 725.924 485.161 724.921 485.389C723.918 485.617 722.893 485.867 721.845 486.141C720.842 486.368 719.931 486.596 719.11 486.824C719.293 489.65 719.931 491.928 721.024 493.66C722.164 495.346 723.485 496.668 724.989 497.625C726.539 498.536 728.157 499.152 729.843 499.471C731.575 499.744 733.124 499.881 734.491 499.881C735.22 499.881 736.109 499.835 737.157 499.744C738.205 499.653 739.208 499.539 740.165 499.402C741.122 499.266 741.965 499.152 742.694 499.061L743.72 498.924L743.993 498.855ZM480.878 598.814C481.015 598.404 481.311 598.085 481.767 597.857C481.448 594.713 481.174 591.796 480.946 589.107C480.764 586.419 480.673 584.231 480.673 582.545V581.725C480.217 581.497 479.898 581.201 479.716 580.836C478.759 579.059 477.802 577.783 476.845 577.008C475.933 576.233 475.341 575.823 475.067 575.777C474.293 575.777 473.586 575.823 472.948 575.914C472.356 576.005 471.946 576.074 471.718 576.119C471.125 576.119 470.647 575.891 470.282 575.436C469.143 575.891 467.935 576.917 466.659 578.512C465.429 580.107 464.289 581.975 463.241 584.117C462.193 586.214 461.327 588.469 460.644 590.885C459.96 593.255 459.618 595.442 459.618 597.447C459.618 599.589 459.983 601.389 460.712 602.848C461.441 604.306 462.353 605.514 463.446 606.471C464.54 607.382 465.702 608.043 466.933 608.453C468.209 608.863 469.371 609.068 470.419 609.068C471.103 609.068 471.9 608.84 472.812 608.385C473.769 607.883 474.726 607.2 475.683 606.334C476.685 605.423 477.642 604.352 478.554 603.121C479.465 601.845 480.24 600.41 480.878 598.814ZM484.501 582.545C484.501 583.593 484.547 584.915 484.638 586.51C484.729 588.059 484.843 589.768 484.979 591.637C485.162 593.46 485.344 595.419 485.526 597.516C485.709 599.566 485.914 601.64 486.142 603.736C486.324 605.787 486.506 607.77 486.688 609.684C486.916 611.643 487.099 613.466 487.235 615.152C487.372 616.884 487.486 618.456 487.577 619.869C487.668 621.282 487.714 622.467 487.714 623.424C487.714 625.064 487.395 626.682 486.757 628.277C486.119 629.918 485.185 631.376 483.954 632.652C482.724 633.928 481.197 634.954 479.374 635.729C477.597 636.549 475.523 636.959 473.153 636.959C466.409 636.959 461.578 633.268 458.661 625.885C458.57 625.702 458.524 625.452 458.524 625.133C458.524 624.312 458.912 623.72 459.687 623.355C459.823 623.31 459.937 623.264 460.028 623.219C460.165 623.219 460.302 623.219 460.438 623.219C461.259 623.219 461.851 623.652 462.216 624.518C462.444 625.11 462.785 625.885 463.241 626.842C463.743 627.844 464.403 628.801 465.224 629.713C466.044 630.624 467.092 631.422 468.368 632.105C469.69 632.789 471.285 633.131 473.153 633.131C475.113 633.131 476.776 632.812 478.144 632.174C479.511 631.536 480.604 630.715 481.425 629.713C482.291 628.756 482.906 627.708 483.271 626.568C483.681 625.429 483.886 624.381 483.886 623.424C483.886 622.512 483.84 621.35 483.749 619.938C483.658 618.57 483.544 617.044 483.407 615.357C483.271 613.671 483.111 611.871 482.929 609.957C482.746 608.089 482.564 606.197 482.382 604.283C481.516 605.65 480.559 606.858 479.511 607.906C478.508 608.954 477.46 609.843 476.366 610.572C475.318 611.347 474.27 611.917 473.222 612.281C472.219 612.691 471.285 612.896 470.419 612.896C468.642 612.896 466.864 612.555 465.087 611.871C463.355 611.233 461.806 610.276 460.438 609C459.071 607.678 457.955 606.061 457.089 604.146C456.223 602.187 455.79 599.954 455.79 597.447C455.79 595.852 455.995 594.098 456.405 592.184C456.815 590.27 457.362 588.355 458.046 586.441C458.775 584.527 459.618 582.659 460.575 580.836C461.578 579.013 462.649 577.418 463.788 576.051C464.927 574.638 466.135 573.521 467.411 572.701C468.687 571.835 469.986 571.402 471.308 571.402C472.265 571.402 473.062 571.607 473.7 572.018C473.928 571.972 474.156 571.949 474.384 571.949C474.612 571.949 474.862 571.949 475.136 571.949C475.956 571.949 476.868 572.268 477.87 572.906C478.873 573.544 479.83 574.433 480.741 575.572C480.832 575.025 480.969 574.524 481.151 574.068C481.379 573.613 481.858 573.362 482.587 573.316L484.364 573.18L484.638 574.957C484.638 575.048 484.638 575.139 484.638 575.23C484.638 575.276 484.615 575.458 484.569 575.777C484.569 576.051 484.547 576.666 484.501 577.623C484.501 578.58 484.501 580.221 484.501 582.545ZM506.581 606.402C507.538 606.402 508.586 605.969 509.726 605.104C510.865 604.192 511.959 602.984 513.007 601.48C514.101 599.977 515.08 598.222 515.946 596.217C516.812 594.166 517.45 592.001 517.86 589.723C517.541 587.535 517.291 585.234 517.108 582.818C516.926 580.403 516.812 577.828 516.767 575.094C516.265 574.684 516.015 574.182 516.015 573.59C515.696 573.453 515.354 573.339 514.989 573.248C514.67 573.157 514.306 573.111 513.896 573.111C513.303 573.111 512.46 573.248 511.366 573.521C510.272 573.749 509.088 574.16 507.812 574.752C506.535 575.299 505.237 576.028 503.915 576.939C502.639 577.851 501.454 578.967 500.36 580.289C499.312 581.611 498.446 583.137 497.763 584.869C497.079 586.601 496.737 588.561 496.737 590.748C496.737 594.212 497.011 596.969 497.558 599.02C498.15 601.07 498.902 602.643 499.813 603.736C500.771 604.83 501.819 605.559 502.958 605.924C504.143 606.243 505.351 606.402 506.581 606.402ZM521.757 589.723C522.167 592.548 522.646 595.077 523.192 597.311C523.739 599.544 524.241 601.435 524.696 602.984C525.198 604.534 525.608 605.742 525.927 606.607C526.291 607.428 526.474 607.861 526.474 607.906C526.519 608.043 526.542 608.18 526.542 608.316C526.588 608.408 526.61 608.521 526.61 608.658C526.61 609.479 526.246 610.071 525.517 610.436C525.152 610.527 524.879 610.572 524.696 610.572C523.83 610.572 523.261 610.208 522.987 609.479C522.896 609.296 522.463 608.225 521.688 606.266C520.959 604.26 520.185 601.48 519.364 597.926C518.635 599.703 517.769 601.344 516.767 602.848C515.81 604.352 514.761 605.65 513.622 606.744C512.528 607.838 511.366 608.681 510.136 609.273C508.951 609.911 507.766 610.23 506.581 610.23C501.933 610.23 498.492 608.635 496.259 605.445C494.026 602.255 492.909 597.356 492.909 590.748C492.909 588.014 493.319 585.598 494.14 583.502C494.96 581.36 496.008 579.492 497.284 577.896C498.606 576.301 500.064 574.957 501.659 573.863C503.3 572.77 504.895 571.881 506.444 571.197C507.994 570.514 509.429 570.035 510.751 569.762C512.073 569.443 513.121 569.283 513.896 569.283C515.263 569.283 516.448 569.557 517.45 570.104C518.453 570.605 519.273 571.197 519.911 571.881C520.595 572.519 521.096 573.134 521.415 573.727C521.734 574.273 521.894 574.57 521.894 574.615C522.03 574.843 522.099 575.094 522.099 575.367C522.099 575.823 521.894 576.301 521.483 576.803C521.894 578.945 522.099 581.77 522.099 585.279C522.099 586.008 522.053 586.738 521.962 587.467C521.916 588.196 521.848 588.948 521.757 589.723ZM590.663 600.045C590.663 600.592 590.64 601.139 590.595 601.686C590.549 602.232 590.481 602.757 590.39 603.258C590.299 603.759 590.23 604.238 590.185 604.693C590.139 605.149 590.116 605.605 590.116 606.061C590.116 606.881 590.253 607.633 590.526 608.316C590.572 608.453 590.595 608.59 590.595 608.727C590.64 608.818 590.663 608.932 590.663 609.068C590.663 609.889 590.253 610.481 589.433 610.846C589.068 610.937 588.84 610.982 588.749 610.982C587.883 610.982 587.268 610.572 586.903 609.752C586.675 609.114 586.516 608.499 586.425 607.906C586.334 607.314 586.288 606.699 586.288 606.061C586.288 605.468 586.311 604.898 586.356 604.352C586.402 603.805 586.47 603.281 586.562 602.779C586.653 602.278 586.721 601.822 586.767 601.412C586.812 600.956 586.835 600.501 586.835 600.045C586.835 599.407 586.789 598.814 586.698 598.268C586.607 597.721 586.493 597.151 586.356 596.559C586.265 595.875 586.151 595.169 586.015 594.439C585.924 593.71 585.878 592.913 585.878 592.047C585.878 591.409 585.878 590.839 585.878 590.338C585.924 589.837 585.969 589.335 586.015 588.834C586.06 588.014 586.106 586.943 586.151 585.621C586.197 584.299 586.22 582.34 586.22 579.742C586.22 577.646 585.718 576.096 584.716 575.094C583.896 574.273 582.893 573.795 581.708 573.658C580.523 573.521 579.589 573.453 578.905 573.453C578.267 573.453 577.561 573.59 576.786 573.863C576.011 574.137 575.214 574.479 574.394 574.889C573.619 575.299 572.89 575.709 572.206 576.119C571.522 576.529 570.953 576.871 570.497 577.145C570.269 577.281 570.064 577.395 569.882 577.486C569.7 577.577 569.54 577.669 569.403 577.76C569.175 577.896 568.811 578.307 568.31 578.99C567.808 579.628 567.353 580.335 566.942 581.109C566.669 581.52 566.327 581.793 565.917 581.93C565.917 583.115 565.963 584.231 566.054 585.279C566.19 586.327 566.304 587.307 566.396 588.219C566.487 589.13 566.578 590.019 566.669 590.885C566.76 591.705 566.806 592.503 566.806 593.277C566.806 594.234 566.828 595.077 566.874 595.807C566.92 596.49 566.965 597.128 567.011 597.721C567.147 598.541 567.216 599.27 567.216 599.908C567.216 600.546 567.284 601.207 567.421 601.891C567.603 602.574 567.785 603.235 567.968 603.873C568.196 604.465 568.424 605.012 568.651 605.514C568.879 606.015 569.062 606.402 569.198 606.676C569.381 606.904 569.472 607.2 569.472 607.564C569.472 607.929 569.381 608.271 569.198 608.59C569.062 608.863 568.811 609.091 568.446 609.273C568.173 609.41 567.877 609.479 567.558 609.479C566.783 609.479 566.213 609.16 565.849 608.521C565.849 608.476 565.712 608.202 565.438 607.701C565.165 607.154 564.869 606.471 564.55 605.65C564.276 604.83 564.003 603.919 563.729 602.916C563.502 601.913 563.388 600.911 563.388 599.908C563.388 599.68 563.365 599.407 563.319 599.088C563.319 598.769 563.297 598.427 563.251 598.062C563.16 597.47 563.091 596.786 563.046 596.012C563 595.237 562.978 594.326 562.978 593.277C562.978 592.639 562.932 591.933 562.841 591.158C562.75 590.383 562.659 589.563 562.567 588.697C562.476 587.512 562.362 586.282 562.226 585.006C562.089 583.73 562.021 582.34 562.021 580.836C562.021 579.924 561.815 578.945 561.405 577.896C561.041 576.803 560.494 575.823 559.765 574.957C559.035 574.046 558.124 573.294 557.03 572.701C555.982 572.109 554.752 571.812 553.339 571.812C551.562 571.812 549.966 572.154 548.554 572.838C547.187 573.521 545.979 574.365 544.931 575.367C543.928 576.37 543.085 577.464 542.401 578.648C541.718 579.833 541.148 580.95 540.692 581.998C540.282 583.001 539.986 583.844 539.804 584.527L539.53 585.621C539.485 585.986 539.302 586.327 538.983 586.646V587.809C538.983 588.948 539.143 590.224 539.462 591.637C539.826 593.049 540.191 594.553 540.556 596.148C541.103 598.199 541.604 600.341 542.06 602.574C542.561 604.807 542.812 607.086 542.812 609.41C542.812 609.911 542.606 610.344 542.196 610.709C541.832 611.119 541.399 611.324 540.897 611.324C540.351 611.324 539.895 611.119 539.53 610.709C539.166 610.344 538.983 609.911 538.983 609.41C538.983 607.314 538.756 605.217 538.3 603.121C537.844 601.025 537.366 599.02 536.864 597.105C536.409 595.374 535.998 593.733 535.634 592.184C535.315 590.634 535.155 589.176 535.155 587.809C535.155 586.487 535.064 584.846 534.882 582.887C534.7 580.882 534.472 578.945 534.198 577.076C533.97 575.162 533.765 573.521 533.583 572.154C533.401 570.742 533.31 569.99 533.31 569.898C533.31 569.397 533.469 568.987 533.788 568.668C534.107 568.303 534.586 568.076 535.224 567.984C535.679 567.984 536.067 568.144 536.386 568.463C536.75 568.736 536.978 569.124 537.069 569.625C537.069 569.716 537.115 570.012 537.206 570.514C537.297 570.969 537.388 571.585 537.479 572.359C537.616 573.134 537.73 574.046 537.821 575.094C537.958 576.096 538.095 577.145 538.231 578.238C538.915 576.962 539.735 575.709 540.692 574.479C541.649 573.248 542.743 572.154 543.974 571.197C545.25 570.24 546.662 569.465 548.212 568.873C549.761 568.281 551.47 567.984 553.339 567.984C554.797 567.984 556.164 568.235 557.44 568.736C558.716 569.192 559.856 569.83 560.858 570.65C561.861 571.425 562.727 572.359 563.456 573.453C564.185 574.501 564.755 575.618 565.165 576.803C565.53 576.301 565.917 575.846 566.327 575.436C566.737 574.98 567.147 574.638 567.558 574.41C567.785 574.319 568.082 574.137 568.446 573.863C569.039 573.499 569.745 573.089 570.565 572.633C571.431 572.132 572.32 571.653 573.231 571.197C574.188 570.742 575.168 570.377 576.171 570.104C577.174 569.785 578.131 569.625 579.042 569.625C579.452 569.625 579.976 569.648 580.614 569.693C581.298 569.693 582.027 569.785 582.802 569.967C583.576 570.149 584.374 570.423 585.194 570.787C586.015 571.152 586.767 571.676 587.45 572.359C589.182 574.182 590.048 576.643 590.048 579.742C590.048 582.431 590.002 584.459 589.911 585.826C589.866 587.148 589.82 588.242 589.774 589.107C589.729 589.609 589.706 590.087 589.706 590.543C589.706 590.953 589.706 591.454 589.706 592.047C589.706 592.73 589.752 593.368 589.843 593.961C589.934 594.553 590.025 595.169 590.116 595.807C590.253 596.445 590.367 597.128 590.458 597.857C590.595 598.541 590.663 599.27 590.663 600.045ZM614.179 574.547C613.769 574.547 612.948 574.775 611.718 575.23C610.533 575.641 609.28 576.415 607.958 577.555C606.682 578.648 605.474 580.198 604.335 582.203C603.241 584.163 602.558 586.692 602.284 589.791C603.059 589.609 603.925 589.404 604.882 589.176C605.884 588.948 606.864 588.743 607.821 588.561C608.824 588.333 609.758 588.15 610.624 588.014C611.535 587.877 612.265 587.809 612.812 587.809C613.45 587.809 614.247 587.672 615.204 587.398C616.207 587.079 617.187 586.76 618.144 586.441C618.918 586.168 619.647 585.94 620.331 585.758C621.015 585.53 621.675 585.325 622.313 585.143C622.131 583.32 621.744 581.747 621.151 580.426C620.559 579.104 619.875 578.01 619.101 577.145C618.326 576.279 617.506 575.641 616.64 575.23C615.774 574.775 614.953 574.547 614.179 574.547ZM627.099 605.855C627.6 605.855 628.01 606.015 628.329 606.334C628.694 606.653 628.922 607.132 629.013 607.77C629.013 608.271 628.853 608.681 628.534 609C628.261 609.365 627.873 609.592 627.372 609.684C627.281 609.684 626.871 609.729 626.142 609.82C625.412 609.957 624.547 610.094 623.544 610.23C622.541 610.367 621.493 610.481 620.399 610.572C619.306 610.663 618.371 610.709 617.597 610.709C611.535 610.709 606.887 609.114 603.651 605.924C600.416 602.688 598.638 598.154 598.319 592.32C598.228 589.358 598.479 586.76 599.071 584.527C599.709 582.294 600.53 580.38 601.532 578.785C602.58 577.19 603.743 575.868 605.019 574.82C606.295 573.772 607.525 572.952 608.71 572.359C609.94 571.767 611.034 571.357 611.991 571.129C612.994 570.855 613.723 570.719 614.179 570.719C615.364 570.719 616.617 571.015 617.938 571.607C619.306 572.2 620.559 573.111 621.698 574.342C622.883 575.527 623.886 577.053 624.706 578.922C625.526 580.79 626.028 583.001 626.21 585.553C626.483 585.917 626.62 586.327 626.62 586.783C626.62 587.239 626.483 587.626 626.21 587.945C625.982 588.857 625.367 589.312 624.364 589.312C623.909 589.312 623.521 589.176 623.202 588.902C621.972 589.176 620.696 589.563 619.374 590.064C618.189 590.475 617.027 590.839 615.888 591.158C614.748 591.477 613.723 591.637 612.812 591.637C612.31 591.637 611.627 591.705 610.761 591.842C609.94 591.979 609.029 592.161 608.026 592.389C607.024 592.617 605.998 592.867 604.95 593.141C603.948 593.368 603.036 593.596 602.216 593.824C602.398 596.65 603.036 598.928 604.13 600.66C605.269 602.346 606.591 603.668 608.095 604.625C609.644 605.536 611.262 606.152 612.948 606.471C614.68 606.744 616.229 606.881 617.597 606.881C618.326 606.881 619.215 606.835 620.263 606.744C621.311 606.653 622.313 606.539 623.271 606.402C624.228 606.266 625.071 606.152 625.8 606.061L626.825 605.924L627.099 605.855Z" fill="#99B4FF"/>
<defs>
<filter id="filter0_f_59_73" x="91" y="29" width="900" height="900" filterUnits="userSpaceOnUse" color-interpolation-filters="sRGB">
<feFlood flood-opacity="0" result="BackgroundImageFix"/>
<feBlend mode="normal" in="SourceGraphic" in2="BackgroundImageFix" result="shape"/>
<feGaussianBlur stdDeviation="50" result="effect1_foregroundBlur_59_73"/>
</filter>
<filter id="filter1_f_59_73" x="136" y="64" width="830" height="830" filterUnits="userSpaceOnUse" color-interpolation-filters="sRGB">
<feFlood flood-opacity="0" result="BackgroundImageFix"/>
<feBlend mode="normal" in="SourceGraphic" in2="BackgroundImageFix" result="shape"/>
<feGaussianBlur stdDeviation="50" result="effect1_foregroundBlur_59_73"/>
</filter>
</defs>
</svg>
