<svg width="1295" height="874" viewBox="0 0 1295 874" fill="none" xmlns="http://www.w3.org/2000/svg">
<g clip-path="url(#clip0_44_40)">
<path d="M1247 439C1247 556.493 1178.35 662.968 1067.15 740.113C955.958 817.255 802.288 865 632.5 865C462.712 865 309.042 817.255 197.846 740.113C86.6457 662.968 18 556.493 18 439C18 321.507 86.6457 215.032 197.846 137.887C309.042 60.7452 462.712 13 632.5 13C802.288 13 955.958 60.7452 1067.15 137.887C1178.35 215.032 1247 321.507 1247 439Z" stroke="#C493EA" stroke-width="2"/>
<path d="M1294 437C1294 557.242 1221.79 666.217 1104.79 745.177C987.804 824.133 826.13 873 647.5 873C468.87 873 307.196 824.133 190.208 745.177C73.2137 666.217 1 557.242 1 437C1 316.758 73.2137 207.783 190.208 128.823C307.196 49.8675 468.87 0.999999 647.5 0.999999C826.13 0.999998 987.804 49.8675 1104.79 128.823C1221.79 207.783 1294 316.758 1294 437Z" stroke="#C493EA" stroke-width="2"/>
</g>
<defs>
<clipPath id="clip0_44_40">
<rect width="1295" height="874" fill="white"/>
</clipPath>
</defs>
</svg>
