<svg width="588" height="449" viewBox="0 0 588 449" fill="none" xmlns="http://www.w3.org/2000/svg">
<path d="M583 224.5C583 284.606 551.107 339.371 498.855 379.272C446.598 419.175 374.187 444 294 444C213.813 444 141.402 419.175 89.1451 379.272C36.8925 339.371 5 284.606 5 224.5C5 164.394 36.8925 109.629 89.1451 69.7284C141.402 29.8247 213.813 5 294 5C374.187 5 446.598 29.8247 498.855 69.7284C551.107 109.629 583 164.394 583 224.5Z" stroke="#5BB9B8" stroke-width="10"/>
<path d="M129.582 137.56C132.569 137.56 135.636 137.587 138.782 137.64C141.929 137.64 144.996 137.72 147.982 137.88C151.022 137.987 153.769 138.2 156.222 138.52L155.502 149.16H135.902C134.676 149.16 133.716 149.48 133.022 150.12C132.382 150.707 132.062 151.533 132.062 152.6V193H117.022V149.48C117.022 145.907 118.169 143.027 120.462 140.84C122.809 138.653 125.849 137.56 129.582 137.56ZM118.462 160.52H152.542V170.68H118.462V160.52ZM169.397 153.24L171.157 161.24L172.597 162.28V193H158.037V153.24H169.397ZM188.757 152.12L187.477 165.48H183.637C182.037 165.48 180.277 165.64 178.357 165.96C176.437 166.28 174.011 166.813 171.077 167.56L170.197 159.64C172.864 157.133 175.584 155.267 178.357 154.04C181.184 152.76 183.904 152.12 186.517 152.12H188.757ZM210.003 152.12C215.23 152.12 219.416 152.813 222.563 154.2C225.71 155.533 227.976 157.747 229.363 160.84C230.75 163.88 231.443 167.987 231.443 173.16C231.443 178.28 230.75 182.36 229.363 185.4C227.976 188.387 225.71 190.573 222.563 191.96C219.416 193.293 215.23 193.96 210.003 193.96C204.776 193.96 200.59 193.293 197.443 191.96C194.296 190.573 192.03 188.387 190.643 185.4C189.256 182.36 188.563 178.28 188.563 173.16C188.563 167.987 189.256 163.88 190.643 160.84C192.03 157.747 194.296 155.533 197.443 154.2C200.59 152.813 204.776 152.12 210.003 152.12ZM210.003 162.28C208.35 162.28 207.07 162.573 206.163 163.16C205.31 163.747 204.696 164.813 204.323 166.36C203.95 167.907 203.763 170.173 203.763 173.16C203.763 176.093 203.95 178.333 204.323 179.88C204.696 181.427 205.31 182.493 206.163 183.08C207.07 183.613 208.35 183.88 210.003 183.88C211.656 183.88 212.936 183.613 213.843 183.08C214.75 182.493 215.363 181.427 215.683 179.88C216.056 178.333 216.243 176.093 216.243 173.16C216.243 170.173 216.056 167.907 215.683 166.36C215.363 164.813 214.75 163.747 213.843 163.16C212.936 162.573 211.656 162.28 210.003 162.28ZM264.77 152.12C272.45 152.12 276.29 155.827 276.29 163.24V193H261.73V167.8C261.73 166.52 261.463 165.64 260.93 165.16C260.45 164.68 259.57 164.44 258.29 164.44C256.957 164.44 255.517 164.627 253.97 165C252.477 165.373 250.583 166.067 248.29 167.08L247.57 159.56C250.343 157.107 253.197 155.267 256.13 154.04C259.063 152.76 261.943 152.12 264.77 152.12ZM246.77 153.24L248.53 161.24L249.81 162.28V193H235.25V153.24H246.77ZM299.834 142.52V179.32C299.834 180.493 300.128 181.347 300.714 181.88C301.301 182.413 302.288 182.68 303.674 182.68H308.314L309.914 192.2C308.848 192.627 307.541 192.973 305.994 193.24C304.501 193.507 302.981 193.693 301.434 193.8C299.888 193.96 298.554 194.04 297.434 194.04C293.701 194.04 290.741 193.08 288.554 191.16C286.421 189.187 285.354 186.467 285.354 183L285.274 142.52H299.834ZM310.154 153.24V162.28H278.474V153.64L286.154 153.24H310.154ZM336.061 168.12V176.92H312.461V168.12H336.061ZM354.023 137.56C357.116 137.56 360.263 137.56 363.463 137.56C366.716 137.56 369.89 137.64 372.983 137.8C376.13 137.907 379.01 138.12 381.623 138.44L380.903 149.16H360.263C359.09 149.16 358.183 149.48 357.543 150.12C356.903 150.707 356.583 151.533 356.583 152.6V178.2C356.583 179.267 356.903 180.12 357.543 180.76C358.183 181.347 359.09 181.64 360.263 181.64H380.903L381.623 192.36C379.01 192.627 376.13 192.84 372.983 193C369.89 193.107 366.716 193.16 363.463 193.16C360.263 193.213 357.116 193.24 354.023 193.24C350.343 193.24 347.356 192.147 345.063 189.96C342.77 187.773 341.623 184.92 341.623 181.4V149.4C341.623 145.827 342.77 142.973 345.063 140.84C347.356 138.653 350.343 137.56 354.023 137.56ZM343.063 159.48H378.023V169.64H343.063V159.48ZM415.054 152.12C422.734 152.12 426.574 155.827 426.574 163.24V193H412.014V167.8C412.014 166.52 411.748 165.64 411.214 165.16C410.734 164.68 409.854 164.44 408.574 164.44C407.241 164.44 405.801 164.627 404.254 165C402.761 165.373 400.868 166.067 398.574 167.08L397.854 159.56C400.628 157.107 403.481 155.267 406.414 154.04C409.348 152.76 412.228 152.12 415.054 152.12ZM397.054 153.24L398.814 161.24L400.094 162.28V193H385.534V153.24H397.054ZM445.479 152.12C448.412 152.12 451.185 152.547 453.799 153.4C456.412 154.253 458.625 155.72 460.439 157.8L459.399 163.8C458.012 163.373 456.705 162.973 455.479 162.6C454.305 162.173 452.812 161.96 450.999 161.96C449.665 161.96 448.572 162.2 447.719 162.68C446.919 163.16 446.305 164.173 445.879 165.72C445.505 167.213 445.319 169.507 445.319 172.6C445.319 175.373 445.505 177.453 445.879 178.84C446.252 180.173 446.839 181.08 447.639 181.56C448.492 181.987 449.532 182.2 450.759 182.2C452.039 182.2 453.105 182.093 453.959 181.88C454.865 181.613 455.719 181.267 456.519 180.84C457.319 180.36 458.199 179.827 459.159 179.24L460.119 185.64C458.839 187.987 456.945 189.96 454.439 191.56C451.932 193.16 448.679 193.96 444.679 193.96C439.505 193.96 435.825 192.12 433.639 188.44C431.452 184.707 430.359 179.453 430.359 172.68C430.359 167.293 430.919 163.133 432.039 160.2C433.212 157.213 434.919 155.133 437.159 153.96C439.399 152.733 442.172 152.12 445.479 152.12ZM472.279 137V193H460.759L459.319 185.48L457.799 184.44V158.92L458.279 157.88C458.119 156.227 457.985 154.467 457.879 152.6C457.825 150.733 457.799 148.893 457.799 147.08V137H472.279Z" fill="#5BB9B8"/>
<path d="M94.8359 237.4V265H91.3159V237.4H94.8359ZM107.996 248.72V251.76H94.5159V248.72H107.996ZM111.076 237.4V265H107.556V237.4H111.076ZM127.915 237.4V265H124.395V237.4H127.915ZM136.835 237.4V240.52H115.515V237.4H136.835ZM167.357 237.4C168.317 237.4 168.797 237.893 168.797 238.88L169.957 265H166.437L165.437 240.32H164.597L158.437 260.68C158.224 261.48 157.717 261.88 156.917 261.88H153.757C152.93 261.88 152.397 261.48 152.157 260.68L145.997 240.32H145.197L144.237 265H140.717L141.797 238.88C141.85 237.893 142.344 237.4 143.277 237.4H147.277C148.024 237.4 148.517 237.8 148.757 238.6L153.917 255.44C154.13 256.053 154.304 256.667 154.437 257.28C154.597 257.893 154.77 258.52 154.957 259.16H155.677C155.864 258.52 156.037 257.893 156.197 257.28C156.357 256.667 156.53 256.027 156.717 255.36L161.877 238.6C162.09 237.8 162.597 237.4 163.397 237.4H167.357ZM179.755 237.4V259.4C179.755 260.307 179.968 260.973 180.395 261.4C180.848 261.827 181.528 262.04 182.435 262.04H192.395L192.555 264.76C190.822 264.893 189.048 264.973 187.235 265C185.448 265.027 183.662 265.04 181.875 265.04C179.848 265.04 178.408 264.547 177.555 263.56C176.702 262.573 176.275 261.333 176.275 259.84V237.4H179.755ZM198.502 260.28C198.982 260.28 199.302 260.373 199.462 260.56C199.649 260.747 199.742 261.08 199.742 261.56V264.12C199.742 264.867 199.675 265.6 199.542 266.32C199.435 267.04 199.275 267.72 199.062 268.36C198.875 269.027 198.635 269.667 198.342 270.28L196.742 269.8C196.875 268.973 196.969 268.213 197.022 267.52C197.102 266.827 197.142 265.987 197.142 265C196.502 265 196.182 264.627 196.182 263.88V261.56C196.209 261.08 196.329 260.747 196.542 260.56C196.755 260.373 197.075 260.28 197.502 260.28H198.502ZM224.71 236.92C225.883 236.92 226.883 236.947 227.71 237C228.563 237.053 229.336 237.147 230.03 237.28C230.75 237.387 231.483 237.533 232.23 237.72L231.87 240.4C231.07 240.32 230.323 240.253 229.63 240.2C228.963 240.147 228.243 240.107 227.47 240.08C226.696 240.053 225.776 240.04 224.71 240.04C222.923 240.04 221.51 240.387 220.47 241.08C219.43 241.773 218.683 242.933 218.23 244.56C217.803 246.187 217.59 248.4 217.59 251.2C217.59 254 217.803 256.213 218.23 257.84C218.683 259.467 219.43 260.627 220.47 261.32C221.51 262.013 222.923 262.36 224.71 262.36C226.416 262.36 227.843 262.333 228.99 262.28C230.163 262.2 231.31 262.08 232.43 261.92L232.79 264.56C231.643 264.88 230.456 265.107 229.23 265.24C228.03 265.4 226.523 265.48 224.71 265.48C222.07 265.48 219.95 265.027 218.35 264.12C216.776 263.187 215.63 261.68 214.91 259.6C214.216 257.52 213.87 254.72 213.87 251.2C213.87 247.68 214.216 244.88 214.91 242.8C215.63 240.72 216.776 239.227 218.35 238.32C219.95 237.387 222.07 236.92 224.71 236.92ZM245.402 236.92C246.709 236.947 248.056 237.013 249.442 237.12C250.829 237.227 252.216 237.427 253.602 237.72L253.362 240.28C252.216 240.227 250.949 240.187 249.562 240.16C248.176 240.107 246.842 240.08 245.562 240.08C244.576 240.08 243.722 240.12 243.002 240.2C242.309 240.253 241.736 240.413 241.282 240.68C240.829 240.92 240.496 241.333 240.282 241.92C240.096 242.48 240.002 243.267 240.002 244.28C240.002 245.8 240.269 246.867 240.802 247.48C241.362 248.067 242.256 248.507 243.482 248.8L249.082 250.2C251.216 250.707 252.669 251.6 253.442 252.88C254.242 254.133 254.642 255.827 254.642 257.96C254.642 259.56 254.456 260.853 254.082 261.84C253.736 262.827 253.189 263.587 252.442 264.12C251.696 264.627 250.736 264.973 249.562 265.16C248.389 265.373 247.002 265.48 245.402 265.48C244.496 265.48 243.309 265.44 241.842 265.36C240.402 265.28 238.736 265.067 236.842 264.72L237.082 262.12C238.656 262.173 239.922 262.227 240.882 262.28C241.842 262.307 242.669 262.32 243.362 262.32C244.056 262.32 244.776 262.32 245.522 262.32C246.936 262.32 248.042 262.213 248.842 262C249.669 261.787 250.242 261.36 250.562 260.72C250.909 260.08 251.082 259.133 251.082 257.88C251.082 256.813 250.962 255.987 250.722 255.4C250.482 254.813 250.096 254.373 249.562 254.08C249.056 253.76 248.402 253.507 247.602 253.32L241.882 251.88C239.882 251.373 238.469 250.493 237.642 249.24C236.842 247.987 236.442 246.307 236.442 244.2C236.442 242.6 236.616 241.32 236.962 240.36C237.336 239.373 237.882 238.64 238.602 238.16C239.349 237.653 240.282 237.32 241.402 237.16C242.522 237 243.856 236.92 245.402 236.92ZM267.824 236.92C269.131 236.947 270.477 237.013 271.864 237.12C273.251 237.227 274.637 237.427 276.024 237.72L275.784 240.28C274.637 240.227 273.371 240.187 271.984 240.16C270.597 240.107 269.264 240.08 267.984 240.08C266.997 240.08 266.144 240.12 265.424 240.2C264.731 240.253 264.157 240.413 263.704 240.68C263.251 240.92 262.917 241.333 262.704 241.92C262.517 242.48 262.424 243.267 262.424 244.28C262.424 245.8 262.691 246.867 263.224 247.48C263.784 248.067 264.677 248.507 265.904 248.8L271.504 250.2C273.637 250.707 275.091 251.6 275.864 252.88C276.664 254.133 277.064 255.827 277.064 257.96C277.064 259.56 276.877 260.853 276.504 261.84C276.157 262.827 275.611 263.587 274.864 264.12C274.117 264.627 273.157 264.973 271.984 265.16C270.811 265.373 269.424 265.48 267.824 265.48C266.917 265.48 265.731 265.44 264.264 265.36C262.824 265.28 261.157 265.067 259.264 264.72L259.504 262.12C261.077 262.173 262.344 262.227 263.304 262.28C264.264 262.307 265.091 262.32 265.784 262.32C266.477 262.32 267.197 262.32 267.944 262.32C269.357 262.32 270.464 262.213 271.264 262C272.091 261.787 272.664 261.36 272.984 260.72C273.331 260.08 273.504 259.133 273.504 257.88C273.504 256.813 273.384 255.987 273.144 255.4C272.904 254.813 272.517 254.373 271.984 254.08C271.477 253.76 270.824 253.507 270.024 253.32L264.304 251.88C262.304 251.373 260.891 250.493 260.064 249.24C259.264 247.987 258.864 246.307 258.864 244.2C258.864 242.6 259.037 241.32 259.384 240.36C259.757 239.373 260.304 238.64 261.024 238.16C261.771 237.653 262.704 237.32 263.824 237.16C264.944 237 266.277 236.92 267.824 236.92ZM284.166 260.28C284.646 260.28 284.966 260.373 285.126 260.56C285.313 260.747 285.406 261.08 285.406 261.56V264.12C285.406 264.867 285.339 265.6 285.206 266.32C285.099 267.04 284.939 267.72 284.726 268.36C284.539 269.027 284.299 269.667 284.006 270.28L282.406 269.8C282.539 268.973 282.633 268.213 282.686 267.52C282.766 266.827 282.806 265.987 282.806 265C282.166 265 281.846 264.627 281.846 263.88V261.56C281.873 261.08 281.993 260.747 282.206 260.56C282.419 260.373 282.739 260.28 283.166 260.28H284.166ZM306.553 237.4V259.2C306.553 261.227 306.086 262.76 305.153 263.8C304.246 264.84 302.926 265.36 301.193 265.36C300.846 265.36 300.433 265.333 299.953 265.28C299.499 265.253 299.046 265.2 298.593 265.12C298.166 265.04 297.806 264.947 297.513 264.84L297.913 262.36H299.913C301.993 262.36 303.033 261.347 303.033 259.32V237.4H306.553ZM322.226 245.04C323.666 245.04 324.88 245.24 325.866 245.64C326.88 246.013 327.64 246.653 328.146 247.56C328.653 248.467 328.906 249.707 328.906 251.28V265H326.226L325.706 260.76L325.466 260.32V251.28C325.466 250.08 325.186 249.227 324.626 248.72C324.093 248.187 323.053 247.92 321.506 247.92C320.493 247.92 319.213 247.973 317.666 248.08C316.146 248.187 314.64 248.307 313.146 248.44L312.826 245.92C313.733 245.76 314.72 245.613 315.786 245.48C316.88 245.347 317.986 245.24 319.106 245.16C320.226 245.08 321.266 245.04 322.226 245.04ZM327.306 253L327.266 255.56L317.946 255.6C317.013 255.627 316.36 255.88 315.986 256.36C315.613 256.813 315.426 257.453 315.426 258.28V259.52C315.426 260.533 315.666 261.28 316.146 261.76C316.626 262.213 317.4 262.44 318.466 262.44C319.213 262.44 320.053 262.307 320.986 262.04C321.946 261.747 322.906 261.307 323.866 260.72C324.826 260.133 325.706 259.387 326.506 258.48V261C326.213 261.373 325.786 261.813 325.226 262.32C324.693 262.8 324.04 263.28 323.266 263.76C322.52 264.213 321.68 264.6 320.746 264.92C319.84 265.213 318.853 265.36 317.786 265.36C316.64 265.36 315.626 265.16 314.746 264.76C313.866 264.333 313.173 263.72 312.666 262.92C312.186 262.093 311.946 261.093 311.946 259.92V257.8C311.946 256.28 312.413 255.107 313.346 254.28C314.306 253.427 315.64 253 317.346 253H327.306ZM352.299 245.52L345.179 264.16C345.073 264.427 344.913 264.64 344.699 264.8C344.513 264.933 344.273 265 343.979 265H340.899C340.633 265 340.393 264.933 340.179 264.8C339.966 264.64 339.806 264.427 339.699 264.16L332.579 245.52H336.219L341.019 259.16C341.233 259.72 341.433 260.293 341.619 260.88C341.806 261.467 341.993 262.027 342.179 262.56H342.699C342.913 262 343.113 261.44 343.299 260.88C343.513 260.293 343.713 259.72 343.899 259.16L348.699 245.52H352.299ZM365.195 245.04C366.635 245.04 367.848 245.24 368.835 245.64C369.848 246.013 370.608 246.653 371.115 247.56C371.622 248.467 371.875 249.707 371.875 251.28V265H369.195L368.675 260.76L368.435 260.32V251.28C368.435 250.08 368.155 249.227 367.595 248.72C367.062 248.187 366.022 247.92 364.475 247.92C363.462 247.92 362.182 247.973 360.635 248.08C359.115 248.187 357.608 248.307 356.115 248.44L355.795 245.92C356.702 245.76 357.688 245.613 358.755 245.48C359.848 245.347 360.955 245.24 362.075 245.16C363.195 245.08 364.235 245.04 365.195 245.04ZM370.275 253L370.235 255.56L360.915 255.6C359.982 255.627 359.328 255.88 358.955 256.36C358.582 256.813 358.395 257.453 358.395 258.28V259.52C358.395 260.533 358.635 261.28 359.115 261.76C359.595 262.213 360.368 262.44 361.435 262.44C362.182 262.44 363.022 262.307 363.955 262.04C364.915 261.747 365.875 261.307 366.835 260.72C367.795 260.133 368.675 259.387 369.475 258.48V261C369.182 261.373 368.755 261.813 368.195 262.32C367.662 262.8 367.008 263.28 366.235 263.76C365.488 264.213 364.648 264.6 363.715 264.92C362.808 265.213 361.822 265.36 360.755 265.36C359.608 265.36 358.595 265.16 357.715 264.76C356.835 264.333 356.142 263.72 355.635 262.92C355.155 262.093 354.915 261.093 354.915 259.92V257.8C354.915 256.28 355.382 255.107 356.315 254.28C357.275 253.427 358.608 253 360.315 253H370.275ZM385.949 236.92C387.256 236.947 388.602 237.013 389.989 237.12C391.376 237.227 392.762 237.427 394.149 237.72L393.909 240.28C392.762 240.227 391.496 240.187 390.109 240.16C388.722 240.107 387.389 240.08 386.109 240.08C385.122 240.08 384.269 240.12 383.549 240.2C382.856 240.253 382.282 240.413 381.829 240.68C381.376 240.92 381.042 241.333 380.829 241.92C380.642 242.48 380.549 243.267 380.549 244.28C380.549 245.8 380.816 246.867 381.349 247.48C381.909 248.067 382.802 248.507 384.029 248.8L389.629 250.2C391.762 250.707 393.216 251.6 393.989 252.88C394.789 254.133 395.189 255.827 395.189 257.96C395.189 259.56 395.002 260.853 394.629 261.84C394.282 262.827 393.736 263.587 392.989 264.12C392.242 264.627 391.282 264.973 390.109 265.16C388.936 265.373 387.549 265.48 385.949 265.48C385.042 265.48 383.856 265.44 382.389 265.36C380.949 265.28 379.282 265.067 377.389 264.72L377.629 262.12C379.202 262.173 380.469 262.227 381.429 262.28C382.389 262.307 383.216 262.32 383.909 262.32C384.602 262.32 385.322 262.32 386.069 262.32C387.482 262.32 388.589 262.213 389.389 262C390.216 261.787 390.789 261.36 391.109 260.72C391.456 260.08 391.629 259.133 391.629 257.88C391.629 256.813 391.509 255.987 391.269 255.4C391.029 254.813 390.642 254.373 390.109 254.08C389.602 253.76 388.949 253.507 388.149 253.32L382.429 251.88C380.429 251.373 379.016 250.493 378.189 249.24C377.389 247.987 376.989 246.307 376.989 244.2C376.989 242.6 377.162 241.32 377.509 240.36C377.882 239.373 378.429 238.64 379.149 238.16C379.896 237.653 380.829 237.32 381.949 237.16C383.069 237 384.402 236.92 385.949 236.92ZM408.651 245.04C409.238 245.04 409.891 245.067 410.611 245.12C411.331 245.173 412.064 245.267 412.811 245.4C413.584 245.533 414.291 245.72 414.931 245.96L414.491 248.16C413.611 248.08 412.678 248.027 411.691 248C410.731 247.947 409.904 247.92 409.211 247.92C407.664 247.92 406.438 248.133 405.531 248.56C404.624 248.987 403.971 249.733 403.571 250.8C403.171 251.867 402.971 253.347 402.971 255.24C402.971 257.133 403.171 258.627 403.571 259.72C403.971 260.787 404.624 261.533 405.531 261.96C406.438 262.387 407.664 262.6 409.211 262.6C409.611 262.6 410.131 262.587 410.771 262.56C411.411 262.533 412.091 262.493 412.811 262.44C413.558 262.387 414.264 262.307 414.931 262.2L415.291 264.48C414.304 264.827 413.224 265.08 412.051 265.24C410.904 265.4 409.758 265.48 408.611 265.48C406.371 265.48 404.571 265.147 403.211 264.48C401.851 263.813 400.864 262.733 400.251 261.24C399.664 259.747 399.371 257.747 399.371 255.24C399.371 252.733 399.678 250.733 400.291 249.24C400.904 247.747 401.891 246.68 403.251 246.04C404.611 245.373 406.411 245.04 408.651 245.04ZM422.541 245.52L422.981 249.24L423.301 249.84V265H419.901V245.52H422.541ZM432.101 245.04L431.701 248.24H430.581C429.435 248.24 428.288 248.48 427.141 248.96C425.995 249.413 424.595 250.067 422.941 250.92L422.661 248.8C424.101 247.627 425.541 246.707 426.981 246.04C428.448 245.373 429.861 245.04 431.221 245.04H432.101ZM439.476 245.52V265H436.116V245.52H439.476ZM438.596 237.24C439.289 237.24 439.636 237.587 439.636 238.28V240.56C439.636 241.253 439.289 241.6 438.596 241.6H436.996C436.303 241.6 435.956 241.253 435.956 240.56V238.28C435.956 237.587 436.303 237.24 436.996 237.24H438.596ZM457.038 245.04C459.411 245.04 461.118 245.92 462.158 247.68C463.198 249.413 463.718 251.973 463.718 255.36C463.718 257.867 463.451 259.867 462.918 261.36C462.384 262.827 461.571 263.88 460.478 264.52C459.411 265.16 458.038 265.48 456.358 265.48C455.078 265.48 453.811 265.307 452.558 264.96C451.331 264.613 450.131 264.08 448.958 263.36L449.158 261.32C450.411 261.667 451.518 261.96 452.478 262.2C453.438 262.413 454.451 262.52 455.518 262.52C456.664 262.52 457.571 262.32 458.238 261.92C458.931 261.52 459.438 260.8 459.758 259.76C460.078 258.72 460.238 257.253 460.238 255.36C460.238 253.52 460.091 252.067 459.798 251C459.504 249.933 459.038 249.173 458.398 248.72C457.784 248.24 456.958 248 455.918 248C454.851 248 453.798 248.253 452.758 248.76C451.718 249.267 450.504 250.04 449.118 251.08L448.798 248.8C449.518 248.027 450.331 247.36 451.238 246.8C452.144 246.24 453.091 245.813 454.078 245.52C455.091 245.2 456.078 245.04 457.038 245.04ZM448.678 245.52L449.038 249.56L449.278 250.08V262.56L449.118 263.04C449.198 263.787 449.238 264.507 449.238 265.2C449.264 265.893 449.278 266.627 449.278 267.4V273.04H445.878V245.52H448.678ZM473.922 239.76V259.64C473.922 260.573 474.122 261.24 474.522 261.64C474.922 262.04 475.602 262.24 476.562 262.24H479.522L479.922 264.84C479.495 264.947 479.002 265.04 478.442 265.12C477.882 265.2 477.335 265.253 476.802 265.28C476.269 265.333 475.842 265.36 475.522 265.36C473.895 265.36 472.655 264.907 471.802 264C470.949 263.093 470.522 261.787 470.522 260.08V239.76H473.922ZM480.122 245.52V248.2H467.002V245.72L470.842 245.52H480.122ZM486.236 260.28C486.716 260.28 487.036 260.373 487.196 260.56C487.383 260.747 487.476 261.08 487.476 261.56V264.12C487.476 264.867 487.41 265.6 487.276 266.32C487.17 267.04 487.01 267.72 486.796 268.36C486.61 269.027 486.37 269.667 486.076 270.28L484.476 269.8C484.61 268.973 484.703 268.213 484.756 267.52C484.836 266.827 484.876 265.987 484.876 265C484.236 265 483.916 264.627 483.916 263.88V261.56C483.943 261.08 484.063 260.747 484.276 260.56C484.49 260.373 484.81 260.28 485.236 260.28H486.236ZM201.246 285.04C203.379 285.04 205.099 285.28 206.406 285.76C207.713 286.213 208.659 287.013 209.246 288.16C209.859 289.307 210.166 290.92 210.166 293C210.166 294.493 209.993 295.747 209.646 296.76C209.299 297.747 208.753 298.52 208.006 299.08C207.286 299.613 206.313 299.96 205.086 300.12V300.32C205.539 300.427 205.979 300.653 206.406 301C206.859 301.32 207.273 301.76 207.646 302.32C208.019 302.853 208.299 303.507 208.486 304.28L211.166 313H207.406L204.966 304.36C204.619 303.32 204.153 302.587 203.566 302.16C202.979 301.707 202.219 301.48 201.286 301.48C199.659 301.48 198.246 301.48 197.046 301.48C195.846 301.453 194.846 301.427 194.046 301.4C193.246 301.373 192.606 301.36 192.126 301.36L192.246 298.44H201.166C202.526 298.413 203.593 298.253 204.366 297.96C205.166 297.667 205.739 297.147 206.086 296.4C206.433 295.627 206.606 294.56 206.606 293.2C206.606 291.84 206.433 290.8 206.086 290.08C205.739 289.333 205.166 288.813 204.366 288.52C203.593 288.227 202.526 288.08 201.166 288.08C198.979 288.08 197.086 288.093 195.486 288.12C193.913 288.147 192.846 288.16 192.286 288.16L191.726 285.4C192.739 285.293 193.686 285.213 194.566 285.16C195.446 285.107 196.406 285.08 197.446 285.08C198.513 285.053 199.779 285.04 201.246 285.04ZM195.206 285.4V313H191.726V285.4H195.206ZM223.897 293.04C226.831 293.04 228.951 293.573 230.257 294.64C231.591 295.707 232.257 297.293 232.257 299.4C232.284 301.133 231.924 302.493 231.177 303.48C230.431 304.44 229.244 304.92 227.617 304.92H216.257V302.28H226.737C227.617 302.28 228.191 301.987 228.457 301.4C228.724 300.787 228.857 300.12 228.857 299.4C228.831 298.147 228.457 297.253 227.737 296.72C227.017 296.187 225.791 295.92 224.057 295.92C222.644 295.92 221.524 296.133 220.697 296.56C219.897 296.96 219.324 297.68 218.977 298.72C218.657 299.733 218.497 301.16 218.497 303C218.497 305.08 218.697 306.667 219.097 307.76C219.524 308.853 220.191 309.6 221.097 310C222.004 310.4 223.204 310.6 224.697 310.6C225.737 310.6 226.871 310.56 228.097 310.48C229.351 310.373 230.471 310.253 231.457 310.12L231.817 312.4C231.204 312.64 230.444 312.84 229.537 313C228.657 313.16 227.737 313.28 226.777 313.36C225.844 313.44 225.004 313.48 224.257 313.48C222.017 313.48 220.217 313.147 218.857 312.48C217.497 311.787 216.497 310.693 215.857 309.2C215.244 307.68 214.937 305.68 214.937 303.2C214.937 300.64 215.244 298.627 215.857 297.16C216.497 295.667 217.471 294.613 218.777 294C220.111 293.36 221.817 293.04 223.897 293.04ZM246.582 293.04C248.022 293.04 249.235 293.24 250.222 293.64C251.235 294.013 251.995 294.653 252.502 295.56C253.008 296.467 253.262 297.707 253.262 299.28V313H250.582L250.062 308.76L249.822 308.32V299.28C249.822 298.08 249.542 297.227 248.982 296.72C248.448 296.187 247.408 295.92 245.862 295.92C244.848 295.92 243.568 295.973 242.022 296.08C240.502 296.187 238.995 296.307 237.502 296.44L237.182 293.92C238.088 293.76 239.075 293.613 240.142 293.48C241.235 293.347 242.342 293.24 243.462 293.16C244.582 293.08 245.622 293.04 246.582 293.04ZM251.662 301L251.622 303.56L242.302 303.6C241.368 303.627 240.715 303.88 240.342 304.36C239.968 304.813 239.782 305.453 239.782 306.28V307.52C239.782 308.533 240.022 309.28 240.502 309.76C240.982 310.213 241.755 310.44 242.822 310.44C243.568 310.44 244.408 310.307 245.342 310.04C246.302 309.747 247.262 309.307 248.222 308.72C249.182 308.133 250.062 307.387 250.862 306.48V309C250.568 309.373 250.142 309.813 249.582 310.32C249.048 310.8 248.395 311.28 247.622 311.76C246.875 312.213 246.035 312.6 245.102 312.92C244.195 313.213 243.208 313.36 242.142 313.36C240.995 313.36 239.982 313.16 239.102 312.76C238.222 312.333 237.528 311.72 237.022 310.92C236.542 310.093 236.302 309.093 236.302 307.92V305.8C236.302 304.28 236.768 303.107 237.702 302.28C238.662 301.427 239.995 301 241.702 301H251.662ZM267.655 293.04C268.242 293.04 268.895 293.067 269.615 293.12C270.335 293.173 271.068 293.267 271.815 293.4C272.588 293.533 273.295 293.72 273.935 293.96L273.495 296.16C272.615 296.08 271.682 296.027 270.695 296C269.735 295.947 268.908 295.92 268.215 295.92C266.668 295.92 265.442 296.133 264.535 296.56C263.628 296.987 262.975 297.733 262.575 298.8C262.175 299.867 261.975 301.347 261.975 303.24C261.975 305.133 262.175 306.627 262.575 307.72C262.975 308.787 263.628 309.533 264.535 309.96C265.442 310.387 266.668 310.6 268.215 310.6C268.615 310.6 269.135 310.587 269.775 310.56C270.415 310.533 271.095 310.493 271.815 310.44C272.562 310.387 273.268 310.307 273.935 310.2L274.295 312.48C273.308 312.827 272.228 313.08 271.055 313.24C269.908 313.4 268.762 313.48 267.615 313.48C265.375 313.48 263.575 313.147 262.215 312.48C260.855 311.813 259.868 310.733 259.255 309.24C258.668 307.747 258.375 305.747 258.375 303.24C258.375 300.733 258.682 298.733 259.295 297.24C259.908 295.747 260.895 294.68 262.255 294.04C263.615 293.373 265.415 293.04 267.655 293.04ZM283.785 287.76V307.64C283.785 308.573 283.985 309.24 284.385 309.64C284.785 310.04 285.465 310.24 286.425 310.24H289.385L289.785 312.84C289.358 312.947 288.865 313.04 288.305 313.12C287.745 313.2 287.198 313.253 286.665 313.28C286.132 313.333 285.705 313.36 285.385 313.36C283.758 313.36 282.518 312.907 281.665 312C280.812 311.093 280.385 309.787 280.385 308.08V287.76H283.785ZM289.985 293.52V296.2H276.865V293.72L280.705 293.52H289.985ZM296.14 308.28C296.62 308.28 296.953 308.373 297.14 308.56C297.326 308.747 297.42 309.08 297.42 309.56V311.72C297.42 312.2 297.326 312.533 297.14 312.72C296.953 312.907 296.62 313 296.14 313H295.02C294.566 313 294.233 312.907 294.02 312.72C293.833 312.533 293.74 312.2 293.74 311.72V309.56C293.74 309.08 293.833 308.747 294.02 308.56C294.233 308.373 294.566 308.28 295.02 308.28H296.14ZM306.88 293.52V313.48C306.88 314.52 306.72 315.507 306.4 316.44C306.107 317.4 305.68 318.267 305.12 319.04C304.56 319.84 303.893 320.533 303.12 321.12L301.24 319.64C302.013 318.707 302.573 317.76 302.92 316.8C303.293 315.84 303.48 314.733 303.48 313.48V293.52H306.88ZM306 285.24C306.667 285.24 307 285.587 307 286.28V288.56C307 289.253 306.667 289.6 306 289.6H304.4C303.707 289.6 303.36 289.253 303.36 288.56V286.28C303.36 285.587 303.707 285.24 304.4 285.24H306ZM319.76 293.04C320.613 293.04 321.52 293.067 322.48 293.12C323.44 293.173 324.387 293.24 325.32 293.32C326.28 293.4 327.16 293.507 327.96 293.64L327.68 296.12C326.453 296.067 325.213 296.027 323.96 296C322.733 295.947 321.507 295.92 320.28 295.92C319.08 295.893 318.133 295.92 317.44 296C316.747 296.08 316.24 296.293 315.92 296.64C315.627 296.987 315.48 297.573 315.48 298.4C315.48 299.413 315.72 300.08 316.2 300.4C316.68 300.72 317.387 300.987 318.32 301.2L324 302.48C325.547 302.853 326.68 303.427 327.4 304.2C328.147 304.973 328.52 306.187 328.52 307.84C328.52 309.44 328.213 310.64 327.6 311.44C327.013 312.24 326.107 312.773 324.88 313.04C323.653 313.307 322.093 313.44 320.2 313.44C319.507 313.44 318.467 313.413 317.08 313.36C315.72 313.307 314.213 313.147 312.56 312.88L312.8 310.4C313.44 310.427 314.12 310.467 314.84 310.52C315.56 310.547 316.307 310.56 317.08 310.56C317.88 310.56 318.693 310.56 319.52 310.56C320.987 310.56 322.133 310.493 322.96 310.36C323.787 310.227 324.373 309.973 324.72 309.6C325.067 309.2 325.24 308.613 325.24 307.84C325.24 306.88 324.96 306.24 324.4 305.92C323.84 305.6 323.093 305.333 322.16 305.12L316.56 303.84C315.493 303.573 314.64 303.227 314 302.8C313.36 302.347 312.893 301.773 312.6 301.08C312.307 300.36 312.16 299.467 312.16 298.4C312.16 296.88 312.427 295.733 312.96 294.96C313.493 294.187 314.32 293.667 315.44 293.4C316.56 293.133 318 293.013 319.76 293.04ZM335.553 308.28C336.033 308.28 336.353 308.373 336.513 308.56C336.699 308.747 336.793 309.08 336.793 309.56V312.12C336.793 312.867 336.726 313.6 336.593 314.32C336.486 315.04 336.326 315.72 336.113 316.36C335.926 317.027 335.686 317.667 335.393 318.28L333.793 317.8C333.926 316.973 334.019 316.213 334.073 315.52C334.153 314.827 334.193 313.987 334.193 313C333.553 313 333.233 312.627 333.233 311.88V309.56C333.259 309.08 333.379 308.747 333.593 308.56C333.806 308.373 334.126 308.28 334.553 308.28H335.553ZM362.48 284.88C363.414 284.88 364.32 284.907 365.2 284.96C366.08 285.013 366.934 285.107 367.76 285.24C368.587 285.347 369.387 285.507 370.16 285.72L369.8 288.36C368.974 288.28 368.134 288.213 367.28 288.16C366.454 288.107 365.654 288.08 364.88 288.08C364.107 288.053 363.374 288.04 362.68 288.04C361.187 288.04 359.92 288.187 358.88 288.48C357.867 288.747 357.054 289.28 356.44 290.08C355.827 290.88 355.374 292.027 355.08 293.52C354.814 295.013 354.68 296.96 354.68 299.36C354.68 302.08 354.867 304.253 355.24 305.88C355.614 307.48 356.24 308.64 357.12 309.36C358 310.08 359.174 310.44 360.64 310.44C361.654 310.44 362.574 310.293 363.4 310C364.254 309.707 365.04 309.333 365.76 308.88C366.507 308.4 367.227 307.907 367.92 307.4L368.4 309.56C367.92 310.12 367.254 310.707 366.4 311.32C365.574 311.933 364.6 312.453 363.48 312.88C362.36 313.307 361.094 313.52 359.68 313.52C357.627 313.52 355.947 313.013 354.64 312C353.36 310.96 352.427 309.387 351.84 307.28C351.254 305.147 350.96 302.427 350.96 299.12C350.96 295.467 351.32 292.613 352.04 290.56C352.787 288.48 354 287.013 355.68 286.16C357.387 285.307 359.654 284.88 362.48 284.88ZM370.88 297.04V313H368.32L367.76 308.92L367.44 308.12V297.04H370.88ZM380.238 293.52V313H376.878V293.52H380.238ZM379.358 285.24C380.051 285.24 380.398 285.587 380.398 286.28V288.56C380.398 289.253 380.051 289.6 379.358 289.6H377.758C377.064 289.6 376.718 289.253 376.718 288.56V286.28C376.718 285.587 377.064 285.24 377.758 285.24H379.358ZM391.52 287.76V307.64C391.52 308.573 391.72 309.24 392.12 309.64C392.52 310.04 393.2 310.24 394.16 310.24H397.12L397.52 312.84C397.093 312.947 396.6 313.04 396.04 313.12C395.48 313.2 394.933 313.253 394.4 313.28C393.866 313.333 393.44 313.36 393.12 313.36C391.493 313.36 390.253 312.907 389.4 312C388.546 311.093 388.12 309.787 388.12 308.08V287.76H391.52ZM397.72 293.52V296.2H384.6V293.72L388.44 293.52H397.72Z" fill="white"/>
</svg>
