<svg width="550" height="550" viewBox="0 0 550 550" fill="none" xmlns="http://www.w3.org/2000/svg">
<circle cx="275" cy="275" r="273.5" fill="#373737" stroke="#99B4FF" stroke-width="3" />
<path d="M190.452 153.84C191.988 153.84 192.756 154.629 192.756 156.208L194.612 198H188.98L187.38 158.512H186.036L176.18 191.088C175.839 192.368 175.028 193.008 173.748 193.008H168.692C167.37 193.008 166.516 192.368 166.132 191.088L156.276 158.512H154.996L153.46 198H147.828L149.556 156.208C149.642 154.629 150.431 153.84 151.924 153.84H158.324C159.519 153.84 160.308 154.48 160.692 155.76L168.948 182.704C169.29 183.685 169.567 184.667 169.78 185.648C170.036 186.629 170.314 187.632 170.612 188.656H171.764C172.063 187.632 172.34 186.629 172.596 185.648C172.852 184.667 173.13 183.643 173.428 182.576L181.684 155.76C182.026 154.48 182.836 153.84 184.116 153.84H190.452ZM218.993 166.064C221.297 166.064 223.239 166.384 224.817 167.024C226.439 167.621 227.655 168.645 228.465 170.096C229.276 171.547 229.681 173.531 229.681 176.048V198H225.393L224.561 191.216L224.177 190.512V176.048C224.177 174.128 223.729 172.763 222.833 171.952C221.98 171.099 220.316 170.672 217.841 170.672C216.22 170.672 214.172 170.757 211.697 170.928C209.265 171.099 206.855 171.291 204.465 171.504L203.953 167.472C205.404 167.216 206.983 166.981 208.689 166.768C210.439 166.555 212.209 166.384 214.001 166.256C215.793 166.128 217.457 166.064 218.993 166.064ZM227.121 178.8L227.057 182.896L212.145 182.96C210.652 183.003 209.607 183.408 209.009 184.176C208.412 184.901 208.113 185.925 208.113 187.248V189.232C208.113 190.853 208.497 192.048 209.265 192.816C210.033 193.541 211.271 193.904 212.977 193.904C214.172 193.904 215.516 193.691 217.009 193.264C218.545 192.795 220.081 192.091 221.617 191.152C223.153 190.213 224.561 189.019 225.841 187.568V191.6C225.372 192.197 224.689 192.901 223.793 193.712C222.94 194.48 221.895 195.248 220.657 196.016C219.463 196.741 218.119 197.36 216.625 197.872C215.175 198.341 213.596 198.576 211.889 198.576C210.055 198.576 208.433 198.256 207.025 197.616C205.617 196.933 204.508 195.952 203.697 194.672C202.929 193.349 202.545 191.749 202.545 189.872V186.48C202.545 184.048 203.292 182.171 204.785 180.848C206.321 179.483 208.455 178.8 211.185 178.8H227.121ZM247.206 157.616V189.424C247.206 190.917 247.526 191.984 248.166 192.624C248.806 193.264 249.894 193.584 251.43 193.584H256.166L256.806 197.744C256.124 197.915 255.334 198.064 254.438 198.192C253.542 198.32 252.668 198.405 251.814 198.448C250.961 198.533 250.278 198.576 249.766 198.576C247.164 198.576 245.18 197.851 243.814 196.4C242.449 194.949 241.766 192.859 241.766 190.128V157.616H247.206ZM257.126 166.832V171.12H236.134V167.152L242.278 166.832H257.126ZM277.085 166.064C278.024 166.064 279.069 166.107 280.221 166.192C281.373 166.277 282.547 166.427 283.741 166.64C284.979 166.853 286.109 167.152 287.133 167.536L286.429 171.056C285.021 170.928 283.528 170.843 281.949 170.8C280.413 170.715 279.091 170.672 277.981 170.672C275.507 170.672 273.544 171.013 272.093 171.696C270.643 172.379 269.597 173.573 268.957 175.28C268.317 176.987 267.997 179.355 267.997 182.384C267.997 185.413 268.317 187.803 268.957 189.552C269.597 191.259 270.643 192.453 272.093 193.136C273.544 193.819 275.507 194.16 277.981 194.16C278.621 194.16 279.453 194.139 280.477 194.096C281.501 194.053 282.589 193.989 283.741 193.904C284.936 193.819 286.067 193.691 287.133 193.52L287.709 197.168C286.131 197.723 284.403 198.128 282.525 198.384C280.691 198.64 278.856 198.768 277.021 198.768C273.437 198.768 270.557 198.235 268.381 197.168C266.205 196.101 264.627 194.373 263.645 191.984C262.707 189.595 262.237 186.395 262.237 182.384C262.237 178.373 262.728 175.173 263.709 172.784C264.691 170.395 266.269 168.688 268.445 167.664C270.621 166.597 273.501 166.064 277.085 166.064ZM314.03 166.064C319.662 166.064 322.478 168.923 322.478 174.64V198H316.974V176.176C316.974 174.085 316.632 172.656 315.95 171.888C315.31 171.077 314.179 170.672 312.558 170.672C310.638 170.672 308.718 171.12 306.798 172.016C304.878 172.912 302.595 174.213 299.95 175.92L299.694 172.016C302.126 170.181 304.536 168.731 306.926 167.664C309.315 166.597 311.683 166.064 314.03 166.064ZM300.526 153.2L300.59 165.552C300.59 166.96 300.526 168.283 300.398 169.52C300.312 170.757 300.163 171.845 299.95 172.784L300.526 173.744V198H295.086V153.2H300.526ZM351.409 179.76V183.92H331.889V179.76H351.409ZM372.543 153.008C375.786 153.008 378.389 153.328 380.351 153.968C382.357 154.565 383.829 155.611 384.767 157.104C385.706 158.597 386.175 160.645 386.175 163.248C386.175 165.125 385.983 166.853 385.599 168.432C385.215 169.968 384.554 171.269 383.615 172.336C382.719 173.36 381.418 174.043 379.711 174.384V174.64C382.613 175.109 384.597 176.325 385.663 178.288C386.773 180.208 387.349 182.683 387.391 185.712C387.434 188.699 387.007 191.173 386.111 193.136C385.215 195.056 383.743 196.485 381.695 197.424C379.647 198.363 376.874 198.832 373.375 198.832C371.029 198.832 368.661 198.704 366.271 198.448C363.925 198.235 361.621 197.979 359.359 197.68L359.743 193.136C361.194 193.264 362.581 193.392 363.903 193.52C365.269 193.605 366.613 193.669 367.935 193.712C369.258 193.755 370.602 193.776 371.967 193.776C374.357 193.776 376.255 193.52 377.663 193.008C379.114 192.453 380.159 191.536 380.799 190.256C381.482 188.976 381.823 187.269 381.823 185.136C381.823 183.515 381.589 182.107 381.119 180.912C380.693 179.675 379.839 178.715 378.559 178.032C377.322 177.349 375.487 177.008 373.055 177.008H364.863V172.592H373.055C374.805 172.592 376.191 172.357 377.215 171.888C378.282 171.419 379.071 170.821 379.583 170.096C380.095 169.328 380.415 168.475 380.543 167.536C380.714 166.555 380.799 165.552 380.799 164.528C380.757 162.651 380.458 161.264 379.903 160.368C379.349 159.429 378.41 158.811 377.087 158.512C375.807 158.171 374.037 158 371.775 158C369.685 158 367.658 158.064 365.695 158.192C363.775 158.277 362.069 158.384 360.575 158.512L360.127 154.16C362.303 153.776 364.394 153.499 366.399 153.328C368.447 153.115 370.495 153.008 372.543 153.008ZM214.025 230.008C215.518 230.008 216.969 230.051 218.377 230.136C219.785 230.221 221.15 230.371 222.473 230.584C223.796 230.755 225.076 231.011 226.313 231.352L225.737 235.576C224.414 235.448 223.07 235.341 221.705 235.256C220.382 235.171 219.102 235.128 217.865 235.128C216.628 235.085 215.454 235.064 214.345 235.064C211.956 235.064 209.929 235.299 208.265 235.768C206.644 236.195 205.342 237.048 204.361 238.328C203.38 239.608 202.654 241.443 202.185 243.832C201.758 246.221 201.545 249.336 201.545 253.176C201.545 257.528 201.844 261.005 202.441 263.608C203.038 266.168 204.041 268.024 205.449 269.176C206.857 270.328 208.734 270.904 211.081 270.904C212.702 270.904 214.174 270.669 215.497 270.2C216.862 269.731 218.121 269.133 219.273 268.408C220.468 267.64 221.62 266.851 222.729 266.04L223.497 269.496C222.729 270.392 221.662 271.331 220.297 272.312C218.974 273.293 217.417 274.125 215.625 274.808C213.833 275.491 211.806 275.832 209.545 275.832C206.26 275.832 203.572 275.021 201.481 273.4C199.433 271.736 197.94 269.219 197.001 265.848C196.062 262.435 195.593 258.083 195.593 252.792C195.593 246.947 196.169 242.381 197.321 239.096C198.516 235.768 200.457 233.421 203.145 232.056C205.876 230.691 209.502 230.008 214.025 230.008ZM227.465 249.464V275H223.369L222.473 268.472L221.961 267.192V249.464H227.465ZM251.525 243.064C253.829 243.064 255.77 243.384 257.349 244.024C258.97 244.621 260.186 245.645 260.997 247.096C261.807 248.547 262.213 250.531 262.213 253.048V275H257.925L257.093 268.216L256.709 267.512V253.048C256.709 251.128 256.261 249.763 255.365 248.952C254.511 248.099 252.847 247.672 250.373 247.672C248.751 247.672 246.703 247.757 244.229 247.928C241.797 248.099 239.386 248.291 236.997 248.504L236.485 244.472C237.935 244.216 239.514 243.981 241.22 243.768C242.97 243.555 244.741 243.384 246.533 243.256C248.325 243.128 249.989 243.064 251.525 243.064ZM259.653 255.8L259.589 259.896L244.677 259.96C243.183 260.003 242.138 260.408 241.541 261.176C240.943 261.901 240.645 262.925 240.645 264.248V266.232C240.645 267.853 241.029 269.048 241.797 269.816C242.565 270.541 243.802 270.904 245.509 270.904C246.703 270.904 248.047 270.691 249.541 270.264C251.077 269.795 252.613 269.091 254.149 268.152C255.685 267.213 257.093 266.019 258.373 264.568V268.6C257.903 269.197 257.221 269.901 256.325 270.712C255.471 271.48 254.426 272.248 253.189 273.016C251.994 273.741 250.65 274.36 249.157 274.872C247.706 275.341 246.127 275.576 244.421 275.576C242.586 275.576 240.965 275.256 239.557 274.616C238.149 273.933 237.039 272.952 236.229 271.672C235.461 270.349 235.077 268.749 235.077 266.872V263.48C235.077 261.048 235.823 259.171 237.317 257.848C238.853 256.483 240.986 255.8 243.717 255.8H259.653ZM309.882 243.064C312.57 243.064 314.618 243.789 316.026 245.24C317.476 246.691 318.202 248.824 318.202 251.64V275H312.826V253.176C312.783 251.256 312.399 249.869 311.674 249.016C310.948 248.12 309.711 247.672 307.962 247.672C306.852 247.672 305.786 247.864 304.762 248.248C303.78 248.589 302.692 249.144 301.498 249.912C300.303 250.68 298.852 251.683 297.146 252.92L296.826 249.08C299.087 247.075 301.284 245.581 303.418 244.6C305.551 243.576 307.706 243.064 309.882 243.064ZM276.41 243.832L276.794 249.784L277.37 250.744V275H271.93V243.832H276.41ZM289.466 243.064C292.111 243.064 294.138 243.789 295.546 245.24C296.954 246.648 297.679 248.781 297.722 251.64V275H292.474V253.176C292.474 251.171 292.068 249.763 291.258 248.952C290.447 248.099 289.231 247.672 287.61 247.672C286.543 247.672 285.498 247.843 284.474 248.184C283.492 248.525 282.383 249.08 281.146 249.848C279.951 250.616 278.479 251.64 276.73 252.92L276.345 249.08C278.607 247.075 280.804 245.581 282.938 244.6C285.071 243.576 287.247 243.064 289.466 243.064ZM340.792 243.064C345.485 243.064 348.877 243.917 350.968 245.624C353.101 247.331 354.168 249.869 354.168 253.24C354.211 256.013 353.635 258.189 352.44 259.768C351.245 261.304 349.347 262.072 346.744 262.072H328.568V257.848H345.336C346.744 257.848 347.661 257.379 348.088 256.44C348.515 255.459 348.728 254.392 348.728 253.24C348.685 251.235 348.088 249.805 346.936 248.952C345.784 248.099 343.821 247.672 341.048 247.672C338.787 247.672 336.995 248.013 335.672 248.696C334.392 249.336 333.475 250.488 332.92 252.152C332.408 253.773 332.152 256.056 332.152 259C332.152 262.328 332.472 264.867 333.112 266.616C333.795 268.365 334.861 269.56 336.312 270.2C337.763 270.84 339.683 271.16 342.072 271.16C343.736 271.16 345.549 271.096 347.512 270.968C349.517 270.797 351.309 270.605 352.888 270.392L353.464 274.04C352.483 274.424 351.267 274.744 349.816 275C348.408 275.256 346.936 275.448 345.4 275.576C343.907 275.704 342.563 275.768 341.368 275.768C337.784 275.768 334.904 275.235 332.728 274.168C330.552 273.059 328.952 271.309 327.928 268.92C326.947 266.488 326.456 263.288 326.456 259.32C326.456 255.224 326.947 252.003 327.928 249.656C328.952 247.267 330.509 245.581 332.6 244.6C334.733 243.576 337.464 243.064 340.792 243.064ZM181.519 307.264C184.932 307.264 187.684 307.648 189.775 308.416C191.865 309.141 193.38 310.421 194.319 312.256C195.3 314.091 195.791 316.672 195.791 320C195.791 322.389 195.513 324.395 194.959 326.016C194.404 327.595 193.529 328.832 192.335 329.728C191.183 330.581 189.625 331.136 187.663 331.392V331.712C188.388 331.883 189.092 332.245 189.775 332.8C190.5 333.312 191.161 334.016 191.759 334.912C192.356 335.765 192.804 336.811 193.103 338.048L197.391 352H191.375L187.471 338.176C186.916 336.512 186.169 335.339 185.231 334.656C184.292 333.931 183.076 333.568 181.583 333.568C178.98 333.568 176.719 333.568 174.799 333.568C172.879 333.525 171.279 333.483 169.999 333.44C168.719 333.397 167.695 333.376 166.927 333.376L167.119 328.704H181.391C183.567 328.661 185.273 328.405 186.511 327.936C187.791 327.467 188.708 326.635 189.263 325.44C189.817 324.203 190.095 322.496 190.095 320.32C190.095 318.144 189.817 316.48 189.263 315.328C188.708 314.133 187.791 313.301 186.511 312.832C185.273 312.363 183.567 312.128 181.391 312.128C177.892 312.128 174.863 312.149 172.303 312.192C169.785 312.235 168.079 312.256 167.183 312.256L166.287 307.84C167.908 307.669 169.423 307.541 170.831 307.456C172.239 307.371 173.775 307.328 175.439 307.328C177.145 307.285 179.172 307.264 181.519 307.264ZM171.855 307.84V352H166.287V307.84H171.855ZM217.761 320.064C222.454 320.064 225.846 320.917 227.937 322.624C230.07 324.331 231.137 326.869 231.137 330.24C231.179 333.013 230.603 335.189 229.409 336.768C228.214 338.304 226.315 339.072 223.713 339.072H205.537V334.848H222.305C223.713 334.848 224.63 334.379 225.057 333.44C225.483 332.459 225.697 331.392 225.697 330.24C225.654 328.235 225.057 326.805 223.905 325.952C222.753 325.099 220.79 324.672 218.017 324.672C215.755 324.672 213.963 325.013 212.641 325.696C211.361 326.336 210.443 327.488 209.889 329.152C209.377 330.773 209.121 333.056 209.121 336C209.121 339.328 209.441 341.867 210.081 343.616C210.763 345.365 211.83 346.56 213.281 347.2C214.731 347.84 216.651 348.16 219.041 348.16C220.705 348.16 222.518 348.096 224.481 347.968C226.486 347.797 228.278 347.605 229.857 347.392L230.433 351.04C229.451 351.424 228.235 351.744 226.785 352C225.377 352.256 223.905 352.448 222.369 352.576C220.875 352.704 219.531 352.768 218.337 352.768C214.753 352.768 211.873 352.235 209.697 351.168C207.521 350.059 205.921 348.309 204.897 345.92C203.915 343.488 203.425 340.288 203.425 336.32C203.425 332.224 203.915 329.003 204.897 326.656C205.921 324.267 207.478 322.581 209.569 321.6C211.702 320.576 214.433 320.064 217.761 320.064ZM254.056 320.064C256.36 320.064 258.301 320.384 259.88 321.024C261.501 321.621 262.717 322.645 263.528 324.096C264.338 325.547 264.744 327.531 264.744 330.048V352H260.456L259.624 345.216L259.24 344.512V330.048C259.24 328.128 258.792 326.763 257.896 325.952C257.042 325.099 255.378 324.672 252.904 324.672C251.282 324.672 249.234 324.757 246.76 324.928C244.328 325.099 241.917 325.291 239.528 325.504L239.016 321.472C240.466 321.216 242.045 320.981 243.752 320.768C245.501 320.555 247.272 320.384 249.064 320.256C250.856 320.128 252.52 320.064 254.056 320.064ZM262.184 332.8L262.12 336.896L247.208 336.96C245.714 337.003 244.669 337.408 244.072 338.176C243.474 338.901 243.176 339.925 243.176 341.248V343.232C243.176 344.853 243.56 346.048 244.328 346.816C245.096 347.541 246.333 347.904 248.04 347.904C249.234 347.904 250.578 347.691 252.072 347.264C253.608 346.795 255.144 346.091 256.68 345.152C258.216 344.213 259.624 343.019 260.904 341.568V345.6C260.434 346.197 259.752 346.901 258.856 347.712C258.002 348.48 256.957 349.248 255.72 350.016C254.525 350.741 253.181 351.36 251.688 351.872C250.237 352.341 248.658 352.576 246.952 352.576C245.117 352.576 243.496 352.256 242.088 351.616C240.68 350.933 239.57 349.952 238.76 348.672C237.992 347.349 237.608 345.749 237.608 343.872V340.48C237.608 338.048 238.354 336.171 239.848 334.848C241.384 333.483 243.517 332.8 246.248 332.8H262.184ZM287.773 320.064C288.711 320.064 289.757 320.107 290.909 320.192C292.061 320.277 293.234 320.427 294.429 320.64C295.666 320.853 296.797 321.152 297.821 321.536L297.117 325.056C295.709 324.928 294.215 324.843 292.637 324.8C291.101 324.715 289.778 324.672 288.669 324.672C286.194 324.672 284.231 325.013 282.781 325.696C281.33 326.379 280.285 327.573 279.645 329.28C279.005 330.987 278.685 333.355 278.685 336.384C278.685 339.413 279.005 341.803 279.645 343.552C280.285 345.259 281.33 346.453 282.781 347.136C284.231 347.819 286.194 348.16 288.669 348.16C289.309 348.16 290.141 348.139 291.165 348.096C292.189 348.053 293.277 347.989 294.429 347.904C295.623 347.819 296.754 347.691 297.821 347.52L298.397 351.168C296.818 351.723 295.09 352.128 293.213 352.384C291.378 352.64 289.543 352.768 287.709 352.768C284.125 352.768 281.245 352.235 279.069 351.168C276.893 350.101 275.314 348.373 274.333 345.984C273.394 343.595 272.925 340.395 272.925 336.384C272.925 332.373 273.415 329.173 274.397 326.784C275.378 324.395 276.957 322.688 279.133 321.664C281.309 320.597 284.189 320.064 287.773 320.064ZM313.581 311.616V343.424C313.581 344.917 313.901 345.984 314.541 346.624C315.181 347.264 316.269 347.584 317.805 347.584H322.541L323.181 351.744C322.499 351.915 321.709 352.064 320.813 352.192C319.917 352.32 319.043 352.405 318.189 352.448C317.336 352.533 316.653 352.576 316.141 352.576C313.539 352.576 311.555 351.851 310.189 350.4C308.824 348.949 308.141 346.859 308.141 344.128V311.616H313.581ZM323.501 320.832V325.12H302.509V321.152L308.653 320.832H323.501ZM333.348 344.448C334.116 344.448 334.65 344.597 334.948 344.896C335.247 345.195 335.396 345.728 335.396 346.496V349.952C335.396 350.72 335.247 351.253 334.948 351.552C334.65 351.851 334.116 352 333.348 352H331.556C330.831 352 330.298 351.851 329.956 351.552C329.658 351.253 329.508 350.72 329.508 349.952V346.496C329.508 345.728 329.658 345.195 329.956 344.896C330.298 344.597 330.831 344.448 331.556 344.448H333.348ZM350.533 320.832V352.768C350.533 354.432 350.277 356.011 349.765 357.504C349.296 359.04 348.613 360.427 347.717 361.664C346.821 362.944 345.755 364.053 344.517 364.992L341.509 362.624C342.747 361.131 343.643 359.616 344.197 358.08C344.795 356.544 345.093 354.773 345.093 352.768V320.832H350.533ZM349.125 307.584C350.192 307.584 350.725 308.139 350.725 309.248V312.896C350.725 314.005 350.192 314.56 349.125 314.56H346.565C345.456 314.56 344.901 314.005 344.901 312.896V309.248C344.901 308.139 345.456 307.584 346.565 307.584H349.125ZM371.141 320.064C372.507 320.064 373.957 320.107 375.493 320.192C377.029 320.277 378.544 320.384 380.037 320.512C381.573 320.64 382.981 320.811 384.261 321.024L383.813 324.992C381.851 324.907 379.867 324.843 377.861 324.8C375.899 324.715 373.936 324.672 371.973 324.672C370.053 324.629 368.539 324.672 367.429 324.8C366.32 324.928 365.509 325.269 364.997 325.824C364.528 326.379 364.293 327.317 364.293 328.64C364.293 330.261 364.677 331.328 365.445 331.84C366.213 332.352 367.344 332.779 368.837 333.12L377.925 335.168C380.4 335.765 382.213 336.683 383.365 337.92C384.56 339.157 385.157 341.099 385.157 343.744C385.157 346.304 384.667 348.224 383.685 349.504C382.747 350.784 381.296 351.637 379.333 352.064C377.371 352.491 374.875 352.704 371.845 352.704C370.736 352.704 369.072 352.661 366.853 352.576C364.677 352.491 362.267 352.235 359.621 351.808L360.005 347.84C361.029 347.883 362.117 347.947 363.269 348.032C364.421 348.075 365.616 348.096 366.853 348.096C368.133 348.096 369.435 348.096 370.757 348.096C373.104 348.096 374.939 347.989 376.261 347.776C377.584 347.563 378.523 347.157 379.077 346.56C379.632 345.92 379.909 344.981 379.909 343.744C379.909 342.208 379.461 341.184 378.565 340.672C377.669 340.16 376.475 339.733 374.981 339.392L366.021 337.344C364.315 336.917 362.949 336.363 361.925 335.68C360.901 334.955 360.155 334.037 359.685 332.928C359.216 331.776 358.981 330.347 358.981 328.64C358.981 326.208 359.408 324.373 360.261 323.136C361.115 321.899 362.437 321.067 364.229 320.64C366.021 320.213 368.325 320.021 371.141 320.064Z" fill="#5BB9B8"/>
</svg>
