<svg width="593" height="584" viewBox="0 0 593 584" fill="none" xmlns="http://www.w3.org/2000/svg">
<path d="M330 19C292 26 290.5 40 256.5 4.5C256.5 9.33333 254.1 20.5 244.5 26.5C232.5 34 227.5 36 204 19C180.5 2 204 49 187 59.5C170 70 160.5 38.5 137 36C113.5 33.5 151.5 72.5 114.5 92.5C77.5 112.5 93.5 92.5 75.5 99C57.5 105.5 88.5 129 88.5 148.5C88.5 168 52.9996 151.5 20.0002 156.5C-12.9992 161.5 30.5 186.5 38.4995 219.5C46.4991 252.5 20.0002 269.5 5.49954 276C-9.0011 282.5 29.4995 303.5 38.4995 322C47.4995 340.5 24.0002 356 20.0002 369C16.0002 382 60.9996 377 61.9996 394C62.9996 411 51.4996 400.5 52.9996 417.5C54.4996 434.5 88.5 428 99 448C109.5 468 84.5 459.5 88.5 484.5C92.5 509.5 117 484.5 145 491C173 497.5 147.5 509.5 151.5 541C155.5 572.5 180 541 204 533C228 525 226 541 244.5 572.5C263 604 267 547.5 292 541C317 534.5 310 558 330 572.5C350 587 343 549 361.5 524C380 499 386 526.5 416.5 533C447 539.5 421.5 504.5 446.5 484.5C471.5 464.5 475.5 486 499 484.5C522.5 483 492.5 444 499 428C505.5 412 511 427 547.5 431C589.5 426 547.5 407 538.5 369C529.5 331 538.5 354.5 578 348C617.5 341.5 559.5 323 538.5 295.5C517.5 268 559.5 297 559.5 261.5C559.5 226 522.5 236.5 547.5 227.5C572.5 218.5 551.5 185.5 505.5 171C459.5 156.5 517.5 141 522.5 112C527.5 83 477 114.5 475.5 99C474 83.5 458.5 49 438.5 49C418.5 49 385 64.5 386 49C387 33.5 368 12 330 19Z" fill="#5BB9B8" stroke="#5BB9B8" stroke-width="3"/>
<path d="M207.452 171.84C208.988 171.84 209.756 172.629 209.756 174.208L211.612 216H205.98L204.38 176.512H203.036L193.18 209.088C192.839 210.368 192.028 211.008 190.748 211.008H185.692C184.37 211.008 183.516 210.368 183.132 209.088L173.276 176.512H171.996L170.46 216H164.828L166.556 174.208C166.642 172.629 167.431 171.84 168.924 171.84H175.324C176.519 171.84 177.308 172.48 177.692 173.76L185.948 200.704C186.29 201.685 186.567 202.667 186.78 203.648C187.036 204.629 187.314 205.632 187.612 206.656H188.764C189.063 205.632 189.34 204.629 189.596 203.648C189.852 202.667 190.13 201.643 190.428 200.576L198.684 173.76C199.026 172.48 199.836 171.84 201.116 171.84H207.452ZM235.993 184.064C238.297 184.064 240.239 184.384 241.817 185.024C243.439 185.621 244.655 186.645 245.465 188.096C246.276 189.547 246.681 191.531 246.681 194.048V216H242.393L241.561 209.216L241.177 208.512V194.048C241.177 192.128 240.729 190.763 239.833 189.952C238.98 189.099 237.316 188.672 234.841 188.672C233.22 188.672 231.172 188.757 228.697 188.928C226.265 189.099 223.855 189.291 221.465 189.504L220.953 185.472C222.404 185.216 223.983 184.981 225.689 184.768C227.439 184.555 229.209 184.384 231.001 184.256C232.793 184.128 234.457 184.064 235.993 184.064ZM244.121 196.8L244.057 200.896L229.145 200.96C227.652 201.003 226.607 201.408 226.009 202.176C225.412 202.901 225.113 203.925 225.113 205.248V207.232C225.113 208.853 225.497 210.048 226.265 210.816C227.033 211.541 228.271 211.904 229.977 211.904C231.172 211.904 232.516 211.691 234.009 211.264C235.545 210.795 237.081 210.091 238.617 209.152C240.153 208.213 241.561 207.019 242.841 205.568V209.6C242.372 210.197 241.689 210.901 240.793 211.712C239.94 212.48 238.895 213.248 237.657 214.016C236.463 214.741 235.119 215.36 233.625 215.872C232.175 216.341 230.596 216.576 228.889 216.576C227.055 216.576 225.433 216.256 224.025 215.616C222.617 214.933 221.508 213.952 220.697 212.672C219.929 211.349 219.545 209.749 219.545 207.872V204.48C219.545 202.048 220.292 200.171 221.785 198.848C223.321 197.483 225.455 196.8 228.185 196.8H244.121ZM264.206 175.616V207.424C264.206 208.917 264.526 209.984 265.166 210.624C265.806 211.264 266.894 211.584 268.43 211.584H273.166L273.806 215.744C273.124 215.915 272.334 216.064 271.438 216.192C270.542 216.32 269.668 216.405 268.814 216.448C267.961 216.533 267.278 216.576 266.766 216.576C264.164 216.576 262.18 215.851 260.814 214.4C259.449 212.949 258.766 210.859 258.766 208.128V175.616H264.206ZM274.126 184.832V189.12H253.134V185.152L259.278 184.832H274.126ZM294.085 184.064C295.024 184.064 296.069 184.107 297.221 184.192C298.373 184.277 299.547 184.427 300.741 184.64C301.979 184.853 303.109 185.152 304.133 185.536L303.429 189.056C302.021 188.928 300.528 188.843 298.949 188.8C297.413 188.715 296.091 188.672 294.981 188.672C292.507 188.672 290.544 189.013 289.093 189.696C287.643 190.379 286.597 191.573 285.957 193.28C285.317 194.987 284.997 197.355 284.997 200.384C284.997 203.413 285.317 205.803 285.957 207.552C286.597 209.259 287.643 210.453 289.093 211.136C290.544 211.819 292.507 212.16 294.981 212.16C295.621 212.16 296.453 212.139 297.477 212.096C298.501 212.053 299.589 211.989 300.741 211.904C301.936 211.819 303.067 211.691 304.133 211.52L304.709 215.168C303.131 215.723 301.403 216.128 299.525 216.384C297.691 216.64 295.856 216.768 294.021 216.768C290.437 216.768 287.557 216.235 285.381 215.168C283.205 214.101 281.627 212.373 280.645 209.984C279.707 207.595 279.237 204.395 279.237 200.384C279.237 196.373 279.728 193.173 280.709 190.784C281.691 188.395 283.269 186.688 285.445 185.664C287.621 184.597 290.501 184.064 294.085 184.064ZM331.03 184.064C336.662 184.064 339.478 186.923 339.478 192.64V216H333.974V194.176C333.974 192.085 333.632 190.656 332.95 189.888C332.31 189.077 331.179 188.672 329.558 188.672C327.638 188.672 325.718 189.12 323.798 190.016C321.878 190.912 319.595 192.213 316.95 193.92L316.694 190.016C319.126 188.181 321.536 186.731 323.926 185.664C326.315 184.597 328.683 184.064 331.03 184.064ZM317.526 171.2L317.59 183.552C317.59 184.96 317.526 186.283 317.398 187.52C317.312 188.757 317.163 189.845 316.95 190.784L317.526 191.744V216H312.086V171.2H317.526ZM368.409 197.76V201.92H348.889V197.76H368.409ZM389.543 171.008C392.786 171.008 395.389 171.328 397.351 171.968C399.357 172.565 400.829 173.611 401.767 175.104C402.706 176.597 403.175 178.645 403.175 181.248C403.175 183.125 402.983 184.853 402.599 186.432C402.215 187.968 401.554 189.269 400.615 190.336C399.719 191.36 398.418 192.043 396.711 192.384V192.64C399.613 193.109 401.597 194.325 402.663 196.288C403.773 198.208 404.349 200.683 404.391 203.712C404.434 206.699 404.007 209.173 403.111 211.136C402.215 213.056 400.743 214.485 398.695 215.424C396.647 216.363 393.874 216.832 390.375 216.832C388.029 216.832 385.661 216.704 383.271 216.448C380.925 216.235 378.621 215.979 376.359 215.68L376.743 211.136C378.194 211.264 379.581 211.392 380.903 211.52C382.269 211.605 383.613 211.669 384.935 211.712C386.258 211.755 387.602 211.776 388.967 211.776C391.357 211.776 393.255 211.52 394.663 211.008C396.114 210.453 397.159 209.536 397.799 208.256C398.482 206.976 398.823 205.269 398.823 203.136C398.823 201.515 398.589 200.107 398.119 198.912C397.693 197.675 396.839 196.715 395.559 196.032C394.322 195.349 392.487 195.008 390.055 195.008H381.863V190.592H390.055C391.805 190.592 393.191 190.357 394.215 189.888C395.282 189.419 396.071 188.821 396.583 188.096C397.095 187.328 397.415 186.475 397.543 185.536C397.714 184.555 397.799 183.552 397.799 182.528C397.757 180.651 397.458 179.264 396.903 178.368C396.349 177.429 395.41 176.811 394.087 176.512C392.807 176.171 391.037 176 388.775 176C386.685 176 384.658 176.064 382.695 176.192C380.775 176.277 379.069 176.384 377.575 176.512L377.127 172.16C379.303 171.776 381.394 171.499 383.399 171.328C385.447 171.115 387.495 171.008 389.543 171.008ZM231.025 248.008C232.518 248.008 233.969 248.051 235.377 248.136C236.785 248.221 238.15 248.371 239.473 248.584C240.796 248.755 242.076 249.011 243.313 249.352L242.737 253.576C241.414 253.448 240.07 253.341 238.705 253.256C237.382 253.171 236.102 253.128 234.865 253.128C233.628 253.085 232.454 253.064 231.345 253.064C228.956 253.064 226.929 253.299 225.265 253.768C223.644 254.195 222.342 255.048 221.361 256.328C220.38 257.608 219.654 259.443 219.185 261.832C218.758 264.221 218.545 267.336 218.545 271.176C218.545 275.528 218.844 279.005 219.441 281.608C220.038 284.168 221.041 286.024 222.449 287.176C223.857 288.328 225.734 288.904 228.081 288.904C229.702 288.904 231.174 288.669 232.497 288.2C233.862 287.731 235.121 287.133 236.273 286.408C237.468 285.64 238.62 284.851 239.729 284.04L240.497 287.496C239.729 288.392 238.662 289.331 237.297 290.312C235.974 291.293 234.417 292.125 232.625 292.808C230.833 293.491 228.806 293.832 226.545 293.832C223.26 293.832 220.572 293.021 218.481 291.4C216.433 289.736 214.94 287.219 214.001 283.848C213.062 280.435 212.593 276.083 212.593 270.792C212.593 264.947 213.169 260.381 214.321 257.096C215.516 253.768 217.457 251.421 220.145 250.056C222.876 248.691 226.502 248.008 231.025 248.008ZM244.465 267.464V293H240.369L239.473 286.472L238.961 285.192V267.464H244.465ZM268.525 261.064C270.829 261.064 272.77 261.384 274.349 262.024C275.97 262.621 277.186 263.645 277.997 265.096C278.807 266.547 279.213 268.531 279.213 271.048V293H274.925L274.093 286.216L273.709 285.512V271.048C273.709 269.128 273.261 267.763 272.365 266.952C271.511 266.099 269.847 265.672 267.373 265.672C265.751 265.672 263.703 265.757 261.229 265.928C258.797 266.099 256.386 266.291 253.997 266.504L253.485 262.472C254.935 262.216 256.514 261.981 258.22 261.768C259.97 261.555 261.741 261.384 263.533 261.256C265.325 261.128 266.989 261.064 268.525 261.064ZM276.653 273.8L276.589 277.896L261.677 277.96C260.183 278.003 259.138 278.408 258.541 279.176C257.943 279.901 257.645 280.925 257.645 282.248V284.232C257.645 285.853 258.029 287.048 258.797 287.816C259.565 288.541 260.802 288.904 262.509 288.904C263.703 288.904 265.047 288.691 266.541 288.264C268.077 287.795 269.613 287.091 271.149 286.152C272.685 285.213 274.093 284.019 275.373 282.568V286.6C274.903 287.197 274.221 287.901 273.325 288.712C272.471 289.48 271.426 290.248 270.189 291.016C268.994 291.741 267.65 292.36 266.157 292.872C264.706 293.341 263.127 293.576 261.421 293.576C259.586 293.576 257.965 293.256 256.557 292.616C255.149 291.933 254.039 290.952 253.229 289.672C252.461 288.349 252.077 286.749 252.077 284.872V281.48C252.077 279.048 252.823 277.171 254.317 275.848C255.853 274.483 257.986 273.8 260.717 273.8H276.653ZM326.882 261.064C329.57 261.064 331.618 261.789 333.026 263.24C334.476 264.691 335.202 266.824 335.202 269.64V293H329.826V271.176C329.783 269.256 329.399 267.869 328.674 267.016C327.948 266.12 326.711 265.672 324.962 265.672C323.852 265.672 322.786 265.864 321.762 266.248C320.78 266.589 319.692 267.144 318.498 267.912C317.303 268.68 315.852 269.683 314.146 270.92L313.826 267.08C316.087 265.075 318.284 263.581 320.418 262.6C322.551 261.576 324.706 261.064 326.882 261.064ZM293.41 261.832L293.794 267.784L294.37 268.744V293H288.93V261.832H293.41ZM306.466 261.064C309.111 261.064 311.138 261.789 312.546 263.24C313.954 264.648 314.679 266.781 314.722 269.64V293H309.474V271.176C309.474 269.171 309.068 267.763 308.258 266.952C307.447 266.099 306.231 265.672 304.61 265.672C303.543 265.672 302.498 265.843 301.474 266.184C300.492 266.525 299.383 267.08 298.146 267.848C296.951 268.616 295.479 269.64 293.73 270.92L293.345 267.08C295.607 265.075 297.804 263.581 299.938 262.6C302.071 261.576 304.247 261.064 306.466 261.064ZM357.792 261.064C362.485 261.064 365.877 261.917 367.968 263.624C370.101 265.331 371.168 267.869 371.168 271.24C371.211 274.013 370.635 276.189 369.44 277.768C368.245 279.304 366.347 280.072 363.744 280.072H345.568V275.848H362.336C363.744 275.848 364.661 275.379 365.088 274.44C365.515 273.459 365.728 272.392 365.728 271.24C365.685 269.235 365.088 267.805 363.936 266.952C362.784 266.099 360.821 265.672 358.048 265.672C355.787 265.672 353.995 266.013 352.672 266.696C351.392 267.336 350.475 268.488 349.92 270.152C349.408 271.773 349.152 274.056 349.152 277C349.152 280.328 349.472 282.867 350.112 284.616C350.795 286.365 351.861 287.56 353.312 288.2C354.763 288.84 356.683 289.16 359.072 289.16C360.736 289.16 362.549 289.096 364.512 288.968C366.517 288.797 368.309 288.605 369.888 288.392L370.464 292.04C369.483 292.424 368.267 292.744 366.816 293C365.408 293.256 363.936 293.448 362.4 293.576C360.907 293.704 359.563 293.768 358.368 293.768C354.784 293.768 351.904 293.235 349.728 292.168C347.552 291.059 345.952 289.309 344.928 286.92C343.947 284.488 343.456 281.288 343.456 277.32C343.456 273.224 343.947 270.003 344.928 267.656C345.952 265.267 347.509 263.581 349.6 262.6C351.733 261.576 354.464 261.064 357.792 261.064ZM198.519 325.264C201.932 325.264 204.684 325.648 206.775 326.416C208.865 327.141 210.38 328.421 211.319 330.256C212.3 332.091 212.791 334.672 212.791 338C212.791 340.389 212.513 342.395 211.959 344.016C211.404 345.595 210.529 346.832 209.335 347.728C208.183 348.581 206.625 349.136 204.663 349.392V349.712C205.388 349.883 206.092 350.245 206.775 350.8C207.5 351.312 208.161 352.016 208.759 352.912C209.356 353.765 209.804 354.811 210.103 356.048L214.391 370H208.375L204.471 356.176C203.916 354.512 203.169 353.339 202.231 352.656C201.292 351.931 200.076 351.568 198.583 351.568C195.98 351.568 193.719 351.568 191.799 351.568C189.879 351.525 188.279 351.483 186.999 351.44C185.719 351.397 184.695 351.376 183.927 351.376L184.119 346.704H198.391C200.567 346.661 202.273 346.405 203.511 345.936C204.791 345.467 205.708 344.635 206.263 343.44C206.817 342.203 207.095 340.496 207.095 338.32C207.095 336.144 206.817 334.48 206.263 333.328C205.708 332.133 204.791 331.301 203.511 330.832C202.273 330.363 200.567 330.128 198.391 330.128C194.892 330.128 191.863 330.149 189.303 330.192C186.785 330.235 185.079 330.256 184.183 330.256L183.287 325.84C184.908 325.669 186.423 325.541 187.831 325.456C189.239 325.371 190.775 325.328 192.439 325.328C194.145 325.285 196.172 325.264 198.519 325.264ZM188.855 325.84V370H183.287V325.84H188.855ZM234.761 338.064C239.454 338.064 242.846 338.917 244.937 340.624C247.07 342.331 248.137 344.869 248.137 348.24C248.179 351.013 247.603 353.189 246.409 354.768C245.214 356.304 243.315 357.072 240.713 357.072H222.537V352.848H239.305C240.713 352.848 241.63 352.379 242.057 351.44C242.483 350.459 242.697 349.392 242.697 348.24C242.654 346.235 242.057 344.805 240.905 343.952C239.753 343.099 237.79 342.672 235.017 342.672C232.755 342.672 230.963 343.013 229.641 343.696C228.361 344.336 227.443 345.488 226.889 347.152C226.377 348.773 226.121 351.056 226.121 354C226.121 357.328 226.441 359.867 227.081 361.616C227.763 363.365 228.83 364.56 230.281 365.2C231.731 365.84 233.651 366.16 236.041 366.16C237.705 366.16 239.518 366.096 241.481 365.968C243.486 365.797 245.278 365.605 246.857 365.392L247.433 369.04C246.451 369.424 245.235 369.744 243.785 370C242.377 370.256 240.905 370.448 239.369 370.576C237.875 370.704 236.531 370.768 235.337 370.768C231.753 370.768 228.873 370.235 226.697 369.168C224.521 368.059 222.921 366.309 221.897 363.92C220.915 361.488 220.425 358.288 220.425 354.32C220.425 350.224 220.915 347.003 221.897 344.656C222.921 342.267 224.478 340.581 226.569 339.6C228.702 338.576 231.433 338.064 234.761 338.064ZM271.056 338.064C273.36 338.064 275.301 338.384 276.88 339.024C278.501 339.621 279.717 340.645 280.528 342.096C281.338 343.547 281.744 345.531 281.744 348.048V370H277.456L276.624 363.216L276.24 362.512V348.048C276.24 346.128 275.792 344.763 274.896 343.952C274.042 343.099 272.378 342.672 269.904 342.672C268.282 342.672 266.234 342.757 263.76 342.928C261.328 343.099 258.917 343.291 256.528 343.504L256.016 339.472C257.466 339.216 259.045 338.981 260.752 338.768C262.501 338.555 264.272 338.384 266.064 338.256C267.856 338.128 269.52 338.064 271.056 338.064ZM279.184 350.8L279.12 354.896L264.208 354.96C262.714 355.003 261.669 355.408 261.072 356.176C260.474 356.901 260.176 357.925 260.176 359.248V361.232C260.176 362.853 260.56 364.048 261.328 364.816C262.096 365.541 263.333 365.904 265.04 365.904C266.234 365.904 267.578 365.691 269.072 365.264C270.608 364.795 272.144 364.091 273.68 363.152C275.216 362.213 276.624 361.019 277.904 359.568V363.6C277.434 364.197 276.752 364.901 275.856 365.712C275.002 366.48 273.957 367.248 272.72 368.016C271.525 368.741 270.181 369.36 268.688 369.872C267.237 370.341 265.658 370.576 263.952 370.576C262.117 370.576 260.496 370.256 259.088 369.616C257.68 368.933 256.57 367.952 255.76 366.672C254.992 365.349 254.608 363.749 254.608 361.872V358.48C254.608 356.048 255.354 354.171 256.848 352.848C258.384 351.483 260.517 350.8 263.248 350.8H279.184ZM304.773 338.064C305.711 338.064 306.757 338.107 307.909 338.192C309.061 338.277 310.234 338.427 311.429 338.64C312.666 338.853 313.797 339.152 314.821 339.536L314.117 343.056C312.709 342.928 311.215 342.843 309.637 342.8C308.101 342.715 306.778 342.672 305.669 342.672C303.194 342.672 301.231 343.013 299.781 343.696C298.33 344.379 297.285 345.573 296.645 347.28C296.005 348.987 295.685 351.355 295.685 354.384C295.685 357.413 296.005 359.803 296.645 361.552C297.285 363.259 298.33 364.453 299.781 365.136C301.231 365.819 303.194 366.16 305.669 366.16C306.309 366.16 307.141 366.139 308.165 366.096C309.189 366.053 310.277 365.989 311.429 365.904C312.623 365.819 313.754 365.691 314.821 365.52L315.397 369.168C313.818 369.723 312.09 370.128 310.213 370.384C308.378 370.64 306.543 370.768 304.709 370.768C301.125 370.768 298.245 370.235 296.069 369.168C293.893 368.101 292.314 366.373 291.333 363.984C290.394 361.595 289.925 358.395 289.925 354.384C289.925 350.373 290.415 347.173 291.397 344.784C292.378 342.395 293.957 340.688 296.133 339.664C298.309 338.597 301.189 338.064 304.773 338.064ZM330.581 329.616V361.424C330.581 362.917 330.901 363.984 331.541 364.624C332.181 365.264 333.269 365.584 334.805 365.584H339.541L340.181 369.744C339.499 369.915 338.709 370.064 337.813 370.192C336.917 370.32 336.043 370.405 335.189 370.448C334.336 370.533 333.653 370.576 333.141 370.576C330.539 370.576 328.555 369.851 327.189 368.4C325.824 366.949 325.141 364.859 325.141 362.128V329.616H330.581ZM340.501 338.832V343.12H319.509V339.152L325.653 338.832H340.501ZM350.348 362.448C351.116 362.448 351.65 362.597 351.948 362.896C352.247 363.195 352.396 363.728 352.396 364.496V367.952C352.396 368.72 352.247 369.253 351.948 369.552C351.65 369.851 351.116 370 350.348 370H348.556C347.831 370 347.298 369.851 346.956 369.552C346.658 369.253 346.508 368.72 346.508 367.952V364.496C346.508 363.728 346.658 363.195 346.956 362.896C347.298 362.597 347.831 362.448 348.556 362.448H350.348ZM367.533 338.832V370.768C367.533 372.432 367.277 374.011 366.765 375.504C366.296 377.04 365.613 378.427 364.717 379.664C363.821 380.944 362.755 382.053 361.517 382.992L358.509 380.624C359.747 379.131 360.643 377.616 361.197 376.08C361.795 374.544 362.093 372.773 362.093 370.768V338.832H367.533ZM366.125 325.584C367.192 325.584 367.725 326.139 367.725 327.248V330.896C367.725 332.005 367.192 332.56 366.125 332.56H363.565C362.456 332.56 361.901 332.005 361.901 330.896V327.248C361.901 326.139 362.456 325.584 363.565 325.584H366.125ZM388.141 338.064C389.507 338.064 390.957 338.107 392.493 338.192C394.029 338.277 395.544 338.384 397.037 338.512C398.573 338.64 399.981 338.811 401.261 339.024L400.813 342.992C398.851 342.907 396.867 342.843 394.861 342.8C392.899 342.715 390.936 342.672 388.973 342.672C387.053 342.629 385.539 342.672 384.429 342.8C383.32 342.928 382.509 343.269 381.997 343.824C381.528 344.379 381.293 345.317 381.293 346.64C381.293 348.261 381.677 349.328 382.445 349.84C383.213 350.352 384.344 350.779 385.837 351.12L394.925 353.168C397.4 353.765 399.213 354.683 400.365 355.92C401.56 357.157 402.157 359.099 402.157 361.744C402.157 364.304 401.667 366.224 400.685 367.504C399.747 368.784 398.296 369.637 396.333 370.064C394.371 370.491 391.875 370.704 388.845 370.704C387.736 370.704 386.072 370.661 383.853 370.576C381.677 370.491 379.267 370.235 376.621 369.808L377.005 365.84C378.029 365.883 379.117 365.947 380.269 366.032C381.421 366.075 382.616 366.096 383.853 366.096C385.133 366.096 386.435 366.096 387.757 366.096C390.104 366.096 391.939 365.989 393.261 365.776C394.584 365.563 395.523 365.157 396.077 364.56C396.632 363.92 396.909 362.981 396.909 361.744C396.909 360.208 396.461 359.184 395.565 358.672C394.669 358.16 393.475 357.733 391.981 357.392L383.021 355.344C381.315 354.917 379.949 354.363 378.925 353.68C377.901 352.955 377.155 352.037 376.685 350.928C376.216 349.776 375.981 348.347 375.981 346.64C375.981 344.208 376.408 342.373 377.261 341.136C378.115 339.899 379.437 339.067 381.229 338.64C383.021 338.213 385.325 338.021 388.141 338.064Z" fill="#373737"/>
</svg>
