<svg width="1300" height="1300" viewBox="0 0 1300 1300" fill="none" xmlns="http://www.w3.org/2000/svg">
<g filter="url(#filter0_f_129_124)">
<circle cx="650" cy="650" r="300" stroke="#7847C9" stroke-width="100"/>
</g>
<g filter="url(#filter1_f_129_124)">
<circle cx="650" cy="650" r="280" stroke="#412EB5" stroke-width="60"/>
</g>
<g filter="url(#filter2_f_129_124)">
<circle cx="650" cy="650" r="265" stroke="#A084C4" stroke-width="30"/>
</g>
<g filter="url(#filter3_f_129_124)">
<circle cx="650" cy="650" r="260" stroke="#BDB1D7" stroke-width="20"/>
</g>
<circle cx="650" cy="650" r="250" fill="#373737"/>
<path d="M482.577 592.84C484.113 592.84 484.881 593.629 484.881 595.208L486.737 637H481.105L479.505 597.512H478.161L468.305 630.088C467.964 631.368 467.153 632.008 465.873 632.008H460.817C459.495 632.008 458.641 631.368 458.257 630.088L448.401 597.512H447.121L445.585 637H439.953L441.681 595.208C441.767 593.629 442.556 592.84 444.049 592.84H450.449C451.644 592.84 452.433 593.48 452.817 594.76L461.073 621.704C461.415 622.685 461.692 623.667 461.905 624.648C462.161 625.629 462.439 626.632 462.737 627.656H463.889C464.188 626.632 464.465 625.629 464.721 624.648C464.977 623.667 465.255 622.643 465.553 621.576L473.809 594.76C474.151 593.48 474.961 592.84 476.241 592.84H482.577ZM511.118 605.064C513.422 605.064 515.364 605.384 516.942 606.024C518.564 606.621 519.78 607.645 520.59 609.096C521.401 610.547 521.806 612.531 521.806 615.048V637H517.518L516.686 630.216L516.302 629.512V615.048C516.302 613.128 515.854 611.763 514.958 610.952C514.105 610.099 512.441 609.672 509.966 609.672C508.345 609.672 506.297 609.757 503.822 609.928C501.39 610.099 498.98 610.291 496.59 610.504L496.078 606.472C497.529 606.216 499.108 605.981 500.814 605.768C502.564 605.555 504.334 605.384 506.126 605.256C507.918 605.128 509.582 605.064 511.118 605.064ZM519.246 617.8L519.182 621.896L504.27 621.96C502.777 622.003 501.732 622.408 501.134 623.176C500.537 623.901 500.238 624.925 500.238 626.248V628.232C500.238 629.853 500.622 631.048 501.39 631.816C502.158 632.541 503.396 632.904 505.102 632.904C506.297 632.904 507.641 632.691 509.134 632.264C510.67 631.795 512.206 631.091 513.742 630.152C515.278 629.213 516.686 628.019 517.966 626.568V630.6C517.497 631.197 516.814 631.901 515.918 632.712C515.065 633.48 514.02 634.248 512.782 635.016C511.588 635.741 510.244 636.36 508.75 636.872C507.3 637.341 505.721 637.576 504.014 637.576C502.18 637.576 500.558 637.256 499.15 636.616C497.742 635.933 496.633 634.952 495.822 633.672C495.054 632.349 494.67 630.749 494.67 628.872V625.48C494.67 623.048 495.417 621.171 496.91 619.848C498.446 618.483 500.58 617.8 503.31 617.8H519.246ZM539.331 596.616V628.424C539.331 629.917 539.651 630.984 540.291 631.624C540.931 632.264 542.019 632.584 543.555 632.584H548.291L548.931 636.744C548.249 636.915 547.459 637.064 546.563 637.192C545.667 637.32 544.793 637.405 543.939 637.448C543.086 637.533 542.403 637.576 541.891 637.576C539.289 637.576 537.305 636.851 535.939 635.4C534.574 633.949 533.891 631.859 533.891 629.128V596.616H539.331ZM549.251 605.832V610.12H528.259V606.152L534.403 605.832H549.251ZM569.21 605.064C570.149 605.064 571.194 605.107 572.346 605.192C573.498 605.277 574.672 605.427 575.866 605.64C577.104 605.853 578.234 606.152 579.258 606.536L578.554 610.056C577.146 609.928 575.653 609.843 574.074 609.8C572.538 609.715 571.216 609.672 570.106 609.672C567.632 609.672 565.669 610.013 564.218 610.696C562.768 611.379 561.722 612.573 561.082 614.28C560.442 615.987 560.122 618.355 560.122 621.384C560.122 624.413 560.442 626.803 561.082 628.552C561.722 630.259 562.768 631.453 564.218 632.136C565.669 632.819 567.632 633.16 570.106 633.16C570.746 633.16 571.578 633.139 572.602 633.096C573.626 633.053 574.714 632.989 575.866 632.904C577.061 632.819 578.192 632.691 579.258 632.52L579.834 636.168C578.256 636.723 576.528 637.128 574.65 637.384C572.816 637.64 570.981 637.768 569.146 637.768C565.562 637.768 562.682 637.235 560.506 636.168C558.33 635.101 556.752 633.373 555.77 630.984C554.832 628.595 554.362 625.395 554.362 621.384C554.362 617.373 554.853 614.173 555.834 611.784C556.816 609.395 558.394 607.688 560.57 606.664C562.746 605.597 565.626 605.064 569.21 605.064ZM606.155 605.064C611.787 605.064 614.603 607.923 614.603 613.64V637H609.099V615.176C609.099 613.085 608.757 611.656 608.075 610.888C607.435 610.077 606.304 609.672 604.683 609.672C602.763 609.672 600.843 610.12 598.923 611.016C597.003 611.912 594.72 613.213 592.075 614.92L591.819 611.016C594.251 609.181 596.661 607.731 599.051 606.664C601.44 605.597 603.808 605.064 606.155 605.064ZM592.651 592.2L592.715 604.552C592.715 605.96 592.651 607.283 592.523 608.52C592.437 609.757 592.288 610.845 592.075 611.784L592.651 612.744V637H587.211V592.2H592.651ZM643.534 618.76V622.92H624.014V618.76H643.534ZM664.668 592.008C667.911 592.008 670.514 592.328 672.476 592.968C674.482 593.565 675.954 594.611 676.892 596.104C677.831 597.597 678.3 599.645 678.3 602.248C678.3 604.125 678.108 605.853 677.724 607.432C677.34 608.968 676.679 610.269 675.74 611.336C674.844 612.36 673.543 613.043 671.836 613.384V613.64C674.738 614.109 676.722 615.325 677.788 617.288C678.898 619.208 679.474 621.683 679.516 624.712C679.559 627.699 679.132 630.173 678.236 632.136C677.34 634.056 675.868 635.485 673.82 636.424C671.772 637.363 668.999 637.832 665.5 637.832C663.154 637.832 660.786 637.704 658.396 637.448C656.05 637.235 653.746 636.979 651.484 636.68L651.868 632.136C653.319 632.264 654.706 632.392 656.028 632.52C657.394 632.605 658.738 632.669 660.06 632.712C661.383 632.755 662.727 632.776 664.092 632.776C666.482 632.776 668.38 632.52 669.788 632.008C671.239 631.453 672.284 630.536 672.924 629.256C673.607 627.976 673.948 626.269 673.948 624.136C673.948 622.515 673.714 621.107 673.244 619.912C672.818 618.675 671.964 617.715 670.684 617.032C669.447 616.349 667.612 616.008 665.18 616.008H656.988V611.592H665.18C666.93 611.592 668.316 611.357 669.34 610.888C670.407 610.419 671.196 609.821 671.708 609.096C672.22 608.328 672.54 607.475 672.668 606.536C672.839 605.555 672.924 604.552 672.924 603.528C672.882 601.651 672.583 600.264 672.028 599.368C671.474 598.429 670.535 597.811 669.212 597.512C667.932 597.171 666.162 597 663.9 597C661.81 597 659.783 597.064 657.82 597.192C655.9 597.277 654.194 597.384 652.7 597.512L652.252 593.16C654.428 592.776 656.519 592.499 658.524 592.328C660.572 592.115 662.62 592.008 664.668 592.008ZM720.369 592.008C721.862 592.008 723.313 592.051 724.721 592.136C726.129 592.221 727.494 592.371 728.817 592.584C730.139 592.755 731.419 593.011 732.657 593.352L732.081 597.576C730.758 597.448 729.414 597.341 728.049 597.256C726.726 597.171 725.446 597.128 724.209 597.128C722.971 597.085 721.798 597.064 720.689 597.064C718.299 597.064 716.273 597.299 714.609 597.768C712.987 598.195 711.686 599.048 710.705 600.328C709.723 601.608 708.998 603.443 708.529 605.832C708.102 608.221 707.889 611.336 707.889 615.176C707.889 619.528 708.187 623.005 708.785 625.608C709.382 628.168 710.385 630.024 711.793 631.176C713.201 632.328 715.078 632.904 717.425 632.904C719.046 632.904 720.518 632.669 721.841 632.2C723.206 631.731 724.465 631.133 725.617 630.408C726.811 629.64 727.963 628.851 729.073 628.04L729.841 631.496C729.073 632.392 728.006 633.331 726.641 634.312C725.318 635.293 723.761 636.125 721.969 636.808C720.177 637.491 718.15 637.832 715.889 637.832C712.603 637.832 709.915 637.021 707.825 635.4C705.777 633.736 704.283 631.219 703.345 627.848C702.406 624.435 701.937 620.083 701.937 614.792C701.937 608.947 702.513 604.381 703.665 601.096C704.859 597.768 706.801 595.421 709.489 594.056C712.219 592.691 715.846 592.008 720.369 592.008ZM733.809 611.464V637H729.713L728.817 630.472L728.305 629.192V611.464H733.809ZM757.868 605.064C760.172 605.064 762.114 605.384 763.692 606.024C765.314 606.621 766.53 607.645 767.34 609.096C768.151 610.547 768.556 612.531 768.556 615.048V637H764.268L763.436 630.216L763.052 629.512V615.048C763.052 613.128 762.604 611.763 761.708 610.952C760.855 610.099 759.191 609.672 756.716 609.672C755.095 609.672 753.047 609.757 750.572 609.928C748.14 610.099 745.73 610.291 743.34 610.504L742.828 606.472C744.279 606.216 745.858 605.981 747.564 605.768C749.314 605.555 751.084 605.384 752.876 605.256C754.668 605.128 756.332 605.064 757.868 605.064ZM765.996 617.8L765.932 621.896L751.02 621.96C749.527 622.003 748.482 622.408 747.884 623.176C747.287 623.901 746.988 624.925 746.988 626.248V628.232C746.988 629.853 747.372 631.048 748.14 631.816C748.908 632.541 750.146 632.904 751.852 632.904C753.047 632.904 754.391 632.691 755.884 632.264C757.42 631.795 758.956 631.091 760.492 630.152C762.028 629.213 763.436 628.019 764.716 626.568V630.6C764.247 631.197 763.564 631.901 762.668 632.712C761.815 633.48 760.77 634.248 759.532 635.016C758.338 635.741 756.994 636.36 755.5 636.872C754.05 637.341 752.471 637.576 750.764 637.576C748.93 637.576 747.308 637.256 745.9 636.616C744.492 635.933 743.383 634.952 742.572 633.672C741.804 632.349 741.42 630.749 741.42 628.872V625.48C741.42 623.048 742.167 621.171 743.66 619.848C745.196 618.483 747.33 617.8 750.06 617.8H765.996ZM816.225 605.064C818.913 605.064 820.961 605.789 822.369 607.24C823.82 608.691 824.545 610.824 824.545 613.64V637H819.169V615.176C819.127 613.256 818.743 611.869 818.017 611.016C817.292 610.12 816.055 609.672 814.305 609.672C813.196 609.672 812.129 609.864 811.105 610.248C810.124 610.589 809.036 611.144 807.841 611.912C806.647 612.68 805.196 613.683 803.489 614.92L803.169 611.08C805.431 609.075 807.628 607.581 809.761 606.6C811.895 605.576 814.049 605.064 816.225 605.064ZM782.753 605.832L783.137 611.784L783.713 612.744V637H778.273V605.832H782.753ZM795.809 605.064C798.455 605.064 800.481 605.789 801.889 607.24C803.297 608.648 804.023 610.781 804.065 613.64V637H798.817V615.176C798.817 613.171 798.412 611.763 797.601 610.952C796.791 610.099 795.575 609.672 793.953 609.672C792.887 609.672 791.841 609.843 790.817 610.184C789.836 610.525 788.727 611.08 787.489 611.848C786.295 612.616 784.823 613.64 783.073 614.92L782.689 611.08C784.951 609.075 787.148 607.581 789.281 606.6C791.415 605.576 793.591 605.064 795.809 605.064ZM847.136 605.064C851.829 605.064 855.221 605.917 857.312 607.624C859.445 609.331 860.512 611.869 860.512 615.24C860.554 618.013 859.978 620.189 858.784 621.768C857.589 623.304 855.69 624.072 853.088 624.072H834.912V619.848H851.68C853.088 619.848 854.005 619.379 854.432 618.44C854.858 617.459 855.072 616.392 855.072 615.24C855.029 613.235 854.432 611.805 853.28 610.952C852.128 610.099 850.165 609.672 847.392 609.672C845.13 609.672 843.338 610.013 842.016 610.696C840.736 611.336 839.818 612.488 839.264 614.152C838.752 615.773 838.496 618.056 838.496 621C838.496 624.328 838.816 626.867 839.456 628.616C840.138 630.365 841.205 631.56 842.656 632.2C844.106 632.84 846.026 633.16 848.416 633.16C850.08 633.16 851.893 633.096 853.856 632.968C855.861 632.797 857.653 632.605 859.232 632.392L859.808 636.04C858.826 636.424 857.61 636.744 856.16 637C854.752 637.256 853.28 637.448 851.744 637.576C850.25 637.704 848.906 637.768 847.712 637.768C844.128 637.768 841.248 637.235 839.072 636.168C836.896 635.059 835.296 633.309 834.272 630.92C833.29 628.488 832.8 625.288 832.8 621.32C832.8 617.224 833.29 614.003 834.272 611.656C835.296 609.267 836.853 607.581 838.944 606.6C841.077 605.576 843.808 605.064 847.136 605.064ZM512.687 682.832V714H507.311V682.832H512.687ZM511.279 669.584C512.388 669.584 512.943 670.139 512.943 671.248V674.896C512.943 676.005 512.388 676.56 511.279 676.56H508.719C507.609 676.56 507.055 676.005 507.055 674.896V671.248C507.055 670.139 507.609 669.584 508.719 669.584H511.279ZM541.874 682.064C547.506 682.064 550.322 684.923 550.322 690.64V714H544.882V692.176C544.882 690.085 544.54 688.656 543.858 687.888C543.175 687.077 542.023 686.672 540.402 686.672C538.482 686.672 536.562 687.141 534.642 688.08C532.722 689.019 530.439 690.299 527.794 691.92L527.538 688.016C529.97 686.139 532.38 684.688 534.77 683.664C537.159 682.597 539.527 682.064 541.874 682.064ZM527.538 682.832L527.986 688.784L528.37 689.744V714H522.93V682.832H527.538ZM590.175 669.264C593.588 669.264 596.34 669.648 598.431 670.416C600.522 671.141 602.036 672.421 602.975 674.256C603.956 676.091 604.447 678.672 604.447 682C604.447 684.389 604.17 686.395 603.615 688.016C603.06 689.595 602.186 690.832 600.991 691.728C599.839 692.581 598.282 693.136 596.319 693.392V693.712C597.044 693.883 597.748 694.245 598.431 694.8C599.156 695.312 599.818 696.016 600.415 696.912C601.012 697.765 601.46 698.811 601.759 700.048L606.047 714H600.031L596.127 700.176C595.572 698.512 594.826 697.339 593.887 696.656C592.948 695.931 591.732 695.568 590.239 695.568C587.636 695.568 585.375 695.568 583.455 695.568C581.535 695.525 579.935 695.483 578.655 695.44C577.375 695.397 576.351 695.376 575.583 695.376L575.775 690.704H590.047C592.223 690.661 593.93 690.405 595.167 689.936C596.447 689.467 597.364 688.635 597.919 687.44C598.474 686.203 598.751 684.496 598.751 682.32C598.751 680.144 598.474 678.48 597.919 677.328C597.364 676.133 596.447 675.301 595.167 674.832C593.93 674.363 592.223 674.128 590.047 674.128C586.548 674.128 583.519 674.149 580.959 674.192C578.442 674.235 576.735 674.256 575.839 674.256L574.943 669.84C576.564 669.669 578.079 669.541 579.487 669.456C580.895 669.371 582.431 669.328 584.095 669.328C585.802 669.285 587.828 669.264 590.175 669.264ZM580.511 669.84V714H574.943V669.84H580.511ZM626.417 682.064C631.11 682.064 634.502 682.917 636.593 684.624C638.726 686.331 639.793 688.869 639.793 692.24C639.836 695.013 639.26 697.189 638.065 698.768C636.87 700.304 634.972 701.072 632.369 701.072H614.193V696.848H630.961C632.369 696.848 633.286 696.379 633.713 695.44C634.14 694.459 634.353 693.392 634.353 692.24C634.31 690.235 633.713 688.805 632.561 687.952C631.409 687.099 629.446 686.672 626.673 686.672C624.412 686.672 622.62 687.013 621.297 687.696C620.017 688.336 619.1 689.488 618.545 691.152C618.033 692.773 617.777 695.056 617.777 698C617.777 701.328 618.097 703.867 618.737 705.616C619.42 707.365 620.486 708.56 621.937 709.2C623.388 709.84 625.308 710.16 627.697 710.16C629.361 710.16 631.174 710.096 633.137 709.968C635.142 709.797 636.934 709.605 638.513 709.392L639.089 713.04C638.108 713.424 636.892 713.744 635.441 714C634.033 714.256 632.561 714.448 631.025 714.576C629.532 714.704 628.188 714.768 626.993 714.768C623.409 714.768 620.529 714.235 618.353 713.168C616.177 712.059 614.577 710.309 613.553 707.92C612.572 705.488 612.081 702.288 612.081 698.32C612.081 694.224 612.572 691.003 613.553 688.656C614.577 686.267 616.134 684.581 618.225 683.6C620.358 682.576 623.089 682.064 626.417 682.064ZM662.712 682.064C665.016 682.064 666.957 682.384 668.536 683.024C670.157 683.621 671.373 684.645 672.184 686.096C672.995 687.547 673.4 689.531 673.4 692.048V714H669.112L668.28 707.216L667.896 706.512V692.048C667.896 690.128 667.448 688.763 666.552 687.952C665.699 687.099 664.035 686.672 661.56 686.672C659.939 686.672 657.891 686.757 655.416 686.928C652.984 687.099 650.573 687.291 648.184 687.504L647.672 683.472C649.123 683.216 650.701 682.981 652.408 682.768C654.157 682.555 655.928 682.384 657.72 682.256C659.512 682.128 661.176 682.064 662.712 682.064ZM670.84 694.8L670.776 698.896L655.864 698.96C654.371 699.003 653.325 699.408 652.728 700.176C652.131 700.901 651.832 701.925 651.832 703.248V705.232C651.832 706.853 652.216 708.048 652.984 708.816C653.752 709.541 654.989 709.904 656.696 709.904C657.891 709.904 659.235 709.691 660.728 709.264C662.264 708.795 663.8 708.091 665.336 707.152C666.872 706.213 668.28 705.019 669.56 703.568V707.6C669.091 708.197 668.408 708.901 667.512 709.712C666.659 710.48 665.613 711.248 664.376 712.016C663.181 712.741 661.837 713.36 660.344 713.872C658.893 714.341 657.315 714.576 655.608 714.576C653.773 714.576 652.152 714.256 650.744 713.616C649.336 712.933 648.227 711.952 647.416 710.672C646.648 709.349 646.264 707.749 646.264 705.872V702.48C646.264 700.048 647.011 698.171 648.504 696.848C650.04 695.483 652.173 694.8 654.904 694.8H670.84ZM696.429 682.064C697.368 682.064 698.413 682.107 699.565 682.192C700.717 682.277 701.89 682.427 703.085 682.64C704.322 682.853 705.453 683.152 706.477 683.536L705.773 687.056C704.365 686.928 702.872 686.843 701.293 686.8C699.757 686.715 698.434 686.672 697.325 686.672C694.85 686.672 692.888 687.013 691.437 687.696C689.986 688.379 688.941 689.573 688.301 691.28C687.661 692.987 687.341 695.355 687.341 698.384C687.341 701.413 687.661 703.803 688.301 705.552C688.941 707.259 689.986 708.453 691.437 709.136C692.888 709.819 694.85 710.16 697.325 710.16C697.965 710.16 698.797 710.139 699.821 710.096C700.845 710.053 701.933 709.989 703.085 709.904C704.28 709.819 705.41 709.691 706.477 709.52L707.053 713.168C705.474 713.723 703.746 714.128 701.869 714.384C700.034 714.64 698.2 714.768 696.365 714.768C692.781 714.768 689.901 714.235 687.725 713.168C685.549 712.101 683.97 710.373 682.989 707.984C682.05 705.595 681.581 702.395 681.581 698.384C681.581 694.373 682.072 691.173 683.053 688.784C684.034 686.395 685.613 684.688 687.789 683.664C689.965 682.597 692.845 682.064 696.429 682.064ZM722.238 673.616V705.424C722.238 706.917 722.558 707.984 723.198 708.624C723.838 709.264 724.926 709.584 726.462 709.584H731.198L731.838 713.744C731.155 713.915 730.366 714.064 729.47 714.192C728.574 714.32 727.699 714.405 726.846 714.448C725.992 714.533 725.31 714.576 724.798 714.576C722.195 714.576 720.211 713.851 718.845 712.4C717.48 710.949 716.798 708.859 716.798 706.128V673.616H722.238ZM732.158 682.832V687.12H711.166V683.152L717.31 682.832H732.158ZM742.005 706.448C742.773 706.448 743.306 706.597 743.605 706.896C743.903 707.195 744.053 707.728 744.053 708.496V711.952C744.053 712.72 743.903 713.253 743.605 713.552C743.306 713.851 742.773 714 742.005 714H740.213C739.487 714 738.954 713.851 738.613 713.552C738.314 713.253 738.165 712.72 738.165 711.952V708.496C738.165 707.728 738.314 707.195 738.613 706.896C738.954 706.597 739.487 706.448 740.213 706.448H742.005ZM759.19 682.832V714.768C759.19 716.432 758.934 718.011 758.422 719.504C757.952 721.04 757.27 722.427 756.374 723.664C755.478 724.944 754.411 726.053 753.174 726.992L750.166 724.624C751.403 723.131 752.299 721.616 752.854 720.08C753.451 718.544 753.75 716.773 753.75 714.768V682.832H759.19ZM757.782 669.584C758.848 669.584 759.382 670.139 759.382 671.248V674.896C759.382 676.005 758.848 676.56 757.782 676.56H755.222C754.112 676.56 753.558 676.005 753.558 674.896V671.248C753.558 670.139 754.112 669.584 755.222 669.584H757.782ZM779.798 682.064C781.163 682.064 782.614 682.107 784.15 682.192C785.686 682.277 787.2 682.384 788.694 682.512C790.23 682.64 791.638 682.811 792.918 683.024L792.47 686.992C790.507 686.907 788.523 686.843 786.518 686.8C784.555 686.715 782.592 686.672 780.63 686.672C778.71 686.629 777.195 686.672 776.086 686.8C774.976 686.928 774.166 687.269 773.654 687.824C773.184 688.379 772.95 689.317 772.95 690.64C772.95 692.261 773.334 693.328 774.102 693.84C774.87 694.352 776 694.779 777.494 695.12L786.582 697.168C789.056 697.765 790.87 698.683 792.022 699.92C793.216 701.157 793.814 703.099 793.814 705.744C793.814 708.304 793.323 710.224 792.342 711.504C791.403 712.784 789.952 713.637 787.99 714.064C786.027 714.491 783.531 714.704 780.502 714.704C779.392 714.704 777.728 714.661 775.51 714.576C773.334 714.491 770.923 714.235 768.278 713.808L768.661 709.84C769.686 709.883 770.774 709.947 771.926 710.032C773.078 710.075 774.272 710.096 775.51 710.096C776.79 710.096 778.091 710.096 779.414 710.096C781.76 710.096 783.595 709.989 784.918 709.776C786.24 709.563 787.179 709.157 787.734 708.56C788.288 707.92 788.566 706.981 788.566 705.744C788.566 704.208 788.118 703.184 787.222 702.672C786.326 702.16 785.131 701.733 783.638 701.392L774.678 699.344C772.971 698.917 771.606 698.363 770.582 697.68C769.558 696.955 768.811 696.037 768.342 694.928C767.872 693.776 767.638 692.347 767.638 690.64C767.638 688.208 768.064 686.373 768.918 685.136C769.771 683.899 771.094 683.067 772.885 682.64C774.678 682.213 776.982 682.021 779.798 682.064Z" fill="#99B4FF"/>
<defs>
<filter id="filter0_f_129_124" x="200" y="200" width="900" height="900" filterUnits="userSpaceOnUse" color-interpolation-filters="sRGB">
<feFlood flood-opacity="0" result="BackgroundImageFix"/>
<feBlend mode="normal" in="SourceGraphic" in2="BackgroundImageFix" result="shape"/>
<feGaussianBlur stdDeviation="50" result="effect1_foregroundBlur_129_124"/>
</filter>
<filter id="filter1_f_129_124" x="240" y="240" width="820" height="820" filterUnits="userSpaceOnUse" color-interpolation-filters="sRGB">
<feFlood flood-opacity="0" result="BackgroundImageFix"/>
<feBlend mode="normal" in="SourceGraphic" in2="BackgroundImageFix" result="shape"/>
<feGaussianBlur stdDeviation="50" result="effect1_foregroundBlur_129_124"/>
</filter>
<filter id="filter2_f_129_124" x="270" y="270" width="760" height="760" filterUnits="userSpaceOnUse" color-interpolation-filters="sRGB">
<feFlood flood-opacity="0" result="BackgroundImageFix"/>
<feBlend mode="normal" in="SourceGraphic" in2="BackgroundImageFix" result="shape"/>
<feGaussianBlur stdDeviation="50" result="effect1_foregroundBlur_129_124"/>
</filter>
<filter id="filter3_f_129_124" x="280" y="280" width="740" height="740" filterUnits="userSpaceOnUse" color-interpolation-filters="sRGB">
<feFlood flood-opacity="0" result="BackgroundImageFix"/>
<feBlend mode="normal" in="SourceGraphic" in2="BackgroundImageFix" result="shape"/>
<feGaussianBlur stdDeviation="50" result="effect1_foregroundBlur_129_124"/>
</filter>
</defs>
</svg>
