<svg width="149" height="149" viewBox="0 0 149 149" fill="none" xmlns="http://www.w3.org/2000/svg">
<g clip-path="url(#clip0_59_73)">
<path d="M65.2727 137.4C59.6727 137.4 54.5393 136.867 49.8727 135.8C45.206 134.867 41.3393 133.8 38.2727 132.6C35.3393 131.4 33.8727 130.733 33.8727 130.6L32.8727 128.6C33.006 127.8 33.2727 125.8 33.6727 122.6C34.0727 119.4 34.406 115.267 34.6727 110.2C35.0727 105 35.2727 99.5333 35.2727 93.8L44.2727 92.8C44.2727 102.8 44.9393 110.2 46.2727 115C47.606 119.8 50.0727 123.133 53.6727 125C57.2727 126.733 62.806 127.6 70.2727 127.6C78.6727 127.6 85.406 125.667 90.4727 121.8C95.5393 117.8 98.0727 112.4 98.0727 105.6C98.0727 101.6 96.6727 98 93.8727 94.8C91.206 91.6 88.006 88.8667 84.2727 86.6C80.5393 84.3333 75.006 81.2667 67.6727 77.4C60.7393 73.8 55.0727 70.5333 50.6727 67.6C46.2727 64.5333 42.5393 60.9333 39.4727 56.8C36.5393 52.6667 35.0727 47.8667 35.0727 42.4C35.0727 35.4667 37.0727 29.2 41.0727 23.6C45.206 17.8667 50.7393 13.4 57.6727 10.2C64.7393 6.86666 72.5393 5.19999 81.0727 5.19999C86.406 5.19999 91.3393 5.59999 95.8727 6.4C100.406 7.06666 104.006 7.8 106.673 8.59999C109.339 9.39999 111.006 9.93333 111.673 10.2L112.273 11.4C112.139 12.2 111.806 14.0667 111.273 17C110.739 19.9333 110.139 24 109.473 29.2C108.806 34.4 108.273 39.7333 107.873 45.2L100.073 46L98.8727 45C99.006 44.4667 99.1393 43.2667 99.2727 41.4C99.406 39.4 99.4727 37.1333 99.4727 34.6C99.4727 27.5333 97.7393 22.6667 94.2727 20C90.806 17.3333 84.606 16 75.6727 16C68.3393 16 62.2727 17.8667 57.4727 21.6C52.806 25.2 50.4727 29.7333 50.4727 35.2C50.4727 40.5333 52.7393 45.2 57.2727 49.2C61.9393 53.0667 68.7393 57.3333 77.6727 62C86.3393 66.4 92.9393 70.0667 97.4727 73C102.006 75.8 106.006 79.3333 109.473 83.6C112.939 87.8667 114.673 92.8 114.673 98.4C114.673 105.867 112.539 112.6 108.273 118.6C104.139 124.467 98.3393 129.067 90.8727 132.4C83.406 135.733 74.8727 137.4 65.2727 137.4Z" fill="#5BB9B8"/>
</g>
<defs>
<clipPath id="clip0_59_73">
<rect width="149" height="149" fill="white"/>
</clipPath>
</defs>
</svg>
