<svg width="700" height="600" viewBox="0 0 700 600" fill="none" xmlns="http://www.w3.org/2000/svg">
<g clip-path="url(#clip0_74_2)">
<path d="M688.057 301.269C686.99 465.515 537.561 598.242 354.065 597.499C170.569 596.756 22.8736 462.825 23.9412 298.579C25.0087 134.333 174.437 1.60564 357.933 2.34871C541.43 3.09179 689.125 137.022 688.057 301.269Z" stroke="#99B4FF" stroke-width="2"/>
<path d="M656.934 315.283C655.538 471.901 514.053 598.24 340.706 597.265C167.359 596.289 28.142 468.37 29.5387 311.752C30.9355 155.135 172.42 28.7955 345.767 29.7711C519.114 30.7467 658.331 158.666 656.934 315.283Z" stroke="#99B4FF" stroke-width="2"/>
<path d="M290.922 183.734C291.234 185.193 291.521 187.146 291.781 189.594C292.094 191.99 292.354 194.516 292.562 197.172C292.771 199.776 292.927 202.302 293.031 204.75C293.187 207.198 293.266 209.177 293.266 210.688C293.266 211 293.318 211.938 293.422 213.5C293.526 215.01 293.578 216.755 293.578 218.734C293.578 220.661 293.5 222.641 293.344 224.672C293.187 226.651 292.875 228.396 292.406 229.906C291.573 232.667 290.375 234.854 288.812 236.469C287.25 238.083 285.505 239.307 283.578 240.141C281.651 240.974 279.672 241.521 277.641 241.781C275.661 242.042 273.838 242.25 272.172 242.406C271.911 242.458 271.677 242.484 271.469 242.484C271.312 242.484 271.104 242.484 270.844 242.484C268.5 242.484 265.922 241.99 263.109 241C260.349 240.01 257.797 238.396 255.453 236.156C253.266 233.969 251.729 231.443 250.844 228.578C249.958 225.714 249.463 222.589 249.359 219.203L249.125 210.844C249.073 209.229 248.969 207.198 248.812 204.75C248.708 202.25 248.552 199.724 248.344 197.172C248.135 194.568 247.901 192.094 247.641 189.75C247.38 187.406 247.094 185.531 246.781 184.125C246.781 182.979 247.51 182.25 248.969 181.938C249.489 181.938 249.958 182.094 250.375 182.406C250.792 182.719 251.052 183.161 251.156 183.734C251.469 185.245 251.755 187.224 252.016 189.672C252.276 192.068 252.51 194.594 252.719 197.25C252.927 199.854 253.083 202.38 253.187 204.828C253.344 207.276 253.448 209.255 253.5 210.766L253.734 219.359V220.766C253.734 225.766 255.349 229.854 258.578 233.031C259.516 233.917 260.505 234.672 261.547 235.297C262.588 235.922 263.656 236.443 264.75 236.859C265.844 237.276 266.911 237.589 267.953 237.797C268.995 238.005 269.958 238.109 270.844 238.109H271.781C273.76 237.953 275.609 237.745 277.328 237.484C279.099 237.172 280.687 236.677 282.094 236C283.5 235.323 284.724 234.411 285.766 233.266C286.807 232.12 287.614 230.583 288.187 228.656C288.604 227.354 288.864 225.818 288.969 224.047C289.125 222.224 289.203 220.427 289.203 218.656C289.203 216.573 289.151 214.776 289.047 213.266C288.943 211.703 288.891 210.87 288.891 210.766C288.838 209.203 288.734 207.198 288.578 204.75C288.422 202.302 288.239 199.802 288.031 197.25C287.875 194.646 287.667 192.172 287.406 189.828C287.146 187.432 286.859 185.531 286.547 184.125C286.547 182.979 287.276 182.25 288.734 181.938C289.255 181.938 289.724 182.094 290.141 182.406C290.557 182.719 290.818 183.161 290.922 183.734ZM308.891 209.984C308.891 210.974 308.943 212.38 309.047 214.203C309.203 216.026 309.359 218.031 309.516 220.219C309.724 222.354 309.932 224.568 310.141 226.859C310.349 229.099 310.557 231.156 310.766 233.031C310.974 234.854 311.13 236.391 311.234 237.641C311.391 238.839 311.469 239.464 311.469 239.516C311.469 240.089 311.26 240.583 310.844 241C310.479 241.417 309.958 241.651 309.281 241.703C308.708 241.703 308.213 241.521 307.797 241.156C307.432 240.792 307.198 240.323 307.094 239.75C307.094 239.594 307.016 238.891 306.859 237.641C306.755 236.391 306.599 234.854 306.391 233.031C306.182 231.156 305.974 229.099 305.766 226.859C305.557 224.62 305.349 222.432 305.141 220.297C304.984 218.109 304.828 216.104 304.672 214.281C304.568 212.458 304.516 211.026 304.516 209.984C304.516 208.422 304.437 206.417 304.281 203.969C304.177 201.521 304.021 199.021 303.812 196.469C303.604 193.865 303.37 191.391 303.109 189.047C302.849 186.703 302.588 184.828 302.328 183.422C302.328 182.901 302.51 182.432 302.875 182.016C303.239 181.599 303.786 181.339 304.516 181.234C305.036 181.234 305.505 181.391 305.922 181.703C306.338 182.016 306.599 182.432 306.703 182.953C306.963 184.411 307.224 186.365 307.484 188.812C307.745 191.208 307.979 193.734 308.187 196.391C308.396 199.047 308.552 201.625 308.656 204.125C308.812 206.573 308.891 208.526 308.891 209.984ZM331.625 209.984C331.312 210.974 330.896 212.38 330.375 214.203C329.854 216.026 329.307 218.031 328.734 220.219C328.213 222.354 327.667 224.542 327.094 226.781C326.521 229.021 326 231.078 325.531 232.953C325.114 234.776 324.75 236.286 324.437 237.484C324.177 238.63 324.047 239.229 324.047 239.281C323.943 239.854 323.604 240.375 323.031 240.844C322.458 241.312 321.807 241.599 321.078 241.703C320.505 241.703 320.062 241.521 319.75 241.156C319.489 240.792 319.411 240.323 319.516 239.75C319.568 239.594 319.724 238.891 319.984 237.641C320.297 236.391 320.687 234.854 321.156 233.031C321.625 231.156 322.12 229.099 322.641 226.859C323.213 224.62 323.786 222.432 324.359 220.297C324.932 218.109 325.453 216.104 325.922 214.281C326.443 212.458 326.885 211.026 327.25 209.984C327.823 208.37 328.474 206.339 329.203 203.891C329.932 201.443 330.635 198.969 331.312 196.469C331.989 193.917 332.588 191.495 333.109 189.203C333.63 186.911 333.995 185.115 334.203 183.812C334.307 183.24 334.594 182.693 335.062 182.172C335.583 181.651 336.156 181.339 336.781 181.234C337.458 181.13 337.979 181.26 338.344 181.625C338.76 181.938 338.917 182.38 338.812 182.953C338.604 184.359 338.213 186.286 337.641 188.734C337.068 191.182 336.417 193.734 335.687 196.391C334.958 198.995 334.229 201.547 333.5 204.047C332.771 206.495 332.146 208.474 331.625 209.984ZM386.547 183.734C386.859 185.193 387.146 187.146 387.406 189.594C387.719 191.99 387.979 194.516 388.187 197.172C388.396 199.776 388.552 202.302 388.656 204.75C388.812 207.198 388.891 209.177 388.891 210.688C388.891 211 388.943 211.938 389.047 213.5C389.151 215.01 389.203 216.755 389.203 218.734C389.203 220.661 389.125 222.641 388.969 224.672C388.812 226.651 388.5 228.396 388.031 229.906C387.198 232.667 386 234.854 384.437 236.469C382.875 238.083 381.13 239.307 379.203 240.141C377.276 240.974 375.297 241.521 373.266 241.781C371.286 242.042 369.463 242.25 367.797 242.406C367.536 242.458 367.302 242.484 367.094 242.484C366.937 242.484 366.729 242.484 366.469 242.484C364.125 242.484 361.547 241.99 358.734 241C355.974 240.01 353.422 238.396 351.078 236.156C348.891 233.969 347.354 231.443 346.469 228.578C345.583 225.714 345.088 222.589 344.984 219.203L344.75 210.844C344.698 209.229 344.594 207.198 344.437 204.75C344.333 202.25 344.177 199.724 343.969 197.172C343.76 194.568 343.526 192.094 343.266 189.75C343.005 187.406 342.719 185.531 342.406 184.125C342.406 182.979 343.135 182.25 344.594 181.938C345.114 181.938 345.583 182.094 346 182.406C346.417 182.719 346.677 183.161 346.781 183.734C347.094 185.245 347.38 187.224 347.641 189.672C347.901 192.068 348.135 194.594 348.344 197.25C348.552 199.854 348.708 202.38 348.812 204.828C348.969 207.276 349.073 209.255 349.125 210.766L349.359 219.359V220.766C349.359 225.766 350.974 229.854 354.203 233.031C355.141 233.917 356.13 234.672 357.172 235.297C358.213 235.922 359.281 236.443 360.375 236.859C361.469 237.276 362.536 237.589 363.578 237.797C364.62 238.005 365.583 238.109 366.469 238.109H367.406C369.385 237.953 371.234 237.745 372.953 237.484C374.724 237.172 376.312 236.677 377.719 236C379.125 235.323 380.349 234.411 381.391 233.266C382.432 232.12 383.239 230.583 383.812 228.656C384.229 227.354 384.489 225.818 384.594 224.047C384.75 222.224 384.828 220.427 384.828 218.656C384.828 216.573 384.776 214.776 384.672 213.266C384.568 211.703 384.516 210.87 384.516 210.766C384.463 209.203 384.359 207.198 384.203 204.75C384.047 202.302 383.864 199.802 383.656 197.25C383.5 194.646 383.292 192.172 383.031 189.828C382.771 187.432 382.484 185.531 382.172 184.125C382.172 182.979 382.901 182.25 384.359 181.938C384.88 181.938 385.349 182.094 385.766 182.406C386.182 182.719 386.443 183.161 386.547 183.734ZM421.078 209.75C421.651 210.74 422.51 212.146 423.656 213.969C424.802 215.74 426.052 217.719 427.406 219.906C428.76 222.042 430.167 224.229 431.625 226.469C433.083 228.656 434.411 230.661 435.609 232.484C436.807 234.307 437.771 235.818 438.5 237.016C439.281 238.161 439.698 238.76 439.75 238.812C440.01 239.177 440.141 239.568 440.141 239.984C440.141 240.766 439.802 241.365 439.125 241.781C438.76 242.042 438.37 242.172 437.953 242.172C437.172 242.172 436.573 241.833 436.156 241.156C436.052 241 435.635 240.375 434.906 239.281C434.177 238.188 433.266 236.807 432.172 235.141C431.078 233.474 429.854 231.625 428.5 229.594C427.198 227.562 425.87 225.531 424.516 223.5C423.213 221.469 421.989 219.542 420.844 217.719C419.698 215.896 418.76 214.359 418.031 213.109C417.302 214.359 416.364 215.896 415.219 217.719C414.073 219.542 412.849 221.469 411.547 223.5C410.245 225.531 408.917 227.562 407.562 229.594C406.208 231.625 404.984 233.474 403.891 235.141C402.797 236.807 401.885 238.188 401.156 239.281C400.427 240.375 400.01 241 399.906 241.156C399.489 241.833 398.891 242.172 398.109 242.172C397.745 242.172 397.354 242.042 396.937 241.781C396.312 241.417 396 240.818 396 239.984C396 239.464 396.104 239.073 396.312 238.812C396.312 238.76 396.703 238.161 397.484 237.016C398.266 235.818 399.255 234.307 400.453 232.484C401.651 230.661 402.979 228.656 404.437 226.469C405.896 224.229 407.302 222.042 408.656 219.906C410.062 217.771 411.312 215.792 412.406 213.969C413.552 212.146 414.411 210.74 414.984 209.75L415.531 208.812C414.489 207.042 413.266 205.062 411.859 202.875C410.505 200.635 409.125 198.448 407.719 196.312C406.364 194.177 405.062 192.172 403.812 190.297C402.562 188.422 401.521 186.938 400.687 185.844C400.427 185.427 400.297 184.984 400.297 184.516C400.297 183.839 400.583 183.266 401.156 182.797C401.573 182.536 402.016 182.406 402.484 182.406C403.161 182.406 403.734 182.693 404.203 183.266C405.036 184.359 406.026 185.766 407.172 187.484C408.318 189.151 409.516 190.974 410.766 192.953C412.016 194.88 413.266 196.859 414.516 198.891C415.818 200.922 416.989 202.797 418.031 204.516C419.073 202.797 420.219 200.922 421.469 198.891C422.771 196.859 424.047 194.88 425.297 192.953C426.599 190.974 427.823 189.151 428.969 187.484C430.114 185.766 431.104 184.359 431.937 183.266C432.354 182.693 432.927 182.406 433.656 182.406C434.125 182.406 434.568 182.536 434.984 182.797C435.505 183.266 435.766 183.839 435.766 184.516C435.766 185.089 435.635 185.531 435.375 185.844C434.542 186.938 433.5 188.422 432.25 190.297C431 192.172 429.672 194.177 428.266 196.312C426.911 198.448 425.531 200.635 424.125 202.875C422.771 205.062 421.573 207.042 420.531 208.812L421.078 209.75Z" fill="#99B4FF"/>
<path d="M220.826 328.789C221.112 328.789 221.36 328.893 221.568 329.102C221.777 329.31 221.894 329.57 221.92 329.883C221.92 330.169 221.816 330.43 221.607 330.664C221.399 330.872 221.152 330.977 220.865 330.977C219.928 331.029 218.99 331.094 218.053 331.172C217.141 331.224 216.321 331.289 215.592 331.367C214.862 331.419 214.25 331.484 213.756 331.562C213.261 331.615 212.974 331.641 212.896 331.641C212.948 332.37 213.014 333.19 213.092 334.102C213.17 334.987 213.248 335.898 213.326 336.836C213.43 337.747 213.521 338.646 213.599 339.531C213.704 340.417 213.782 341.211 213.834 341.914C213.912 342.591 213.977 343.151 214.029 343.594C214.081 344.01 214.107 344.232 214.107 344.258C214.107 344.544 214.003 344.792 213.795 345C213.612 345.208 213.339 345.326 212.974 345.352C212.688 345.352 212.441 345.26 212.232 345.078C212.05 344.896 211.946 344.661 211.92 344.375C211.894 344.297 211.842 343.945 211.764 343.32C211.711 342.695 211.633 341.927 211.529 341.016C211.451 340.078 211.36 339.049 211.256 337.93C211.152 336.81 211.047 335.716 210.943 334.648C210.865 333.555 210.787 332.552 210.709 331.641C210.657 330.729 210.631 330.013 210.631 329.492C210.631 328.711 210.592 327.708 210.514 326.484C210.461 325.26 210.383 324.01 210.279 322.734C210.175 321.432 210.058 320.195 209.928 319.023C209.797 317.852 209.667 316.914 209.537 316.211C209.537 315.951 209.628 315.716 209.81 315.508C209.993 315.299 210.266 315.169 210.631 315.117C211.204 315.117 211.555 315.391 211.685 315.938C211.868 315.677 212.115 315.521 212.428 315.469C212.48 315.469 212.792 315.43 213.365 315.352C213.964 315.273 214.706 315.195 215.592 315.117C216.503 315.013 217.506 314.922 218.599 314.844C219.693 314.766 220.774 314.727 221.842 314.727C223.977 314.727 225.67 314.818 226.92 315C228.196 315.182 228.86 315.286 228.912 315.312C229.485 315.443 229.758 315.872 229.732 316.602C229.654 317.174 229.224 317.461 228.443 317.461C227.922 317.383 227.323 317.292 226.646 317.188C226.073 317.135 225.37 317.083 224.537 317.031C223.73 316.953 222.831 316.914 221.842 316.914C220.826 316.914 219.784 316.953 218.717 317.031C217.649 317.109 216.659 317.201 215.748 317.305C214.862 317.383 214.12 317.461 213.521 317.539C212.948 317.617 212.636 317.656 212.584 317.656C212.349 317.656 212.128 317.591 211.92 317.461C212.05 318.32 212.167 319.31 212.271 320.43C212.375 321.549 212.467 322.669 212.545 323.789C212.623 324.909 212.688 325.977 212.74 326.992C212.792 327.982 212.818 328.802 212.818 329.453C213.053 329.427 213.43 329.388 213.951 329.336C214.472 329.258 215.084 329.193 215.787 329.141C216.516 329.062 217.31 328.997 218.17 328.945C219.029 328.893 219.902 328.841 220.787 328.789H220.826ZM230.318 321.641C229.875 321.641 229.498 321.497 229.185 321.211C228.899 320.898 228.756 320.521 228.756 320.078C228.756 319.635 228.899 319.271 229.185 318.984C229.498 318.698 229.875 318.555 230.318 318.555C230.735 318.555 231.086 318.698 231.373 318.984C231.685 319.271 231.842 319.635 231.842 320.078C231.842 320.521 231.685 320.898 231.373 321.211C231.086 321.497 230.735 321.641 230.318 321.641ZM230.826 323.281C231.112 323.281 231.347 323.372 231.529 323.555C231.737 323.711 231.868 323.919 231.92 324.18C231.92 324.258 231.972 324.661 232.076 325.391C232.206 326.12 232.349 327.005 232.506 328.047C232.662 329.089 232.805 330.208 232.935 331.406C233.092 332.578 233.196 333.633 233.248 334.57C233.3 335.482 233.391 336.549 233.521 337.773C233.652 338.997 233.795 340.169 233.951 341.289C234.107 342.383 234.237 343.333 234.342 344.141C234.472 344.922 234.537 345.339 234.537 345.391C234.537 345.677 234.446 345.911 234.264 346.094C234.081 346.302 233.808 346.432 233.443 346.484C233.157 346.484 232.909 346.393 232.701 346.211C232.519 346.055 232.402 345.833 232.349 345.547C232.349 345.469 232.284 345.039 232.154 344.258C232.05 343.477 231.92 342.539 231.764 341.445C231.607 340.326 231.464 339.154 231.334 337.93C231.204 336.706 231.112 335.625 231.06 334.688C231.008 333.776 230.904 332.734 230.748 331.562C230.618 330.391 230.474 329.284 230.318 328.242C230.188 327.201 230.058 326.315 229.928 325.586C229.823 324.831 229.771 324.427 229.771 324.375C229.771 324.115 229.849 323.88 230.006 323.672C230.162 323.464 230.383 323.333 230.67 323.281H230.826ZM252.857 339.18C252.935 338.945 253.105 338.763 253.365 338.633C253.183 336.836 253.027 335.169 252.896 333.633C252.792 332.096 252.74 330.846 252.74 329.883V329.414C252.48 329.284 252.297 329.115 252.193 328.906C251.646 327.891 251.099 327.161 250.553 326.719C250.032 326.276 249.693 326.042 249.537 326.016C249.094 326.016 248.691 326.042 248.326 326.094C247.987 326.146 247.753 326.185 247.623 326.211C247.284 326.211 247.011 326.081 246.803 325.82C246.152 326.081 245.461 326.667 244.732 327.578C244.029 328.49 243.378 329.557 242.779 330.781C242.18 331.979 241.685 333.268 241.295 334.648C240.904 336.003 240.709 337.253 240.709 338.398C240.709 339.622 240.917 340.651 241.334 341.484C241.75 342.318 242.271 343.008 242.896 343.555C243.521 344.076 244.185 344.453 244.889 344.688C245.618 344.922 246.282 345.039 246.881 345.039C247.271 345.039 247.727 344.909 248.248 344.648C248.795 344.362 249.342 343.971 249.889 343.477C250.461 342.956 251.008 342.344 251.529 341.641C252.05 340.911 252.493 340.091 252.857 339.18ZM254.928 329.883C254.928 330.482 254.954 331.237 255.006 332.148C255.058 333.034 255.123 334.01 255.201 335.078C255.305 336.12 255.409 337.24 255.514 338.438C255.618 339.609 255.735 340.794 255.865 341.992C255.969 343.164 256.073 344.297 256.178 345.391C256.308 346.51 256.412 347.552 256.49 348.516C256.568 349.505 256.633 350.404 256.685 351.211C256.737 352.018 256.764 352.695 256.764 353.242C256.764 354.18 256.581 355.104 256.217 356.016C255.852 356.953 255.318 357.786 254.615 358.516C253.912 359.245 253.04 359.831 251.998 360.273C250.982 360.742 249.797 360.977 248.443 360.977C244.589 360.977 241.829 358.867 240.162 354.648C240.11 354.544 240.084 354.401 240.084 354.219C240.084 353.75 240.305 353.411 240.748 353.203C240.826 353.177 240.891 353.151 240.943 353.125C241.021 353.125 241.099 353.125 241.178 353.125C241.646 353.125 241.985 353.372 242.193 353.867C242.323 354.206 242.519 354.648 242.779 355.195C243.066 355.768 243.443 356.315 243.912 356.836C244.381 357.357 244.98 357.812 245.709 358.203C246.464 358.594 247.375 358.789 248.443 358.789C249.563 358.789 250.514 358.607 251.295 358.242C252.076 357.878 252.701 357.409 253.17 356.836C253.665 356.289 254.016 355.69 254.224 355.039C254.459 354.388 254.576 353.789 254.576 353.242C254.576 352.721 254.55 352.057 254.498 351.25C254.446 350.469 254.381 349.596 254.303 348.633C254.224 347.669 254.133 346.641 254.029 345.547C253.925 344.479 253.821 343.398 253.717 342.305C253.222 343.086 252.675 343.776 252.076 344.375C251.503 344.974 250.904 345.482 250.279 345.898C249.68 346.341 249.081 346.667 248.482 346.875C247.909 347.109 247.375 347.227 246.881 347.227C245.865 347.227 244.849 347.031 243.834 346.641C242.844 346.276 241.959 345.729 241.178 345C240.396 344.245 239.758 343.32 239.264 342.227C238.769 341.107 238.521 339.831 238.521 338.398C238.521 337.487 238.639 336.484 238.873 335.391C239.107 334.297 239.42 333.203 239.81 332.109C240.227 331.016 240.709 329.948 241.256 328.906C241.829 327.865 242.441 326.953 243.092 326.172C243.743 325.365 244.433 324.727 245.162 324.258C245.891 323.763 246.633 323.516 247.389 323.516C247.935 323.516 248.391 323.633 248.756 323.867C248.886 323.841 249.016 323.828 249.146 323.828C249.277 323.828 249.42 323.828 249.576 323.828C250.045 323.828 250.566 324.01 251.139 324.375C251.711 324.74 252.258 325.247 252.779 325.898C252.831 325.586 252.909 325.299 253.014 325.039C253.144 324.779 253.417 324.635 253.834 324.609L254.849 324.531L255.006 325.547C255.006 325.599 255.006 325.651 255.006 325.703C255.006 325.729 254.993 325.833 254.967 326.016C254.967 326.172 254.954 326.523 254.928 327.07C254.928 327.617 254.928 328.555 254.928 329.883ZM293.717 339.883C293.717 340.195 293.704 340.508 293.678 340.82C293.652 341.133 293.612 341.432 293.56 341.719C293.508 342.005 293.469 342.279 293.443 342.539C293.417 342.799 293.404 343.06 293.404 343.32C293.404 343.789 293.482 344.219 293.639 344.609C293.665 344.688 293.678 344.766 293.678 344.844C293.704 344.896 293.717 344.961 293.717 345.039C293.717 345.508 293.482 345.846 293.014 346.055C292.805 346.107 292.675 346.133 292.623 346.133C292.128 346.133 291.777 345.898 291.568 345.43C291.438 345.065 291.347 344.714 291.295 344.375C291.243 344.036 291.217 343.685 291.217 343.32C291.217 342.982 291.23 342.656 291.256 342.344C291.282 342.031 291.321 341.732 291.373 341.445C291.425 341.159 291.464 340.898 291.49 340.664C291.516 340.404 291.529 340.143 291.529 339.883C291.529 339.518 291.503 339.18 291.451 338.867C291.399 338.555 291.334 338.229 291.256 337.891C291.204 337.5 291.139 337.096 291.06 336.68C291.008 336.263 290.982 335.807 290.982 335.312C290.982 334.948 290.982 334.622 290.982 334.336C291.008 334.049 291.034 333.763 291.06 333.477C291.086 333.008 291.112 332.396 291.139 331.641C291.165 330.885 291.178 329.766 291.178 328.281C291.178 327.083 290.891 326.198 290.318 325.625C289.849 325.156 289.277 324.883 288.599 324.805C287.922 324.727 287.389 324.688 286.998 324.688C286.633 324.688 286.23 324.766 285.787 324.922C285.344 325.078 284.889 325.273 284.42 325.508C283.977 325.742 283.56 325.977 283.17 326.211C282.779 326.445 282.454 326.641 282.193 326.797C282.063 326.875 281.946 326.94 281.842 326.992C281.737 327.044 281.646 327.096 281.568 327.148C281.438 327.227 281.23 327.461 280.943 327.852C280.657 328.216 280.396 328.62 280.162 329.062C280.006 329.297 279.81 329.453 279.576 329.531C279.576 330.208 279.602 330.846 279.654 331.445C279.732 332.044 279.797 332.604 279.849 333.125C279.902 333.646 279.954 334.154 280.006 334.648C280.058 335.117 280.084 335.573 280.084 336.016C280.084 336.562 280.097 337.044 280.123 337.461C280.149 337.852 280.175 338.216 280.201 338.555C280.279 339.023 280.318 339.44 280.318 339.805C280.318 340.169 280.357 340.547 280.435 340.938C280.54 341.328 280.644 341.706 280.748 342.07C280.878 342.409 281.008 342.721 281.139 343.008C281.269 343.294 281.373 343.516 281.451 343.672C281.555 343.802 281.607 343.971 281.607 344.18C281.607 344.388 281.555 344.583 281.451 344.766C281.373 344.922 281.23 345.052 281.021 345.156C280.865 345.234 280.696 345.273 280.514 345.273C280.071 345.273 279.745 345.091 279.537 344.727C279.537 344.701 279.459 344.544 279.303 344.258C279.146 343.945 278.977 343.555 278.795 343.086C278.639 342.617 278.482 342.096 278.326 341.523C278.196 340.951 278.131 340.378 278.131 339.805C278.131 339.674 278.118 339.518 278.092 339.336C278.092 339.154 278.079 338.958 278.053 338.75C278 338.411 277.961 338.021 277.935 337.578C277.909 337.135 277.896 336.615 277.896 336.016C277.896 335.651 277.87 335.247 277.818 334.805C277.766 334.362 277.714 333.893 277.662 333.398C277.61 332.721 277.545 332.018 277.467 331.289C277.389 330.56 277.349 329.766 277.349 328.906C277.349 328.385 277.232 327.826 276.998 327.227C276.79 326.602 276.477 326.042 276.06 325.547C275.644 325.026 275.123 324.596 274.498 324.258C273.899 323.919 273.196 323.75 272.389 323.75C271.373 323.75 270.461 323.945 269.654 324.336C268.873 324.727 268.183 325.208 267.584 325.781C267.011 326.354 266.529 326.979 266.139 327.656C265.748 328.333 265.422 328.971 265.162 329.57C264.928 330.143 264.758 330.625 264.654 331.016L264.498 331.641C264.472 331.849 264.368 332.044 264.185 332.227V332.891C264.185 333.542 264.277 334.271 264.459 335.078C264.667 335.885 264.875 336.745 265.084 337.656C265.396 338.828 265.683 340.052 265.943 341.328C266.23 342.604 266.373 343.906 266.373 345.234C266.373 345.521 266.256 345.768 266.021 345.977C265.813 346.211 265.566 346.328 265.279 346.328C264.967 346.328 264.706 346.211 264.498 345.977C264.29 345.768 264.185 345.521 264.185 345.234C264.185 344.036 264.055 342.839 263.795 341.641C263.534 340.443 263.261 339.297 262.974 338.203C262.714 337.214 262.48 336.276 262.271 335.391C262.089 334.505 261.998 333.672 261.998 332.891C261.998 332.135 261.946 331.198 261.842 330.078C261.737 328.932 261.607 327.826 261.451 326.758C261.321 325.664 261.204 324.727 261.099 323.945C260.995 323.138 260.943 322.708 260.943 322.656C260.943 322.37 261.034 322.135 261.217 321.953C261.399 321.745 261.672 321.615 262.037 321.562C262.297 321.562 262.519 321.654 262.701 321.836C262.909 321.992 263.04 322.214 263.092 322.5C263.092 322.552 263.118 322.721 263.17 323.008C263.222 323.268 263.274 323.62 263.326 324.062C263.404 324.505 263.469 325.026 263.521 325.625C263.599 326.198 263.678 326.797 263.756 327.422C264.146 326.693 264.615 325.977 265.162 325.273C265.709 324.57 266.334 323.945 267.037 323.398C267.766 322.852 268.573 322.409 269.459 322.07C270.344 321.732 271.321 321.562 272.389 321.562C273.222 321.562 274.003 321.706 274.732 321.992C275.461 322.253 276.112 322.617 276.685 323.086C277.258 323.529 277.753 324.062 278.17 324.688C278.586 325.286 278.912 325.924 279.146 326.602C279.355 326.315 279.576 326.055 279.81 325.82C280.045 325.56 280.279 325.365 280.514 325.234C280.644 325.182 280.813 325.078 281.021 324.922C281.36 324.714 281.764 324.479 282.232 324.219C282.727 323.932 283.235 323.659 283.756 323.398C284.303 323.138 284.862 322.93 285.435 322.773C286.008 322.591 286.555 322.5 287.076 322.5C287.31 322.5 287.61 322.513 287.974 322.539C288.365 322.539 288.782 322.591 289.224 322.695C289.667 322.799 290.123 322.956 290.592 323.164C291.06 323.372 291.49 323.672 291.881 324.062C292.87 325.104 293.365 326.51 293.365 328.281C293.365 329.818 293.339 330.977 293.287 331.758C293.261 332.513 293.235 333.138 293.209 333.633C293.183 333.919 293.17 334.193 293.17 334.453C293.17 334.688 293.17 334.974 293.17 335.312C293.17 335.703 293.196 336.068 293.248 336.406C293.3 336.745 293.352 337.096 293.404 337.461C293.482 337.826 293.547 338.216 293.599 338.633C293.678 339.023 293.717 339.44 293.717 339.883ZM305.904 343.516C306.451 343.516 307.05 343.268 307.701 342.773C308.352 342.253 308.977 341.562 309.576 340.703C310.201 339.844 310.761 338.841 311.256 337.695C311.75 336.523 312.115 335.286 312.349 333.984C312.167 332.734 312.024 331.419 311.92 330.039C311.816 328.659 311.75 327.188 311.724 325.625C311.438 325.391 311.295 325.104 311.295 324.766C311.112 324.688 310.917 324.622 310.709 324.57C310.527 324.518 310.318 324.492 310.084 324.492C309.745 324.492 309.264 324.57 308.639 324.727C308.014 324.857 307.336 325.091 306.607 325.43C305.878 325.742 305.136 326.159 304.381 326.68C303.652 327.201 302.974 327.839 302.349 328.594C301.75 329.349 301.256 330.221 300.865 331.211C300.474 332.201 300.279 333.32 300.279 334.57C300.279 336.549 300.435 338.125 300.748 339.297C301.086 340.469 301.516 341.367 302.037 341.992C302.584 342.617 303.183 343.034 303.834 343.242C304.511 343.424 305.201 343.516 305.904 343.516ZM314.576 333.984C314.81 335.599 315.084 337.044 315.396 338.32C315.709 339.596 315.995 340.677 316.256 341.562C316.542 342.448 316.777 343.138 316.959 343.633C317.167 344.102 317.271 344.349 317.271 344.375C317.297 344.453 317.31 344.531 317.31 344.609C317.336 344.661 317.349 344.727 317.349 344.805C317.349 345.273 317.141 345.612 316.724 345.82C316.516 345.872 316.36 345.898 316.256 345.898C315.761 345.898 315.435 345.69 315.279 345.273C315.227 345.169 314.98 344.557 314.537 343.438C314.12 342.292 313.678 340.703 313.209 338.672C312.792 339.688 312.297 340.625 311.724 341.484C311.178 342.344 310.579 343.086 309.928 343.711C309.303 344.336 308.639 344.818 307.935 345.156C307.258 345.521 306.581 345.703 305.904 345.703C303.248 345.703 301.282 344.792 300.006 342.969C298.73 341.146 298.092 338.346 298.092 334.57C298.092 333.008 298.326 331.628 298.795 330.43C299.264 329.206 299.862 328.138 300.592 327.227C301.347 326.315 302.18 325.547 303.092 324.922C304.029 324.297 304.941 323.789 305.826 323.398C306.711 323.008 307.532 322.734 308.287 322.578C309.042 322.396 309.641 322.305 310.084 322.305C310.865 322.305 311.542 322.461 312.115 322.773C312.688 323.06 313.157 323.398 313.521 323.789C313.912 324.154 314.198 324.505 314.381 324.844C314.563 325.156 314.654 325.326 314.654 325.352C314.732 325.482 314.771 325.625 314.771 325.781C314.771 326.042 314.654 326.315 314.42 326.602C314.654 327.826 314.771 329.44 314.771 331.445C314.771 331.862 314.745 332.279 314.693 332.695C314.667 333.112 314.628 333.542 314.576 333.984ZM321.803 340.273C322.375 340.352 322.662 340.781 322.662 341.562C322.532 342.135 322.402 342.943 322.271 343.984C322.167 345.026 322.063 346.224 321.959 347.578C321.933 347.865 321.803 348.099 321.568 348.281C321.36 348.49 321.099 348.581 320.787 348.555C320.5 348.555 320.253 348.438 320.045 348.203C319.862 347.995 319.771 347.721 319.771 347.383C319.797 346.992 319.836 346.523 319.889 345.977C319.941 345.43 319.993 344.87 320.045 344.297C320.123 343.698 320.201 343.125 320.279 342.578C320.357 342.031 320.435 341.549 320.514 341.133C320.644 340.534 321.073 340.247 321.803 340.273ZM356.295 324.453C356.295 324.01 356.204 323.503 356.021 322.93C355.865 322.331 355.605 321.745 355.24 321.172C354.875 320.599 354.42 320.078 353.873 319.609C353.326 319.141 352.688 318.802 351.959 318.594C350.553 318.229 349.342 317.969 348.326 317.812C347.31 317.656 346.386 317.578 345.553 317.578C344.641 317.578 343.795 317.656 343.014 317.812C342.258 317.969 341.425 318.151 340.514 318.359C340.618 319.245 340.709 320.221 340.787 321.289C340.891 322.331 340.969 323.359 341.021 324.375C341.099 325.391 341.152 326.354 341.178 327.266C341.23 328.177 341.256 328.919 341.256 329.492C341.256 329.622 341.256 329.779 341.256 329.961C341.256 330.143 341.269 330.339 341.295 330.547C341.659 330.547 342.011 330.547 342.349 330.547C342.714 330.547 343.079 330.56 343.443 330.586C344.016 330.612 344.576 330.625 345.123 330.625C345.696 330.625 346.269 330.625 346.842 330.625C347.883 330.625 348.86 330.599 349.771 330.547C350.709 330.495 351.516 330.378 352.193 330.195C353.079 329.935 353.782 329.635 354.303 329.297C354.823 328.932 355.214 328.542 355.474 328.125C355.735 327.708 355.904 327.253 355.982 326.758C356.086 326.263 356.165 325.755 356.217 325.234L356.256 324.766L356.295 324.453ZM352.506 316.484C353.469 316.745 354.329 317.174 355.084 317.773C355.839 318.372 356.464 319.049 356.959 319.805C357.454 320.56 357.831 321.354 358.092 322.188C358.352 322.995 358.482 323.75 358.482 324.453C358.482 324.557 358.469 324.648 358.443 324.727C358.443 324.805 358.443 324.896 358.443 325L358.404 325.469C358.352 326.016 358.261 326.615 358.131 327.266C358 327.891 357.753 328.516 357.389 329.141C357.024 329.766 356.477 330.365 355.748 330.938C355.019 331.484 354.029 331.927 352.779 332.266C351.998 332.5 351.099 332.656 350.084 332.734C349.094 332.786 348.027 332.812 346.881 332.812C346.308 332.812 345.735 332.812 345.162 332.812C344.589 332.812 344.003 332.799 343.404 332.773C343.066 332.747 342.727 332.734 342.389 332.734C342.076 332.734 341.75 332.734 341.412 332.734C341.49 333.88 341.594 335.117 341.724 336.445C341.855 337.747 341.972 338.971 342.076 340.117C342.206 341.263 342.31 342.227 342.389 343.008C342.493 343.789 342.545 344.206 342.545 344.258C342.545 344.544 342.441 344.792 342.232 345C342.05 345.208 341.79 345.326 341.451 345.352C341.165 345.352 340.917 345.26 340.709 345.078C340.5 344.896 340.383 344.661 340.357 344.375C340.331 344.297 340.279 343.945 340.201 343.32C340.149 342.695 340.071 341.927 339.967 341.016C339.889 340.078 339.797 339.049 339.693 337.93C339.589 336.81 339.485 335.716 339.381 334.648C339.303 333.555 339.224 332.552 339.146 331.641C339.094 330.729 339.068 330.013 339.068 329.492C339.068 328.841 339.042 328.047 338.99 327.109C338.964 326.172 338.912 325.182 338.834 324.141C338.756 323.099 338.665 322.07 338.56 321.055C338.482 320.013 338.391 319.076 338.287 318.242C338.235 318.19 338.196 318.125 338.17 318.047C338.144 317.943 338.105 317.786 338.053 317.578C338.053 317.474 338.079 317.344 338.131 317.188C338.105 317.057 338.079 316.914 338.053 316.758C338.053 316.602 338.027 316.419 337.974 316.211C337.974 315.951 338.066 315.716 338.248 315.508C338.43 315.299 338.704 315.169 339.068 315.117C339.329 315.117 339.563 315.208 339.771 315.391C339.98 315.573 340.11 315.846 340.162 316.211C341.099 315.977 341.985 315.781 342.818 315.625C343.652 315.469 344.55 315.391 345.514 315.391C346.425 315.391 347.428 315.482 348.521 315.664C349.641 315.82 350.969 316.094 352.506 316.484ZM380.006 340.742C380.006 341.081 380.045 341.445 380.123 341.836C380.227 342.201 380.331 342.552 380.435 342.891C380.566 343.203 380.696 343.503 380.826 343.789C380.956 344.049 381.06 344.245 381.139 344.375C381.191 344.479 381.23 344.57 381.256 344.648C381.282 344.727 381.295 344.818 381.295 344.922C381.295 345.339 381.099 345.651 380.709 345.859C380.579 345.964 380.409 346.016 380.201 346.016C379.758 346.016 379.433 345.833 379.224 345.469C379.224 345.443 379.146 345.286 378.99 345C378.834 344.714 378.665 344.349 378.482 343.906C378.326 343.438 378.17 342.93 378.014 342.383C377.883 341.836 377.818 341.289 377.818 340.742C377.818 340.612 377.805 340.469 377.779 340.312C377.779 340.156 377.766 339.974 377.74 339.766C377.714 339.427 377.688 339.049 377.662 338.633C377.636 338.216 377.623 337.721 377.623 337.148C377.623 336.784 377.597 336.393 377.545 335.977C377.493 335.56 377.441 335.117 377.389 334.648C377.31 334.023 377.232 333.359 377.154 332.656C377.102 331.953 377.076 331.198 377.076 330.391C377.076 329.896 376.972 329.362 376.764 328.789C376.555 328.216 376.243 327.695 375.826 327.227C375.409 326.732 374.902 326.328 374.303 326.016C373.704 325.677 373.014 325.508 372.232 325.508C371.243 325.508 370.357 325.69 369.576 326.055C368.821 326.393 368.157 326.836 367.584 327.383C367.011 327.904 366.529 328.49 366.139 329.141C365.748 329.766 365.435 330.352 365.201 330.898C365.331 332.331 365.5 333.854 365.709 335.469C365.917 337.083 366.125 338.594 366.334 340C366.568 341.38 366.764 342.539 366.92 343.477C367.076 344.414 367.154 344.922 367.154 345C367.154 345.26 367.063 345.495 366.881 345.703C366.698 345.911 366.425 346.042 366.06 346.094C365.774 346.094 365.527 346.003 365.318 345.82C365.136 345.664 365.019 345.456 364.967 345.195C364.967 345.117 364.902 344.727 364.771 344.023C364.667 343.32 364.524 342.435 364.342 341.367C364.185 340.299 364.003 339.115 363.795 337.812C363.586 336.484 363.391 335.156 363.209 333.828C362.636 333.698 362.362 333.268 362.389 332.539C362.493 331.966 362.688 331.302 362.974 330.547C362.922 329.974 362.883 329.44 362.857 328.945C362.831 328.424 362.818 327.943 362.818 327.5C362.818 326.25 362.779 324.922 362.701 323.516C362.623 322.109 362.532 320.807 362.428 319.609C362.349 318.385 362.258 317.37 362.154 316.562C362.076 315.755 362.037 315.326 362.037 315.273C362.037 314.987 362.128 314.753 362.31 314.57C362.519 314.362 362.792 314.232 363.131 314.18C363.417 314.18 363.665 314.271 363.873 314.453C364.081 314.635 364.198 314.87 364.224 315.156C364.224 315.234 364.264 315.664 364.342 316.445C364.42 317.201 364.511 318.151 364.615 319.297C364.719 320.443 364.81 321.706 364.889 323.086C364.967 324.44 365.006 325.742 365.006 326.992C365.813 325.977 366.803 325.117 367.974 324.414C369.172 323.685 370.592 323.32 372.232 323.32C373.274 323.32 374.224 323.529 375.084 323.945C375.969 324.362 376.711 324.909 377.31 325.586C377.935 326.237 378.417 326.992 378.756 327.852C379.094 328.685 379.264 329.531 379.264 330.391C379.264 331.146 379.29 331.849 379.342 332.5C379.42 333.151 379.498 333.776 379.576 334.375C379.628 334.87 379.68 335.352 379.732 335.82C379.784 336.263 379.81 336.706 379.81 337.148C379.81 338.164 379.849 338.958 379.928 339.531C379.954 339.766 379.967 339.974 379.967 340.156C379.993 340.339 380.006 340.534 380.006 340.742ZM392.389 343.633C392.883 343.633 393.508 343.398 394.264 342.93C395.045 342.435 395.8 341.758 396.529 340.898C397.258 340.013 397.883 338.958 398.404 337.734C398.925 336.51 399.185 335.143 399.185 333.633C399.185 332.174 399.003 330.898 398.639 329.805C398.3 328.685 397.896 327.747 397.428 326.992C396.985 326.211 396.529 325.625 396.06 325.234C395.618 324.844 395.292 324.622 395.084 324.57C394.641 324.57 394.237 324.609 393.873 324.688C393.534 324.74 393.3 324.779 393.17 324.805C392.857 324.805 392.571 324.674 392.31 324.414C391.659 324.674 390.982 325.26 390.279 326.172C389.576 327.083 388.925 328.151 388.326 329.375C387.727 330.573 387.232 331.862 386.842 333.242C386.451 334.596 386.256 335.846 386.256 336.992C386.256 338.19 386.464 339.219 386.881 340.078C387.297 340.911 387.818 341.589 388.443 342.109C389.068 342.63 389.732 343.021 390.435 343.281C391.139 343.516 391.79 343.633 392.389 343.633ZM395.123 322.383C395.67 322.383 396.295 322.656 396.998 323.203C397.727 323.724 398.404 324.479 399.029 325.469C399.68 326.432 400.227 327.604 400.67 328.984C401.139 330.365 401.373 331.914 401.373 333.633C401.373 335.378 401.073 336.992 400.474 338.477C399.875 339.961 399.12 341.25 398.209 342.344C397.323 343.438 396.347 344.297 395.279 344.922C394.237 345.521 393.274 345.82 392.389 345.82C391.373 345.82 390.37 345.625 389.381 345.234C388.391 344.844 387.506 344.284 386.724 343.555C385.943 342.799 385.305 341.875 384.81 340.781C384.316 339.688 384.068 338.424 384.068 336.992C384.068 336.081 384.185 335.078 384.42 333.984C384.654 332.891 384.967 331.797 385.357 330.703C385.774 329.583 386.256 328.516 386.803 327.5C387.375 326.458 387.987 325.534 388.639 324.727C389.29 323.919 389.98 323.281 390.709 322.812C391.438 322.318 392.18 322.07 392.935 322.07C393.222 322.07 393.469 322.109 393.678 322.188C393.912 322.24 394.12 322.318 394.303 322.422C394.433 322.422 394.563 322.422 394.693 322.422C394.823 322.396 394.967 322.383 395.123 322.383ZM417.857 324.609C418.092 324.661 418.287 324.805 418.443 325.039C418.599 325.273 418.665 325.573 418.639 325.938C418.508 326.484 418.066 326.758 417.31 326.758C417.31 326.732 416.829 326.641 415.865 326.484C414.902 326.328 413.612 326.237 411.998 326.211C412.076 327.695 412.115 328.919 412.115 329.883C412.115 330.378 412.141 331.081 412.193 331.992C412.271 332.904 412.349 333.906 412.428 335C412.532 336.068 412.636 337.174 412.74 338.32C412.844 339.44 412.948 340.469 413.053 341.406C413.157 342.318 413.235 343.086 413.287 343.711C413.365 344.31 413.404 344.622 413.404 344.648C413.404 344.935 413.3 345.169 413.092 345.352C412.909 345.56 412.649 345.69 412.31 345.742C412.024 345.742 411.777 345.651 411.568 345.469C411.36 345.286 411.243 345.052 411.217 344.766C411.217 344.688 411.178 344.336 411.099 343.711C411.021 343.086 410.93 342.318 410.826 341.406C410.748 340.469 410.657 339.44 410.553 338.32C410.448 337.201 410.344 336.107 410.24 335.039C410.162 333.945 410.084 332.943 410.006 332.031C409.954 331.12 409.928 330.404 409.928 329.883C409.928 328.893 409.889 327.695 409.81 326.289C409.133 326.341 408.469 326.406 407.818 326.484C407.167 326.562 406.581 326.641 406.06 326.719C405.566 326.771 405.149 326.823 404.81 326.875C404.498 326.927 404.316 326.953 404.264 326.953C404.003 326.953 403.769 326.862 403.56 326.68C403.352 326.497 403.222 326.224 403.17 325.859C403.17 325.599 403.248 325.378 403.404 325.195C403.586 324.987 403.821 324.857 404.107 324.805C404.133 324.805 404.303 324.779 404.615 324.727C404.954 324.648 405.37 324.583 405.865 324.531C406.386 324.453 406.972 324.388 407.623 324.336C408.274 324.258 408.951 324.193 409.654 324.141C409.602 323.411 409.537 322.695 409.459 321.992C409.407 321.263 409.342 320.573 409.264 319.922C409.211 319.245 409.146 318.62 409.068 318.047C408.99 317.474 408.912 316.979 408.834 316.562C408.834 316.302 408.925 316.068 409.107 315.859C409.29 315.651 409.563 315.521 409.928 315.469C410.188 315.469 410.409 315.547 410.592 315.703C410.8 315.859 410.93 316.081 410.982 316.367C411.165 317.174 411.334 318.281 411.49 319.688C411.646 321.094 411.79 322.539 411.92 324.023C412.805 324.023 413.599 324.049 414.303 324.102C415.032 324.154 415.644 324.219 416.139 324.297C416.659 324.375 417.063 324.453 417.349 324.531C417.662 324.583 417.831 324.609 417.857 324.609ZM429.185 343.633C429.68 343.633 430.305 343.398 431.06 342.93C431.842 342.435 432.597 341.758 433.326 340.898C434.055 340.013 434.68 338.958 435.201 337.734C435.722 336.51 435.982 335.143 435.982 333.633C435.982 332.174 435.8 330.898 435.435 329.805C435.097 328.685 434.693 327.747 434.224 326.992C433.782 326.211 433.326 325.625 432.857 325.234C432.415 324.844 432.089 324.622 431.881 324.57C431.438 324.57 431.034 324.609 430.67 324.688C430.331 324.74 430.097 324.779 429.967 324.805C429.654 324.805 429.368 324.674 429.107 324.414C428.456 324.674 427.779 325.26 427.076 326.172C426.373 327.083 425.722 328.151 425.123 329.375C424.524 330.573 424.029 331.862 423.639 333.242C423.248 334.596 423.053 335.846 423.053 336.992C423.053 338.19 423.261 339.219 423.678 340.078C424.094 340.911 424.615 341.589 425.24 342.109C425.865 342.63 426.529 343.021 427.232 343.281C427.935 343.516 428.586 343.633 429.185 343.633ZM431.92 322.383C432.467 322.383 433.092 322.656 433.795 323.203C434.524 323.724 435.201 324.479 435.826 325.469C436.477 326.432 437.024 327.604 437.467 328.984C437.935 330.365 438.17 331.914 438.17 333.633C438.17 335.378 437.87 336.992 437.271 338.477C436.672 339.961 435.917 341.25 435.006 342.344C434.12 343.438 433.144 344.297 432.076 344.922C431.034 345.521 430.071 345.82 429.185 345.82C428.17 345.82 427.167 345.625 426.178 345.234C425.188 344.844 424.303 344.284 423.521 343.555C422.74 342.799 422.102 341.875 421.607 340.781C421.112 339.688 420.865 338.424 420.865 336.992C420.865 336.081 420.982 335.078 421.217 333.984C421.451 332.891 421.764 331.797 422.154 330.703C422.571 329.583 423.053 328.516 423.599 327.5C424.172 326.458 424.784 325.534 425.435 324.727C426.086 323.919 426.777 323.281 427.506 322.812C428.235 322.318 428.977 322.07 429.732 322.07C430.019 322.07 430.266 322.109 430.474 322.188C430.709 322.24 430.917 322.318 431.099 322.422C431.23 322.422 431.36 322.422 431.49 322.422C431.62 322.396 431.764 322.383 431.92 322.383ZM451.607 331.641C456.217 333.88 458.521 336.237 458.521 338.711C458.521 339.466 458.352 340.208 458.014 340.938C457.675 341.667 457.271 342.344 456.803 342.969C456.334 343.568 455.839 344.102 455.318 344.57C454.823 345.013 454.407 345.326 454.068 345.508C453.756 345.69 453.339 345.859 452.818 346.016C452.323 346.198 451.803 346.354 451.256 346.484C450.735 346.615 450.227 346.719 449.732 346.797C449.264 346.875 448.873 346.914 448.56 346.914C447.883 346.914 447.154 346.797 446.373 346.562C445.618 346.354 444.889 345.99 444.185 345.469C443.482 344.974 442.844 344.31 442.271 343.477C441.724 342.643 441.295 341.615 440.982 340.391C440.982 339.818 441.347 339.453 442.076 339.297C442.31 339.297 442.532 339.375 442.74 339.531C442.948 339.661 443.079 339.857 443.131 340.117C443.417 341.211 443.821 342.07 444.342 342.695C444.889 343.294 445.435 343.75 445.982 344.062C446.555 344.375 447.076 344.57 447.545 344.648C448.04 344.701 448.378 344.727 448.56 344.727C448.795 344.727 449.12 344.701 449.537 344.648C449.954 344.57 450.37 344.479 450.787 344.375C451.23 344.245 451.646 344.115 452.037 343.984C452.454 343.854 452.766 343.724 452.974 343.594C453.209 343.464 453.521 343.229 453.912 342.891C454.303 342.526 454.667 342.122 455.006 341.68C455.37 341.211 455.683 340.716 455.943 340.195C456.204 339.674 456.334 339.18 456.334 338.711C456.334 338.451 456.256 338.151 456.099 337.812C455.943 337.448 455.657 337.057 455.24 336.641C454.849 336.198 454.277 335.729 453.521 335.234C452.792 334.74 451.842 334.206 450.67 333.633C449.915 333.268 449.12 332.891 448.287 332.5C447.48 332.109 446.724 331.758 446.021 331.445C445.318 331.107 444.732 330.82 444.264 330.586L443.56 330.273L442.935 330V329.297C442.935 328.099 443.235 327.057 443.834 326.172C444.433 325.26 445.162 324.505 446.021 323.906C446.881 323.281 447.779 322.812 448.717 322.5C449.68 322.188 450.527 322.031 451.256 322.031C452.011 322.031 452.649 322.122 453.17 322.305C453.691 322.487 454.12 322.695 454.459 322.93C454.797 323.138 455.045 323.346 455.201 323.555C455.383 323.737 455.487 323.854 455.514 323.906C455.644 324.089 455.709 324.284 455.709 324.492C455.709 324.883 455.54 325.182 455.201 325.391C454.993 325.521 454.797 325.586 454.615 325.586C454.224 325.586 453.925 325.417 453.717 325.078C453.691 325.078 453.625 325.039 453.521 324.961C453.443 324.857 453.3 324.753 453.092 324.648C452.909 324.544 452.662 324.453 452.349 324.375C452.063 324.271 451.698 324.219 451.256 324.219C450.813 324.219 450.279 324.31 449.654 324.492C449.029 324.674 448.404 324.961 447.779 325.352C447.154 325.716 446.594 326.172 446.099 326.719C445.605 327.266 445.292 327.904 445.162 328.633C445.5 328.789 445.917 328.984 446.412 329.219C446.907 329.427 447.441 329.674 448.014 329.961C448.612 330.221 449.224 330.508 449.849 330.82C450.474 331.107 451.06 331.38 451.607 331.641ZM480.045 340.742C480.045 341.081 480.084 341.445 480.162 341.836C480.266 342.201 480.37 342.552 480.474 342.891C480.605 343.203 480.735 343.503 480.865 343.789C480.995 344.049 481.099 344.245 481.178 344.375C481.23 344.479 481.269 344.57 481.295 344.648C481.321 344.727 481.334 344.818 481.334 344.922C481.334 345.339 481.139 345.651 480.748 345.859C480.618 345.964 480.448 346.016 480.24 346.016C479.797 346.016 479.472 345.833 479.264 345.469C479.264 345.443 479.185 345.286 479.029 345C478.873 344.714 478.704 344.349 478.521 343.906C478.365 343.438 478.209 342.93 478.053 342.383C477.922 341.836 477.857 341.289 477.857 340.742C477.857 340.612 477.844 340.469 477.818 340.312C477.818 340.156 477.805 339.974 477.779 339.766C477.753 339.427 477.727 339.049 477.701 338.633C477.675 338.216 477.662 337.721 477.662 337.148C477.662 336.784 477.636 336.393 477.584 335.977C477.532 335.56 477.48 335.117 477.428 334.648C477.349 334.023 477.271 333.359 477.193 332.656C477.141 331.953 477.115 331.198 477.115 330.391C477.115 329.896 477.011 329.362 476.803 328.789C476.594 328.216 476.282 327.695 475.865 327.227C475.448 326.732 474.941 326.328 474.342 326.016C473.743 325.677 473.053 325.508 472.271 325.508C471.282 325.508 470.396 325.69 469.615 326.055C468.86 326.393 468.196 326.836 467.623 327.383C467.05 327.904 466.568 328.49 466.178 329.141C465.787 329.766 465.474 330.352 465.24 330.898C465.37 332.331 465.54 333.854 465.748 335.469C465.956 337.083 466.165 338.594 466.373 340C466.607 341.38 466.803 342.539 466.959 343.477C467.115 344.414 467.193 344.922 467.193 345C467.193 345.26 467.102 345.495 466.92 345.703C466.737 345.911 466.464 346.042 466.099 346.094C465.813 346.094 465.566 346.003 465.357 345.82C465.175 345.664 465.058 345.456 465.006 345.195C465.006 345.117 464.941 344.727 464.81 344.023C464.706 343.32 464.563 342.435 464.381 341.367C464.224 340.299 464.042 339.115 463.834 337.812C463.625 336.484 463.43 335.156 463.248 333.828C462.675 333.698 462.402 333.268 462.428 332.539C462.532 331.966 462.727 331.302 463.014 330.547C462.961 329.974 462.922 329.44 462.896 328.945C462.87 328.424 462.857 327.943 462.857 327.5C462.857 326.25 462.818 324.922 462.74 323.516C462.662 322.109 462.571 320.807 462.467 319.609C462.389 318.385 462.297 317.37 462.193 316.562C462.115 315.755 462.076 315.326 462.076 315.273C462.076 314.987 462.167 314.753 462.349 314.57C462.558 314.362 462.831 314.232 463.17 314.18C463.456 314.18 463.704 314.271 463.912 314.453C464.12 314.635 464.237 314.87 464.264 315.156C464.264 315.234 464.303 315.664 464.381 316.445C464.459 317.201 464.55 318.151 464.654 319.297C464.758 320.443 464.849 321.706 464.928 323.086C465.006 324.44 465.045 325.742 465.045 326.992C465.852 325.977 466.842 325.117 468.014 324.414C469.211 323.685 470.631 323.32 472.271 323.32C473.313 323.32 474.264 323.529 475.123 323.945C476.008 324.362 476.75 324.909 477.349 325.586C477.974 326.237 478.456 326.992 478.795 327.852C479.133 328.685 479.303 329.531 479.303 330.391C479.303 331.146 479.329 331.849 479.381 332.5C479.459 333.151 479.537 333.776 479.615 334.375C479.667 334.87 479.719 335.352 479.771 335.82C479.823 336.263 479.849 336.706 479.849 337.148C479.849 338.164 479.889 338.958 479.967 339.531C479.993 339.766 480.006 339.974 480.006 340.156C480.032 340.339 480.045 340.534 480.045 340.742ZM492.428 343.633C492.922 343.633 493.547 343.398 494.303 342.93C495.084 342.435 495.839 341.758 496.568 340.898C497.297 340.013 497.922 338.958 498.443 337.734C498.964 336.51 499.224 335.143 499.224 333.633C499.224 332.174 499.042 330.898 498.678 329.805C498.339 328.685 497.935 327.747 497.467 326.992C497.024 326.211 496.568 325.625 496.099 325.234C495.657 324.844 495.331 324.622 495.123 324.57C494.68 324.57 494.277 324.609 493.912 324.688C493.573 324.74 493.339 324.779 493.209 324.805C492.896 324.805 492.61 324.674 492.349 324.414C491.698 324.674 491.021 325.26 490.318 326.172C489.615 327.083 488.964 328.151 488.365 329.375C487.766 330.573 487.271 331.862 486.881 333.242C486.49 334.596 486.295 335.846 486.295 336.992C486.295 338.19 486.503 339.219 486.92 340.078C487.336 340.911 487.857 341.589 488.482 342.109C489.107 342.63 489.771 343.021 490.474 343.281C491.178 343.516 491.829 343.633 492.428 343.633ZM495.162 322.383C495.709 322.383 496.334 322.656 497.037 323.203C497.766 323.724 498.443 324.479 499.068 325.469C499.719 326.432 500.266 327.604 500.709 328.984C501.178 330.365 501.412 331.914 501.412 333.633C501.412 335.378 501.112 336.992 500.514 338.477C499.915 339.961 499.159 341.25 498.248 342.344C497.362 343.438 496.386 344.297 495.318 344.922C494.277 345.521 493.313 345.82 492.428 345.82C491.412 345.82 490.409 345.625 489.42 345.234C488.43 344.844 487.545 344.284 486.764 343.555C485.982 342.799 485.344 341.875 484.849 340.781C484.355 339.688 484.107 338.424 484.107 336.992C484.107 336.081 484.224 335.078 484.459 333.984C484.693 332.891 485.006 331.797 485.396 330.703C485.813 329.583 486.295 328.516 486.842 327.5C487.415 326.458 488.027 325.534 488.678 324.727C489.329 323.919 490.019 323.281 490.748 322.812C491.477 322.318 492.219 322.07 492.974 322.07C493.261 322.07 493.508 322.109 493.717 322.188C493.951 322.24 494.159 322.318 494.342 322.422C494.472 322.422 494.602 322.422 494.732 322.422C494.862 322.396 495.006 322.383 495.162 322.383ZM520.162 336.055C520.292 335.716 520.37 335.378 520.396 335.039C520.448 334.701 520.474 334.362 520.474 334.023C520.474 333.19 520.331 332.383 520.045 331.602C519.784 330.82 519.433 330.104 518.99 329.453C518.547 328.776 518.053 328.177 517.506 327.656C516.959 327.109 516.412 326.667 515.865 326.328C515.214 325.964 514.433 325.781 513.521 325.781C512.714 325.781 511.868 325.938 510.982 326.25C510.097 326.562 509.303 327.057 508.599 327.734C508.339 327.943 508.092 328.047 507.857 328.047C507.701 328.047 507.545 328.008 507.389 327.93C507.519 328.737 507.662 329.674 507.818 330.742C507.974 331.784 508.131 332.891 508.287 334.062C508.443 335.234 508.599 336.432 508.756 337.656C508.912 338.88 509.042 340.052 509.146 341.172C509.511 341.328 509.732 341.628 509.81 342.07C509.81 342.096 509.836 342.188 509.889 342.344C509.967 342.5 510.136 342.656 510.396 342.812C510.813 343.047 511.269 343.164 511.764 343.164C512.076 343.164 512.375 343.125 512.662 343.047C512.974 342.969 513.261 342.891 513.521 342.812C514.224 342.552 514.915 342.188 515.592 341.719C516.295 341.224 516.946 340.677 517.545 340.078C518.144 339.453 518.665 338.802 519.107 338.125C519.576 337.422 519.928 336.732 520.162 336.055ZM516.998 324.492C517.753 324.961 518.469 325.534 519.146 326.211C519.849 326.888 520.461 327.643 520.982 328.477C521.503 329.31 521.907 330.195 522.193 331.133C522.506 332.07 522.662 333.034 522.662 334.023C522.662 334.987 522.519 335.885 522.232 336.719C521.946 337.552 521.529 338.385 520.982 339.219C520.461 340.052 519.849 340.833 519.146 341.562C518.443 342.292 517.662 342.943 516.803 343.516C515.969 344.089 515.123 344.531 514.264 344.844C513.404 345.182 512.571 345.352 511.764 345.352C510.93 345.352 510.136 345.143 509.381 344.727V345.664C509.381 347.096 509.42 348.62 509.498 350.234C509.602 351.849 509.706 353.346 509.81 354.727C509.915 356.107 510.006 357.253 510.084 358.164C510.188 359.102 510.24 359.596 510.24 359.648C510.24 359.935 510.149 360.182 509.967 360.391C509.784 360.599 509.511 360.716 509.146 360.742C508.86 360.742 508.612 360.651 508.404 360.469C508.222 360.286 508.105 360.052 508.053 359.766C508.053 359.74 508 359.258 507.896 358.32C507.818 357.409 507.727 356.25 507.623 354.844C507.519 353.464 507.415 351.953 507.31 350.312C507.232 348.672 507.193 347.122 507.193 345.664C507.193 344.727 507.128 343.581 506.998 342.227C506.894 340.872 506.75 339.466 506.568 338.008C506.412 336.523 506.23 335.052 506.021 333.594C505.813 332.135 505.618 330.82 505.435 329.648C505.253 328.477 505.097 327.526 504.967 326.797C504.862 326.042 504.81 325.638 504.81 325.586C504.81 324.987 505.175 324.622 505.904 324.492C506.191 324.492 506.425 324.57 506.607 324.727C506.816 324.883 506.946 325.104 506.998 325.391L507.115 326.133C508.053 325.247 509.081 324.609 510.201 324.219C511.321 323.802 512.415 323.594 513.482 323.594C514.862 323.594 516.034 323.893 516.998 324.492ZM527.701 340.273C528.274 340.352 528.56 340.781 528.56 341.562C528.43 342.135 528.3 342.943 528.17 343.984C528.066 345.026 527.961 346.224 527.857 347.578C527.831 347.865 527.701 348.099 527.467 348.281C527.258 348.49 526.998 348.581 526.685 348.555C526.399 348.555 526.152 348.438 525.943 348.203C525.761 347.995 525.67 347.721 525.67 347.383C525.696 346.992 525.735 346.523 525.787 345.977C525.839 345.43 525.891 344.87 525.943 344.297C526.021 343.698 526.099 343.125 526.178 342.578C526.256 342.031 526.334 341.549 526.412 341.133C526.542 340.534 526.972 340.247 527.701 340.273ZM200.514 390.492C200.514 390.987 200.54 391.69 200.592 392.602C200.67 393.513 200.748 394.516 200.826 395.609C200.93 396.677 201.034 397.784 201.139 398.93C201.243 400.049 201.347 401.078 201.451 402.016C201.555 402.927 201.633 403.695 201.685 404.32C201.764 404.919 201.803 405.232 201.803 405.258C201.803 405.544 201.698 405.792 201.49 406C201.308 406.208 201.047 406.326 200.709 406.352C200.422 406.352 200.175 406.26 199.967 406.078C199.784 405.896 199.667 405.661 199.615 405.375C199.615 405.297 199.576 404.945 199.498 404.32C199.446 403.695 199.368 402.927 199.264 402.016C199.159 401.078 199.055 400.049 198.951 398.93C198.847 397.81 198.743 396.716 198.639 395.648C198.56 394.555 198.482 393.552 198.404 392.641C198.352 391.729 198.326 391.013 198.326 390.492C198.326 389.711 198.287 388.708 198.209 387.484C198.157 386.26 198.079 385.01 197.974 383.734C197.87 382.432 197.753 381.195 197.623 380.023C197.493 378.852 197.362 377.914 197.232 377.211C197.232 376.951 197.323 376.716 197.506 376.508C197.688 376.299 197.961 376.169 198.326 376.117C198.586 376.117 198.821 376.195 199.029 376.352C199.237 376.508 199.368 376.716 199.42 376.977C199.55 377.706 199.68 378.682 199.81 379.906C199.941 381.104 200.058 382.367 200.162 383.695C200.266 385.023 200.344 386.312 200.396 387.562C200.474 388.786 200.514 389.763 200.514 390.492ZM226.178 401.312C226.178 401.677 226.217 402.055 226.295 402.445C226.399 402.836 226.516 403.214 226.646 403.578C226.777 403.917 226.907 404.229 227.037 404.516C227.167 404.802 227.271 405.023 227.349 405.18C227.428 405.336 227.467 405.518 227.467 405.727C227.467 406.143 227.284 406.456 226.92 406.664C226.816 406.716 226.724 406.755 226.646 406.781C226.568 406.807 226.477 406.82 226.373 406.82C225.956 406.82 225.644 406.625 225.435 406.234C225.409 406.208 225.318 406.052 225.162 405.766C225.006 405.453 224.836 405.062 224.654 404.594C224.498 404.125 224.342 403.604 224.185 403.031C224.055 402.458 223.99 401.885 223.99 401.312C223.99 401.182 223.977 401.039 223.951 400.883C223.951 400.701 223.938 400.505 223.912 400.297C223.886 399.932 223.86 399.542 223.834 399.125C223.808 398.682 223.795 398.161 223.795 397.562C223.795 397.172 223.769 396.768 223.717 396.352C223.665 395.909 223.612 395.427 223.56 394.906C223.482 394.255 223.404 393.565 223.326 392.836C223.274 392.081 223.248 391.286 223.248 390.453C223.248 389.932 223.131 389.372 222.896 388.773C222.688 388.148 222.375 387.576 221.959 387.055C221.542 386.534 221.021 386.104 220.396 385.766C219.797 385.427 219.094 385.258 218.287 385.258C217.271 385.258 216.36 385.453 215.553 385.844C214.771 386.208 214.094 386.677 213.521 387.25C212.948 387.823 212.454 388.448 212.037 389.125C211.646 389.776 211.334 390.401 211.099 391C210.865 391.573 210.683 392.068 210.553 392.484C210.448 392.901 210.396 393.135 210.396 393.188C210.318 393.422 210.214 393.604 210.084 393.734V394.438C210.084 395.062 210.175 395.779 210.357 396.586C210.54 397.393 210.748 398.253 210.982 399.164C211.269 400.336 211.542 401.56 211.803 402.836C212.089 404.112 212.232 405.414 212.232 406.742C212.232 407.055 212.128 407.315 211.92 407.523C211.711 407.732 211.451 407.836 211.139 407.836C210.852 407.836 210.592 407.732 210.357 407.523C210.149 407.315 210.045 407.055 210.045 406.742C210.045 405.544 209.915 404.346 209.654 403.148C209.42 401.951 209.159 400.805 208.873 399.711C208.612 398.747 208.378 397.823 208.17 396.938C207.987 396.026 207.896 395.193 207.896 394.438C207.896 393.682 207.844 392.732 207.74 391.586C207.636 390.44 207.506 389.333 207.349 388.266C207.219 387.172 207.089 386.234 206.959 385.453C206.855 384.646 206.803 384.216 206.803 384.164C206.803 383.904 206.894 383.669 207.076 383.461C207.258 383.253 207.532 383.122 207.896 383.07C208.183 383.07 208.417 383.161 208.599 383.344C208.808 383.5 208.938 383.721 208.99 384.008C208.99 384.06 209.016 384.229 209.068 384.516C209.12 384.776 209.172 385.141 209.224 385.609C209.277 386.052 209.342 386.56 209.42 387.133C209.498 387.706 209.576 388.305 209.654 388.93C210.045 388.201 210.5 387.484 211.021 386.781C211.568 386.078 212.193 385.453 212.896 384.906C213.625 384.359 214.433 383.917 215.318 383.578C216.204 383.24 217.193 383.07 218.287 383.07C219.355 383.07 220.318 383.292 221.178 383.734C222.063 384.151 222.818 384.711 223.443 385.414C224.068 386.117 224.55 386.911 224.889 387.797C225.253 388.682 225.435 389.568 225.435 390.453C225.435 391.234 225.461 391.977 225.514 392.68C225.592 393.383 225.67 394.034 225.748 394.633C225.8 395.154 225.852 395.661 225.904 396.156C225.956 396.651 225.982 397.12 225.982 397.562C225.982 398.604 226.021 399.438 226.099 400.062C226.125 400.297 226.139 400.518 226.139 400.727C226.165 400.909 226.178 401.104 226.178 401.312ZM243.678 404.359C245.136 403.943 246.321 403.266 247.232 402.328C248.144 401.365 248.86 400.258 249.381 399.008C249.902 397.758 250.253 396.443 250.435 395.062C250.618 393.656 250.709 392.302 250.709 391C250.709 389.281 250.409 387.758 249.81 386.43C249.237 385.076 248.521 383.917 247.662 382.953C246.803 381.964 245.878 381.169 244.889 380.57C243.899 379.971 243 379.568 242.193 379.359C240.943 379.021 239.862 378.786 238.951 378.656C238.066 378.526 237.245 378.461 236.49 378.461C235.735 378.461 235.019 378.526 234.342 378.656C233.691 378.76 232.987 378.904 232.232 379.086C232.336 379.971 232.428 380.961 232.506 382.055C232.61 383.122 232.701 384.19 232.779 385.258C232.857 386.299 232.909 387.289 232.935 388.227C232.987 389.138 233.014 389.893 233.014 390.492C233.014 390.935 233.04 391.534 233.092 392.289C233.144 393.018 233.196 393.839 233.248 394.75C233.326 395.661 233.404 396.612 233.482 397.602C233.586 398.565 233.678 399.503 233.756 400.414C233.86 401.299 233.951 402.107 234.029 402.836C234.107 403.565 234.172 404.125 234.224 404.516C234.98 404.568 235.774 404.607 236.607 404.633C237.467 404.633 238.313 404.633 239.146 404.633C240.188 404.633 241.112 404.62 241.92 404.594C242.727 404.542 243.313 404.464 243.678 404.359ZM242.74 377.25C243.756 377.536 244.849 378.031 246.021 378.734C247.219 379.438 248.326 380.362 249.342 381.508C250.357 382.628 251.204 383.982 251.881 385.57C252.558 387.159 252.896 388.969 252.896 391C252.896 393.682 252.623 395.948 252.076 397.797C251.555 399.646 250.878 401.169 250.045 402.367C249.211 403.539 248.287 404.451 247.271 405.102C246.256 405.727 245.253 406.182 244.264 406.469C243.795 406.599 243.079 406.69 242.115 406.742C241.178 406.794 240.175 406.82 239.107 406.82C238.43 406.82 237.753 406.807 237.076 406.781C236.425 406.781 235.826 406.768 235.279 406.742C234.732 406.742 234.264 406.729 233.873 406.703C233.508 406.677 233.261 406.664 233.131 406.664C232.844 406.664 232.597 406.547 232.389 406.312C232.206 406.078 232.115 405.766 232.115 405.375C232.089 405.297 232.037 404.945 231.959 404.32C231.907 403.695 231.829 402.927 231.724 402.016C231.646 401.078 231.555 400.049 231.451 398.93C231.347 397.81 231.243 396.716 231.139 395.648C231.06 394.555 230.982 393.552 230.904 392.641C230.852 391.729 230.826 391.013 230.826 390.492C230.826 389.841 230.8 389.034 230.748 388.07C230.722 387.107 230.67 386.104 230.592 385.062C230.514 383.995 230.422 382.953 230.318 381.938C230.214 380.896 230.11 379.958 230.006 379.125C229.954 379.073 229.902 378.995 229.849 378.891C229.797 378.76 229.745 378.578 229.693 378.344C229.693 378.135 229.732 377.953 229.81 377.797C229.81 377.745 229.797 377.68 229.771 377.602C229.771 377.497 229.758 377.367 229.732 377.211C229.732 376.951 229.823 376.716 230.006 376.508C230.188 376.299 230.461 376.169 230.826 376.117C231.399 376.117 231.75 376.391 231.881 376.938C232.662 376.729 233.404 376.573 234.107 376.469C234.836 376.339 235.631 376.273 236.49 376.273C237.297 376.273 238.196 376.352 239.185 376.508C240.201 376.638 241.386 376.885 242.74 377.25ZM265.748 386.312C265.514 386.312 265.045 386.443 264.342 386.703C263.665 386.938 262.948 387.38 262.193 388.031C261.464 388.656 260.774 389.542 260.123 390.688C259.498 391.807 259.107 393.253 258.951 395.023C259.394 394.919 259.889 394.802 260.435 394.672C261.008 394.542 261.568 394.424 262.115 394.32C262.688 394.19 263.222 394.086 263.717 394.008C264.237 393.93 264.654 393.891 264.967 393.891C265.331 393.891 265.787 393.812 266.334 393.656C266.907 393.474 267.467 393.292 268.014 393.109C268.456 392.953 268.873 392.823 269.264 392.719C269.654 392.589 270.032 392.471 270.396 392.367C270.292 391.326 270.071 390.427 269.732 389.672C269.394 388.917 269.003 388.292 268.56 387.797C268.118 387.302 267.649 386.938 267.154 386.703C266.659 386.443 266.191 386.312 265.748 386.312ZM273.131 404.203C273.417 404.203 273.652 404.294 273.834 404.477C274.042 404.659 274.172 404.932 274.224 405.297C274.224 405.583 274.133 405.818 273.951 406C273.795 406.208 273.573 406.339 273.287 406.391C273.235 406.391 273 406.417 272.584 406.469C272.167 406.547 271.672 406.625 271.099 406.703C270.527 406.781 269.928 406.846 269.303 406.898C268.678 406.951 268.144 406.977 267.701 406.977C264.237 406.977 261.581 406.065 259.732 404.242C257.883 402.393 256.868 399.802 256.685 396.469C256.633 394.776 256.777 393.292 257.115 392.016C257.48 390.74 257.948 389.646 258.521 388.734C259.12 387.823 259.784 387.068 260.514 386.469C261.243 385.87 261.946 385.401 262.623 385.062C263.326 384.724 263.951 384.49 264.498 384.359C265.071 384.203 265.487 384.125 265.748 384.125C266.425 384.125 267.141 384.294 267.896 384.633C268.678 384.971 269.394 385.492 270.045 386.195C270.722 386.872 271.295 387.745 271.764 388.812C272.232 389.88 272.519 391.143 272.623 392.602C272.779 392.81 272.857 393.044 272.857 393.305C272.857 393.565 272.779 393.786 272.623 393.969C272.493 394.49 272.141 394.75 271.568 394.75C271.308 394.75 271.086 394.672 270.904 394.516C270.201 394.672 269.472 394.893 268.717 395.18C268.04 395.414 267.375 395.622 266.724 395.805C266.073 395.987 265.487 396.078 264.967 396.078C264.68 396.078 264.29 396.117 263.795 396.195C263.326 396.273 262.805 396.378 262.232 396.508C261.659 396.638 261.073 396.781 260.474 396.938C259.902 397.068 259.381 397.198 258.912 397.328C259.016 398.943 259.381 400.245 260.006 401.234C260.657 402.198 261.412 402.953 262.271 403.5C263.157 404.021 264.081 404.372 265.045 404.555C266.034 404.711 266.92 404.789 267.701 404.789C268.118 404.789 268.625 404.763 269.224 404.711C269.823 404.659 270.396 404.594 270.943 404.516C271.49 404.438 271.972 404.372 272.389 404.32L272.974 404.242L273.131 404.203ZM286.842 392.641C291.451 394.88 293.756 397.237 293.756 399.711C293.756 400.466 293.586 401.208 293.248 401.938C292.909 402.667 292.506 403.344 292.037 403.969C291.568 404.568 291.073 405.102 290.553 405.57C290.058 406.013 289.641 406.326 289.303 406.508C288.99 406.69 288.573 406.859 288.053 407.016C287.558 407.198 287.037 407.354 286.49 407.484C285.969 407.615 285.461 407.719 284.967 407.797C284.498 407.875 284.107 407.914 283.795 407.914C283.118 407.914 282.389 407.797 281.607 407.562C280.852 407.354 280.123 406.99 279.42 406.469C278.717 405.974 278.079 405.31 277.506 404.477C276.959 403.643 276.529 402.615 276.217 401.391C276.217 400.818 276.581 400.453 277.31 400.297C277.545 400.297 277.766 400.375 277.974 400.531C278.183 400.661 278.313 400.857 278.365 401.117C278.652 402.211 279.055 403.07 279.576 403.695C280.123 404.294 280.67 404.75 281.217 405.062C281.79 405.375 282.31 405.57 282.779 405.648C283.274 405.701 283.612 405.727 283.795 405.727C284.029 405.727 284.355 405.701 284.771 405.648C285.188 405.57 285.605 405.479 286.021 405.375C286.464 405.245 286.881 405.115 287.271 404.984C287.688 404.854 288 404.724 288.209 404.594C288.443 404.464 288.756 404.229 289.146 403.891C289.537 403.526 289.902 403.122 290.24 402.68C290.605 402.211 290.917 401.716 291.178 401.195C291.438 400.674 291.568 400.18 291.568 399.711C291.568 399.451 291.49 399.151 291.334 398.812C291.178 398.448 290.891 398.057 290.474 397.641C290.084 397.198 289.511 396.729 288.756 396.234C288.027 395.74 287.076 395.206 285.904 394.633C285.149 394.268 284.355 393.891 283.521 393.5C282.714 393.109 281.959 392.758 281.256 392.445C280.553 392.107 279.967 391.82 279.498 391.586L278.795 391.273L278.17 391V390.297C278.17 389.099 278.469 388.057 279.068 387.172C279.667 386.26 280.396 385.505 281.256 384.906C282.115 384.281 283.014 383.812 283.951 383.5C284.915 383.188 285.761 383.031 286.49 383.031C287.245 383.031 287.883 383.122 288.404 383.305C288.925 383.487 289.355 383.695 289.693 383.93C290.032 384.138 290.279 384.346 290.435 384.555C290.618 384.737 290.722 384.854 290.748 384.906C290.878 385.089 290.943 385.284 290.943 385.492C290.943 385.883 290.774 386.182 290.435 386.391C290.227 386.521 290.032 386.586 289.849 386.586C289.459 386.586 289.159 386.417 288.951 386.078C288.925 386.078 288.86 386.039 288.756 385.961C288.678 385.857 288.534 385.753 288.326 385.648C288.144 385.544 287.896 385.453 287.584 385.375C287.297 385.271 286.933 385.219 286.49 385.219C286.047 385.219 285.514 385.31 284.889 385.492C284.264 385.674 283.639 385.961 283.014 386.352C282.389 386.716 281.829 387.172 281.334 387.719C280.839 388.266 280.527 388.904 280.396 389.633C280.735 389.789 281.152 389.984 281.646 390.219C282.141 390.427 282.675 390.674 283.248 390.961C283.847 391.221 284.459 391.508 285.084 391.82C285.709 392.107 286.295 392.38 286.842 392.641ZM298.287 382.641C297.844 382.641 297.467 382.497 297.154 382.211C296.868 381.898 296.724 381.521 296.724 381.078C296.724 380.635 296.868 380.271 297.154 379.984C297.467 379.698 297.844 379.555 298.287 379.555C298.704 379.555 299.055 379.698 299.342 379.984C299.654 380.271 299.81 380.635 299.81 381.078C299.81 381.521 299.654 381.898 299.342 382.211C299.055 382.497 298.704 382.641 298.287 382.641ZM298.795 384.281C299.081 384.281 299.316 384.372 299.498 384.555C299.706 384.711 299.836 384.919 299.889 385.18C299.889 385.258 299.941 385.661 300.045 386.391C300.175 387.12 300.318 388.005 300.474 389.047C300.631 390.089 300.774 391.208 300.904 392.406C301.06 393.578 301.165 394.633 301.217 395.57C301.269 396.482 301.36 397.549 301.49 398.773C301.62 399.997 301.764 401.169 301.92 402.289C302.076 403.383 302.206 404.333 302.31 405.141C302.441 405.922 302.506 406.339 302.506 406.391C302.506 406.677 302.415 406.911 302.232 407.094C302.05 407.302 301.777 407.432 301.412 407.484C301.125 407.484 300.878 407.393 300.67 407.211C300.487 407.055 300.37 406.833 300.318 406.547C300.318 406.469 300.253 406.039 300.123 405.258C300.019 404.477 299.889 403.539 299.732 402.445C299.576 401.326 299.433 400.154 299.303 398.93C299.172 397.706 299.081 396.625 299.029 395.688C298.977 394.776 298.873 393.734 298.717 392.562C298.586 391.391 298.443 390.284 298.287 389.242C298.157 388.201 298.027 387.315 297.896 386.586C297.792 385.831 297.74 385.427 297.74 385.375C297.74 385.115 297.818 384.88 297.974 384.672C298.131 384.464 298.352 384.333 298.639 384.281H298.795ZM320.826 400.18C320.904 399.945 321.073 399.763 321.334 399.633C321.152 397.836 320.995 396.169 320.865 394.633C320.761 393.096 320.709 391.846 320.709 390.883V390.414C320.448 390.284 320.266 390.115 320.162 389.906C319.615 388.891 319.068 388.161 318.521 387.719C318 387.276 317.662 387.042 317.506 387.016C317.063 387.016 316.659 387.042 316.295 387.094C315.956 387.146 315.722 387.185 315.592 387.211C315.253 387.211 314.98 387.081 314.771 386.82C314.12 387.081 313.43 387.667 312.701 388.578C311.998 389.49 311.347 390.557 310.748 391.781C310.149 392.979 309.654 394.268 309.264 395.648C308.873 397.003 308.678 398.253 308.678 399.398C308.678 400.622 308.886 401.651 309.303 402.484C309.719 403.318 310.24 404.008 310.865 404.555C311.49 405.076 312.154 405.453 312.857 405.688C313.586 405.922 314.25 406.039 314.849 406.039C315.24 406.039 315.696 405.909 316.217 405.648C316.764 405.362 317.31 404.971 317.857 404.477C318.43 403.956 318.977 403.344 319.498 402.641C320.019 401.911 320.461 401.091 320.826 400.18ZM322.896 390.883C322.896 391.482 322.922 392.237 322.974 393.148C323.027 394.034 323.092 395.01 323.17 396.078C323.274 397.12 323.378 398.24 323.482 399.438C323.586 400.609 323.704 401.794 323.834 402.992C323.938 404.164 324.042 405.297 324.146 406.391C324.277 407.51 324.381 408.552 324.459 409.516C324.537 410.505 324.602 411.404 324.654 412.211C324.706 413.018 324.732 413.695 324.732 414.242C324.732 415.18 324.55 416.104 324.185 417.016C323.821 417.953 323.287 418.786 322.584 419.516C321.881 420.245 321.008 420.831 319.967 421.273C318.951 421.742 317.766 421.977 316.412 421.977C312.558 421.977 309.797 419.867 308.131 415.648C308.079 415.544 308.053 415.401 308.053 415.219C308.053 414.75 308.274 414.411 308.717 414.203C308.795 414.177 308.86 414.151 308.912 414.125C308.99 414.125 309.068 414.125 309.146 414.125C309.615 414.125 309.954 414.372 310.162 414.867C310.292 415.206 310.487 415.648 310.748 416.195C311.034 416.768 311.412 417.315 311.881 417.836C312.349 418.357 312.948 418.812 313.678 419.203C314.433 419.594 315.344 419.789 316.412 419.789C317.532 419.789 318.482 419.607 319.264 419.242C320.045 418.878 320.67 418.409 321.139 417.836C321.633 417.289 321.985 416.69 322.193 416.039C322.428 415.388 322.545 414.789 322.545 414.242C322.545 413.721 322.519 413.057 322.467 412.25C322.415 411.469 322.349 410.596 322.271 409.633C322.193 408.669 322.102 407.641 321.998 406.547C321.894 405.479 321.79 404.398 321.685 403.305C321.191 404.086 320.644 404.776 320.045 405.375C319.472 405.974 318.873 406.482 318.248 406.898C317.649 407.341 317.05 407.667 316.451 407.875C315.878 408.109 315.344 408.227 314.849 408.227C313.834 408.227 312.818 408.031 311.803 407.641C310.813 407.276 309.928 406.729 309.146 406C308.365 405.245 307.727 404.32 307.232 403.227C306.737 402.107 306.49 400.831 306.49 399.398C306.49 398.487 306.607 397.484 306.842 396.391C307.076 395.297 307.389 394.203 307.779 393.109C308.196 392.016 308.678 390.948 309.224 389.906C309.797 388.865 310.409 387.953 311.06 387.172C311.711 386.365 312.402 385.727 313.131 385.258C313.86 384.763 314.602 384.516 315.357 384.516C315.904 384.516 316.36 384.633 316.724 384.867C316.855 384.841 316.985 384.828 317.115 384.828C317.245 384.828 317.389 384.828 317.545 384.828C318.014 384.828 318.534 385.01 319.107 385.375C319.68 385.74 320.227 386.247 320.748 386.898C320.8 386.586 320.878 386.299 320.982 386.039C321.112 385.779 321.386 385.635 321.803 385.609L322.818 385.531L322.974 386.547C322.974 386.599 322.974 386.651 322.974 386.703C322.974 386.729 322.961 386.833 322.935 387.016C322.935 387.172 322.922 387.523 322.896 388.07C322.896 388.617 322.896 389.555 322.896 390.883ZM347.467 401.312C347.467 401.677 347.506 402.055 347.584 402.445C347.688 402.836 347.805 403.214 347.935 403.578C348.066 403.917 348.196 404.229 348.326 404.516C348.456 404.802 348.56 405.023 348.639 405.18C348.717 405.336 348.756 405.518 348.756 405.727C348.756 406.143 348.573 406.456 348.209 406.664C348.105 406.716 348.014 406.755 347.935 406.781C347.857 406.807 347.766 406.82 347.662 406.82C347.245 406.82 346.933 406.625 346.724 406.234C346.698 406.208 346.607 406.052 346.451 405.766C346.295 405.453 346.125 405.062 345.943 404.594C345.787 404.125 345.631 403.604 345.474 403.031C345.344 402.458 345.279 401.885 345.279 401.312C345.279 401.182 345.266 401.039 345.24 400.883C345.24 400.701 345.227 400.505 345.201 400.297C345.175 399.932 345.149 399.542 345.123 399.125C345.097 398.682 345.084 398.161 345.084 397.562C345.084 397.172 345.058 396.768 345.006 396.352C344.954 395.909 344.902 395.427 344.849 394.906C344.771 394.255 344.693 393.565 344.615 392.836C344.563 392.081 344.537 391.286 344.537 390.453C344.537 389.932 344.42 389.372 344.185 388.773C343.977 388.148 343.665 387.576 343.248 387.055C342.831 386.534 342.31 386.104 341.685 385.766C341.086 385.427 340.383 385.258 339.576 385.258C338.56 385.258 337.649 385.453 336.842 385.844C336.06 386.208 335.383 386.677 334.81 387.25C334.237 387.823 333.743 388.448 333.326 389.125C332.935 389.776 332.623 390.401 332.389 391C332.154 391.573 331.972 392.068 331.842 392.484C331.737 392.901 331.685 393.135 331.685 393.188C331.607 393.422 331.503 393.604 331.373 393.734V394.438C331.373 395.062 331.464 395.779 331.646 396.586C331.829 397.393 332.037 398.253 332.271 399.164C332.558 400.336 332.831 401.56 333.092 402.836C333.378 404.112 333.521 405.414 333.521 406.742C333.521 407.055 333.417 407.315 333.209 407.523C333 407.732 332.74 407.836 332.428 407.836C332.141 407.836 331.881 407.732 331.646 407.523C331.438 407.315 331.334 407.055 331.334 406.742C331.334 405.544 331.204 404.346 330.943 403.148C330.709 401.951 330.448 400.805 330.162 399.711C329.902 398.747 329.667 397.823 329.459 396.938C329.277 396.026 329.185 395.193 329.185 394.438C329.185 393.682 329.133 392.732 329.029 391.586C328.925 390.44 328.795 389.333 328.639 388.266C328.508 387.172 328.378 386.234 328.248 385.453C328.144 384.646 328.092 384.216 328.092 384.164C328.092 383.904 328.183 383.669 328.365 383.461C328.547 383.253 328.821 383.122 329.185 383.07C329.472 383.07 329.706 383.161 329.889 383.344C330.097 383.5 330.227 383.721 330.279 384.008C330.279 384.06 330.305 384.229 330.357 384.516C330.409 384.776 330.461 385.141 330.514 385.609C330.566 386.052 330.631 386.56 330.709 387.133C330.787 387.706 330.865 388.305 330.943 388.93C331.334 388.201 331.79 387.484 332.31 386.781C332.857 386.078 333.482 385.453 334.185 384.906C334.915 384.359 335.722 383.917 336.607 383.578C337.493 383.24 338.482 383.07 339.576 383.07C340.644 383.07 341.607 383.292 342.467 383.734C343.352 384.151 344.107 384.711 344.732 385.414C345.357 386.117 345.839 386.911 346.178 387.797C346.542 388.682 346.724 389.568 346.724 390.453C346.724 391.234 346.75 391.977 346.803 392.68C346.881 393.383 346.959 394.034 347.037 394.633C347.089 395.154 347.141 395.661 347.193 396.156C347.245 396.651 347.271 397.12 347.271 397.562C347.271 398.604 347.31 399.438 347.389 400.062C347.415 400.297 347.428 400.518 347.428 400.727C347.454 400.909 347.467 401.104 347.467 401.312ZM353.404 401.273C353.977 401.352 354.264 401.781 354.264 402.562C354.133 403.135 354.003 403.943 353.873 404.984C353.769 406.026 353.665 407.224 353.56 408.578C353.534 408.865 353.404 409.099 353.17 409.281C352.961 409.49 352.701 409.581 352.389 409.555C352.102 409.555 351.855 409.438 351.646 409.203C351.464 408.995 351.373 408.721 351.373 408.383C351.399 407.992 351.438 407.523 351.49 406.977C351.542 406.43 351.594 405.87 351.646 405.297C351.724 404.698 351.803 404.125 351.881 403.578C351.959 403.031 352.037 402.549 352.115 402.133C352.245 401.534 352.675 401.247 353.404 401.273ZM390.514 404.008C390.8 404.06 391.021 404.203 391.178 404.438C391.334 404.646 391.399 404.932 391.373 405.297C391.243 405.896 390.813 406.182 390.084 406.156C390.058 406.156 389.446 406.078 388.248 405.922C387.076 405.74 385.487 405.648 383.482 405.648C382.467 405.648 381.425 405.688 380.357 405.766C379.29 405.844 378.313 405.922 377.428 406C376.542 406.078 375.813 406.156 375.24 406.234C374.667 406.312 374.368 406.352 374.342 406.352C374.316 406.352 374.277 406.352 374.224 406.352C374.172 406.352 374.042 406.339 373.834 406.312C373.782 406.312 373.73 406.312 373.678 406.312C373.625 406.339 373.547 406.352 373.443 406.352C373.157 406.352 372.909 406.26 372.701 406.078C372.519 405.896 372.402 405.661 372.349 405.375C372.349 405.297 372.31 404.945 372.232 404.32C372.18 403.695 372.102 402.927 371.998 402.016C371.894 401.078 371.79 400.049 371.685 398.93C371.581 397.81 371.477 396.716 371.373 395.648C371.295 394.555 371.217 393.552 371.139 392.641C371.086 391.729 371.06 391.013 371.06 390.492C371.06 389.711 371.021 388.708 370.943 387.484C370.891 386.26 370.813 385.01 370.709 383.734C370.605 382.432 370.487 381.195 370.357 380.023C370.227 378.852 370.097 377.914 369.967 377.211C369.967 376.951 370.058 376.716 370.24 376.508C370.422 376.299 370.696 376.169 371.06 376.117C371.321 376.117 371.555 376.195 371.764 376.352C371.972 376.508 372.102 376.716 372.154 376.977C372.284 377.706 372.415 378.682 372.545 379.906C372.675 381.104 372.792 382.367 372.896 383.695C373 385.023 373.079 386.312 373.131 387.562C373.209 388.786 373.248 389.763 373.248 390.492C373.248 391.117 373.287 392.042 373.365 393.266C373.469 394.49 373.586 395.792 373.717 397.172C373.847 398.526 373.977 399.841 374.107 401.117C374.237 402.393 374.342 403.396 374.42 404.125C374.732 404.099 375.201 404.047 375.826 403.969C376.477 403.891 377.219 403.812 378.053 403.734C378.886 403.656 379.771 403.591 380.709 403.539C381.646 403.487 382.571 403.461 383.482 403.461C385.592 403.461 387.271 403.552 388.521 403.734C389.797 403.917 390.461 404.008 390.514 404.008ZM393.756 382.641C393.313 382.641 392.935 382.497 392.623 382.211C392.336 381.898 392.193 381.521 392.193 381.078C392.193 380.635 392.336 380.271 392.623 379.984C392.935 379.698 393.313 379.555 393.756 379.555C394.172 379.555 394.524 379.698 394.81 379.984C395.123 380.271 395.279 380.635 395.279 381.078C395.279 381.521 395.123 381.898 394.81 382.211C394.524 382.497 394.172 382.641 393.756 382.641ZM394.264 384.281C394.55 384.281 394.784 384.372 394.967 384.555C395.175 384.711 395.305 384.919 395.357 385.18C395.357 385.258 395.409 385.661 395.514 386.391C395.644 387.12 395.787 388.005 395.943 389.047C396.099 390.089 396.243 391.208 396.373 392.406C396.529 393.578 396.633 394.633 396.685 395.57C396.737 396.482 396.829 397.549 396.959 398.773C397.089 399.997 397.232 401.169 397.389 402.289C397.545 403.383 397.675 404.333 397.779 405.141C397.909 405.922 397.974 406.339 397.974 406.391C397.974 406.677 397.883 406.911 397.701 407.094C397.519 407.302 397.245 407.432 396.881 407.484C396.594 407.484 396.347 407.393 396.139 407.211C395.956 407.055 395.839 406.833 395.787 406.547C395.787 406.469 395.722 406.039 395.592 405.258C395.487 404.477 395.357 403.539 395.201 402.445C395.045 401.326 394.902 400.154 394.771 398.93C394.641 397.706 394.55 396.625 394.498 395.688C394.446 394.776 394.342 393.734 394.185 392.562C394.055 391.391 393.912 390.284 393.756 389.242C393.625 388.201 393.495 387.315 393.365 386.586C393.261 385.831 393.209 385.427 393.209 385.375C393.209 385.115 393.287 384.88 393.443 384.672C393.599 384.464 393.821 384.333 394.107 384.281H394.264ZM416.295 400.18C416.373 399.945 416.542 399.763 416.803 399.633C416.62 397.836 416.464 396.169 416.334 394.633C416.23 393.096 416.178 391.846 416.178 390.883V390.414C415.917 390.284 415.735 390.115 415.631 389.906C415.084 388.891 414.537 388.161 413.99 387.719C413.469 387.276 413.131 387.042 412.974 387.016C412.532 387.016 412.128 387.042 411.764 387.094C411.425 387.146 411.191 387.185 411.06 387.211C410.722 387.211 410.448 387.081 410.24 386.82C409.589 387.081 408.899 387.667 408.17 388.578C407.467 389.49 406.816 390.557 406.217 391.781C405.618 392.979 405.123 394.268 404.732 395.648C404.342 397.003 404.146 398.253 404.146 399.398C404.146 400.622 404.355 401.651 404.771 402.484C405.188 403.318 405.709 404.008 406.334 404.555C406.959 405.076 407.623 405.453 408.326 405.688C409.055 405.922 409.719 406.039 410.318 406.039C410.709 406.039 411.165 405.909 411.685 405.648C412.232 405.362 412.779 404.971 413.326 404.477C413.899 403.956 414.446 403.344 414.967 402.641C415.487 401.911 415.93 401.091 416.295 400.18ZM418.365 390.883C418.365 391.482 418.391 392.237 418.443 393.148C418.495 394.034 418.56 395.01 418.639 396.078C418.743 397.12 418.847 398.24 418.951 399.438C419.055 400.609 419.172 401.794 419.303 402.992C419.407 404.164 419.511 405.297 419.615 406.391C419.745 407.51 419.849 408.552 419.928 409.516C420.006 410.505 420.071 411.404 420.123 412.211C420.175 413.018 420.201 413.695 420.201 414.242C420.201 415.18 420.019 416.104 419.654 417.016C419.29 417.953 418.756 418.786 418.053 419.516C417.349 420.245 416.477 420.831 415.435 421.273C414.42 421.742 413.235 421.977 411.881 421.977C408.027 421.977 405.266 419.867 403.599 415.648C403.547 415.544 403.521 415.401 403.521 415.219C403.521 414.75 403.743 414.411 404.185 414.203C404.264 414.177 404.329 414.151 404.381 414.125C404.459 414.125 404.537 414.125 404.615 414.125C405.084 414.125 405.422 414.372 405.631 414.867C405.761 415.206 405.956 415.648 406.217 416.195C406.503 416.768 406.881 417.315 407.349 417.836C407.818 418.357 408.417 418.812 409.146 419.203C409.902 419.594 410.813 419.789 411.881 419.789C413 419.789 413.951 419.607 414.732 419.242C415.514 418.878 416.139 418.409 416.607 417.836C417.102 417.289 417.454 416.69 417.662 416.039C417.896 415.388 418.014 414.789 418.014 414.242C418.014 413.721 417.987 413.057 417.935 412.25C417.883 411.469 417.818 410.596 417.74 409.633C417.662 408.669 417.571 407.641 417.467 406.547C417.362 405.479 417.258 404.398 417.154 403.305C416.659 404.086 416.112 404.776 415.514 405.375C414.941 405.974 414.342 406.482 413.717 406.898C413.118 407.341 412.519 407.667 411.92 407.875C411.347 408.109 410.813 408.227 410.318 408.227C409.303 408.227 408.287 408.031 407.271 407.641C406.282 407.276 405.396 406.729 404.615 406C403.834 405.245 403.196 404.32 402.701 403.227C402.206 402.107 401.959 400.831 401.959 399.398C401.959 398.487 402.076 397.484 402.31 396.391C402.545 395.297 402.857 394.203 403.248 393.109C403.665 392.016 404.146 390.948 404.693 389.906C405.266 388.865 405.878 387.953 406.529 387.172C407.18 386.365 407.87 385.727 408.599 385.258C409.329 384.763 410.071 384.516 410.826 384.516C411.373 384.516 411.829 384.633 412.193 384.867C412.323 384.841 412.454 384.828 412.584 384.828C412.714 384.828 412.857 384.828 413.014 384.828C413.482 384.828 414.003 385.01 414.576 385.375C415.149 385.74 415.696 386.247 416.217 386.898C416.269 386.586 416.347 386.299 416.451 386.039C416.581 385.779 416.855 385.635 417.271 385.609L418.287 385.531L418.443 386.547C418.443 386.599 418.443 386.651 418.443 386.703C418.443 386.729 418.43 386.833 418.404 387.016C418.404 387.172 418.391 387.523 418.365 388.07C418.365 388.617 418.365 389.555 418.365 390.883ZM441.724 401.742C441.724 402.081 441.764 402.445 441.842 402.836C441.946 403.201 442.05 403.552 442.154 403.891C442.284 404.203 442.415 404.503 442.545 404.789C442.675 405.049 442.779 405.245 442.857 405.375C442.909 405.479 442.948 405.57 442.974 405.648C443 405.727 443.014 405.818 443.014 405.922C443.014 406.339 442.818 406.651 442.428 406.859C442.297 406.964 442.128 407.016 441.92 407.016C441.477 407.016 441.152 406.833 440.943 406.469C440.943 406.443 440.865 406.286 440.709 406C440.553 405.714 440.383 405.349 440.201 404.906C440.045 404.438 439.889 403.93 439.732 403.383C439.602 402.836 439.537 402.289 439.537 401.742C439.537 401.612 439.524 401.469 439.498 401.312C439.498 401.156 439.485 400.974 439.459 400.766C439.433 400.427 439.407 400.049 439.381 399.633C439.355 399.216 439.342 398.721 439.342 398.148C439.342 397.784 439.316 397.393 439.264 396.977C439.211 396.56 439.159 396.117 439.107 395.648C439.029 395.023 438.951 394.359 438.873 393.656C438.821 392.953 438.795 392.198 438.795 391.391C438.795 390.896 438.691 390.362 438.482 389.789C438.274 389.216 437.961 388.695 437.545 388.227C437.128 387.732 436.62 387.328 436.021 387.016C435.422 386.677 434.732 386.508 433.951 386.508C432.961 386.508 432.076 386.69 431.295 387.055C430.54 387.393 429.875 387.836 429.303 388.383C428.73 388.904 428.248 389.49 427.857 390.141C427.467 390.766 427.154 391.352 426.92 391.898C427.05 393.331 427.219 394.854 427.428 396.469C427.636 398.083 427.844 399.594 428.053 401C428.287 402.38 428.482 403.539 428.639 404.477C428.795 405.414 428.873 405.922 428.873 406C428.873 406.26 428.782 406.495 428.599 406.703C428.417 406.911 428.144 407.042 427.779 407.094C427.493 407.094 427.245 407.003 427.037 406.82C426.855 406.664 426.737 406.456 426.685 406.195C426.685 406.117 426.62 405.727 426.49 405.023C426.386 404.32 426.243 403.435 426.06 402.367C425.904 401.299 425.722 400.115 425.514 398.812C425.305 397.484 425.11 396.156 424.928 394.828C424.355 394.698 424.081 394.268 424.107 393.539C424.211 392.966 424.407 392.302 424.693 391.547C424.641 390.974 424.602 390.44 424.576 389.945C424.55 389.424 424.537 388.943 424.537 388.5C424.537 387.25 424.498 385.922 424.42 384.516C424.342 383.109 424.25 381.807 424.146 380.609C424.068 379.385 423.977 378.37 423.873 377.562C423.795 376.755 423.756 376.326 423.756 376.273C423.756 375.987 423.847 375.753 424.029 375.57C424.237 375.362 424.511 375.232 424.849 375.18C425.136 375.18 425.383 375.271 425.592 375.453C425.8 375.635 425.917 375.87 425.943 376.156C425.943 376.234 425.982 376.664 426.06 377.445C426.139 378.201 426.23 379.151 426.334 380.297C426.438 381.443 426.529 382.706 426.607 384.086C426.685 385.44 426.724 386.742 426.724 387.992C427.532 386.977 428.521 386.117 429.693 385.414C430.891 384.685 432.31 384.32 433.951 384.32C434.993 384.32 435.943 384.529 436.803 384.945C437.688 385.362 438.43 385.909 439.029 386.586C439.654 387.237 440.136 387.992 440.474 388.852C440.813 389.685 440.982 390.531 440.982 391.391C440.982 392.146 441.008 392.849 441.06 393.5C441.139 394.151 441.217 394.776 441.295 395.375C441.347 395.87 441.399 396.352 441.451 396.82C441.503 397.263 441.529 397.706 441.529 398.148C441.529 399.164 441.568 399.958 441.646 400.531C441.672 400.766 441.685 400.974 441.685 401.156C441.711 401.339 441.724 401.534 441.724 401.742ZM459.264 385.609C459.498 385.661 459.693 385.805 459.849 386.039C460.006 386.273 460.071 386.573 460.045 386.938C459.915 387.484 459.472 387.758 458.717 387.758C458.717 387.732 458.235 387.641 457.271 387.484C456.308 387.328 455.019 387.237 453.404 387.211C453.482 388.695 453.521 389.919 453.521 390.883C453.521 391.378 453.547 392.081 453.599 392.992C453.678 393.904 453.756 394.906 453.834 396C453.938 397.068 454.042 398.174 454.146 399.32C454.25 400.44 454.355 401.469 454.459 402.406C454.563 403.318 454.641 404.086 454.693 404.711C454.771 405.31 454.81 405.622 454.81 405.648C454.81 405.935 454.706 406.169 454.498 406.352C454.316 406.56 454.055 406.69 453.717 406.742C453.43 406.742 453.183 406.651 452.974 406.469C452.766 406.286 452.649 406.052 452.623 405.766C452.623 405.688 452.584 405.336 452.506 404.711C452.428 404.086 452.336 403.318 452.232 402.406C452.154 401.469 452.063 400.44 451.959 399.32C451.855 398.201 451.75 397.107 451.646 396.039C451.568 394.945 451.49 393.943 451.412 393.031C451.36 392.12 451.334 391.404 451.334 390.883C451.334 389.893 451.295 388.695 451.217 387.289C450.54 387.341 449.875 387.406 449.224 387.484C448.573 387.562 447.987 387.641 447.467 387.719C446.972 387.771 446.555 387.823 446.217 387.875C445.904 387.927 445.722 387.953 445.67 387.953C445.409 387.953 445.175 387.862 444.967 387.68C444.758 387.497 444.628 387.224 444.576 386.859C444.576 386.599 444.654 386.378 444.81 386.195C444.993 385.987 445.227 385.857 445.514 385.805C445.54 385.805 445.709 385.779 446.021 385.727C446.36 385.648 446.777 385.583 447.271 385.531C447.792 385.453 448.378 385.388 449.029 385.336C449.68 385.258 450.357 385.193 451.06 385.141C451.008 384.411 450.943 383.695 450.865 382.992C450.813 382.263 450.748 381.573 450.67 380.922C450.618 380.245 450.553 379.62 450.474 379.047C450.396 378.474 450.318 377.979 450.24 377.562C450.24 377.302 450.331 377.068 450.514 376.859C450.696 376.651 450.969 376.521 451.334 376.469C451.594 376.469 451.816 376.547 451.998 376.703C452.206 376.859 452.336 377.081 452.389 377.367C452.571 378.174 452.74 379.281 452.896 380.688C453.053 382.094 453.196 383.539 453.326 385.023C454.211 385.023 455.006 385.049 455.709 385.102C456.438 385.154 457.05 385.219 457.545 385.297C458.066 385.375 458.469 385.453 458.756 385.531C459.068 385.583 459.237 385.609 459.264 385.609ZM474.107 383.695C474.68 383.695 475.162 383.747 475.553 383.852C475.943 383.93 476.256 384.034 476.49 384.164C476.75 384.268 476.946 384.385 477.076 384.516C477.232 384.646 477.336 384.75 477.389 384.828C477.519 385.01 477.584 385.206 477.584 385.414C477.584 385.831 477.428 386.13 477.115 386.312C476.959 386.443 476.75 386.508 476.49 386.508C476.178 386.508 475.904 386.391 475.67 386.156C475.618 386.13 475.474 386.078 475.24 386C475.032 385.922 474.654 385.883 474.107 385.883C473.795 385.883 473.235 386.078 472.428 386.469C471.62 386.859 470.8 387.497 469.967 388.383C469.133 389.268 468.378 390.427 467.701 391.859C467.05 393.266 466.724 394.997 466.724 397.055C466.803 397.393 466.881 397.745 466.959 398.109C467.037 398.448 467.128 398.799 467.232 399.164C467.519 400.336 467.805 401.56 468.092 402.836C468.378 404.112 468.521 405.414 468.521 406.742C468.521 407.055 468.404 407.315 468.17 407.523C467.961 407.732 467.714 407.836 467.428 407.836C467.115 407.836 466.855 407.732 466.646 407.523C466.438 407.315 466.334 407.055 466.334 406.742C466.334 405.544 466.204 404.346 465.943 403.148C465.683 401.951 465.409 400.805 465.123 399.711C464.862 398.747 464.628 397.823 464.42 396.938C464.237 396.026 464.146 395.193 464.146 394.438C464.146 393.682 464.094 392.732 463.99 391.586C463.886 390.44 463.756 389.333 463.599 388.266C463.469 387.172 463.352 386.234 463.248 385.453C463.144 384.646 463.092 384.216 463.092 384.164C463.092 383.904 463.183 383.669 463.365 383.461C463.547 383.253 463.821 383.122 464.185 383.07C464.446 383.07 464.667 383.161 464.849 383.344C465.058 383.5 465.188 383.721 465.24 384.008C465.24 384.06 465.266 384.281 465.318 384.672C465.396 385.036 465.474 385.505 465.553 386.078C465.631 386.651 465.709 387.302 465.787 388.031C465.891 388.76 465.982 389.49 466.06 390.219C466.581 389.151 467.193 388.214 467.896 387.406C468.625 386.573 469.368 385.883 470.123 385.336C470.878 384.789 471.607 384.385 472.31 384.125C473.014 383.839 473.612 383.695 474.107 383.695ZM486.295 404.633C486.79 404.633 487.415 404.398 488.17 403.93C488.951 403.435 489.706 402.758 490.435 401.898C491.165 401.013 491.79 399.958 492.31 398.734C492.831 397.51 493.092 396.143 493.092 394.633C493.092 393.174 492.909 391.898 492.545 390.805C492.206 389.685 491.803 388.747 491.334 387.992C490.891 387.211 490.435 386.625 489.967 386.234C489.524 385.844 489.198 385.622 488.99 385.57C488.547 385.57 488.144 385.609 487.779 385.688C487.441 385.74 487.206 385.779 487.076 385.805C486.764 385.805 486.477 385.674 486.217 385.414C485.566 385.674 484.889 386.26 484.185 387.172C483.482 388.083 482.831 389.151 482.232 390.375C481.633 391.573 481.139 392.862 480.748 394.242C480.357 395.596 480.162 396.846 480.162 397.992C480.162 399.19 480.37 400.219 480.787 401.078C481.204 401.911 481.724 402.589 482.349 403.109C482.974 403.63 483.639 404.021 484.342 404.281C485.045 404.516 485.696 404.633 486.295 404.633ZM489.029 383.383C489.576 383.383 490.201 383.656 490.904 384.203C491.633 384.724 492.31 385.479 492.935 386.469C493.586 387.432 494.133 388.604 494.576 389.984C495.045 391.365 495.279 392.914 495.279 394.633C495.279 396.378 494.98 397.992 494.381 399.477C493.782 400.961 493.027 402.25 492.115 403.344C491.23 404.438 490.253 405.297 489.185 405.922C488.144 406.521 487.18 406.82 486.295 406.82C485.279 406.82 484.277 406.625 483.287 406.234C482.297 405.844 481.412 405.284 480.631 404.555C479.849 403.799 479.211 402.875 478.717 401.781C478.222 400.688 477.974 399.424 477.974 397.992C477.974 397.081 478.092 396.078 478.326 394.984C478.56 393.891 478.873 392.797 479.264 391.703C479.68 390.583 480.162 389.516 480.709 388.5C481.282 387.458 481.894 386.534 482.545 385.727C483.196 384.919 483.886 384.281 484.615 383.812C485.344 383.318 486.086 383.07 486.842 383.07C487.128 383.07 487.375 383.109 487.584 383.188C487.818 383.24 488.027 383.318 488.209 383.422C488.339 383.422 488.469 383.422 488.599 383.422C488.73 383.396 488.873 383.383 489.029 383.383ZM506.607 404.633C507.102 404.633 507.727 404.398 508.482 403.93C509.264 403.435 510.019 402.758 510.748 401.898C511.477 401.013 512.102 399.958 512.623 398.734C513.144 397.51 513.404 396.143 513.404 394.633C513.404 393.174 513.222 391.898 512.857 390.805C512.519 389.685 512.115 388.747 511.646 387.992C511.204 387.211 510.748 386.625 510.279 386.234C509.836 385.844 509.511 385.622 509.303 385.57C508.86 385.57 508.456 385.609 508.092 385.688C507.753 385.74 507.519 385.779 507.389 385.805C507.076 385.805 506.79 385.674 506.529 385.414C505.878 385.674 505.201 386.26 504.498 387.172C503.795 388.083 503.144 389.151 502.545 390.375C501.946 391.573 501.451 392.862 501.06 394.242C500.67 395.596 500.474 396.846 500.474 397.992C500.474 399.19 500.683 400.219 501.099 401.078C501.516 401.911 502.037 402.589 502.662 403.109C503.287 403.63 503.951 404.021 504.654 404.281C505.357 404.516 506.008 404.633 506.607 404.633ZM509.342 383.383C509.889 383.383 510.514 383.656 511.217 384.203C511.946 384.724 512.623 385.479 513.248 386.469C513.899 387.432 514.446 388.604 514.889 389.984C515.357 391.365 515.592 392.914 515.592 394.633C515.592 396.378 515.292 397.992 514.693 399.477C514.094 400.961 513.339 402.25 512.428 403.344C511.542 404.438 510.566 405.297 509.498 405.922C508.456 406.521 507.493 406.82 506.607 406.82C505.592 406.82 504.589 406.625 503.599 406.234C502.61 405.844 501.724 405.284 500.943 404.555C500.162 403.799 499.524 402.875 499.029 401.781C498.534 400.688 498.287 399.424 498.287 397.992C498.287 397.081 498.404 396.078 498.639 394.984C498.873 393.891 499.185 392.797 499.576 391.703C499.993 390.583 500.474 389.516 501.021 388.5C501.594 387.458 502.206 386.534 502.857 385.727C503.508 384.919 504.198 384.281 504.928 383.812C505.657 383.318 506.399 383.07 507.154 383.07C507.441 383.07 507.688 383.109 507.896 383.188C508.131 383.24 508.339 383.318 508.521 383.422C508.652 383.422 508.782 383.422 508.912 383.422C509.042 383.396 509.185 383.383 509.342 383.383ZM552.584 400.883C552.584 401.195 552.571 401.508 552.545 401.82C552.519 402.133 552.48 402.432 552.428 402.719C552.375 403.005 552.336 403.279 552.31 403.539C552.284 403.799 552.271 404.06 552.271 404.32C552.271 404.789 552.349 405.219 552.506 405.609C552.532 405.688 552.545 405.766 552.545 405.844C552.571 405.896 552.584 405.961 552.584 406.039C552.584 406.508 552.349 406.846 551.881 407.055C551.672 407.107 551.542 407.133 551.49 407.133C550.995 407.133 550.644 406.898 550.435 406.43C550.305 406.065 550.214 405.714 550.162 405.375C550.11 405.036 550.084 404.685 550.084 404.32C550.084 403.982 550.097 403.656 550.123 403.344C550.149 403.031 550.188 402.732 550.24 402.445C550.292 402.159 550.331 401.898 550.357 401.664C550.383 401.404 550.396 401.143 550.396 400.883C550.396 400.518 550.37 400.18 550.318 399.867C550.266 399.555 550.201 399.229 550.123 398.891C550.071 398.5 550.006 398.096 549.928 397.68C549.875 397.263 549.849 396.807 549.849 396.312C549.849 395.948 549.849 395.622 549.849 395.336C549.875 395.049 549.902 394.763 549.928 394.477C549.954 394.008 549.98 393.396 550.006 392.641C550.032 391.885 550.045 390.766 550.045 389.281C550.045 388.083 549.758 387.198 549.185 386.625C548.717 386.156 548.144 385.883 547.467 385.805C546.79 385.727 546.256 385.688 545.865 385.688C545.5 385.688 545.097 385.766 544.654 385.922C544.211 386.078 543.756 386.273 543.287 386.508C542.844 386.742 542.428 386.977 542.037 387.211C541.646 387.445 541.321 387.641 541.06 387.797C540.93 387.875 540.813 387.94 540.709 387.992C540.605 388.044 540.514 388.096 540.435 388.148C540.305 388.227 540.097 388.461 539.81 388.852C539.524 389.216 539.264 389.62 539.029 390.062C538.873 390.297 538.678 390.453 538.443 390.531C538.443 391.208 538.469 391.846 538.521 392.445C538.599 393.044 538.665 393.604 538.717 394.125C538.769 394.646 538.821 395.154 538.873 395.648C538.925 396.117 538.951 396.573 538.951 397.016C538.951 397.562 538.964 398.044 538.99 398.461C539.016 398.852 539.042 399.216 539.068 399.555C539.146 400.023 539.185 400.44 539.185 400.805C539.185 401.169 539.224 401.547 539.303 401.938C539.407 402.328 539.511 402.706 539.615 403.07C539.745 403.409 539.875 403.721 540.006 404.008C540.136 404.294 540.24 404.516 540.318 404.672C540.422 404.802 540.474 404.971 540.474 405.18C540.474 405.388 540.422 405.583 540.318 405.766C540.24 405.922 540.097 406.052 539.889 406.156C539.732 406.234 539.563 406.273 539.381 406.273C538.938 406.273 538.612 406.091 538.404 405.727C538.404 405.701 538.326 405.544 538.17 405.258C538.014 404.945 537.844 404.555 537.662 404.086C537.506 403.617 537.349 403.096 537.193 402.523C537.063 401.951 536.998 401.378 536.998 400.805C536.998 400.674 536.985 400.518 536.959 400.336C536.959 400.154 536.946 399.958 536.92 399.75C536.868 399.411 536.829 399.021 536.803 398.578C536.777 398.135 536.764 397.615 536.764 397.016C536.764 396.651 536.737 396.247 536.685 395.805C536.633 395.362 536.581 394.893 536.529 394.398C536.477 393.721 536.412 393.018 536.334 392.289C536.256 391.56 536.217 390.766 536.217 389.906C536.217 389.385 536.099 388.826 535.865 388.227C535.657 387.602 535.344 387.042 534.928 386.547C534.511 386.026 533.99 385.596 533.365 385.258C532.766 384.919 532.063 384.75 531.256 384.75C530.24 384.75 529.329 384.945 528.521 385.336C527.74 385.727 527.05 386.208 526.451 386.781C525.878 387.354 525.396 387.979 525.006 388.656C524.615 389.333 524.29 389.971 524.029 390.57C523.795 391.143 523.625 391.625 523.521 392.016L523.365 392.641C523.339 392.849 523.235 393.044 523.053 393.227V393.891C523.053 394.542 523.144 395.271 523.326 396.078C523.534 396.885 523.743 397.745 523.951 398.656C524.264 399.828 524.55 401.052 524.81 402.328C525.097 403.604 525.24 404.906 525.24 406.234C525.24 406.521 525.123 406.768 524.889 406.977C524.68 407.211 524.433 407.328 524.146 407.328C523.834 407.328 523.573 407.211 523.365 406.977C523.157 406.768 523.053 406.521 523.053 406.234C523.053 405.036 522.922 403.839 522.662 402.641C522.402 401.443 522.128 400.297 521.842 399.203C521.581 398.214 521.347 397.276 521.139 396.391C520.956 395.505 520.865 394.672 520.865 393.891C520.865 393.135 520.813 392.198 520.709 391.078C520.605 389.932 520.474 388.826 520.318 387.758C520.188 386.664 520.071 385.727 519.967 384.945C519.862 384.138 519.81 383.708 519.81 383.656C519.81 383.37 519.902 383.135 520.084 382.953C520.266 382.745 520.54 382.615 520.904 382.562C521.165 382.562 521.386 382.654 521.568 382.836C521.777 382.992 521.907 383.214 521.959 383.5C521.959 383.552 521.985 383.721 522.037 384.008C522.089 384.268 522.141 384.62 522.193 385.062C522.271 385.505 522.336 386.026 522.389 386.625C522.467 387.198 522.545 387.797 522.623 388.422C523.014 387.693 523.482 386.977 524.029 386.273C524.576 385.57 525.201 384.945 525.904 384.398C526.633 383.852 527.441 383.409 528.326 383.07C529.211 382.732 530.188 382.562 531.256 382.562C532.089 382.562 532.87 382.706 533.599 382.992C534.329 383.253 534.98 383.617 535.553 384.086C536.125 384.529 536.62 385.062 537.037 385.688C537.454 386.286 537.779 386.924 538.014 387.602C538.222 387.315 538.443 387.055 538.678 386.82C538.912 386.56 539.146 386.365 539.381 386.234C539.511 386.182 539.68 386.078 539.889 385.922C540.227 385.714 540.631 385.479 541.099 385.219C541.594 384.932 542.102 384.659 542.623 384.398C543.17 384.138 543.73 383.93 544.303 383.773C544.875 383.591 545.422 383.5 545.943 383.5C546.178 383.5 546.477 383.513 546.842 383.539C547.232 383.539 547.649 383.591 548.092 383.695C548.534 383.799 548.99 383.956 549.459 384.164C549.928 384.372 550.357 384.672 550.748 385.062C551.737 386.104 552.232 387.51 552.232 389.281C552.232 390.818 552.206 391.977 552.154 392.758C552.128 393.513 552.102 394.138 552.076 394.633C552.05 394.919 552.037 395.193 552.037 395.453C552.037 395.688 552.037 395.974 552.037 396.312C552.037 396.703 552.063 397.068 552.115 397.406C552.167 397.745 552.219 398.096 552.271 398.461C552.349 398.826 552.415 399.216 552.467 399.633C552.545 400.023 552.584 400.44 552.584 400.883Z" fill="white"/>
</g>
<defs>
<clipPath id="clip0_74_2">
<rect width="700" height="600" fill="white"/>
</clipPath>
</defs>
</svg>
