<svg width="703" height="603" viewBox="0 0 703 603" fill="none" xmlns="http://www.w3.org/2000/svg">
<path d="M691.506 290.906C697.278 447.593 560.118 578.368 384.905 582.782C209.693 587.196 63.1622 463.568 57.3908 306.881C51.6193 150.195 188.78 19.4202 363.992 15.0062C539.204 10.5921 685.735 134.22 691.506 290.906Z" stroke="#99B4FF" strokeWidth="2"/>
<path d="M639.998 297.101C642.366 460.306 502.942 594.123 328.442 595.855C153.942 597.587 10.6737 466.576 8.30498 303.372C5.93628 140.167 145.361 6.35014 319.861 4.61796C494.361 2.88578 637.629 133.897 639.998 297.101Z" stroke="#99B4FF" strokeWidth="2"/>
<path d="M216.984 201.578C217.557 201.578 218.052 201.786 218.469 202.203C218.885 202.62 219.12 203.141 219.172 203.766C219.172 204.339 218.964 204.859 218.547 205.328C218.13 205.745 217.635 205.953 217.062 205.953C215.188 206.057 213.312 206.188 211.438 206.344C209.615 206.448 207.974 206.578 206.516 206.734C205.057 206.839 203.833 206.969 202.844 207.125C201.854 207.229 201.281 207.281 201.125 207.281C201.229 208.74 201.359 210.38 201.516 212.203C201.672 213.974 201.828 215.797 201.984 217.672C202.193 219.495 202.375 221.292 202.531 223.062C202.74 224.833 202.896 226.422 203 227.828C203.156 229.182 203.286 230.302 203.391 231.188C203.495 232.021 203.547 232.464 203.547 232.516C203.547 233.089 203.339 233.583 202.922 234C202.557 234.417 202.01 234.651 201.281 234.703C200.708 234.703 200.214 234.521 199.797 234.156C199.432 233.792 199.224 233.323 199.172 232.75C199.12 232.594 199.016 231.891 198.859 230.641C198.755 229.391 198.599 227.854 198.391 226.031C198.234 224.156 198.052 222.099 197.844 219.859C197.635 217.62 197.427 215.432 197.219 213.297C197.062 211.109 196.906 209.104 196.75 207.281C196.646 205.458 196.594 204.026 196.594 202.984C196.594 201.422 196.516 199.417 196.359 196.969C196.255 194.521 196.099 192.021 195.891 189.469C195.682 186.865 195.448 184.391 195.188 182.047C194.927 179.703 194.667 177.828 194.406 176.422C194.406 175.901 194.589 175.432 194.953 175.016C195.318 174.599 195.865 174.339 196.594 174.234C197.74 174.234 198.443 174.781 198.703 175.875C199.068 175.354 199.562 175.042 200.188 174.938C200.292 174.938 200.917 174.859 202.062 174.703C203.26 174.547 204.745 174.391 206.516 174.234C208.339 174.026 210.344 173.844 212.531 173.688C214.719 173.531 216.88 173.453 219.016 173.453C223.286 173.453 226.672 173.635 229.172 174C231.724 174.365 233.052 174.573 233.156 174.625C234.302 174.885 234.849 175.745 234.797 177.203C234.641 178.349 233.781 178.922 232.219 178.922C231.177 178.766 229.979 178.583 228.625 178.375C227.479 178.271 226.073 178.167 224.406 178.062C222.792 177.906 220.995 177.828 219.016 177.828C216.984 177.828 214.901 177.906 212.766 178.062C210.63 178.219 208.651 178.401 206.828 178.609C205.057 178.766 203.573 178.922 202.375 179.078C201.229 179.234 200.604 179.312 200.5 179.312C200.031 179.312 199.589 179.182 199.172 178.922C199.432 180.641 199.667 182.62 199.875 184.859C200.083 187.099 200.266 189.339 200.422 191.578C200.578 193.818 200.708 195.953 200.812 197.984C200.917 199.964 200.969 201.604 200.969 202.906C201.438 202.854 202.193 202.776 203.234 202.672C204.276 202.516 205.5 202.385 206.906 202.281C208.365 202.125 209.953 201.995 211.672 201.891C213.391 201.786 215.135 201.682 216.906 201.578H216.984ZM256.516 189.391C257.661 189.391 258.625 189.495 259.406 189.703C260.188 189.859 260.812 190.068 261.281 190.328C261.802 190.536 262.193 190.771 262.453 191.031C262.766 191.292 262.974 191.5 263.078 191.656C263.339 192.021 263.469 192.411 263.469 192.828C263.469 193.661 263.156 194.26 262.531 194.625C262.219 194.885 261.802 195.016 261.281 195.016C260.656 195.016 260.109 194.781 259.641 194.312C259.536 194.26 259.25 194.156 258.781 194C258.365 193.844 257.609 193.766 256.516 193.766C255.891 193.766 254.771 194.156 253.156 194.938C251.542 195.719 249.901 196.995 248.234 198.766C246.568 200.536 245.057 202.854 243.703 205.719C242.401 208.531 241.75 211.995 241.75 216.109C241.906 216.786 242.062 217.49 242.219 218.219C242.375 218.896 242.557 219.599 242.766 220.328C243.339 222.672 243.911 225.12 244.484 227.672C245.057 230.224 245.344 232.828 245.344 235.484C245.344 236.109 245.109 236.63 244.641 237.047C244.224 237.464 243.729 237.672 243.156 237.672C242.531 237.672 242.01 237.464 241.594 237.047C241.177 236.63 240.969 236.109 240.969 235.484C240.969 233.089 240.708 230.693 240.188 228.297C239.667 225.901 239.12 223.609 238.547 221.422C238.026 219.495 237.557 217.646 237.141 215.875C236.776 214.052 236.594 212.385 236.594 210.875C236.594 209.365 236.49 207.464 236.281 205.172C236.073 202.88 235.812 200.667 235.5 198.531C235.24 196.344 235.005 194.469 234.797 192.906C234.589 191.292 234.484 190.432 234.484 190.328C234.484 189.807 234.667 189.339 235.031 188.922C235.396 188.505 235.943 188.245 236.672 188.141C237.193 188.141 237.635 188.323 238 188.688C238.417 189 238.677 189.443 238.781 190.016C238.781 190.12 238.833 190.562 238.938 191.344C239.094 192.073 239.25 193.01 239.406 194.156C239.562 195.302 239.719 196.604 239.875 198.062C240.083 199.521 240.266 200.979 240.422 202.438C241.464 200.302 242.688 198.427 244.094 196.812C245.552 195.146 247.036 193.766 248.547 192.672C250.057 191.578 251.516 190.771 252.922 190.25C254.328 189.677 255.526 189.391 256.516 189.391ZM280.891 231.266C281.88 231.266 283.13 230.797 284.641 229.859C286.203 228.87 287.714 227.516 289.172 225.797C290.63 224.026 291.88 221.917 292.922 219.469C293.964 217.021 294.484 214.286 294.484 211.266C294.484 208.349 294.12 205.797 293.391 203.609C292.714 201.37 291.906 199.495 290.969 197.984C290.083 196.422 289.172 195.25 288.234 194.469C287.349 193.688 286.698 193.245 286.281 193.141C285.396 193.141 284.589 193.219 283.859 193.375C283.182 193.479 282.714 193.557 282.453 193.609C281.828 193.609 281.255 193.349 280.734 192.828C279.432 193.349 278.078 194.521 276.672 196.344C275.266 198.167 273.964 200.302 272.766 202.75C271.568 205.146 270.578 207.724 269.797 210.484C269.016 213.193 268.625 215.693 268.625 217.984C268.625 220.38 269.042 222.438 269.875 224.156C270.708 225.823 271.75 227.177 273 228.219C274.25 229.26 275.578 230.042 276.984 230.562C278.391 231.031 279.693 231.266 280.891 231.266ZM286.359 188.766C287.453 188.766 288.703 189.312 290.109 190.406C291.568 191.448 292.922 192.958 294.172 194.938C295.474 196.865 296.568 199.208 297.453 201.969C298.391 204.729 298.859 207.828 298.859 211.266C298.859 214.755 298.26 217.984 297.062 220.953C295.865 223.922 294.354 226.5 292.531 228.688C290.76 230.875 288.807 232.594 286.672 233.844C284.589 235.042 282.661 235.641 280.891 235.641C278.859 235.641 276.854 235.25 274.875 234.469C272.896 233.688 271.125 232.568 269.562 231.109C268 229.599 266.724 227.75 265.734 225.562C264.745 223.375 264.25 220.849 264.25 217.984C264.25 216.161 264.484 214.156 264.953 211.969C265.422 209.781 266.047 207.594 266.828 205.406C267.661 203.167 268.625 201.031 269.719 199C270.865 196.917 272.089 195.068 273.391 193.453C274.693 191.839 276.073 190.562 277.531 189.625C278.99 188.635 280.474 188.141 281.984 188.141C282.557 188.141 283.052 188.219 283.469 188.375C283.938 188.479 284.354 188.635 284.719 188.844C284.979 188.844 285.24 188.844 285.5 188.844C285.76 188.792 286.047 188.766 286.359 188.766ZM344.406 224.625C344.406 225.354 344.484 226.109 344.641 226.891C344.849 227.672 345.083 228.427 345.344 229.156C345.604 229.833 345.865 230.458 346.125 231.031C346.385 231.604 346.594 232.047 346.75 232.359C346.906 232.672 346.984 233.036 346.984 233.453C346.984 234.286 346.62 234.911 345.891 235.328C345.682 235.432 345.5 235.51 345.344 235.562C345.188 235.615 345.005 235.641 344.797 235.641C343.964 235.641 343.339 235.25 342.922 234.469C342.87 234.417 342.688 234.104 342.375 233.531C342.062 232.906 341.724 232.125 341.359 231.188C341.047 230.25 340.734 229.208 340.422 228.062C340.161 226.917 340.031 225.771 340.031 224.625C340.031 224.365 340.005 224.078 339.953 223.766C339.953 223.401 339.927 223.01 339.875 222.594C339.823 221.865 339.771 221.083 339.719 220.25C339.667 219.365 339.641 218.323 339.641 217.125C339.641 216.344 339.589 215.536 339.484 214.703C339.38 213.818 339.276 212.854 339.172 211.812C339.016 210.51 338.859 209.13 338.703 207.672C338.599 206.161 338.547 204.573 338.547 202.906C338.547 201.865 338.312 200.745 337.844 199.547C337.427 198.297 336.802 197.151 335.969 196.109C335.135 195.068 334.094 194.208 332.844 193.531C331.646 192.854 330.24 192.516 328.625 192.516C326.594 192.516 324.771 192.906 323.156 193.688C321.594 194.417 320.24 195.354 319.094 196.5C317.948 197.646 316.958 198.896 316.125 200.25C315.344 201.552 314.719 202.802 314.25 204C313.781 205.146 313.417 206.135 313.156 206.969C312.948 207.802 312.844 208.271 312.844 208.375C312.688 208.844 312.479 209.208 312.219 209.469V210.875C312.219 212.125 312.401 213.557 312.766 215.172C313.13 216.786 313.547 218.505 314.016 220.328C314.589 222.672 315.135 225.12 315.656 227.672C316.229 230.224 316.516 232.828 316.516 235.484C316.516 236.109 316.307 236.63 315.891 237.047C315.474 237.464 314.953 237.672 314.328 237.672C313.755 237.672 313.234 237.464 312.766 237.047C312.349 236.63 312.141 236.109 312.141 235.484C312.141 233.089 311.88 230.693 311.359 228.297C310.891 225.901 310.37 223.609 309.797 221.422C309.276 219.495 308.807 217.646 308.391 215.875C308.026 214.052 307.844 212.385 307.844 210.875C307.844 209.365 307.74 207.464 307.531 205.172C307.323 202.88 307.062 200.667 306.75 198.531C306.49 196.344 306.229 194.469 305.969 192.906C305.76 191.292 305.656 190.432 305.656 190.328C305.656 189.807 305.839 189.339 306.203 188.922C306.568 188.505 307.115 188.245 307.844 188.141C308.417 188.141 308.885 188.323 309.25 188.688C309.667 189 309.927 189.443 310.031 190.016C310.031 190.12 310.083 190.458 310.188 191.031C310.292 191.552 310.396 192.281 310.5 193.219C310.604 194.104 310.734 195.12 310.891 196.266C311.047 197.411 311.203 198.609 311.359 199.859C312.141 198.401 313.052 196.969 314.094 195.562C315.188 194.156 316.438 192.906 317.844 191.812C319.302 190.719 320.917 189.833 322.688 189.156C324.458 188.479 326.438 188.141 328.625 188.141C330.76 188.141 332.688 188.583 334.406 189.469C336.177 190.302 337.688 191.422 338.938 192.828C340.188 194.234 341.151 195.823 341.828 197.594C342.557 199.365 342.922 201.135 342.922 202.906C342.922 204.469 342.974 205.953 343.078 207.359C343.234 208.766 343.391 210.068 343.547 211.266C343.651 212.307 343.755 213.323 343.859 214.312C343.964 215.302 344.016 216.24 344.016 217.125C344.016 219.208 344.094 220.875 344.25 222.125C344.302 222.594 344.328 223.036 344.328 223.453C344.38 223.818 344.406 224.208 344.406 224.625ZM379.562 193.219C380.031 193.323 380.422 193.609 380.734 194.078C381.047 194.547 381.177 195.146 381.125 195.875C380.865 196.969 379.979 197.516 378.469 197.516C378.469 197.464 377.505 197.281 375.578 196.969C373.651 196.656 371.073 196.474 367.844 196.422C368 199.391 368.078 201.839 368.078 203.766C368.078 204.755 368.13 206.161 368.234 207.984C368.391 209.807 368.547 211.812 368.703 214C368.911 216.135 369.12 218.349 369.328 220.641C369.536 222.88 369.745 224.938 369.953 226.812C370.161 228.635 370.318 230.172 370.422 231.422C370.578 232.62 370.656 233.245 370.656 233.297C370.656 233.87 370.448 234.339 370.031 234.703C369.667 235.12 369.146 235.38 368.469 235.484C367.896 235.484 367.401 235.302 366.984 234.938C366.568 234.573 366.333 234.104 366.281 233.531C366.281 233.375 366.203 232.672 366.047 231.422C365.891 230.172 365.708 228.635 365.5 226.812C365.344 224.938 365.161 222.88 364.953 220.641C364.745 218.401 364.536 216.214 364.328 214.078C364.172 211.891 364.016 209.885 363.859 208.062C363.755 206.24 363.703 204.807 363.703 203.766C363.703 201.786 363.625 199.391 363.469 196.578C362.115 196.682 360.786 196.812 359.484 196.969C358.182 197.125 357.01 197.281 355.969 197.438C354.979 197.542 354.146 197.646 353.469 197.75C352.844 197.854 352.479 197.906 352.375 197.906C351.854 197.906 351.385 197.724 350.969 197.359C350.552 196.995 350.292 196.448 350.188 195.719C350.188 195.198 350.344 194.755 350.656 194.391C351.021 193.974 351.49 193.714 352.062 193.609C352.115 193.609 352.453 193.557 353.078 193.453C353.755 193.297 354.589 193.167 355.578 193.062C356.62 192.906 357.792 192.776 359.094 192.672C360.396 192.516 361.75 192.385 363.156 192.281C363.052 190.823 362.922 189.391 362.766 187.984C362.661 186.526 362.531 185.146 362.375 183.844C362.271 182.49 362.141 181.24 361.984 180.094C361.828 178.948 361.672 177.958 361.516 177.125C361.516 176.604 361.698 176.135 362.062 175.719C362.427 175.302 362.974 175.042 363.703 174.938C364.224 174.938 364.667 175.094 365.031 175.406C365.448 175.719 365.708 176.161 365.812 176.734C366.177 178.349 366.516 180.562 366.828 183.375C367.141 186.188 367.427 189.078 367.688 192.047C369.458 192.047 371.047 192.099 372.453 192.203C373.911 192.307 375.135 192.438 376.125 192.594C377.167 192.75 377.974 192.906 378.547 193.062C379.172 193.167 379.51 193.219 379.562 193.219ZM409.719 206.5C410.604 206.76 411.021 207.62 410.969 209.078C410.812 210.224 410.161 210.797 409.016 210.797C408.182 210.641 407.271 210.458 406.281 210.25C405.396 210.146 404.354 210.042 403.156 209.938C401.958 209.781 400.604 209.703 399.094 209.703C397.583 209.703 396.021 209.781 394.406 209.938C392.792 210.094 391.307 210.276 389.953 210.484C388.651 210.641 387.531 210.797 386.594 210.953C385.708 211.109 385.24 211.188 385.188 211.188C384.771 211.188 384.406 211.005 384.094 210.641C383.833 210.276 383.651 209.729 383.547 209C383.547 208.427 383.677 207.958 383.938 207.594C384.198 207.177 384.536 206.917 384.953 206.812C385.057 206.812 385.552 206.734 386.438 206.578C387.323 206.422 388.443 206.266 389.797 206.109C391.151 205.901 392.635 205.719 394.25 205.562C395.917 205.406 397.531 205.328 399.094 205.328C402.323 205.328 404.875 205.51 406.75 205.875C408.625 206.24 409.615 206.448 409.719 206.5ZM457.688 230.016C458.833 230.276 459.406 231.135 459.406 232.594C459.302 233.167 459.016 233.609 458.547 233.922C458.13 234.234 457.557 234.365 456.828 234.312C456.776 234.312 455.552 234.156 453.156 233.844C450.812 233.479 447.609 233.297 443.547 233.297C441.516 233.297 439.432 233.375 437.297 233.531C435.161 233.688 433.182 233.844 431.359 234C429.589 234.156 428.104 234.312 426.906 234.469C425.76 234.625 425.135 234.703 425.031 234.703H423.547C422.974 234.703 422.479 234.521 422.062 234.156C421.646 233.792 421.411 233.323 421.359 232.75C421.307 232.594 421.203 231.891 421.047 230.641C420.943 229.391 420.786 227.854 420.578 226.031C420.422 224.156 420.24 222.099 420.031 219.859C419.823 217.62 419.615 215.432 419.406 213.297C419.25 211.109 419.094 209.104 418.938 207.281C418.833 205.458 418.781 204.026 418.781 202.984C418.781 201.422 418.703 199.417 418.547 196.969C418.443 194.521 418.286 192.021 418.078 189.469C417.87 186.865 417.635 184.391 417.375 182.047C417.115 179.703 416.854 177.828 416.594 176.422C416.594 175.901 416.776 175.432 417.141 175.016C417.505 174.599 418.052 174.339 418.781 174.234C419.927 174.234 420.63 174.781 420.891 175.875C421.255 175.354 421.75 175.042 422.375 174.938C422.479 174.938 423.104 174.859 424.25 174.703C425.448 174.547 426.932 174.391 428.703 174.234C430.526 174.026 432.531 173.844 434.719 173.688C436.906 173.531 439.068 173.453 441.203 173.453C445.474 173.453 448.859 173.635 451.359 174C453.911 174.365 455.24 174.573 455.344 174.625C456.49 174.885 457.062 175.745 457.062 177.203C456.802 178.349 455.917 178.922 454.406 178.922C453.365 178.766 452.167 178.583 450.812 178.375C449.667 178.271 448.26 178.167 446.594 178.062C444.979 177.906 443.182 177.828 441.203 177.828C439.172 177.828 437.089 177.906 434.953 178.062C432.818 178.219 430.839 178.401 429.016 178.609C427.245 178.766 425.76 178.922 424.562 179.078C423.417 179.234 422.792 179.312 422.688 179.312C422.219 179.312 421.776 179.182 421.359 178.922C421.62 180.641 421.854 182.62 422.062 184.859C422.271 187.099 422.453 189.339 422.609 191.578C422.766 193.818 422.896 195.953 423 197.984C423.104 199.964 423.156 201.604 423.156 202.906C423.625 202.854 424.38 202.776 425.422 202.672C426.464 202.516 427.688 202.385 429.094 202.281C430.552 202.125 432.141 201.995 433.859 201.891C435.578 201.786 437.349 201.682 439.172 201.578C439.745 201.578 440.24 201.786 440.656 202.203C441.125 202.62 441.359 203.141 441.359 203.766C441.359 204.339 441.151 204.859 440.734 205.328C440.318 205.745 439.823 205.953 439.25 205.953C437.375 206.057 435.5 206.188 433.625 206.344C431.802 206.448 430.161 206.578 428.703 206.734C427.245 206.839 426.021 206.969 425.031 207.125C424.042 207.229 423.469 207.281 423.312 207.281C423.417 209.052 423.573 211.031 423.781 213.219C423.99 215.354 424.198 217.516 424.406 219.703C424.615 221.839 424.797 223.844 424.953 225.719C425.161 227.594 425.344 229.104 425.5 230.25C426.125 230.198 427.062 230.094 428.312 229.938C429.615 229.781 431.099 229.625 432.766 229.469C434.432 229.312 436.177 229.182 438 229.078C439.875 228.974 441.724 228.922 443.547 228.922C447.818 228.922 451.203 229.104 453.703 229.469C456.255 229.833 457.583 230.016 457.688 230.016ZM502.531 224.625C502.531 225.354 502.609 226.109 502.766 226.891C502.974 227.672 503.208 228.427 503.469 229.156C503.729 229.833 503.99 230.458 504.25 231.031C504.51 231.604 504.719 232.047 504.875 232.359C505.031 232.672 505.109 233.036 505.109 233.453C505.109 234.286 504.745 234.911 504.016 235.328C503.807 235.432 503.625 235.51 503.469 235.562C503.312 235.615 503.13 235.641 502.922 235.641C502.089 235.641 501.464 235.25 501.047 234.469C500.995 234.417 500.812 234.104 500.5 233.531C500.188 232.906 499.849 232.125 499.484 231.188C499.172 230.25 498.859 229.208 498.547 228.062C498.286 226.917 498.156 225.771 498.156 224.625C498.156 224.365 498.13 224.078 498.078 223.766C498.078 223.401 498.052 223.01 498 222.594C497.948 221.865 497.896 221.083 497.844 220.25C497.792 219.365 497.766 218.323 497.766 217.125C497.766 216.344 497.714 215.536 497.609 214.703C497.505 213.818 497.401 212.854 497.297 211.812C497.141 210.51 496.984 209.13 496.828 207.672C496.724 206.161 496.672 204.573 496.672 202.906C496.672 201.865 496.438 200.745 495.969 199.547C495.552 198.297 494.927 197.151 494.094 196.109C493.26 195.068 492.219 194.208 490.969 193.531C489.771 192.854 488.365 192.516 486.75 192.516C484.719 192.516 482.896 192.906 481.281 193.688C479.719 194.417 478.365 195.354 477.219 196.5C476.073 197.646 475.083 198.896 474.25 200.25C473.469 201.552 472.844 202.802 472.375 204C471.906 205.146 471.542 206.135 471.281 206.969C471.073 207.802 470.969 208.271 470.969 208.375C470.812 208.844 470.604 209.208 470.344 209.469V210.875C470.344 212.125 470.526 213.557 470.891 215.172C471.255 216.786 471.672 218.505 472.141 220.328C472.714 222.672 473.26 225.12 473.781 227.672C474.354 230.224 474.641 232.828 474.641 235.484C474.641 236.109 474.432 236.63 474.016 237.047C473.599 237.464 473.078 237.672 472.453 237.672C471.88 237.672 471.359 237.464 470.891 237.047C470.474 236.63 470.266 236.109 470.266 235.484C470.266 233.089 470.005 230.693 469.484 228.297C469.016 225.901 468.495 223.609 467.922 221.422C467.401 219.495 466.932 217.646 466.516 215.875C466.151 214.052 465.969 212.385 465.969 210.875C465.969 209.365 465.865 207.464 465.656 205.172C465.448 202.88 465.188 200.667 464.875 198.531C464.615 196.344 464.354 194.469 464.094 192.906C463.885 191.292 463.781 190.432 463.781 190.328C463.781 189.807 463.964 189.339 464.328 188.922C464.693 188.505 465.24 188.245 465.969 188.141C466.542 188.141 467.01 188.323 467.375 188.688C467.792 189 468.052 189.443 468.156 190.016C468.156 190.12 468.208 190.458 468.312 191.031C468.417 191.552 468.521 192.281 468.625 193.219C468.729 194.104 468.859 195.12 469.016 196.266C469.172 197.411 469.328 198.609 469.484 199.859C470.266 198.401 471.177 196.969 472.219 195.562C473.312 194.156 474.562 192.906 475.969 191.812C477.427 190.719 479.042 189.833 480.812 189.156C482.583 188.479 484.562 188.141 486.75 188.141C488.885 188.141 490.812 188.583 492.531 189.469C494.302 190.302 495.812 191.422 497.062 192.828C498.312 194.234 499.276 195.823 499.953 197.594C500.682 199.365 501.047 201.135 501.047 202.906C501.047 204.469 501.099 205.953 501.203 207.359C501.359 208.766 501.516 210.068 501.672 211.266C501.776 212.307 501.88 213.323 501.984 214.312C502.089 215.302 502.141 216.24 502.141 217.125C502.141 219.208 502.219 220.875 502.375 222.125C502.427 222.594 502.453 223.036 502.453 223.453C502.505 223.818 502.531 224.208 502.531 224.625ZM538.781 224.781C539.042 224.417 539.432 224.156 539.953 224C539.641 221.969 539.328 219.807 539.016 217.516C538.755 215.172 538.495 212.88 538.234 210.641C538.026 208.349 537.844 206.188 537.688 204.156C537.531 202.073 537.453 200.276 537.453 198.766C537.453 198.401 537.453 198.036 537.453 197.672C537.453 197.307 537.427 196.917 537.375 196.5C536.542 196.24 536.047 195.641 535.891 194.703C535.891 194.599 535.812 194.443 535.656 194.234C535.552 193.974 535.292 193.74 534.875 193.531C534.458 193.323 533.964 193.219 533.391 193.219C532.818 193.219 532.245 193.323 531.672 193.531C531.099 193.688 530.578 193.87 530.109 194.078C528.651 194.755 527.167 195.745 525.656 197.047C524.146 198.349 522.714 199.807 521.359 201.422C520.057 203.036 518.885 204.755 517.844 206.578C516.854 208.349 516.125 210.068 515.656 211.734C515.292 213.141 515.109 214.573 515.109 216.031C515.109 217.854 515.396 219.547 515.969 221.109C516.594 222.672 517.349 224.078 518.234 225.328C519.172 226.578 520.188 227.646 521.281 228.531C522.375 229.365 523.417 230.016 524.406 230.484C525.031 230.797 525.839 230.953 526.828 230.953C528.547 230.953 530.5 230.484 532.688 229.547C534.927 228.557 536.958 226.969 538.781 224.781ZM541.828 198.766C541.828 200.432 541.906 202.438 542.062 204.781C542.271 207.125 542.531 209.573 542.844 212.125C543.156 214.677 543.469 217.229 543.781 219.781C544.146 222.281 544.458 224.573 544.719 226.656C545.031 228.688 545.292 230.354 545.5 231.656C545.708 232.958 545.812 233.661 545.812 233.766C545.812 234.286 545.63 234.755 545.266 235.172C544.901 235.589 544.354 235.849 543.625 235.953C543.104 235.953 542.635 235.771 542.219 235.406C541.802 235.094 541.542 234.651 541.438 234.078C541.438 233.974 541.359 233.479 541.203 232.594C541.099 231.708 540.943 230.536 540.734 229.078C538.599 231.266 536.307 232.854 533.859 233.844C531.411 234.833 529.094 235.328 526.906 235.328C525.135 235.328 523.703 235.042 522.609 234.469C521.047 233.74 519.536 232.776 518.078 231.578C516.672 230.328 515.422 228.922 514.328 227.359C513.234 225.745 512.349 223.974 511.672 222.047C511.047 220.12 510.734 218.089 510.734 215.953C510.734 214.234 510.969 212.438 511.438 210.562C511.958 208.583 512.792 206.552 513.938 204.469C515.135 202.385 516.49 200.432 518 198.609C519.51 196.786 521.151 195.146 522.922 193.688C524.693 192.177 526.464 191.005 528.234 190.172C530.109 189.286 531.828 188.844 533.391 188.844C534.016 188.844 534.615 188.922 535.188 189.078C535.76 189.182 536.411 189.417 537.141 189.781C537.036 187.854 536.906 185.979 536.75 184.156C536.646 182.333 536.516 180.719 536.359 179.312C536.255 177.854 536.151 176.682 536.047 175.797C535.995 174.911 535.969 174.417 535.969 174.312C535.969 173.74 536.151 173.271 536.516 172.906C536.932 172.49 537.479 172.229 538.156 172.125C538.729 172.125 539.198 172.333 539.562 172.75C539.979 173.115 540.24 173.583 540.344 174.156C540.344 174.312 540.422 175.198 540.578 176.812C540.734 178.427 540.891 180.432 541.047 182.828C541.255 185.224 541.438 187.854 541.594 190.719C541.75 193.531 541.828 196.214 541.828 198.766Z" fill="#5BB9B8"/>
<path d="M189.727 327.492C189.727 327.987 189.753 328.69 189.805 329.602C189.883 330.513 189.961 331.516 190.04 332.609C190.144 333.677 190.248 334.784 190.352 335.93C190.456 337.049 190.547 338.078 190.626 339.016C190.73 339.927 190.808 340.695 190.86 341.32C190.938 341.919 190.977 342.232 190.977 342.258C190.977 342.544 190.886 342.792 190.704 343C190.521 343.208 190.248 343.325 189.883 343.352C189.597 343.352 189.349 343.26 189.141 343.078C188.959 342.896 188.855 342.661 188.829 342.375C188.829 342.297 188.79 342.01 188.711 341.516C188.659 340.995 188.594 340.357 188.516 339.602C188.438 338.82 188.347 337.948 188.243 336.984C188.139 336.021 188.034 335.044 187.93 334.055C187.852 333.065 187.774 332.115 187.696 331.203C187.618 330.292 187.566 329.484 187.54 328.781C187.514 328.781 186.902 328.69 185.704 328.508C184.532 328.325 182.93 328.234 180.899 328.234C180.144 328.234 179.362 328.26 178.555 328.312C177.774 328.365 177.019 328.43 176.29 328.508C175.56 328.56 174.883 328.625 174.258 328.703C173.633 328.755 173.112 328.807 172.696 328.859C172.722 329.536 172.774 330.344 172.852 331.281C172.93 332.193 173.008 333.143 173.086 334.133C173.191 335.122 173.282 336.099 173.36 337.062C173.464 338 173.555 338.859 173.633 339.641C173.711 340.396 173.777 341.021 173.829 341.516C173.881 341.984 173.907 342.232 173.907 342.258C173.907 342.544 173.816 342.792 173.633 343C173.451 343.208 173.178 343.325 172.813 343.352C172.527 343.352 172.279 343.26 172.071 343.078C171.889 342.896 171.784 342.661 171.758 342.375C171.732 342.297 171.68 341.945 171.602 341.32C171.55 340.695 171.472 339.927 171.368 339.016C171.29 338.078 171.198 337.049 171.094 335.93C170.99 334.81 170.886 333.716 170.782 332.648C170.704 331.555 170.626 330.552 170.547 329.641C170.495 328.729 170.469 328.013 170.469 327.492C170.469 326.711 170.43 325.708 170.352 324.484C170.3 323.26 170.222 322.01 170.118 320.734C170.014 319.432 169.896 318.195 169.766 317.023C169.636 315.852 169.506 314.914 169.376 314.211C169.376 313.95 169.467 313.716 169.649 313.508C169.831 313.299 170.105 313.169 170.469 313.117C170.73 313.117 170.951 313.195 171.133 313.352C171.342 313.508 171.472 313.716 171.524 313.977C171.654 314.654 171.784 315.539 171.915 316.633C172.045 317.7 172.149 318.846 172.227 320.07C172.331 321.268 172.409 322.453 172.461 323.625C172.54 324.797 172.592 325.799 172.618 326.633C173.06 326.581 173.594 326.529 174.219 326.477C174.844 326.398 175.521 326.333 176.251 326.281C177.006 326.203 177.774 326.151 178.555 326.125C179.362 326.073 180.144 326.047 180.899 326.047C182.566 326.047 183.959 326.112 185.079 326.242C186.224 326.372 187.032 326.477 187.501 326.555C187.474 325.669 187.422 324.654 187.344 323.508C187.292 322.336 187.214 321.177 187.11 320.031C187.006 318.859 186.889 317.753 186.758 316.711C186.654 315.669 186.55 314.836 186.446 314.211C186.446 313.95 186.537 313.716 186.719 313.508C186.902 313.299 187.175 313.169 187.54 313.117C187.8 313.117 188.021 313.195 188.204 313.352C188.412 313.508 188.542 313.716 188.594 313.977C188.751 314.706 188.894 315.682 189.024 316.906C189.154 318.104 189.271 319.367 189.376 320.695C189.48 322.023 189.558 323.312 189.61 324.562C189.688 325.786 189.727 326.763 189.727 327.492ZM214.61 314.055C214.896 314.081 215.131 314.211 215.313 314.445C215.495 314.654 215.573 314.927 215.547 315.266C215.521 315.552 215.404 315.786 215.196 315.969C214.987 316.125 214.701 316.203 214.336 316.203L213.594 316.125C213.073 316.073 212.344 316.008 211.407 315.93C210.469 315.852 209.336 315.786 208.008 315.734C206.706 315.682 205.248 315.656 203.633 315.656C203.425 315.656 203.23 315.656 203.047 315.656C202.865 315.656 202.67 315.669 202.461 315.695C202.566 316.555 202.67 317.557 202.774 318.703C202.904 319.823 203.008 320.956 203.086 322.102C203.165 323.247 203.23 324.341 203.282 325.383C203.334 326.398 203.36 327.232 203.36 327.883C203.36 328.378 203.386 329.081 203.438 329.992C203.516 330.904 203.594 331.906 203.672 333C203.777 334.068 203.881 335.174 203.985 336.32C204.089 337.44 204.193 338.469 204.297 339.406C204.402 340.318 204.48 341.086 204.532 341.711C204.61 342.31 204.649 342.622 204.649 342.648C204.649 342.935 204.545 343.169 204.336 343.352C204.154 343.56 203.894 343.69 203.555 343.742C203.269 343.742 203.021 343.651 202.813 343.469C202.605 343.286 202.487 343.052 202.461 342.766C202.461 342.687 202.422 342.336 202.344 341.711C202.266 341.086 202.175 340.318 202.071 339.406C201.993 338.469 201.902 337.44 201.797 336.32C201.693 335.2 201.589 334.107 201.485 333.039C201.407 331.945 201.329 330.943 201.251 330.031C201.198 329.12 201.172 328.404 201.172 327.883C201.172 327.18 201.146 326.294 201.094 325.227C201.042 324.159 200.964 323.052 200.86 321.906C200.782 320.76 200.691 319.641 200.586 318.547C200.482 317.453 200.378 316.516 200.274 315.734C198.868 315.786 197.487 315.852 196.133 315.93C194.779 315.982 193.581 316.047 192.54 316.125C191.472 316.203 190.612 316.268 189.961 316.32C189.284 316.372 188.933 316.398 188.907 316.398C188.62 316.424 188.373 316.333 188.165 316.125C187.956 315.917 187.839 315.643 187.813 315.305C187.813 315.018 187.904 314.771 188.086 314.562C188.269 314.354 188.503 314.237 188.79 314.211C188.816 314.211 189.18 314.185 189.883 314.133C190.586 314.081 191.511 314.016 192.657 313.937C193.803 313.859 195.092 313.781 196.524 313.703C197.982 313.625 199.454 313.56 200.938 313.508C200.99 313.508 201.042 313.508 201.094 313.508C201.146 313.482 201.251 313.482 201.407 313.508C201.771 313.508 202.136 313.508 202.501 313.508C202.891 313.482 203.269 313.469 203.633 313.469C205.3 313.469 206.797 313.495 208.126 313.547C209.454 313.599 210.586 313.664 211.524 313.742C212.487 313.82 213.23 313.898 213.751 313.977C214.271 314.029 214.558 314.055 214.61 314.055ZM243.711 327.492C243.711 327.987 243.737 328.69 243.79 329.602C243.868 330.513 243.946 331.516 244.024 332.609C244.128 333.677 244.232 334.784 244.336 335.93C244.441 337.049 244.532 338.078 244.61 339.016C244.714 339.927 244.792 340.695 244.844 341.32C244.922 341.919 244.961 342.232 244.961 342.258C244.961 342.544 244.87 342.792 244.688 343C244.506 343.208 244.232 343.325 243.868 343.352C243.581 343.352 243.334 343.26 243.126 343.078C242.943 342.896 242.826 342.661 242.774 342.375C242.774 342.297 242.735 341.945 242.657 341.32C242.605 340.695 242.527 339.927 242.422 339.016C242.344 338.078 242.253 337.049 242.149 335.93C242.045 334.81 241.941 333.716 241.836 332.648C241.758 331.555 241.68 330.552 241.602 329.641C241.55 328.729 241.524 328.013 241.524 327.492C241.524 326.945 241.511 326.281 241.485 325.5C241.459 324.719 241.407 323.885 241.329 323C241.277 322.115 241.211 321.216 241.133 320.305C241.055 319.393 240.977 318.534 240.899 317.727C240.274 318.794 239.584 319.875 238.829 320.969C238.073 322.036 237.396 323 236.797 323.859C236.537 324.224 236.185 324.771 235.743 325.5C235.3 326.229 234.818 327.036 234.297 327.922C233.803 328.807 233.295 329.719 232.774 330.656C232.279 331.568 231.81 332.401 231.368 333.156C230.951 333.911 230.599 334.536 230.313 335.031C230.053 335.526 229.922 335.786 229.922 335.812C229.714 336.177 229.402 336.359 228.985 336.359C228.803 336.359 228.62 336.32 228.438 336.242C228.073 336.034 227.891 335.708 227.891 335.266C227.891 335.083 227.93 334.914 228.008 334.758L228.594 333.43C228.542 333.378 228.334 333.13 227.969 332.687C227.605 332.219 227.149 331.646 226.602 330.969C226.055 330.266 225.443 329.497 224.766 328.664C224.115 327.831 223.477 327.01 222.852 326.203C222.253 325.396 221.693 324.654 221.172 323.977C220.678 323.273 220.3 322.713 220.04 322.297C219.597 321.568 219.089 320.76 218.516 319.875C217.969 318.99 217.396 318.13 216.797 317.297C216.902 318.156 216.993 319.081 217.071 320.07C217.149 321.034 217.214 321.984 217.266 322.922C217.318 323.833 217.357 324.693 217.383 325.5C217.435 326.281 217.461 326.945 217.461 327.492C217.461 327.987 217.487 328.69 217.54 329.602C217.618 330.513 217.696 331.516 217.774 332.609C217.878 333.677 217.982 334.784 218.086 335.93C218.191 337.049 218.295 338.078 218.399 339.016C218.503 339.927 218.581 340.695 218.633 341.32C218.711 341.919 218.751 342.232 218.751 342.258C218.751 342.544 218.646 342.792 218.438 343C218.256 343.208 217.995 343.325 217.657 343.352C217.37 343.352 217.123 343.26 216.915 343.078C216.732 342.896 216.615 342.661 216.563 342.375C216.563 342.297 216.524 341.945 216.446 341.32C216.394 340.695 216.316 339.927 216.211 339.016C216.107 338.078 216.003 337.049 215.899 335.93C215.795 334.81 215.691 333.716 215.586 332.648C215.508 331.555 215.43 330.552 215.352 329.641C215.3 328.729 215.274 328.013 215.274 327.492C215.274 326.711 215.235 325.708 215.157 324.484C215.105 323.26 215.027 322.01 214.922 320.734C214.818 319.432 214.701 318.195 214.571 317.023C214.441 315.852 214.31 314.914 214.18 314.211C214.18 314.159 214.18 314.107 214.18 314.055C214.206 313.977 214.206 313.846 214.18 313.664C214.18 313.352 214.284 313.091 214.493 312.883C214.753 312.674 215.014 312.57 215.274 312.57C215.586 312.57 215.847 312.674 216.055 312.883C216.55 313.378 217.058 313.977 217.579 314.68C218.099 315.357 218.607 316.073 219.102 316.828C219.623 317.557 220.118 318.299 220.586 319.055C221.081 319.81 221.524 320.5 221.915 321.125C222.227 321.62 222.735 322.349 223.438 323.312C224.141 324.25 224.896 325.24 225.704 326.281C226.511 327.323 227.292 328.325 228.047 329.289C228.829 330.227 229.415 330.943 229.805 331.437C230.222 330.656 230.678 329.836 231.172 328.977C231.693 328.091 232.188 327.245 232.657 326.437C233.126 325.604 233.568 324.849 233.985 324.172C234.402 323.469 234.74 322.935 235.001 322.57C235.417 321.997 235.873 321.359 236.368 320.656C236.862 319.953 237.344 319.25 237.813 318.547C238.282 317.818 238.724 317.102 239.141 316.398C239.558 315.695 239.883 315.044 240.118 314.445C240.17 314.315 240.274 314.172 240.43 314.016C240.508 313.521 240.873 313.221 241.524 313.117C242.097 313.117 242.448 313.404 242.579 313.977C242.735 314.706 242.878 315.682 243.008 316.906C243.139 318.104 243.256 319.367 243.36 320.695C243.464 322.023 243.542 323.312 243.594 324.562C243.672 325.786 243.711 326.763 243.711 327.492ZM270.313 341.008C270.599 341.06 270.821 341.203 270.977 341.437C271.133 341.646 271.198 341.932 271.172 342.297C271.042 342.896 270.612 343.182 269.883 343.156C269.857 343.156 269.245 343.078 268.047 342.922C266.876 342.74 265.287 342.648 263.282 342.648C262.266 342.648 261.224 342.687 260.157 342.766C259.089 342.844 258.112 342.922 257.227 343C256.342 343.078 255.612 343.156 255.04 343.234C254.467 343.312 254.167 343.352 254.141 343.352C254.115 343.352 254.076 343.352 254.024 343.352C253.972 343.352 253.842 343.338 253.633 343.312C253.581 343.312 253.529 343.312 253.477 343.312C253.425 343.338 253.347 343.352 253.243 343.352C252.956 343.352 252.709 343.26 252.501 343.078C252.318 342.896 252.201 342.661 252.149 342.375C252.149 342.297 252.11 341.945 252.032 341.32C251.98 340.695 251.902 339.927 251.797 339.016C251.693 338.078 251.589 337.049 251.485 335.93C251.381 334.81 251.277 333.716 251.172 332.648C251.094 331.555 251.016 330.552 250.938 329.641C250.886 328.729 250.86 328.013 250.86 327.492C250.86 326.711 250.821 325.708 250.743 324.484C250.691 323.26 250.612 322.01 250.508 320.734C250.404 319.432 250.287 318.195 250.157 317.023C250.027 315.852 249.896 314.914 249.766 314.211C249.766 313.95 249.857 313.716 250.04 313.508C250.222 313.299 250.495 313.169 250.86 313.117C251.12 313.117 251.355 313.195 251.563 313.352C251.771 313.508 251.902 313.716 251.954 313.977C252.084 314.706 252.214 315.682 252.344 316.906C252.474 318.104 252.592 319.367 252.696 320.695C252.8 322.023 252.878 323.312 252.93 324.562C253.008 325.786 253.047 326.763 253.047 327.492C253.047 328.117 253.086 329.042 253.165 330.266C253.269 331.49 253.386 332.792 253.516 334.172C253.646 335.526 253.777 336.841 253.907 338.117C254.037 339.393 254.141 340.396 254.219 341.125C254.532 341.099 255.001 341.047 255.626 340.969C256.277 340.891 257.019 340.812 257.852 340.734C258.685 340.656 259.571 340.591 260.508 340.539C261.446 340.487 262.37 340.461 263.282 340.461C265.391 340.461 267.071 340.552 268.321 340.734C269.597 340.917 270.261 341.008 270.313 341.008ZM273.829 338.273C274.402 338.352 274.688 338.781 274.688 339.562C274.558 340.135 274.428 340.943 274.297 341.984C274.193 343.026 274.089 344.224 273.985 345.578C273.959 345.865 273.829 346.099 273.594 346.281C273.386 346.49 273.126 346.581 272.813 346.555C272.527 346.555 272.279 346.437 272.071 346.203C271.889 345.995 271.797 345.721 271.797 345.383C271.823 344.992 271.862 344.523 271.915 343.977C271.967 343.43 272.019 342.87 272.071 342.297C272.149 341.698 272.227 341.125 272.305 340.578C272.383 340.031 272.461 339.549 272.54 339.133C272.67 338.534 273.099 338.247 273.829 338.273ZM309.376 338.391C309.584 338.182 309.844 338.078 310.157 338.078C310.469 338.078 310.717 338.169 310.899 338.352C311.133 338.586 311.251 338.859 311.251 339.172C311.251 339.458 311.146 339.706 310.938 339.914C310.912 339.94 310.704 340.122 310.313 340.461C309.948 340.799 309.428 341.164 308.751 341.555C308.099 341.945 307.305 342.31 306.368 342.648C305.43 342.961 304.376 343.117 303.204 343.117C301.823 343.117 300.339 342.857 298.751 342.336C297.188 341.789 295.717 340.917 294.336 339.719C292.982 338.521 291.849 336.971 290.938 335.07C290.053 333.143 289.61 330.786 289.61 328C289.61 327.141 289.636 326.398 289.688 325.773C289.74 325.122 289.818 324.549 289.922 324.055C290.053 323.534 290.196 323.065 290.352 322.648C290.534 322.232 290.743 321.828 290.977 321.437C291.003 321.385 291.185 321.073 291.524 320.5C291.889 319.901 292.331 319.224 292.852 318.469C293.373 317.713 293.959 316.984 294.61 316.281C295.287 315.552 295.951 315.031 296.602 314.719C297.357 314.38 298.112 314.133 298.868 313.977C299.623 313.82 300.339 313.742 301.016 313.742C301.745 313.742 302.383 313.82 302.93 313.977C303.191 314.029 303.529 314.133 303.946 314.289C304.362 314.419 304.779 314.575 305.196 314.758C305.639 314.94 306.042 315.135 306.407 315.344C306.771 315.552 307.032 315.747 307.188 315.93C307.396 316.216 307.527 316.568 307.579 316.984C307.657 317.375 307.696 317.753 307.696 318.117C307.696 318.404 307.592 318.664 307.383 318.898C307.175 319.107 306.915 319.211 306.602 319.211C306.316 319.211 306.055 319.107 305.821 318.898C305.612 318.664 305.508 318.404 305.508 318.117C305.508 317.987 305.508 317.844 305.508 317.687C305.508 317.531 305.495 317.401 305.469 317.297C305.209 317.167 304.766 316.971 304.141 316.711C303.542 316.424 302.969 316.216 302.422 316.086C302.214 316.034 301.993 315.995 301.758 315.969C301.55 315.943 301.316 315.93 301.055 315.93C300.508 315.93 299.922 315.995 299.297 316.125C298.698 316.229 298.126 316.424 297.579 316.711C297.214 316.867 296.81 317.167 296.368 317.609C295.951 318.052 295.521 318.56 295.079 319.133C294.662 319.68 294.258 320.253 293.868 320.852C293.477 321.45 293.152 321.997 292.891 322.492C292.709 322.831 292.54 323.169 292.383 323.508C292.253 323.846 292.136 324.224 292.032 324.641C291.954 325.057 291.889 325.539 291.836 326.086C291.81 326.633 291.797 327.271 291.797 328C291.797 329.771 292.006 331.32 292.422 332.648C292.839 333.95 293.373 335.083 294.024 336.047C294.701 337.01 295.456 337.805 296.29 338.43C297.149 339.055 297.995 339.562 298.829 339.953C299.688 340.318 300.495 340.578 301.251 340.734C302.032 340.865 302.683 340.93 303.204 340.93C304.141 340.93 304.987 340.799 305.743 340.539C306.498 340.279 307.136 339.992 307.657 339.68C308.204 339.367 308.633 339.068 308.946 338.781L309.376 338.391ZM325.86 323.586C327.11 323.924 328.23 324.484 329.219 325.266C330.209 326.021 331.042 326.893 331.719 327.883C332.396 328.846 332.917 329.862 333.282 330.93C333.646 331.971 333.829 332.948 333.829 333.859L333.79 334.445C333.764 335.148 333.711 335.904 333.633 336.711C333.555 337.492 333.321 338.273 332.93 339.055C332.54 339.81 331.915 340.526 331.055 341.203C330.222 341.854 329.05 342.388 327.54 342.805C326.784 343.039 326.094 343.195 325.469 343.273C324.87 343.378 324.284 343.43 323.711 343.43C322.878 343.43 322.045 343.338 321.211 343.156C320.404 342.974 319.415 342.727 318.243 342.414C317.175 342.154 316.264 341.737 315.508 341.164C314.753 340.565 314.128 339.979 313.633 339.406C313.139 338.807 312.774 338.286 312.54 337.844C312.305 337.375 312.175 337.115 312.149 337.062C312.071 336.958 312.032 336.815 312.032 336.633C312.032 336.19 312.253 335.852 312.696 335.617C312.904 335.565 313.047 335.539 313.126 335.539C313.334 335.539 313.529 335.604 313.711 335.734C313.92 335.838 314.063 335.995 314.141 336.203L314.415 336.711C314.597 337.075 314.883 337.492 315.274 337.961C315.665 338.404 316.159 338.859 316.758 339.328C317.357 339.771 318.073 340.109 318.907 340.344C320.001 340.63 320.899 340.852 321.602 341.008C322.331 341.164 323.034 341.242 323.711 341.242C324.597 341.242 325.678 341.073 326.954 340.734C328.073 340.396 328.946 340.005 329.571 339.562C330.196 339.12 330.652 338.625 330.938 338.078C331.224 337.531 331.394 336.945 331.446 336.32C331.524 335.695 331.576 335.044 331.602 334.367L331.641 333.664C331.641 333.117 331.498 332.44 331.211 331.633C330.951 330.825 330.56 330.031 330.04 329.25C329.519 328.469 328.855 327.753 328.047 327.102C327.266 326.45 326.355 325.995 325.313 325.734C324.61 325.526 323.855 325.383 323.047 325.305C322.266 325.227 321.485 325.148 320.704 325.07C319.792 324.992 318.894 324.901 318.008 324.797C317.149 324.693 316.368 324.51 315.665 324.25C314.961 323.963 314.376 323.586 313.907 323.117C313.464 322.622 313.204 321.958 313.126 321.125C313.126 321.021 313.112 320.93 313.086 320.852C313.086 320.773 313.086 320.695 313.086 320.617C313.086 319.602 313.282 318.742 313.672 318.039C314.089 317.31 314.584 316.698 315.157 316.203C315.756 315.708 316.368 315.305 316.993 314.992C317.644 314.68 318.204 314.419 318.672 314.211C319.271 313.924 319.987 313.729 320.821 313.625C321.68 313.495 322.605 313.43 323.594 313.43C324.48 313.43 325.365 313.482 326.251 313.586C327.162 313.69 328.047 313.846 328.907 314.055C329.48 314.185 329.753 314.615 329.727 315.344C329.675 315.604 329.532 315.812 329.297 315.969C329.063 316.125 328.764 316.19 328.399 316.164C327.644 315.956 326.836 315.812 325.977 315.734C325.144 315.656 324.336 315.617 323.555 315.617C322.722 315.617 321.954 315.669 321.251 315.773C320.573 315.852 320.001 315.995 319.532 316.203C318.985 316.437 318.451 316.698 317.93 316.984C317.409 317.245 316.954 317.557 316.563 317.922C316.172 318.286 315.86 318.716 315.626 319.211C315.417 319.706 315.313 320.292 315.313 320.969C315.365 321.646 315.873 322.102 316.836 322.336C317.826 322.57 319.167 322.753 320.86 322.883C321.693 322.961 322.527 323.052 323.36 323.156C324.219 323.234 325.053 323.378 325.86 323.586ZM350.235 323.586C351.485 323.924 352.605 324.484 353.594 325.266C354.584 326.021 355.417 326.893 356.094 327.883C356.771 328.846 357.292 329.862 357.657 330.93C358.021 331.971 358.204 332.948 358.204 333.859L358.165 334.445C358.139 335.148 358.086 335.904 358.008 336.711C357.93 337.492 357.696 338.273 357.305 339.055C356.915 339.81 356.29 340.526 355.43 341.203C354.597 341.854 353.425 342.388 351.915 342.805C351.159 343.039 350.469 343.195 349.844 343.273C349.245 343.378 348.659 343.43 348.086 343.43C347.253 343.43 346.42 343.338 345.586 343.156C344.779 342.974 343.79 342.727 342.618 342.414C341.55 342.154 340.639 341.737 339.883 341.164C339.128 340.565 338.503 339.979 338.008 339.406C337.514 338.807 337.149 338.286 336.915 337.844C336.68 337.375 336.55 337.115 336.524 337.062C336.446 336.958 336.407 336.815 336.407 336.633C336.407 336.19 336.628 335.852 337.071 335.617C337.279 335.565 337.422 335.539 337.501 335.539C337.709 335.539 337.904 335.604 338.086 335.734C338.295 335.838 338.438 335.995 338.516 336.203L338.79 336.711C338.972 337.075 339.258 337.492 339.649 337.961C340.04 338.404 340.534 338.859 341.133 339.328C341.732 339.771 342.448 340.109 343.282 340.344C344.376 340.63 345.274 340.852 345.977 341.008C346.706 341.164 347.409 341.242 348.086 341.242C348.972 341.242 350.053 341.073 351.329 340.734C352.448 340.396 353.321 340.005 353.946 339.562C354.571 339.12 355.027 338.625 355.313 338.078C355.599 337.531 355.769 336.945 355.821 336.32C355.899 335.695 355.951 335.044 355.977 334.367L356.016 333.664C356.016 333.117 355.873 332.44 355.586 331.633C355.326 330.825 354.935 330.031 354.415 329.25C353.894 328.469 353.23 327.753 352.422 327.102C351.641 326.45 350.73 325.995 349.688 325.734C348.985 325.526 348.23 325.383 347.422 325.305C346.641 325.227 345.86 325.148 345.079 325.07C344.167 324.992 343.269 324.901 342.383 324.797C341.524 324.693 340.743 324.51 340.04 324.25C339.336 323.963 338.751 323.586 338.282 323.117C337.839 322.622 337.579 321.958 337.501 321.125C337.501 321.021 337.487 320.93 337.461 320.852C337.461 320.773 337.461 320.695 337.461 320.617C337.461 319.602 337.657 318.742 338.047 318.039C338.464 317.31 338.959 316.698 339.532 316.203C340.131 315.708 340.743 315.305 341.368 314.992C342.019 314.68 342.579 314.419 343.047 314.211C343.646 313.924 344.362 313.729 345.196 313.625C346.055 313.495 346.98 313.43 347.969 313.43C348.855 313.43 349.74 313.482 350.626 313.586C351.537 313.69 352.422 313.846 353.282 314.055C353.855 314.185 354.128 314.615 354.102 315.344C354.05 315.604 353.907 315.812 353.672 315.969C353.438 316.125 353.139 316.19 352.774 316.164C352.019 315.956 351.211 315.812 350.352 315.734C349.519 315.656 348.711 315.617 347.93 315.617C347.097 315.617 346.329 315.669 345.626 315.773C344.948 315.852 344.376 315.995 343.907 316.203C343.36 316.437 342.826 316.698 342.305 316.984C341.784 317.245 341.329 317.557 340.938 317.922C340.547 318.286 340.235 318.716 340.001 319.211C339.792 319.706 339.688 320.292 339.688 320.969C339.74 321.646 340.248 322.102 341.211 322.336C342.201 322.57 343.542 322.753 345.235 322.883C346.068 322.961 346.902 323.052 347.735 323.156C348.594 323.234 349.428 323.378 350.235 323.586ZM363.829 338.273C364.402 338.352 364.688 338.781 364.688 339.562C364.558 340.135 364.428 340.943 364.297 341.984C364.193 343.026 364.089 344.224 363.985 345.578C363.959 345.865 363.829 346.099 363.594 346.281C363.386 346.49 363.126 346.581 362.813 346.555C362.527 346.555 362.279 346.437 362.071 346.203C361.889 345.995 361.797 345.721 361.797 345.383C361.823 344.992 361.862 344.523 361.915 343.977C361.967 343.43 362.019 342.87 362.071 342.297C362.149 341.698 362.227 341.125 362.305 340.578C362.383 340.031 362.461 339.549 362.54 339.133C362.67 338.534 363.099 338.247 363.829 338.273ZM396.719 313.586C396.849 314.315 396.967 315.305 397.071 316.555C397.201 317.805 397.305 319.107 397.383 320.461C397.487 321.815 397.566 323.13 397.618 324.406C397.696 325.656 397.735 326.672 397.735 327.453C397.735 327.609 397.748 328.078 397.774 328.859C397.8 329.641 397.813 330.552 397.813 331.594C397.813 332.583 397.787 333.599 397.735 334.641C397.683 335.656 397.553 336.542 397.344 337.297C397.006 338.729 396.498 339.862 395.821 340.695C395.144 341.529 394.402 342.167 393.594 342.609C392.787 343.026 391.954 343.299 391.094 343.43C390.235 343.586 389.454 343.703 388.751 343.781C388.646 343.781 388.555 343.781 388.477 343.781C388.399 343.807 388.308 343.82 388.204 343.82C387.396 343.82 386.459 343.625 385.391 343.234C384.349 342.87 383.334 342.219 382.344 341.281C381.954 340.917 381.55 340.474 381.133 339.953C380.743 339.432 380.391 338.82 380.079 338.117C379.766 337.388 379.506 336.581 379.297 335.695C379.089 334.784 378.985 333.755 378.985 332.609C378.985 332.479 378.985 332.349 378.985 332.219C379.011 332.062 379.024 331.919 379.024 331.789C379.05 331.503 379.167 331.255 379.376 331.047C379.584 330.838 379.844 330.734 380.157 330.734C380.443 330.76 380.691 330.878 380.899 331.086C381.107 331.294 381.211 331.568 381.211 331.906C381.211 332.036 381.198 332.154 381.172 332.258C381.172 332.362 381.172 332.479 381.172 332.609C381.172 333.547 381.251 334.393 381.407 335.148C381.589 335.904 381.797 336.568 382.032 337.141C382.292 337.713 382.579 338.221 382.891 338.664C383.204 339.081 383.516 339.432 383.829 339.719C384.558 340.396 385.326 340.891 386.133 341.203C386.941 341.49 387.735 341.62 388.516 341.594C389.219 341.516 389.909 341.424 390.586 341.32C391.29 341.216 391.941 341.008 392.54 340.695C393.139 340.357 393.672 339.888 394.141 339.289C394.61 338.69 394.974 337.857 395.235 336.789C395.391 336.112 395.495 335.292 395.547 334.328C395.626 333.365 395.665 332.427 395.665 331.516C395.665 330.448 395.639 329.523 395.586 328.742C395.56 327.961 395.547 327.544 395.547 327.492C395.521 326.659 395.469 325.617 395.391 324.367C395.339 323.091 395.261 321.789 395.157 320.461C395.079 319.133 394.987 317.87 394.883 316.672C394.779 315.448 394.662 314.471 394.532 313.742C394.532 313.482 394.623 313.247 394.805 313.039C395.014 312.831 395.3 312.7 395.665 312.648C395.925 312.648 396.146 312.74 396.329 312.922C396.537 313.078 396.667 313.299 396.719 313.586ZM410.04 341.516C410.586 341.516 411.185 341.268 411.836 340.773C412.487 340.253 413.112 339.562 413.711 338.703C414.336 337.844 414.896 336.841 415.391 335.695C415.886 334.523 416.251 333.286 416.485 331.984C416.303 330.734 416.159 329.419 416.055 328.039C415.951 326.659 415.886 325.187 415.86 323.625C415.573 323.391 415.43 323.104 415.43 322.766C415.248 322.687 415.053 322.622 414.844 322.57C414.662 322.518 414.454 322.492 414.219 322.492C413.881 322.492 413.399 322.57 412.774 322.727C412.149 322.857 411.472 323.091 410.743 323.43C410.014 323.742 409.271 324.159 408.516 324.68C407.787 325.2 407.11 325.838 406.485 326.594C405.886 327.349 405.391 328.221 405.001 329.211C404.61 330.2 404.415 331.32 404.415 332.57C404.415 334.549 404.571 336.125 404.883 337.297C405.222 338.469 405.652 339.367 406.172 339.992C406.719 340.617 407.318 341.034 407.969 341.242C408.646 341.424 409.336 341.516 410.04 341.516ZM418.711 331.984C418.946 333.599 419.219 335.044 419.532 336.32C419.844 337.596 420.131 338.677 420.391 339.562C420.678 340.448 420.912 341.138 421.094 341.633C421.303 342.102 421.407 342.349 421.407 342.375C421.433 342.453 421.446 342.531 421.446 342.609C421.472 342.661 421.485 342.727 421.485 342.805C421.485 343.273 421.277 343.612 420.86 343.82C420.652 343.872 420.495 343.898 420.391 343.898C419.896 343.898 419.571 343.69 419.415 343.273C419.362 343.169 419.115 342.557 418.672 341.437C418.256 340.292 417.813 338.703 417.344 336.672C416.928 337.687 416.433 338.625 415.86 339.484C415.313 340.344 414.714 341.086 414.063 341.711C413.438 342.336 412.774 342.818 412.071 343.156C411.394 343.521 410.717 343.703 410.04 343.703C407.383 343.703 405.417 342.792 404.141 340.969C402.865 339.146 402.227 336.346 402.227 332.57C402.227 331.008 402.461 329.628 402.93 328.43C403.399 327.206 403.998 326.138 404.727 325.227C405.482 324.315 406.316 323.547 407.227 322.922C408.165 322.297 409.076 321.789 409.961 321.398C410.847 321.008 411.667 320.734 412.422 320.578C413.178 320.396 413.777 320.305 414.219 320.305C415.001 320.305 415.678 320.461 416.251 320.773C416.823 321.06 417.292 321.398 417.657 321.789C418.047 322.154 418.334 322.505 418.516 322.844C418.698 323.156 418.79 323.325 418.79 323.352C418.868 323.482 418.907 323.625 418.907 323.781C418.907 324.042 418.79 324.315 418.555 324.602C418.79 325.825 418.907 327.44 418.907 329.445C418.907 329.862 418.881 330.279 418.829 330.695C418.803 331.112 418.764 331.542 418.711 331.984ZM439.141 321.516C439.375 321.594 439.571 321.75 439.727 321.984C439.883 322.193 439.948 322.492 439.922 322.883C439.896 322.935 439.779 323.325 439.571 324.055C439.389 324.758 439.154 325.617 438.868 326.633C438.581 327.648 438.256 328.729 437.891 329.875C437.553 330.995 437.214 331.997 436.875 332.883C436.537 333.742 436.172 334.758 435.782 335.93C435.417 337.102 435.079 338.221 434.766 339.289C434.454 340.357 434.193 341.268 433.985 342.023C433.777 342.753 433.672 343.13 433.672 343.156C433.49 343.703 433.034 343.963 432.305 343.937C431.784 343.755 431.537 343.299 431.563 342.57L431.719 341.984C431.667 341.906 431.355 341.424 430.782 340.539C430.209 339.628 429.519 338.352 428.711 336.711C427.904 335.07 427.058 333.065 426.172 330.695C425.313 328.325 424.558 325.617 423.907 322.57C423.907 322.336 423.998 322.115 424.18 321.906C424.362 321.698 424.636 321.555 425 321.477C425.573 321.477 425.925 321.763 426.055 322.336C426.524 324.445 427.045 326.385 427.618 328.156C428.217 329.927 428.816 331.529 429.415 332.961C430.014 334.367 430.586 335.591 431.133 336.633C431.68 337.674 432.149 338.521 432.54 339.172C432.878 338.052 433.243 336.841 433.633 335.539C434.05 334.237 434.441 333.091 434.805 332.102C435.144 331.242 435.482 330.253 435.821 329.133C436.185 328.013 436.511 326.958 436.797 325.969C437.084 324.953 437.318 324.094 437.5 323.391C437.683 322.687 437.774 322.323 437.774 322.297C437.852 322.062 437.995 321.867 438.204 321.711C438.438 321.555 438.75 321.49 439.141 321.516ZM450.938 341.516C451.485 341.516 452.084 341.268 452.735 340.773C453.386 340.253 454.011 339.562 454.61 338.703C455.235 337.844 455.795 336.841 456.29 335.695C456.784 334.523 457.149 333.286 457.383 331.984C457.201 330.734 457.058 329.419 456.954 328.039C456.849 326.659 456.784 325.187 456.758 323.625C456.472 323.391 456.329 323.104 456.329 322.766C456.146 322.687 455.951 322.622 455.743 322.57C455.56 322.518 455.352 322.492 455.118 322.492C454.779 322.492 454.297 322.57 453.672 322.727C453.047 322.857 452.37 323.091 451.641 323.43C450.912 323.742 450.17 324.159 449.415 324.68C448.685 325.2 448.008 325.838 447.383 326.594C446.784 327.349 446.29 328.221 445.899 329.211C445.508 330.2 445.313 331.32 445.313 332.57C445.313 334.549 445.469 336.125 445.782 337.297C446.12 338.469 446.55 339.367 447.071 339.992C447.618 340.617 448.217 341.034 448.868 341.242C449.545 341.424 450.235 341.516 450.938 341.516ZM459.61 331.984C459.844 333.599 460.118 335.044 460.43 336.32C460.743 337.596 461.029 338.677 461.29 339.562C461.576 340.448 461.81 341.138 461.993 341.633C462.201 342.102 462.305 342.349 462.305 342.375C462.331 342.453 462.344 342.531 462.344 342.609C462.37 342.661 462.383 342.727 462.383 342.805C462.383 343.273 462.175 343.612 461.758 343.82C461.55 343.872 461.394 343.898 461.29 343.898C460.795 343.898 460.469 343.69 460.313 343.273C460.261 343.169 460.014 342.557 459.571 341.437C459.154 340.292 458.711 338.703 458.243 336.672C457.826 337.687 457.331 338.625 456.758 339.484C456.211 340.344 455.612 341.086 454.961 341.711C454.336 342.336 453.672 342.818 452.969 343.156C452.292 343.521 451.615 343.703 450.938 343.703C448.282 343.703 446.316 342.792 445.04 340.969C443.764 339.146 443.125 336.346 443.125 332.57C443.125 331.008 443.36 329.628 443.829 328.43C444.297 327.206 444.896 326.138 445.625 325.227C446.381 324.315 447.214 323.547 448.125 322.922C449.063 322.297 449.974 321.789 450.86 321.398C451.745 321.008 452.566 320.734 453.321 320.578C454.076 320.396 454.675 320.305 455.118 320.305C455.899 320.305 456.576 320.461 457.149 320.773C457.722 321.06 458.191 321.398 458.555 321.789C458.946 322.154 459.232 322.505 459.415 322.844C459.597 323.156 459.688 323.325 459.688 323.352C459.766 323.482 459.805 323.625 459.805 323.781C459.805 324.042 459.688 324.315 459.454 324.602C459.688 325.825 459.805 327.44 459.805 329.445C459.805 329.862 459.779 330.279 459.727 330.695C459.701 331.112 459.662 331.542 459.61 331.984ZM477.618 323.586C478.868 323.924 479.987 324.484 480.977 325.266C481.967 326.021 482.8 326.893 483.477 327.883C484.154 328.846 484.675 329.862 485.04 330.93C485.404 331.971 485.586 332.948 485.586 333.859L485.547 334.445C485.521 335.148 485.469 335.904 485.391 336.711C485.313 337.492 485.079 338.273 484.688 339.055C484.297 339.81 483.672 340.526 482.813 341.203C481.98 341.854 480.808 342.388 479.297 342.805C478.542 343.039 477.852 343.195 477.227 343.273C476.628 343.378 476.042 343.43 475.469 343.43C474.636 343.43 473.803 343.338 472.969 343.156C472.162 342.974 471.172 342.727 470 342.414C468.933 342.154 468.021 341.737 467.266 341.164C466.511 340.565 465.886 339.979 465.391 339.406C464.896 338.807 464.532 338.286 464.297 337.844C464.063 337.375 463.933 337.115 463.907 337.062C463.829 336.958 463.79 336.815 463.79 336.633C463.79 336.19 464.011 335.852 464.454 335.617C464.662 335.565 464.805 335.539 464.883 335.539C465.092 335.539 465.287 335.604 465.469 335.734C465.678 335.838 465.821 335.995 465.899 336.203L466.172 336.711C466.355 337.075 466.641 337.492 467.032 337.961C467.422 338.404 467.917 338.859 468.516 339.328C469.115 339.771 469.831 340.109 470.665 340.344C471.758 340.63 472.657 340.852 473.36 341.008C474.089 341.164 474.792 341.242 475.469 341.242C476.355 341.242 477.435 341.073 478.711 340.734C479.831 340.396 480.704 340.005 481.329 339.562C481.954 339.12 482.409 338.625 482.696 338.078C482.982 337.531 483.152 336.945 483.204 336.32C483.282 335.695 483.334 335.044 483.36 334.367L483.399 333.664C483.399 333.117 483.256 332.44 482.969 331.633C482.709 330.825 482.318 330.031 481.797 329.25C481.277 328.469 480.612 327.753 479.805 327.102C479.024 326.45 478.112 325.995 477.071 325.734C476.368 325.526 475.612 325.383 474.805 325.305C474.024 325.227 473.243 325.148 472.461 325.07C471.55 324.992 470.652 324.901 469.766 324.797C468.907 324.693 468.125 324.51 467.422 324.25C466.719 323.963 466.133 323.586 465.665 323.117C465.222 322.622 464.961 321.958 464.883 321.125C464.883 321.021 464.87 320.93 464.844 320.852C464.844 320.773 464.844 320.695 464.844 320.617C464.844 319.602 465.04 318.742 465.43 318.039C465.847 317.31 466.342 316.698 466.915 316.203C467.514 315.708 468.125 315.305 468.75 314.992C469.402 314.68 469.961 314.419 470.43 314.211C471.029 313.924 471.745 313.729 472.579 313.625C473.438 313.495 474.362 313.43 475.352 313.43C476.237 313.43 477.123 313.482 478.008 313.586C478.92 313.69 479.805 313.846 480.665 314.055C481.237 314.185 481.511 314.615 481.485 315.344C481.433 315.604 481.29 315.812 481.055 315.969C480.821 316.125 480.521 316.19 480.157 316.164C479.402 315.956 478.594 315.812 477.735 315.734C476.902 315.656 476.094 315.617 475.313 315.617C474.48 315.617 473.711 315.669 473.008 315.773C472.331 315.852 471.758 315.995 471.29 316.203C470.743 316.437 470.209 316.698 469.688 316.984C469.167 317.245 468.711 317.557 468.321 317.922C467.93 318.286 467.618 318.716 467.383 319.211C467.175 319.706 467.071 320.292 467.071 320.969C467.123 321.646 467.631 322.102 468.594 322.336C469.584 322.57 470.925 322.753 472.618 322.883C473.451 322.961 474.284 323.052 475.118 323.156C475.977 323.234 476.81 323.378 477.618 323.586ZM500.352 340.812C500.534 340.708 500.743 340.656 500.977 340.656C501.368 340.656 501.667 340.812 501.875 341.125C502.006 341.333 502.071 341.542 502.071 341.75C502.071 342.088 501.902 342.388 501.563 342.648L501.29 342.844C501.081 342.974 500.808 343.104 500.469 343.234C500.131 343.365 499.74 343.482 499.297 343.586C498.881 343.716 498.425 343.781 497.93 343.781C497.305 343.781 496.55 343.586 495.665 343.195C494.779 342.831 493.907 342.206 493.047 341.32C492.214 340.409 491.472 339.224 490.821 337.766C490.17 336.281 489.766 334.458 489.61 332.297C489.584 332.141 489.571 331.997 489.571 331.867C489.571 331.711 489.571 331.555 489.571 331.398C489.571 329.706 489.87 328.182 490.469 326.828C491.094 325.474 491.836 324.328 492.696 323.391C493.555 322.427 494.441 321.685 495.352 321.164C496.29 320.617 497.084 320.318 497.735 320.266C497.865 320.24 497.995 320.227 498.125 320.227C498.282 320.227 498.425 320.227 498.555 320.227C499.31 320.227 499.961 320.305 500.508 320.461C501.081 320.591 501.472 320.708 501.68 320.812C501.967 320.865 502.266 321.073 502.579 321.437C502.891 321.776 503.047 322.44 503.047 323.43C503.047 323.742 502.93 324.003 502.696 324.211C502.487 324.419 502.24 324.523 501.954 324.523C501.641 324.523 501.381 324.419 501.172 324.211C500.964 324.003 500.86 323.742 500.86 323.43C500.86 323.221 500.834 323.013 500.782 322.805C500.625 322.753 500.352 322.674 499.961 322.57C499.571 322.466 499.102 322.414 498.555 322.414C498.451 322.414 498.347 322.414 498.243 322.414C498.165 322.414 498.06 322.427 497.93 322.453C497.514 322.505 496.954 322.74 496.25 323.156C495.573 323.573 494.896 324.172 494.219 324.953C493.568 325.708 492.995 326.633 492.5 327.727C492.006 328.82 491.758 330.057 491.758 331.437C491.758 331.568 491.758 331.685 491.758 331.789C491.758 331.893 491.771 332.01 491.797 332.141C491.902 333.911 492.201 335.396 492.696 336.594C493.191 337.792 493.75 338.768 494.375 339.523C495.027 340.253 495.665 340.786 496.29 341.125C496.941 341.437 497.487 341.594 497.93 341.594C498.243 341.594 498.542 341.555 498.829 341.477C499.115 341.398 499.375 341.32 499.61 341.242C499.844 341.138 500.027 341.034 500.157 340.93L500.352 340.812ZM517.657 320.695C518.23 320.695 518.711 320.747 519.102 320.852C519.493 320.93 519.805 321.034 520.04 321.164C520.3 321.268 520.495 321.385 520.625 321.516C520.782 321.646 520.886 321.75 520.938 321.828C521.068 322.01 521.133 322.206 521.133 322.414C521.133 322.831 520.977 323.13 520.665 323.312C520.508 323.443 520.3 323.508 520.04 323.508C519.727 323.508 519.454 323.391 519.219 323.156C519.167 323.13 519.024 323.078 518.79 323C518.581 322.922 518.204 322.883 517.657 322.883C517.344 322.883 516.784 323.078 515.977 323.469C515.17 323.859 514.349 324.497 513.516 325.383C512.683 326.268 511.928 327.427 511.25 328.859C510.599 330.266 510.274 331.997 510.274 334.055C510.352 334.393 510.43 334.745 510.508 335.109C510.586 335.448 510.678 335.799 510.782 336.164C511.068 337.336 511.355 338.56 511.641 339.836C511.928 341.112 512.071 342.414 512.071 343.742C512.071 344.055 511.954 344.315 511.719 344.523C511.511 344.732 511.264 344.836 510.977 344.836C510.665 344.836 510.404 344.732 510.196 344.523C509.987 344.315 509.883 344.055 509.883 343.742C509.883 342.544 509.753 341.346 509.493 340.148C509.232 338.95 508.959 337.805 508.672 336.711C508.412 335.747 508.178 334.823 507.969 333.937C507.787 333.026 507.696 332.193 507.696 331.437C507.696 330.682 507.644 329.732 507.54 328.586C507.435 327.44 507.305 326.333 507.149 325.266C507.019 324.172 506.902 323.234 506.797 322.453C506.693 321.646 506.641 321.216 506.641 321.164C506.641 320.904 506.732 320.669 506.915 320.461C507.097 320.253 507.37 320.122 507.735 320.07C507.995 320.07 508.217 320.161 508.399 320.344C508.607 320.5 508.737 320.721 508.79 321.008C508.79 321.06 508.816 321.281 508.868 321.672C508.946 322.036 509.024 322.505 509.102 323.078C509.18 323.651 509.258 324.302 509.336 325.031C509.441 325.76 509.532 326.49 509.61 327.219C510.131 326.151 510.743 325.213 511.446 324.406C512.175 323.573 512.917 322.883 513.672 322.336C514.428 321.789 515.157 321.385 515.86 321.125C516.563 320.838 517.162 320.695 517.657 320.695ZM525.469 319.641C525.027 319.641 524.649 319.497 524.336 319.211C524.05 318.898 523.907 318.521 523.907 318.078C523.907 317.635 524.05 317.271 524.336 316.984C524.649 316.698 525.027 316.555 525.469 316.555C525.886 316.555 526.237 316.698 526.524 316.984C526.836 317.271 526.993 317.635 526.993 318.078C526.993 318.521 526.836 318.898 526.524 319.211C526.237 319.497 525.886 319.641 525.469 319.641ZM525.977 321.281C526.264 321.281 526.498 321.372 526.68 321.555C526.889 321.711 527.019 321.919 527.071 322.18C527.071 322.258 527.123 322.661 527.227 323.391C527.357 324.12 527.5 325.005 527.657 326.047C527.813 327.088 527.956 328.208 528.086 329.406C528.243 330.578 528.347 331.633 528.399 332.57C528.451 333.482 528.542 334.549 528.672 335.773C528.803 336.997 528.946 338.169 529.102 339.289C529.258 340.383 529.389 341.333 529.493 342.141C529.623 342.922 529.688 343.338 529.688 343.391C529.688 343.677 529.597 343.911 529.415 344.094C529.232 344.302 528.959 344.432 528.594 344.484C528.308 344.484 528.06 344.393 527.852 344.211C527.67 344.055 527.553 343.833 527.5 343.547C527.5 343.469 527.435 343.039 527.305 342.258C527.201 341.477 527.071 340.539 526.915 339.445C526.758 338.325 526.615 337.154 526.485 335.93C526.355 334.706 526.264 333.625 526.211 332.687C526.159 331.776 526.055 330.734 525.899 329.562C525.769 328.391 525.625 327.284 525.469 326.242C525.339 325.2 525.209 324.315 525.079 323.586C524.974 322.831 524.922 322.427 524.922 322.375C524.922 322.115 525 321.88 525.157 321.672C525.313 321.463 525.534 321.333 525.821 321.281H525.977ZM549.219 334.055C549.349 333.716 549.428 333.378 549.454 333.039C549.506 332.7 549.532 332.362 549.532 332.023C549.532 331.19 549.389 330.383 549.102 329.602C548.842 328.82 548.49 328.104 548.047 327.453C547.605 326.776 547.11 326.177 546.563 325.656C546.016 325.109 545.469 324.667 544.922 324.328C544.271 323.963 543.49 323.781 542.579 323.781C541.771 323.781 540.925 323.937 540.04 324.25C539.154 324.562 538.36 325.057 537.657 325.734C537.396 325.943 537.149 326.047 536.915 326.047C536.758 326.047 536.602 326.008 536.446 325.93C536.576 326.737 536.719 327.674 536.875 328.742C537.032 329.784 537.188 330.891 537.344 332.062C537.5 333.234 537.657 334.432 537.813 335.656C537.969 336.88 538.099 338.052 538.204 339.172C538.568 339.328 538.79 339.628 538.868 340.07C538.868 340.096 538.894 340.187 538.946 340.344C539.024 340.5 539.193 340.656 539.454 340.812C539.87 341.047 540.326 341.164 540.821 341.164C541.133 341.164 541.433 341.125 541.719 341.047C542.032 340.969 542.318 340.891 542.579 340.812C543.282 340.552 543.972 340.187 544.649 339.719C545.352 339.224 546.003 338.677 546.602 338.078C547.201 337.453 547.722 336.802 548.165 336.125C548.633 335.422 548.985 334.732 549.219 334.055ZM546.055 322.492C546.81 322.961 547.527 323.534 548.204 324.211C548.907 324.888 549.519 325.643 550.04 326.477C550.56 327.31 550.964 328.195 551.25 329.133C551.563 330.07 551.719 331.034 551.719 332.023C551.719 332.987 551.576 333.885 551.29 334.719C551.003 335.552 550.586 336.385 550.04 337.219C549.519 338.052 548.907 338.833 548.204 339.562C547.5 340.292 546.719 340.943 545.86 341.516C545.027 342.088 544.18 342.531 543.321 342.844C542.461 343.182 541.628 343.352 540.821 343.352C539.987 343.352 539.193 343.143 538.438 342.727V343.664C538.438 345.096 538.477 346.62 538.555 348.234C538.659 349.849 538.764 351.346 538.868 352.727C538.972 354.107 539.063 355.253 539.141 356.164C539.245 357.102 539.297 357.596 539.297 357.648C539.297 357.935 539.206 358.182 539.024 358.391C538.842 358.599 538.568 358.716 538.204 358.742C537.917 358.742 537.67 358.651 537.461 358.469C537.279 358.286 537.162 358.052 537.11 357.766C537.11 357.74 537.058 357.258 536.954 356.32C536.875 355.409 536.784 354.25 536.68 352.844C536.576 351.463 536.472 349.953 536.368 348.312C536.29 346.672 536.25 345.122 536.25 343.664C536.25 342.727 536.185 341.581 536.055 340.227C535.951 338.872 535.808 337.466 535.625 336.008C535.469 334.523 535.287 333.052 535.079 331.594C534.87 330.135 534.675 328.82 534.493 327.648C534.31 326.477 534.154 325.526 534.024 324.797C533.92 324.042 533.868 323.638 533.868 323.586C533.868 322.987 534.232 322.622 534.961 322.492C535.248 322.492 535.482 322.57 535.665 322.727C535.873 322.883 536.003 323.104 536.055 323.391L536.172 324.133C537.11 323.247 538.139 322.609 539.258 322.219C540.378 321.802 541.472 321.594 542.54 321.594C543.92 321.594 545.092 321.893 546.055 322.492ZM568.399 322.609C568.633 322.661 568.829 322.805 568.985 323.039C569.141 323.273 569.206 323.573 569.18 323.937C569.05 324.484 568.607 324.758 567.852 324.758C567.852 324.732 567.37 324.641 566.407 324.484C565.443 324.328 564.154 324.237 562.54 324.211C562.618 325.695 562.657 326.919 562.657 327.883C562.657 328.378 562.683 329.081 562.735 329.992C562.813 330.904 562.891 331.906 562.969 333C563.073 334.068 563.178 335.174 563.282 336.32C563.386 337.44 563.49 338.469 563.594 339.406C563.698 340.318 563.777 341.086 563.829 341.711C563.907 342.31 563.946 342.622 563.946 342.648C563.946 342.935 563.842 343.169 563.633 343.352C563.451 343.56 563.191 343.69 562.852 343.742C562.566 343.742 562.318 343.651 562.11 343.469C561.902 343.286 561.784 343.052 561.758 342.766C561.758 342.687 561.719 342.336 561.641 341.711C561.563 341.086 561.472 340.318 561.368 339.406C561.29 338.469 561.198 337.44 561.094 336.32C560.99 335.2 560.886 334.107 560.782 333.039C560.704 331.945 560.625 330.943 560.547 330.031C560.495 329.12 560.469 328.404 560.469 327.883C560.469 326.893 560.43 325.695 560.352 324.289C559.675 324.341 559.011 324.406 558.36 324.484C557.709 324.562 557.123 324.641 556.602 324.719C556.107 324.771 555.691 324.823 555.352 324.875C555.04 324.927 554.857 324.953 554.805 324.953C554.545 324.953 554.31 324.862 554.102 324.68C553.894 324.497 553.764 324.224 553.711 323.859C553.711 323.599 553.79 323.378 553.946 323.195C554.128 322.987 554.362 322.857 554.649 322.805C554.675 322.805 554.844 322.779 555.157 322.727C555.495 322.648 555.912 322.583 556.407 322.531C556.928 322.453 557.514 322.388 558.165 322.336C558.816 322.258 559.493 322.193 560.196 322.141C560.144 321.411 560.079 320.695 560 319.992C559.948 319.263 559.883 318.573 559.805 317.922C559.753 317.245 559.688 316.62 559.61 316.047C559.532 315.474 559.454 314.979 559.375 314.562C559.375 314.302 559.467 314.068 559.649 313.859C559.831 313.651 560.105 313.521 560.469 313.469C560.73 313.469 560.951 313.547 561.133 313.703C561.342 313.859 561.472 314.081 561.524 314.367C561.706 315.174 561.875 316.281 562.032 317.687C562.188 319.094 562.331 320.539 562.461 322.023C563.347 322.023 564.141 322.049 564.844 322.102C565.573 322.154 566.185 322.219 566.68 322.297C567.201 322.375 567.605 322.453 567.891 322.531C568.204 322.583 568.373 322.609 568.399 322.609ZM573.243 338.273C573.816 338.352 574.102 338.781 574.102 339.562C573.972 340.135 573.842 340.943 573.711 341.984C573.607 343.026 573.503 344.224 573.399 345.578C573.373 345.865 573.243 346.099 573.008 346.281C572.8 346.49 572.54 346.581 572.227 346.555C571.941 346.555 571.693 346.437 571.485 346.203C571.303 345.995 571.211 345.721 571.211 345.383C571.237 344.992 571.277 344.523 571.329 343.977C571.381 343.43 571.433 342.87 571.485 342.297C571.563 341.698 571.641 341.125 571.719 340.578C571.797 340.031 571.875 339.549 571.954 339.133C572.084 338.534 572.514 338.247 573.243 338.273ZM293.672 389.586C294.219 389.612 294.779 389.625 295.352 389.625C295.925 389.625 296.485 389.625 297.032 389.625C298.099 389.625 299.089 389.599 300.001 389.547C300.938 389.495 301.732 389.378 302.383 389.195C303.295 388.935 303.998 388.635 304.493 388.297C305.014 387.932 305.404 387.542 305.665 387.125C305.925 386.708 306.094 386.253 306.172 385.758C306.277 385.263 306.355 384.755 306.407 384.234L306.485 383.453C306.485 383.01 306.394 382.503 306.211 381.93C306.055 381.331 305.795 380.745 305.43 380.172C305.066 379.599 304.61 379.078 304.063 378.609C303.516 378.141 302.878 377.802 302.149 377.594C300.743 377.229 299.532 376.969 298.516 376.812C297.501 376.656 296.576 376.578 295.743 376.578C294.831 376.578 293.985 376.656 293.204 376.812C292.448 376.969 291.615 377.151 290.704 377.359C290.808 378.245 290.899 379.221 290.977 380.289C291.081 381.331 291.159 382.359 291.211 383.375C291.29 384.391 291.342 385.354 291.368 386.266C291.42 387.177 291.446 387.919 291.446 388.492C291.446 388.622 291.446 388.779 291.446 388.961C291.446 389.143 291.459 389.338 291.485 389.547C291.849 389.547 292.214 389.547 292.579 389.547C292.943 389.547 293.308 389.56 293.672 389.586ZM306.993 397.437C308.347 399.078 309.349 400.445 310.001 401.539C310.652 402.633 310.99 403.206 311.016 403.258C311.094 403.414 311.133 403.583 311.133 403.766C311.133 403.974 311.081 404.156 310.977 404.312C310.899 404.495 310.756 404.638 310.547 404.742C310.391 404.82 310.222 404.859 310.04 404.859C309.597 404.859 309.284 404.664 309.102 404.273C309.076 404.273 308.751 403.753 308.126 402.711C307.527 401.669 306.589 400.367 305.313 398.805C304.662 398.023 303.972 397.242 303.243 396.461C302.514 395.68 301.836 394.977 301.211 394.352C300.586 393.727 300.066 393.206 299.649 392.789L298.985 392.203C298.881 392.099 298.79 391.969 298.711 391.812H297.11C296.511 391.812 295.925 391.812 295.352 391.812C294.779 391.812 294.193 391.799 293.594 391.773C293.256 391.747 292.917 391.734 292.579 391.734C292.266 391.734 291.954 391.734 291.641 391.734C291.719 392.88 291.81 394.117 291.915 395.445C292.045 396.747 292.162 397.971 292.266 399.117C292.396 400.263 292.501 401.227 292.579 402.008C292.683 402.789 292.735 403.206 292.735 403.258C292.735 403.544 292.631 403.792 292.422 404C292.24 404.208 291.98 404.325 291.641 404.352C291.355 404.352 291.107 404.26 290.899 404.078C290.717 403.896 290.599 403.661 290.547 403.375C290.547 403.297 290.508 402.945 290.43 402.32C290.378 401.695 290.3 400.927 290.196 400.016C290.092 399.078 289.987 398.049 289.883 396.93C289.779 395.81 289.675 394.716 289.571 393.648C289.493 392.555 289.415 391.552 289.336 390.641C289.284 389.729 289.258 389.013 289.258 388.492C289.258 387.841 289.232 387.047 289.18 386.109C289.154 385.172 289.102 384.182 289.024 383.141C288.946 382.099 288.855 381.07 288.751 380.055C288.672 379.013 288.581 378.075 288.477 377.242C288.425 377.19 288.386 377.125 288.36 377.047C288.334 376.943 288.295 376.786 288.243 376.578C288.243 376.474 288.269 376.344 288.321 376.187C288.295 376.057 288.269 375.914 288.243 375.758C288.243 375.602 288.217 375.419 288.165 375.211C288.165 374.95 288.256 374.716 288.438 374.508C288.62 374.299 288.894 374.169 289.258 374.117C289.519 374.117 289.753 374.208 289.961 374.391C290.17 374.573 290.313 374.846 290.391 375.211C291.303 374.977 292.175 374.781 293.008 374.625C293.842 374.469 294.753 374.391 295.743 374.391C296.654 374.391 297.657 374.482 298.751 374.664C299.844 374.82 301.159 375.094 302.696 375.484C303.659 375.745 304.519 376.174 305.274 376.773C306.029 377.372 306.654 378.049 307.149 378.805C307.644 379.56 308.021 380.354 308.282 381.187C308.542 381.995 308.672 382.75 308.672 383.453C308.672 383.687 308.659 383.87 308.633 384L308.594 384.469C308.542 385.016 308.451 385.615 308.321 386.266C308.191 386.891 307.943 387.516 307.579 388.141C307.214 388.766 306.667 389.365 305.938 389.937C305.209 390.484 304.219 390.927 302.969 391.266C302.761 391.344 302.527 391.409 302.266 391.461C302.032 391.487 301.771 391.526 301.485 391.578C301.823 391.891 302.214 392.268 302.657 392.711C303.099 393.154 303.555 393.635 304.024 394.156C304.519 394.651 305.014 395.185 305.508 395.758C306.029 396.305 306.524 396.865 306.993 397.437ZM322.618 384.312C322.383 384.312 321.915 384.443 321.211 384.703C320.534 384.937 319.818 385.38 319.063 386.031C318.334 386.656 317.644 387.542 316.993 388.687C316.368 389.807 315.977 391.253 315.821 393.023C316.264 392.919 316.758 392.802 317.305 392.672C317.878 392.542 318.438 392.424 318.985 392.32C319.558 392.19 320.092 392.086 320.586 392.008C321.107 391.93 321.524 391.891 321.836 391.891C322.201 391.891 322.657 391.812 323.204 391.656C323.777 391.474 324.336 391.292 324.883 391.109C325.326 390.953 325.743 390.823 326.133 390.719C326.524 390.588 326.902 390.471 327.266 390.367C327.162 389.325 326.941 388.427 326.602 387.672C326.264 386.917 325.873 386.292 325.43 385.797C324.987 385.302 324.519 384.937 324.024 384.703C323.529 384.443 323.06 384.312 322.618 384.312ZM330.001 402.203C330.287 402.203 330.521 402.294 330.704 402.477C330.912 402.659 331.042 402.932 331.094 403.297C331.094 403.583 331.003 403.818 330.821 404C330.665 404.208 330.443 404.338 330.157 404.391C330.105 404.391 329.87 404.417 329.454 404.469C329.037 404.547 328.542 404.625 327.969 404.703C327.396 404.781 326.797 404.846 326.172 404.898C325.547 404.95 325.014 404.977 324.571 404.977C321.107 404.977 318.451 404.065 316.602 402.242C314.753 400.393 313.737 397.802 313.555 394.469C313.503 392.776 313.646 391.292 313.985 390.016C314.349 388.74 314.818 387.646 315.391 386.734C315.99 385.823 316.654 385.068 317.383 384.469C318.112 383.87 318.816 383.401 319.493 383.062C320.196 382.724 320.821 382.49 321.368 382.359C321.941 382.203 322.357 382.125 322.618 382.125C323.295 382.125 324.011 382.294 324.766 382.633C325.547 382.971 326.264 383.492 326.915 384.195C327.592 384.872 328.165 385.745 328.633 386.812C329.102 387.88 329.389 389.143 329.493 390.602C329.649 390.81 329.727 391.044 329.727 391.305C329.727 391.565 329.649 391.786 329.493 391.969C329.362 392.49 329.011 392.75 328.438 392.75C328.178 392.75 327.956 392.672 327.774 392.516C327.071 392.672 326.342 392.893 325.586 393.18C324.909 393.414 324.245 393.622 323.594 393.805C322.943 393.987 322.357 394.078 321.836 394.078C321.55 394.078 321.159 394.117 320.665 394.195C320.196 394.273 319.675 394.378 319.102 394.508C318.529 394.638 317.943 394.781 317.344 394.937C316.771 395.068 316.251 395.198 315.782 395.328C315.886 396.943 316.251 398.245 316.876 399.234C317.527 400.198 318.282 400.953 319.141 401.5C320.027 402.021 320.951 402.372 321.915 402.555C322.904 402.711 323.79 402.789 324.571 402.789C324.987 402.789 325.495 402.763 326.094 402.711C326.693 402.659 327.266 402.594 327.813 402.516C328.36 402.437 328.842 402.372 329.258 402.32L329.844 402.242L330.001 402.203ZM341.094 402.516C341.641 402.516 342.24 402.268 342.891 401.773C343.542 401.253 344.167 400.562 344.766 399.703C345.391 398.844 345.951 397.841 346.446 396.695C346.941 395.523 347.305 394.286 347.54 392.984C347.357 391.734 347.214 390.419 347.11 389.039C347.006 387.659 346.941 386.187 346.915 384.625C346.628 384.391 346.485 384.104 346.485 383.766C346.303 383.687 346.107 383.622 345.899 383.57C345.717 383.518 345.508 383.492 345.274 383.492C344.935 383.492 344.454 383.57 343.829 383.727C343.204 383.857 342.527 384.091 341.797 384.43C341.068 384.742 340.326 385.159 339.571 385.68C338.842 386.2 338.165 386.838 337.54 387.594C336.941 388.349 336.446 389.221 336.055 390.211C335.665 391.2 335.469 392.32 335.469 393.57C335.469 395.549 335.626 397.125 335.938 398.297C336.277 399.469 336.706 400.367 337.227 400.992C337.774 401.617 338.373 402.034 339.024 402.242C339.701 402.424 340.391 402.516 341.094 402.516ZM349.766 392.984C350.001 394.599 350.274 396.044 350.586 397.32C350.899 398.596 351.185 399.677 351.446 400.562C351.732 401.448 351.967 402.138 352.149 402.633C352.357 403.102 352.461 403.349 352.461 403.375C352.487 403.453 352.501 403.531 352.501 403.609C352.527 403.661 352.54 403.727 352.54 403.805C352.54 404.273 352.331 404.612 351.915 404.82C351.706 404.872 351.55 404.898 351.446 404.898C350.951 404.898 350.626 404.69 350.469 404.273C350.417 404.169 350.17 403.557 349.727 402.437C349.31 401.292 348.868 399.703 348.399 397.672C347.982 398.687 347.487 399.625 346.915 400.484C346.368 401.344 345.769 402.086 345.118 402.711C344.493 403.336 343.829 403.818 343.126 404.156C342.448 404.521 341.771 404.703 341.094 404.703C338.438 404.703 336.472 403.792 335.196 401.969C333.92 400.146 333.282 397.346 333.282 393.57C333.282 392.008 333.516 390.628 333.985 389.43C334.454 388.206 335.053 387.138 335.782 386.227C336.537 385.315 337.37 384.547 338.282 383.922C339.219 383.297 340.131 382.789 341.016 382.398C341.902 382.008 342.722 381.734 343.477 381.578C344.232 381.396 344.831 381.305 345.274 381.305C346.055 381.305 346.732 381.461 347.305 381.773C347.878 382.06 348.347 382.398 348.711 382.789C349.102 383.154 349.389 383.505 349.571 383.844C349.753 384.156 349.844 384.325 349.844 384.352C349.922 384.482 349.961 384.625 349.961 384.781C349.961 385.042 349.844 385.315 349.61 385.602C349.844 386.825 349.961 388.44 349.961 390.445C349.961 390.862 349.935 391.279 349.883 391.695C349.857 392.112 349.818 392.542 349.766 392.984ZM366.133 401.812C366.316 401.708 366.524 401.656 366.758 401.656C367.149 401.656 367.448 401.812 367.657 402.125C367.787 402.333 367.852 402.542 367.852 402.75C367.852 403.088 367.683 403.388 367.344 403.648L367.071 403.844C366.862 403.974 366.589 404.104 366.251 404.234C365.912 404.365 365.521 404.482 365.079 404.586C364.662 404.716 364.206 404.781 363.711 404.781C363.086 404.781 362.331 404.586 361.446 404.195C360.56 403.831 359.688 403.206 358.829 402.32C357.995 401.409 357.253 400.224 356.602 398.766C355.951 397.281 355.547 395.458 355.391 393.297C355.365 393.141 355.352 392.997 355.352 392.867C355.352 392.711 355.352 392.555 355.352 392.398C355.352 390.706 355.652 389.182 356.251 387.828C356.876 386.474 357.618 385.328 358.477 384.391C359.336 383.427 360.222 382.685 361.133 382.164C362.071 381.617 362.865 381.318 363.516 381.266C363.646 381.24 363.777 381.227 363.907 381.227C364.063 381.227 364.206 381.227 364.336 381.227C365.092 381.227 365.743 381.305 366.29 381.461C366.862 381.591 367.253 381.708 367.461 381.812C367.748 381.865 368.047 382.073 368.36 382.437C368.672 382.776 368.829 383.44 368.829 384.43C368.829 384.742 368.711 385.003 368.477 385.211C368.269 385.419 368.021 385.523 367.735 385.523C367.422 385.523 367.162 385.419 366.954 385.211C366.745 385.003 366.641 384.742 366.641 384.43C366.641 384.221 366.615 384.013 366.563 383.805C366.407 383.753 366.133 383.674 365.743 383.57C365.352 383.466 364.883 383.414 364.336 383.414C364.232 383.414 364.128 383.414 364.024 383.414C363.946 383.414 363.842 383.427 363.711 383.453C363.295 383.505 362.735 383.74 362.032 384.156C361.355 384.573 360.678 385.172 360.001 385.953C359.349 386.708 358.777 387.633 358.282 388.727C357.787 389.82 357.54 391.057 357.54 392.437C357.54 392.568 357.54 392.685 357.54 392.789C357.54 392.893 357.553 393.01 357.579 393.141C357.683 394.911 357.982 396.396 358.477 397.594C358.972 398.792 359.532 399.768 360.157 400.523C360.808 401.253 361.446 401.786 362.071 402.125C362.722 402.437 363.269 402.594 363.711 402.594C364.024 402.594 364.323 402.555 364.61 402.477C364.896 402.398 365.157 402.32 365.391 402.242C365.626 402.138 365.808 402.034 365.938 401.93L366.133 401.812ZM385.079 383.609C385.313 383.661 385.508 383.805 385.665 384.039C385.821 384.273 385.886 384.573 385.86 384.937C385.73 385.484 385.287 385.758 384.532 385.758C384.532 385.732 384.05 385.641 383.086 385.484C382.123 385.328 380.834 385.237 379.219 385.211C379.297 386.695 379.336 387.919 379.336 388.883C379.336 389.378 379.362 390.081 379.415 390.992C379.493 391.904 379.571 392.906 379.649 394C379.753 395.068 379.857 396.174 379.961 397.32C380.066 398.44 380.17 399.469 380.274 400.406C380.378 401.318 380.456 402.086 380.508 402.711C380.586 403.31 380.626 403.622 380.626 403.648C380.626 403.935 380.521 404.169 380.313 404.352C380.131 404.56 379.87 404.69 379.532 404.742C379.245 404.742 378.998 404.651 378.79 404.469C378.581 404.286 378.464 404.052 378.438 403.766C378.438 403.687 378.399 403.336 378.321 402.711C378.243 402.086 378.152 401.318 378.047 400.406C377.969 399.469 377.878 398.44 377.774 397.32C377.67 396.2 377.566 395.107 377.461 394.039C377.383 392.945 377.305 391.943 377.227 391.031C377.175 390.12 377.149 389.404 377.149 388.883C377.149 387.893 377.11 386.695 377.032 385.289C376.355 385.341 375.691 385.406 375.04 385.484C374.389 385.562 373.803 385.641 373.282 385.719C372.787 385.771 372.37 385.823 372.032 385.875C371.719 385.927 371.537 385.953 371.485 385.953C371.224 385.953 370.99 385.862 370.782 385.68C370.573 385.497 370.443 385.224 370.391 384.859C370.391 384.599 370.469 384.378 370.626 384.195C370.808 383.987 371.042 383.857 371.329 383.805C371.355 383.805 371.524 383.779 371.836 383.727C372.175 383.648 372.592 383.583 373.086 383.531C373.607 383.453 374.193 383.388 374.844 383.336C375.495 383.258 376.172 383.193 376.876 383.141C376.823 382.411 376.758 381.695 376.68 380.992C376.628 380.263 376.563 379.573 376.485 378.922C376.433 378.245 376.368 377.62 376.29 377.047C376.211 376.474 376.133 375.979 376.055 375.562C376.055 375.302 376.146 375.068 376.329 374.859C376.511 374.651 376.784 374.521 377.149 374.469C377.409 374.469 377.631 374.547 377.813 374.703C378.021 374.859 378.152 375.081 378.204 375.367C378.386 376.174 378.555 377.281 378.711 378.687C378.868 380.094 379.011 381.539 379.141 383.023C380.027 383.023 380.821 383.049 381.524 383.102C382.253 383.154 382.865 383.219 383.36 383.297C383.881 383.375 384.284 383.453 384.571 383.531C384.883 383.583 385.053 383.609 385.079 383.609ZM389.922 399.273C390.495 399.352 390.782 399.781 390.782 400.562C390.652 401.135 390.521 401.943 390.391 402.984C390.287 404.026 390.183 405.224 390.079 406.578C390.053 406.865 389.922 407.099 389.688 407.281C389.48 407.49 389.219 407.581 388.907 407.555C388.62 407.555 388.373 407.437 388.165 407.203C387.982 406.995 387.891 406.721 387.891 406.383C387.917 405.992 387.956 405.523 388.008 404.977C388.06 404.43 388.112 403.87 388.165 403.297C388.243 402.698 388.321 402.125 388.399 401.578C388.477 401.031 388.555 400.549 388.633 400.133C388.764 399.534 389.193 399.247 389.922 399.273ZM427.11 389.156C427.683 389.156 428.034 389.456 428.165 390.055C428.321 390.758 428.464 391.721 428.594 392.945C428.724 394.169 428.842 395.445 428.946 396.773C429.05 398.075 429.128 399.352 429.18 400.602C429.258 401.825 429.297 402.815 429.297 403.57C429.297 403.857 429.18 404.104 428.946 404.312C428.737 404.547 428.49 404.664 428.204 404.664C427.891 404.664 427.631 404.547 427.422 404.312C427.214 404.104 427.11 403.857 427.11 403.57C427.11 403.284 427.097 402.971 427.071 402.633C427.071 402.268 427.058 401.891 427.032 401.5C426.745 401.734 426.368 402.008 425.899 402.32C425.43 402.607 424.883 402.893 424.258 403.18C423.633 403.44 422.93 403.661 422.149 403.844C421.368 404.026 420.534 404.117 419.649 404.117C418.711 404.117 417.709 404 416.641 403.766C415.573 403.531 414.506 403.167 413.438 402.672C412.396 402.151 411.394 401.5 410.43 400.719C409.493 399.937 408.646 398.987 407.891 397.867C407.162 396.747 406.576 395.458 406.133 394C405.717 392.516 405.508 390.849 405.508 389C405.508 388.141 405.534 387.398 405.586 386.773C405.639 386.122 405.717 385.549 405.821 385.055C405.951 384.534 406.107 384.065 406.29 383.648C406.472 383.232 406.68 382.828 406.915 382.437C406.941 382.385 407.136 382.06 407.501 381.461C407.865 380.862 408.321 380.198 408.868 379.469C409.441 378.713 410.066 377.984 410.743 377.281C411.446 376.552 412.136 376.031 412.813 375.719C413.568 375.38 414.336 375.146 415.118 375.016C415.925 374.859 416.68 374.781 417.383 374.781C418.112 374.781 418.764 374.846 419.336 374.977C419.597 375.029 419.948 375.133 420.391 375.289C420.834 375.419 421.277 375.575 421.719 375.758C422.162 375.94 422.579 376.135 422.969 376.344C423.36 376.552 423.633 376.747 423.79 376.93C423.946 377.138 424.024 377.372 424.024 377.633C424.024 377.997 423.894 378.271 423.633 378.453C423.451 378.635 423.217 378.727 422.93 378.727C422.644 378.727 422.383 378.609 422.149 378.375C422.071 378.323 421.902 378.245 421.641 378.141C421.407 378.01 421.133 377.88 420.821 377.75C420.508 377.62 420.17 377.503 419.805 377.398C419.467 377.268 419.141 377.164 418.829 377.086C418.62 377.034 418.399 376.995 418.165 376.969C417.93 376.943 417.67 376.93 417.383 376.93C416.81 376.93 416.198 376.995 415.547 377.125C414.922 377.229 414.31 377.424 413.711 377.711C413.347 377.867 412.943 378.167 412.501 378.609C412.058 379.052 411.602 379.56 411.133 380.133C410.691 380.68 410.261 381.266 409.844 381.891C409.454 382.49 409.115 383.036 408.829 383.531C408.62 383.844 408.451 384.169 408.321 384.508C408.191 384.846 408.073 385.224 407.969 385.641C407.865 386.057 407.787 386.539 407.735 387.086C407.709 387.633 407.696 388.271 407.696 389C407.696 390.771 407.917 392.32 408.36 393.648C408.803 394.95 409.362 396.083 410.04 397.047C410.743 398.01 411.537 398.805 412.422 399.43C413.308 400.055 414.193 400.562 415.079 400.953C415.964 401.318 416.81 401.578 417.618 401.734C418.425 401.865 419.102 401.93 419.649 401.93C420.639 401.93 421.524 401.799 422.305 401.539C423.112 401.279 423.803 400.992 424.376 400.68C424.948 400.367 425.391 400.068 425.704 399.781L426.133 399.391C426.342 399.182 426.602 399.078 426.915 399.078C426.836 397.75 426.732 396.409 426.602 395.055C426.472 393.674 426.342 392.516 426.211 391.578C425.222 391.63 424.258 391.695 423.321 391.773C422.383 391.825 421.537 391.891 420.782 391.969C420.053 392.047 419.441 392.112 418.946 392.164C418.477 392.216 418.23 392.242 418.204 392.242C417.917 392.242 417.67 392.151 417.461 391.969C417.279 391.786 417.162 391.513 417.11 391.148C417.11 390.862 417.188 390.628 417.344 390.445C417.527 390.237 417.761 390.107 418.047 390.055C418.073 390.055 418.321 390.029 418.79 389.977C419.284 389.924 419.922 389.859 420.704 389.781C421.485 389.703 422.37 389.638 423.36 389.586C424.349 389.508 425.378 389.443 426.446 389.391C426.524 389.312 426.667 389.247 426.876 389.195L427.11 389.156ZM433.829 380.641C433.386 380.641 433.008 380.497 432.696 380.211C432.409 379.898 432.266 379.521 432.266 379.078C432.266 378.635 432.409 378.271 432.696 377.984C433.008 377.698 433.386 377.555 433.829 377.555C434.245 377.555 434.597 377.698 434.883 377.984C435.196 378.271 435.352 378.635 435.352 379.078C435.352 379.521 435.196 379.898 434.883 380.211C434.597 380.497 434.245 380.641 433.829 380.641ZM434.336 382.281C434.623 382.281 434.857 382.372 435.04 382.555C435.248 382.711 435.378 382.919 435.43 383.18C435.43 383.258 435.482 383.661 435.586 384.391C435.717 385.12 435.86 386.005 436.016 387.047C436.172 388.088 436.316 389.208 436.446 390.406C436.602 391.578 436.706 392.633 436.758 393.57C436.81 394.482 436.902 395.549 437.032 396.773C437.162 397.997 437.305 399.169 437.461 400.289C437.618 401.383 437.748 402.333 437.852 403.141C437.982 403.922 438.047 404.338 438.047 404.391C438.047 404.677 437.956 404.911 437.774 405.094C437.592 405.302 437.318 405.432 436.954 405.484C436.667 405.484 436.42 405.393 436.211 405.211C436.029 405.055 435.912 404.833 435.86 404.547C435.86 404.469 435.795 404.039 435.665 403.258C435.56 402.477 435.43 401.539 435.274 400.445C435.118 399.325 434.974 398.154 434.844 396.93C434.714 395.706 434.623 394.625 434.571 393.687C434.519 392.776 434.415 391.734 434.258 390.562C434.128 389.391 433.985 388.284 433.829 387.242C433.698 386.2 433.568 385.315 433.438 384.586C433.334 383.831 433.282 383.427 433.282 383.375C433.282 383.115 433.36 382.88 433.516 382.672C433.672 382.463 433.894 382.333 434.18 382.281H434.336ZM455.313 383.609C455.547 383.661 455.743 383.805 455.899 384.039C456.055 384.273 456.12 384.573 456.094 384.937C455.964 385.484 455.521 385.758 454.766 385.758C454.766 385.732 454.284 385.641 453.321 385.484C452.357 385.328 451.068 385.237 449.454 385.211C449.532 386.695 449.571 387.919 449.571 388.883C449.571 389.378 449.597 390.081 449.649 390.992C449.727 391.904 449.805 392.906 449.883 394C449.987 395.068 450.092 396.174 450.196 397.32C450.3 398.44 450.404 399.469 450.508 400.406C450.612 401.318 450.691 402.086 450.743 402.711C450.821 403.31 450.86 403.622 450.86 403.648C450.86 403.935 450.756 404.169 450.547 404.352C450.365 404.56 450.105 404.69 449.766 404.742C449.48 404.742 449.232 404.651 449.024 404.469C448.816 404.286 448.698 404.052 448.672 403.766C448.672 403.687 448.633 403.336 448.555 402.711C448.477 402.086 448.386 401.318 448.282 400.406C448.204 399.469 448.112 398.44 448.008 397.32C447.904 396.2 447.8 395.107 447.696 394.039C447.618 392.945 447.54 391.943 447.461 391.031C447.409 390.12 447.383 389.404 447.383 388.883C447.383 387.893 447.344 386.695 447.266 385.289C446.589 385.341 445.925 385.406 445.274 385.484C444.623 385.562 444.037 385.641 443.516 385.719C443.021 385.771 442.605 385.823 442.266 385.875C441.954 385.927 441.771 385.953 441.719 385.953C441.459 385.953 441.224 385.862 441.016 385.68C440.808 385.497 440.678 385.224 440.625 384.859C440.625 384.599 440.704 384.378 440.86 384.195C441.042 383.987 441.277 383.857 441.563 383.805C441.589 383.805 441.758 383.779 442.071 383.727C442.409 383.648 442.826 383.583 443.321 383.531C443.842 383.453 444.428 383.388 445.079 383.336C445.73 383.258 446.407 383.193 447.11 383.141C447.058 382.411 446.993 381.695 446.915 380.992C446.862 380.263 446.797 379.573 446.719 378.922C446.667 378.245 446.602 377.62 446.524 377.047C446.446 376.474 446.368 375.979 446.29 375.562C446.29 375.302 446.381 375.068 446.563 374.859C446.745 374.651 447.019 374.521 447.383 374.469C447.644 374.469 447.865 374.547 448.047 374.703C448.256 374.859 448.386 375.081 448.438 375.367C448.62 376.174 448.79 377.281 448.946 378.687C449.102 380.094 449.245 381.539 449.375 383.023C450.261 383.023 451.055 383.049 451.758 383.102C452.487 383.154 453.099 383.219 453.594 383.297C454.115 383.375 454.519 383.453 454.805 383.531C455.118 383.583 455.287 383.609 455.313 383.609Z" fill="white"/>
</svg>
