<svg width="588" height="449" viewBox="0 0 588 449" fill="none" xmlns="http://www.w3.org/2000/svg">
<path d="M583 224.5C583 284.606 551.107 339.371 498.855 379.272C446.598 419.175 374.187 444 294 444C213.813 444 141.402 419.175 89.1451 379.272C36.8925 339.371 5 284.606 5 224.5C5 164.394 36.8925 109.629 89.1451 69.7284C141.402 29.8247 213.813 5 294 5C374.187 5 446.598 29.8247 498.855 69.7284C551.107 109.629 583 164.394 583 224.5Z" stroke="#FF9D4E" stroke-width="10"/>
<path d="M127.475 136.68C130.302 136.733 133.422 136.92 136.835 137.24C140.248 137.56 143.555 138.227 146.755 139.24L145.795 149C143.448 148.947 140.568 148.893 137.155 148.84C133.795 148.787 130.488 148.76 127.235 148.76C126.008 148.76 124.968 148.813 124.115 148.92C123.315 148.973 122.648 149.133 122.115 149.4C121.635 149.613 121.288 149.96 121.075 150.44C120.862 150.867 120.755 151.48 120.755 152.28C120.755 153.56 121.128 154.547 121.875 155.24C122.675 155.88 124.062 156.547 126.035 157.24L136.355 161.08C140.835 162.84 143.955 165.027 145.715 167.64C147.528 170.2 148.435 173.533 148.435 177.64C148.435 180.733 148.062 183.347 147.315 185.48C146.568 187.613 145.342 189.293 143.635 190.52C141.982 191.747 139.768 192.653 136.995 193.24C134.275 193.827 130.888 194.12 126.835 194.12C124.968 194.12 122.222 193.987 118.595 193.72C115.022 193.453 110.968 192.76 106.435 191.64L107.315 181.08C110.515 181.133 113.342 181.213 115.795 181.32C118.302 181.373 120.462 181.427 122.275 181.48C124.142 181.48 125.608 181.48 126.675 181.48C128.488 181.48 129.875 181.4 130.835 181.24C131.795 181.027 132.462 180.68 132.835 180.2C133.208 179.667 133.395 178.92 133.395 177.96C133.395 177.053 133.262 176.333 132.995 175.8C132.728 175.267 132.248 174.813 131.555 174.44C130.915 174.067 130.035 173.693 128.915 173.32L117.875 168.92C113.502 167.107 110.408 164.947 108.595 162.44C106.782 159.933 105.875 156.653 105.875 152.6C105.875 149.4 106.275 146.787 107.075 144.76C107.875 142.733 109.102 141.133 110.755 139.96C112.462 138.787 114.702 137.96 117.475 137.48C120.248 136.947 123.582 136.68 127.475 136.68ZM172.166 152.12C177.392 152.12 181.579 152.813 184.726 154.2C187.872 155.533 190.139 157.747 191.526 160.84C192.912 163.88 193.606 167.987 193.606 173.16C193.606 178.28 192.912 182.36 191.526 185.4C190.139 188.387 187.872 190.573 184.726 191.96C181.579 193.293 177.392 193.96 172.166 193.96C166.939 193.96 162.752 193.293 159.606 191.96C156.459 190.573 154.192 188.387 152.806 185.4C151.419 182.36 150.726 178.28 150.726 173.16C150.726 167.987 151.419 163.88 152.806 160.84C154.192 157.747 156.459 155.533 159.606 154.2C162.752 152.813 166.939 152.12 172.166 152.12ZM172.166 162.28C170.512 162.28 169.232 162.573 168.326 163.16C167.472 163.747 166.859 164.813 166.486 166.36C166.112 167.907 165.926 170.173 165.926 173.16C165.926 176.093 166.112 178.333 166.486 179.88C166.859 181.427 167.472 182.493 168.326 183.08C169.232 183.613 170.512 183.88 172.166 183.88C173.819 183.88 175.099 183.613 176.006 183.08C176.912 182.493 177.526 181.427 177.846 179.88C178.219 178.333 178.406 176.093 178.406 173.16C178.406 170.173 178.219 167.907 177.846 166.36C177.526 164.813 176.912 163.747 176.006 163.16C175.099 162.573 173.819 162.28 172.166 162.28ZM214.858 135.24C215.871 135.24 217.205 135.267 218.858 135.32C220.565 135.373 222.298 135.48 224.058 135.64C225.871 135.747 227.418 135.933 228.698 136.2L227.258 145.16H220.058C218.298 145.16 217.098 145.507 216.458 146.2C215.818 146.893 215.498 148.12 215.498 149.88V193H200.858V147.88C200.858 145.373 201.311 143.187 202.218 141.32C203.125 139.4 204.591 137.907 206.618 136.84C208.698 135.773 211.445 135.24 214.858 135.24ZM225.658 153.24V162.28H194.138V153.64L201.018 153.24H225.658ZM246.059 142.52V179.32C246.059 180.493 246.353 181.347 246.939 181.88C247.526 182.413 248.513 182.68 249.899 182.68H254.539L256.139 192.2C255.073 192.627 253.766 192.973 252.219 193.24C250.726 193.507 249.206 193.693 247.659 193.8C246.113 193.96 244.779 194.04 243.659 194.04C239.926 194.04 236.966 193.08 234.779 191.16C232.646 189.187 231.579 186.467 231.579 183L231.499 142.52H246.059ZM256.379 153.24V162.28H224.699V153.64L232.379 153.24H256.379ZM282.286 168.12V176.92H258.686V168.12H282.286ZM307.772 136.68C310.599 136.733 313.719 136.92 317.132 137.24C320.545 137.56 323.852 138.227 327.052 139.24L326.092 149C323.745 148.947 320.865 148.893 317.452 148.84C314.092 148.787 310.785 148.76 307.532 148.76C306.305 148.76 305.265 148.813 304.412 148.92C303.612 148.973 302.945 149.133 302.412 149.4C301.932 149.613 301.585 149.96 301.372 150.44C301.159 150.867 301.052 151.48 301.052 152.28C301.052 153.56 301.425 154.547 302.172 155.24C302.972 155.88 304.359 156.547 306.332 157.24L316.652 161.08C321.132 162.84 324.252 165.027 326.012 167.64C327.825 170.2 328.732 173.533 328.732 177.64C328.732 180.733 328.359 183.347 327.612 185.48C326.865 187.613 325.639 189.293 323.932 190.52C322.279 191.747 320.065 192.653 317.292 193.24C314.572 193.827 311.185 194.12 307.132 194.12C305.265 194.12 302.519 193.987 298.892 193.72C295.319 193.453 291.265 192.76 286.732 191.64L287.612 181.08C290.812 181.133 293.639 181.213 296.092 181.32C298.599 181.373 300.759 181.427 302.572 181.48C304.439 181.48 305.905 181.48 306.972 181.48C308.785 181.48 310.172 181.4 311.132 181.24C312.092 181.027 312.759 180.68 313.132 180.2C313.505 179.667 313.692 178.92 313.692 177.96C313.692 177.053 313.559 176.333 313.292 175.8C313.025 175.267 312.545 174.813 311.852 174.44C311.212 174.067 310.332 173.693 309.212 173.32L298.172 168.92C293.799 167.107 290.705 164.947 288.892 162.44C287.079 159.933 286.172 156.653 286.172 152.6C286.172 149.4 286.572 146.787 287.372 144.76C288.172 142.733 289.399 141.133 291.052 139.96C292.759 138.787 294.999 137.96 297.772 137.48C300.545 136.947 303.879 136.68 307.772 136.68ZM374.063 153.24L364.783 166.6C364.249 167.56 363.556 168.44 362.703 169.24C361.849 170.04 361.156 170.6 360.623 170.92V171.24C361.156 171.56 361.849 172.2 362.703 173.16C363.556 174.12 364.249 175.08 364.783 176.04L375.503 193H359.423L346.943 170.84L358.063 153.24H374.063ZM347.023 137V159.24C347.023 161.16 346.889 163.107 346.623 165.08C346.409 167.053 346.036 168.947 345.503 170.76C345.929 172.413 346.276 174.173 346.543 176.04C346.863 177.907 347.023 179.613 347.023 181.16V193H332.463V137H347.023ZM351.903 166.76V175.24H342.623V166.76H351.903ZM391.337 153.24V193H376.857V153.24H391.337ZM387.177 135.32C390.004 135.32 391.417 136.76 391.417 139.64V143.8C391.417 146.68 390.004 148.12 387.177 148.12H380.937C378.111 148.12 376.697 146.68 376.697 143.8V139.64C376.697 136.76 378.111 135.32 380.937 135.32H387.177ZM411.579 137V179.32C411.579 180.493 411.925 181.347 412.619 181.88C413.365 182.413 414.432 182.68 415.819 182.68H418.779L420.379 192.2C419.685 192.627 418.672 192.973 417.339 193.24C416.005 193.507 414.645 193.693 413.259 193.8C411.872 193.96 410.699 194.04 409.739 194.04C405.792 194.04 402.699 193.08 400.459 191.16C398.219 189.24 397.099 186.547 397.099 183.08V137H411.579ZM436.279 137V179.32C436.279 180.493 436.625 181.347 437.319 181.88C438.065 182.413 439.132 182.68 440.519 182.68H443.479L445.079 192.2C444.385 192.627 443.372 192.973 442.039 193.24C440.705 193.507 439.345 193.693 437.959 193.8C436.572 193.96 435.399 194.04 434.439 194.04C430.492 194.04 427.399 193.08 425.159 191.16C422.919 189.24 421.799 186.547 421.799 183.08V137H436.279ZM462.499 152.12C464.579 152.12 466.792 152.2 469.139 152.36C471.539 152.52 473.885 152.707 476.179 152.92C478.472 153.133 480.445 153.427 482.099 153.8L481.139 162.44C478.525 162.44 475.885 162.44 473.219 162.44C470.605 162.387 468.072 162.36 465.619 162.36C463.699 162.36 462.259 162.387 461.299 162.44C460.339 162.493 459.672 162.653 459.299 162.92C458.979 163.133 458.819 163.56 458.819 164.2C458.819 165 459.165 165.533 459.859 165.8C460.552 166.067 461.832 166.467 463.699 167L473.459 169.4C476.925 170.307 479.485 171.64 481.139 173.4C482.792 175.107 483.619 177.693 483.619 181.16C483.619 184.467 482.979 187.053 481.699 188.92C480.472 190.733 478.472 192.013 475.699 192.76C472.925 193.507 469.325 193.88 464.899 193.88C463.085 193.88 460.419 193.8 456.899 193.64C453.379 193.48 449.539 193.053 445.379 192.36L446.259 183.64C447.059 183.64 448.205 183.667 449.699 183.72C451.245 183.72 452.952 183.72 454.819 183.72C456.685 183.72 458.525 183.72 460.339 183.72C462.952 183.72 464.925 183.693 466.259 183.64C467.592 183.533 468.472 183.32 468.899 183C469.379 182.68 469.619 182.2 469.619 181.56C469.619 180.76 469.219 180.227 468.419 179.96C467.619 179.64 466.205 179.213 464.179 178.68L454.819 176.2C452.099 175.453 449.992 174.493 448.499 173.32C447.059 172.147 446.072 170.76 445.539 169.16C445.005 167.56 444.739 165.72 444.739 163.64C444.739 161.027 445.299 158.893 446.419 157.24C447.539 155.533 449.379 154.253 451.939 153.4C454.552 152.547 458.072 152.12 462.499 152.12Z" fill="#FF9D4E"/>
<path d="M129.463 224.16C129.751 224.16 130.003 224.244 130.219 224.412C130.435 224.556 130.579 224.76 130.651 225.024L138.643 249H135.367L128.923 228.624C128.827 228.288 128.719 227.952 128.599 227.616C128.503 227.256 128.407 226.92 128.311 226.608H127.303C127.207 226.92 127.111 227.256 127.015 227.616C126.919 227.952 126.811 228.288 126.691 228.624L120.247 249H116.971L124.963 225.024C125.035 224.76 125.179 224.556 125.395 224.412C125.611 224.244 125.863 224.16 126.151 224.16H129.463ZM134.071 238.488V241.224H121.471V238.488H134.071ZM152.47 231.036C155.638 231.036 157.222 232.644 157.222 235.86V249H154.162V236.724C154.162 235.548 153.97 234.744 153.586 234.312C153.202 233.856 152.554 233.628 151.642 233.628C150.562 233.628 149.482 233.892 148.402 234.42C147.322 234.948 146.038 235.668 144.55 236.58L144.406 234.384C145.774 233.328 147.13 232.512 148.474 231.936C149.818 231.336 151.15 231.036 152.47 231.036ZM144.406 231.468L144.658 234.816L144.874 235.356V249H141.814V231.468H144.406ZM171.012 231.036C172.308 231.036 173.4 231.216 174.288 231.576C175.2 231.912 175.884 232.488 176.34 233.304C176.796 234.12 177.024 235.236 177.024 236.652V249H174.612L174.144 245.184L173.928 244.788V236.652C173.928 235.572 173.676 234.804 173.172 234.348C172.692 233.868 171.756 233.628 170.364 233.628C169.452 233.628 168.3 233.676 166.908 233.772C165.54 233.868 164.184 233.976 162.84 234.096L162.552 231.828C163.368 231.684 164.256 231.552 165.216 231.432C166.2 231.312 167.196 231.216 168.204 231.144C169.212 231.072 170.148 231.036 171.012 231.036ZM175.584 238.2L175.548 240.504L167.16 240.54C166.32 240.564 165.732 240.792 165.396 241.224C165.06 241.632 164.892 242.208 164.892 242.952V244.068C164.892 244.98 165.108 245.652 165.54 246.084C165.972 246.492 166.668 246.696 167.628 246.696C168.3 246.696 169.056 246.576 169.896 246.336C170.76 246.072 171.624 245.676 172.488 245.148C173.352 244.62 174.144 243.948 174.864 243.132V245.4C174.6 245.736 174.216 246.132 173.712 246.588C173.232 247.02 172.644 247.452 171.948 247.884C171.276 248.292 170.52 248.64 169.68 248.928C168.864 249.192 167.976 249.324 167.016 249.324C165.984 249.324 165.072 249.144 164.28 248.784C163.488 248.4 162.864 247.848 162.408 247.128C161.976 246.384 161.76 245.484 161.76 244.428V242.52C161.76 241.152 162.18 240.096 163.02 239.352C163.884 238.584 165.084 238.2 166.62 238.2H175.584ZM185.586 223.8L185.55 244.176C185.55 244.944 185.754 245.532 186.162 245.94C186.594 246.324 187.194 246.516 187.962 246.516H189.654L190.014 248.856C189.798 248.952 189.486 249.036 189.078 249.108C188.694 249.18 188.286 249.228 187.854 249.252C187.446 249.3 187.098 249.324 186.81 249.324C185.514 249.324 184.47 248.94 183.678 248.172C182.91 247.404 182.526 246.3 182.526 244.86V223.8H185.586ZM207.921 231.468L200.901 249.972C200.613 250.74 200.253 251.496 199.821 252.24C199.389 252.984 198.861 253.656 198.237 254.256C197.637 254.88 196.917 255.384 196.077 255.768C195.261 256.152 194.313 256.368 193.233 256.416L192.945 254.4C194.361 253.944 195.453 253.332 196.221 252.564C196.989 251.796 197.601 250.86 198.057 249.756L198.921 247.668C199.113 247.188 199.305 246.66 199.497 246.084C199.689 245.508 199.869 244.992 200.037 244.536L204.609 231.468H207.921ZM193.485 231.468L198.129 244.536C198.249 244.896 198.369 245.256 198.489 245.616C198.609 245.952 198.705 246.3 198.777 246.66H199.605L198.597 249H197.661C197.421 249 197.193 248.928 196.977 248.784C196.785 248.64 196.653 248.448 196.581 248.208L190.209 231.468H193.485ZM215.815 226.284V244.176C215.815 245.016 215.995 245.616 216.355 245.976C216.715 246.336 217.327 246.516 218.191 246.516H220.855L221.215 248.856C220.831 248.952 220.387 249.036 219.883 249.108C219.379 249.18 218.887 249.228 218.407 249.252C217.927 249.3 217.543 249.324 217.255 249.324C215.791 249.324 214.675 248.916 213.907 248.1C213.139 247.284 212.755 246.108 212.755 244.572V226.284H215.815ZM221.395 231.468V233.88H209.587V231.648L213.043 231.468H221.395ZM228.302 231.468V249H225.278V231.468H228.302ZM227.51 224.016C228.134 224.016 228.446 224.328 228.446 224.952V227.004C228.446 227.628 228.134 227.94 227.51 227.94H226.07C225.446 227.94 225.134 227.628 225.134 227.004V224.952C225.134 224.328 225.446 224.016 226.07 224.016H227.51ZM241.552 231.036C242.08 231.036 242.668 231.06 243.316 231.108C243.964 231.156 244.624 231.24 245.296 231.36C245.992 231.48 246.628 231.648 247.204 231.864L246.808 233.844C246.016 233.772 245.176 233.724 244.288 233.7C243.424 233.652 242.68 233.628 242.056 233.628C240.664 233.628 239.56 233.82 238.744 234.204C237.928 234.588 237.34 235.26 236.98 236.22C236.62 237.18 236.44 238.512 236.44 240.216C236.44 241.92 236.62 243.264 236.98 244.248C237.34 245.208 237.928 245.88 238.744 246.264C239.56 246.648 240.664 246.84 242.056 246.84C242.416 246.84 242.884 246.828 243.46 246.804C244.036 246.78 244.648 246.744 245.296 246.696C245.968 246.648 246.604 246.576 247.204 246.48L247.528 248.532C246.64 248.844 245.668 249.072 244.612 249.216C243.58 249.36 242.548 249.432 241.516 249.432C239.5 249.432 237.88 249.132 236.656 248.532C235.432 247.932 234.544 246.96 233.992 245.616C233.464 244.272 233.2 242.472 233.2 240.216C233.2 237.96 233.476 236.16 234.028 234.816C234.58 233.472 235.468 232.512 236.692 231.936C237.916 231.336 239.536 231.036 241.552 231.036ZM259.957 231.036C261.253 231.036 262.345 231.216 263.233 231.576C264.145 231.912 264.829 232.488 265.285 233.304C265.741 234.12 265.969 235.236 265.969 236.652V249H263.557L263.089 245.184L262.873 244.788V236.652C262.873 235.572 262.621 234.804 262.117 234.348C261.637 233.868 260.701 233.628 259.309 233.628C258.397 233.628 257.245 233.676 255.853 233.772C254.485 233.868 253.129 233.976 251.785 234.096L251.497 231.828C252.313 231.684 253.201 231.552 254.161 231.432C255.145 231.312 256.141 231.216 257.149 231.144C258.157 231.072 259.093 231.036 259.957 231.036ZM264.529 238.2L264.493 240.504L256.105 240.54C255.265 240.564 254.677 240.792 254.341 241.224C254.005 241.632 253.837 242.208 253.837 242.952V244.068C253.837 244.98 254.053 245.652 254.485 246.084C254.917 246.492 255.613 246.696 256.573 246.696C257.245 246.696 258.001 246.576 258.841 246.336C259.705 246.072 260.569 245.676 261.433 245.148C262.297 244.62 263.089 243.948 263.809 243.132V245.4C263.545 245.736 263.161 246.132 262.657 246.588C262.177 247.02 261.589 247.452 260.893 247.884C260.221 248.292 259.465 248.64 258.625 248.928C257.809 249.192 256.921 249.324 255.961 249.324C254.929 249.324 254.017 249.144 253.225 248.784C252.433 248.4 251.809 247.848 251.353 247.128C250.921 246.384 250.705 245.484 250.705 244.428V242.52C250.705 241.152 251.125 240.096 251.965 239.352C252.829 238.584 254.029 238.2 255.565 238.2H264.529ZM274.531 223.8L274.495 244.176C274.495 244.944 274.699 245.532 275.107 245.94C275.539 246.324 276.139 246.516 276.907 246.516H278.599L278.959 248.856C278.743 248.952 278.431 249.036 278.023 249.108C277.639 249.18 277.231 249.228 276.799 249.252C276.391 249.3 276.043 249.324 275.755 249.324C274.459 249.324 273.415 248.94 272.623 248.172C271.855 247.404 271.471 246.3 271.471 244.86V223.8H274.531ZM292.983 226.284V244.176C292.983 245.016 293.163 245.616 293.523 245.976C293.883 246.336 294.495 246.516 295.359 246.516H298.023L298.383 248.856C297.999 248.952 297.555 249.036 297.051 249.108C296.547 249.18 296.055 249.228 295.575 249.252C295.095 249.3 294.711 249.324 294.423 249.324C292.959 249.324 291.843 248.916 291.075 248.1C290.307 247.284 289.923 246.108 289.923 244.572V226.284H292.983ZM298.563 231.468V233.88H286.755V231.648L290.211 231.468H298.563ZM312.958 231.036C316.126 231.036 317.71 232.644 317.71 235.86V249H314.614V236.724C314.614 235.548 314.422 234.744 314.038 234.312C313.678 233.856 313.042 233.628 312.13 233.628C311.05 233.628 309.97 233.88 308.89 234.384C307.81 234.888 306.526 235.62 305.038 236.58L304.894 234.384C306.262 233.352 307.618 232.536 308.962 231.936C310.306 231.336 311.638 231.036 312.958 231.036ZM305.362 223.8L305.398 230.748C305.398 231.54 305.362 232.284 305.29 232.98C305.242 233.676 305.158 234.288 305.038 234.816L305.362 235.356V249H302.302V223.8H305.362ZM326.388 231.468V249H323.364V231.468H326.388ZM325.596 224.016C326.22 224.016 326.532 224.328 326.532 224.952V227.004C326.532 227.628 326.22 227.94 325.596 227.94H324.156C323.532 227.94 323.22 227.628 323.22 227.004V224.952C323.22 224.328 323.532 224.016 324.156 224.016H325.596ZM342.806 231.036C345.974 231.036 347.558 232.644 347.558 235.86V249H344.498V236.724C344.498 235.548 344.306 234.744 343.922 234.312C343.538 233.856 342.89 233.628 341.978 233.628C340.898 233.628 339.818 233.892 338.738 234.42C337.658 234.948 336.374 235.668 334.886 236.58L334.742 234.384C336.11 233.328 337.466 232.512 338.81 231.936C340.154 231.336 341.486 231.036 342.806 231.036ZM334.742 231.468L334.994 234.816L335.21 235.356V249H332.15V231.468H334.742ZM367.396 231.468L361.888 237.912C361.72 238.128 361.516 238.356 361.276 238.596C361.036 238.812 360.832 238.98 360.664 239.1V239.172C360.832 239.292 361.036 239.496 361.276 239.784C361.516 240.048 361.72 240.312 361.888 240.576L367.972 249H364.408L357.46 238.956L363.832 231.468H367.396ZM356.128 223.8L356.164 234.996C356.164 235.74 356.128 236.436 356.056 237.084C356.008 237.708 355.924 238.368 355.804 239.064C355.924 239.736 356.008 240.408 356.056 241.08C356.104 241.752 356.128 242.4 356.128 243.024V249H353.068V223.8H356.128ZM359.116 237.984V240.216H355.048V237.984H359.116ZM378.057 231.036C380.697 231.036 382.605 231.516 383.781 232.476C384.981 233.436 385.581 234.864 385.581 236.76C385.605 238.32 385.281 239.544 384.609 240.432C383.937 241.296 382.869 241.728 381.405 241.728H371.181V239.352H380.613C381.405 239.352 381.921 239.088 382.161 238.56C382.401 238.008 382.521 237.408 382.521 236.76C382.497 235.632 382.161 234.828 381.513 234.348C380.865 233.868 379.761 233.628 378.201 233.628C376.929 233.628 375.921 233.82 375.177 234.204C374.457 234.564 373.941 235.212 373.629 236.148C373.341 237.06 373.197 238.344 373.197 240C373.197 241.872 373.377 243.3 373.737 244.284C374.121 245.268 374.721 245.94 375.537 246.3C376.353 246.66 377.433 246.84 378.777 246.84C379.713 246.84 380.733 246.804 381.837 246.732C382.965 246.636 383.973 246.528 384.861 246.408L385.185 248.46C384.633 248.676 383.949 248.856 383.133 249C382.341 249.144 381.513 249.252 380.649 249.324C379.809 249.396 379.053 249.432 378.381 249.432C376.365 249.432 374.745 249.132 373.521 248.532C372.297 247.908 371.397 246.924 370.821 245.58C370.269 244.212 369.993 242.412 369.993 240.18C369.993 237.876 370.269 236.064 370.821 234.744C371.397 233.4 372.273 232.452 373.449 231.9C374.649 231.324 376.185 231.036 378.057 231.036ZM392.569 231.468L392.965 234.816L393.253 235.356V249H390.193V231.468H392.569ZM401.173 231.036L400.813 233.916H399.805C398.773 233.916 397.741 234.132 396.709 234.564C395.677 234.972 394.417 235.56 392.929 236.328L392.677 234.42C393.973 233.364 395.269 232.536 396.565 231.936C397.885 231.336 399.157 231.036 400.381 231.036H401.173ZM420.164 231.036C421.46 231.036 422.552 231.216 423.44 231.576C424.352 231.912 425.036 232.488 425.492 233.304C425.948 234.12 426.176 235.236 426.176 236.652V249H423.764L423.296 245.184L423.08 244.788V236.652C423.08 235.572 422.828 234.804 422.324 234.348C421.844 233.868 420.908 233.628 419.516 233.628C418.604 233.628 417.452 233.676 416.06 233.772C414.692 233.868 413.336 233.976 411.992 234.096L411.704 231.828C412.52 231.684 413.408 231.552 414.368 231.432C415.352 231.312 416.348 231.216 417.356 231.144C418.364 231.072 419.3 231.036 420.164 231.036ZM424.736 238.2L424.7 240.504L416.312 240.54C415.472 240.564 414.884 240.792 414.548 241.224C414.212 241.632 414.044 242.208 414.044 242.952V244.068C414.044 244.98 414.26 245.652 414.692 246.084C415.124 246.492 415.82 246.696 416.78 246.696C417.452 246.696 418.208 246.576 419.048 246.336C419.912 246.072 420.776 245.676 421.64 245.148C422.504 244.62 423.296 243.948 424.016 243.132V245.4C423.752 245.736 423.368 246.132 422.864 246.588C422.384 247.02 421.796 247.452 421.1 247.884C420.428 248.292 419.672 248.64 418.832 248.928C418.016 249.192 417.128 249.324 416.168 249.324C415.136 249.324 414.224 249.144 413.432 248.784C412.64 248.4 412.016 247.848 411.56 247.128C411.128 246.384 410.912 245.484 410.912 244.428V242.52C410.912 241.152 411.332 240.096 412.172 239.352C413.036 238.584 414.236 238.2 415.772 238.2H424.736ZM442.298 231.036C445.466 231.036 447.05 232.644 447.05 235.86V249H443.99V236.724C443.99 235.548 443.798 234.744 443.414 234.312C443.03 233.856 442.382 233.628 441.47 233.628C440.39 233.628 439.31 233.892 438.23 234.42C437.15 234.948 435.866 235.668 434.378 236.58L434.234 234.384C435.602 233.328 436.958 232.512 438.302 231.936C439.646 231.336 440.978 231.036 442.298 231.036ZM434.234 231.468L434.486 234.816L434.702 235.356V249H431.642V231.468H434.234ZM458.392 231.036C459.544 231.036 460.684 231.192 461.812 231.504C462.94 231.792 464.02 232.248 465.052 232.872L464.872 234.78C463.744 234.444 462.748 234.18 461.884 233.988C461.02 233.796 460.096 233.7 459.112 233.7C458.104 233.7 457.288 233.88 456.664 234.24C456.064 234.576 455.62 235.212 455.332 236.148C455.044 237.084 454.9 238.416 454.9 240.144C454.9 241.872 455.032 243.216 455.296 244.176C455.584 245.136 456.028 245.808 456.628 246.192C457.228 246.576 457.996 246.768 458.932 246.768C459.628 246.768 460.252 246.684 460.804 246.516C461.38 246.324 461.98 246.024 462.604 245.616C463.252 245.208 464.008 244.692 464.872 244.068L465.16 246.228C464.2 247.116 463.108 247.872 461.884 248.496C460.66 249.12 459.34 249.432 457.924 249.432C455.716 249.432 454.132 248.652 453.172 247.092C452.236 245.532 451.768 243.228 451.768 240.18C451.768 237.9 452.008 236.1 452.488 234.78C452.968 233.436 453.7 232.476 454.684 231.9C455.668 231.324 456.904 231.036 458.392 231.036ZM467.536 223.8V249H465.16L464.8 245.94L464.476 245.688V233.664L464.692 233.124C464.596 232.452 464.536 231.804 464.512 231.18C464.488 230.556 464.476 229.896 464.476 229.2V223.8H467.536ZM104.932 269.284V287.176C104.932 288.016 105.112 288.616 105.472 288.976C105.832 289.336 106.444 289.516 107.308 289.516H109.972L110.332 291.856C109.948 291.952 109.504 292.036 109 292.108C108.496 292.18 108.004 292.228 107.524 292.252C107.044 292.3 106.66 292.324 106.372 292.324C104.908 292.324 103.792 291.916 103.024 291.1C102.256 290.284 101.872 289.108 101.872 287.572V269.284H104.932ZM110.512 274.468V276.88H98.7044V274.648L102.16 274.468H110.512ZM121.451 274.036C124.091 274.036 125.999 274.516 127.175 275.476C128.375 276.436 128.975 277.864 128.975 279.76C128.999 281.32 128.675 282.544 128.003 283.432C127.331 284.296 126.263 284.728 124.799 284.728H114.575V282.352H124.007C124.799 282.352 125.315 282.088 125.555 281.56C125.795 281.008 125.915 280.408 125.915 279.76C125.891 278.632 125.555 277.828 124.907 277.348C124.259 276.868 123.155 276.628 121.595 276.628C120.323 276.628 119.315 276.82 118.571 277.204C117.851 277.564 117.335 278.212 117.023 279.148C116.735 280.06 116.591 281.344 116.591 283C116.591 284.872 116.771 286.3 117.131 287.284C117.515 288.268 118.115 288.94 118.931 289.3C119.747 289.66 120.827 289.84 122.171 289.84C123.107 289.84 124.127 289.804 125.231 289.732C126.359 289.636 127.367 289.528 128.255 289.408L128.579 291.46C128.027 291.676 127.343 291.856 126.527 292C125.735 292.144 124.907 292.252 124.043 292.324C123.203 292.396 122.447 292.432 121.775 292.432C119.759 292.432 118.139 292.132 116.915 291.532C115.691 290.908 114.791 289.924 114.215 288.58C113.663 287.212 113.387 285.412 113.387 283.18C113.387 280.876 113.663 279.064 114.215 277.744C114.791 276.4 115.667 275.452 116.843 274.9C118.043 274.324 119.579 274.036 121.451 274.036ZM141.867 274.036C143.163 274.036 144.255 274.216 145.143 274.576C146.055 274.912 146.739 275.488 147.195 276.304C147.651 277.12 147.879 278.236 147.879 279.652V292H145.467L144.999 288.184L144.783 287.788V279.652C144.783 278.572 144.531 277.804 144.027 277.348C143.547 276.868 142.611 276.628 141.219 276.628C140.307 276.628 139.155 276.676 137.763 276.772C136.395 276.868 135.039 276.976 133.695 277.096L133.407 274.828C134.223 274.684 135.111 274.552 136.071 274.432C137.055 274.312 138.051 274.216 139.059 274.144C140.067 274.072 141.003 274.036 141.867 274.036ZM146.439 281.2L146.403 283.504L138.015 283.54C137.175 283.564 136.587 283.792 136.251 284.224C135.915 284.632 135.747 285.208 135.747 285.952V287.068C135.747 287.98 135.963 288.652 136.395 289.084C136.827 289.492 137.523 289.696 138.483 289.696C139.155 289.696 139.911 289.576 140.751 289.336C141.615 289.072 142.479 288.676 143.343 288.148C144.207 287.62 144.999 286.948 145.719 286.132V288.4C145.455 288.736 145.071 289.132 144.567 289.588C144.087 290.02 143.499 290.452 142.803 290.884C142.131 291.292 141.375 291.64 140.535 291.928C139.719 292.192 138.831 292.324 137.871 292.324C136.839 292.324 135.927 292.144 135.135 291.784C134.343 291.4 133.719 290.848 133.263 290.128C132.831 289.384 132.615 288.484 132.615 287.428V285.52C132.615 284.152 133.035 283.096 133.875 282.352C134.739 281.584 135.939 281.2 137.475 281.2H146.439ZM174.693 274.036C176.205 274.036 177.357 274.444 178.149 275.26C178.965 276.076 179.373 277.276 179.373 278.86V292H176.349V279.724C176.325 278.644 176.109 277.864 175.701 277.384C175.293 276.88 174.597 276.628 173.613 276.628C172.989 276.628 172.389 276.736 171.813 276.952C171.261 277.144 170.649 277.456 169.977 277.888C169.305 278.32 168.489 278.884 167.529 279.58L167.349 277.42C168.621 276.292 169.857 275.452 171.057 274.9C172.257 274.324 173.469 274.036 174.693 274.036ZM155.865 274.468L156.081 277.816L156.405 278.356V292H153.345V274.468H155.865ZM163.209 274.036C164.697 274.036 165.837 274.444 166.629 275.26C167.421 276.052 167.829 277.252 167.853 278.86V292H164.901V279.724C164.901 278.596 164.673 277.804 164.217 277.348C163.761 276.868 163.077 276.628 162.165 276.628C161.565 276.628 160.977 276.724 160.401 276.916C159.849 277.108 159.225 277.42 158.529 277.852C157.857 278.284 157.029 278.86 156.045 279.58L155.829 277.42C157.101 276.292 158.337 275.452 159.537 274.9C160.737 274.324 161.961 274.036 163.209 274.036ZM202.94 274.036C205.076 274.036 206.612 274.828 207.548 276.412C208.484 277.972 208.952 280.276 208.952 283.324C208.952 285.58 208.712 287.38 208.232 288.724C207.752 290.044 207.02 290.992 206.036 291.568C205.076 292.144 203.84 292.432 202.328 292.432C201.176 292.432 200.036 292.276 198.908 291.964C197.804 291.652 196.724 291.172 195.668 290.524L195.848 288.688C196.976 289 197.972 289.264 198.836 289.48C199.7 289.672 200.612 289.768 201.572 289.768C202.604 289.768 203.42 289.588 204.02 289.228C204.644 288.868 205.1 288.22 205.388 287.284C205.676 286.348 205.82 285.028 205.82 283.324C205.82 281.668 205.688 280.36 205.424 279.4C205.16 278.44 204.74 277.756 204.164 277.348C203.612 276.916 202.868 276.7 201.932 276.7C200.972 276.7 200.024 276.928 199.088 277.384C198.152 277.84 197.06 278.536 195.812 279.472L195.524 277.42C196.172 276.724 196.904 276.124 197.72 275.62C198.536 275.116 199.388 274.732 200.276 274.468C201.188 274.18 202.076 274.036 202.94 274.036ZM195.416 274.468L195.74 278.104L195.956 278.572V289.804L195.812 290.236C195.884 290.908 195.92 291.556 195.92 292.18C195.944 292.804 195.956 293.464 195.956 294.16V299.236H192.896V274.468H195.416ZM216.875 266.8L216.839 287.176C216.839 287.944 217.043 288.532 217.451 288.94C217.883 289.324 218.483 289.516 219.251 289.516H220.943L221.303 291.856C221.087 291.952 220.775 292.036 220.367 292.108C219.983 292.18 219.575 292.228 219.143 292.252C218.735 292.3 218.387 292.324 218.099 292.324C216.803 292.324 215.759 291.94 214.967 291.172C214.199 290.404 213.815 289.3 213.815 287.86V266.8H216.875ZM232.746 274.036C234.042 274.036 235.134 274.216 236.022 274.576C236.934 274.912 237.618 275.488 238.074 276.304C238.53 277.12 238.758 278.236 238.758 279.652V292H236.346L235.878 288.184L235.662 287.788V279.652C235.662 278.572 235.41 277.804 234.906 277.348C234.426 276.868 233.49 276.628 232.098 276.628C231.186 276.628 230.034 276.676 228.642 276.772C227.274 276.868 225.918 276.976 224.574 277.096L224.286 274.828C225.102 274.684 225.99 274.552 226.95 274.432C227.934 274.312 228.93 274.216 229.938 274.144C230.946 274.072 231.882 274.036 232.746 274.036ZM237.318 281.2L237.282 283.504L228.894 283.54C228.054 283.564 227.466 283.792 227.13 284.224C226.794 284.632 226.626 285.208 226.626 285.952V287.068C226.626 287.98 226.842 288.652 227.274 289.084C227.706 289.492 228.402 289.696 229.362 289.696C230.034 289.696 230.79 289.576 231.63 289.336C232.494 289.072 233.358 288.676 234.222 288.148C235.086 287.62 235.878 286.948 236.598 286.132V288.4C236.334 288.736 235.95 289.132 235.446 289.588C234.966 290.02 234.378 290.452 233.682 290.884C233.01 291.292 232.254 291.64 231.414 291.928C230.598 292.192 229.71 292.324 228.75 292.324C227.718 292.324 226.806 292.144 226.014 291.784C225.222 291.4 224.598 290.848 224.142 290.128C223.71 289.384 223.494 288.484 223.494 287.428V285.52C223.494 284.152 223.914 283.096 224.754 282.352C225.618 281.584 226.818 281.2 228.354 281.2H237.318ZM259.776 274.468L252.756 292.972C252.468 293.74 252.108 294.496 251.676 295.24C251.244 295.984 250.716 296.656 250.092 297.256C249.492 297.88 248.772 298.384 247.932 298.768C247.116 299.152 246.168 299.368 245.088 299.416L244.8 297.4C246.216 296.944 247.308 296.332 248.076 295.564C248.844 294.796 249.456 293.86 249.912 292.756L250.776 290.668C250.968 290.188 251.16 289.66 251.352 289.084C251.544 288.508 251.724 287.992 251.892 287.536L256.464 274.468H259.776ZM245.34 274.468L249.984 287.536C250.104 287.896 250.224 288.256 250.344 288.616C250.464 288.952 250.56 289.3 250.632 289.66H251.46L250.452 292H249.516C249.276 292 249.048 291.928 248.832 291.784C248.64 291.64 248.508 291.448 248.436 291.208L242.064 274.468H245.34ZM270.268 274.036C272.908 274.036 274.816 274.516 275.992 275.476C277.192 276.436 277.792 277.864 277.792 279.76C277.816 281.32 277.492 282.544 276.82 283.432C276.148 284.296 275.08 284.728 273.616 284.728H263.392V282.352H272.824C273.616 282.352 274.132 282.088 274.372 281.56C274.612 281.008 274.732 280.408 274.732 279.76C274.708 278.632 274.372 277.828 273.724 277.348C273.076 276.868 271.972 276.628 270.412 276.628C269.14 276.628 268.132 276.82 267.388 277.204C266.668 277.564 266.152 278.212 265.84 279.148C265.552 280.06 265.408 281.344 265.408 283C265.408 284.872 265.588 286.3 265.948 287.284C266.332 288.268 266.932 288.94 267.748 289.3C268.564 289.66 269.644 289.84 270.988 289.84C271.924 289.84 272.944 289.804 274.048 289.732C275.176 289.636 276.184 289.528 277.072 289.408L277.396 291.46C276.844 291.676 276.16 291.856 275.344 292C274.552 292.144 273.724 292.252 272.86 292.324C272.02 292.396 271.264 292.432 270.592 292.432C268.576 292.432 266.956 292.132 265.732 291.532C264.508 290.908 263.608 289.924 263.032 288.58C262.48 287.212 262.204 285.412 262.204 283.18C262.204 280.876 262.48 279.064 263.032 277.744C263.608 276.4 264.484 275.452 265.66 274.9C266.86 274.324 268.396 274.036 270.268 274.036ZM284.78 274.468L285.176 277.816L285.464 278.356V292H282.404V274.468H284.78ZM293.384 274.036L293.024 276.916H292.016C290.984 276.916 289.952 277.132 288.92 277.564C287.888 277.972 286.628 278.56 285.14 279.328L284.888 277.42C286.184 276.364 287.48 275.536 288.776 274.936C290.096 274.336 291.368 274.036 292.592 274.036H293.384ZM329.348 274.468L324.236 291.136C324.164 291.4 324.02 291.616 323.804 291.784C323.588 291.928 323.336 292 323.048 292H320.276C319.988 292 319.724 291.916 319.484 291.748C319.268 291.556 319.136 291.316 319.088 291.028L316.208 279.112C316.112 278.656 316.016 278.2 315.92 277.744C315.848 277.288 315.752 276.82 315.632 276.34H315.2C315.104 276.82 314.996 277.288 314.876 277.744C314.78 278.2 314.684 278.656 314.588 279.112L311.744 291.028C311.672 291.316 311.528 291.556 311.312 291.748C311.096 291.916 310.832 292 310.52 292H307.784C307.496 292 307.244 291.928 307.028 291.784C306.812 291.616 306.668 291.4 306.596 291.136L301.484 274.468H304.652L308.288 287.392C308.408 287.824 308.516 288.268 308.612 288.724C308.708 289.156 308.792 289.588 308.864 290.02H309.332C309.452 289.588 309.56 289.156 309.656 288.724C309.776 288.268 309.884 287.824 309.98 287.392L312.896 275.44C312.944 275.152 313.064 274.924 313.256 274.756C313.472 274.564 313.736 274.468 314.048 274.468H316.82C317.108 274.468 317.348 274.564 317.54 274.756C317.756 274.924 317.9 275.164 317.972 275.476L320.852 287.392C320.948 287.824 321.044 288.256 321.14 288.688C321.26 289.12 321.368 289.564 321.464 290.02H321.932C322.052 289.564 322.148 289.132 322.22 288.724C322.292 288.292 322.4 287.848 322.544 287.392L326.18 274.468H329.348ZM336.232 274.468V292H333.208V274.468H336.232ZM335.44 267.016C336.064 267.016 336.376 267.328 336.376 267.952V270.004C336.376 270.628 336.064 270.94 335.44 270.94H334C333.376 270.94 333.064 270.628 333.064 270.004V267.952C333.064 267.328 333.376 267.016 334 267.016H335.44ZM346.386 269.284V287.176C346.386 288.016 346.566 288.616 346.926 288.976C347.286 289.336 347.898 289.516 348.762 289.516H351.426L351.786 291.856C351.402 291.952 350.958 292.036 350.454 292.108C349.95 292.18 349.458 292.228 348.978 292.252C348.498 292.3 348.114 292.324 347.826 292.324C346.362 292.324 345.246 291.916 344.478 291.1C343.71 290.284 343.326 289.108 343.326 287.572V269.284H346.386ZM351.966 274.468V276.88H340.158V274.648L343.614 274.468H351.966ZM366.36 274.036C369.528 274.036 371.112 275.644 371.112 278.86V292H368.016V279.724C368.016 278.548 367.824 277.744 367.44 277.312C367.08 276.856 366.444 276.628 365.532 276.628C364.452 276.628 363.372 276.88 362.292 277.384C361.212 277.888 359.928 278.62 358.44 279.58L358.296 277.384C359.664 276.352 361.02 275.536 362.364 274.936C363.708 274.336 365.04 274.036 366.36 274.036ZM358.764 266.8L358.8 273.748C358.8 274.54 358.764 275.284 358.692 275.98C358.644 276.676 358.56 277.288 358.44 277.816L358.764 278.356V292H355.704V266.8H358.764ZM390.47 274.036C391.238 274.036 392.054 274.06 392.918 274.108C393.782 274.156 394.634 274.216 395.474 274.288C396.338 274.36 397.13 274.456 397.85 274.576L397.598 276.808C396.494 276.76 395.378 276.724 394.25 276.7C393.146 276.652 392.042 276.628 390.938 276.628C389.858 276.604 389.006 276.628 388.382 276.7C387.758 276.772 387.302 276.964 387.014 277.276C386.75 277.588 386.618 278.116 386.618 278.86C386.618 279.772 386.834 280.372 387.266 280.66C387.698 280.948 388.334 281.188 389.174 281.38L394.286 282.532C395.678 282.868 396.698 283.384 397.346 284.08C398.018 284.776 398.354 285.868 398.354 287.356C398.354 288.796 398.078 289.876 397.526 290.596C396.998 291.316 396.182 291.796 395.078 292.036C393.974 292.276 392.57 292.396 390.866 292.396C390.242 292.396 389.306 292.372 388.058 292.324C386.834 292.276 385.478 292.132 383.99 291.892L384.206 289.66C384.782 289.684 385.394 289.72 386.042 289.768C386.69 289.792 387.362 289.804 388.058 289.804C388.778 289.804 389.51 289.804 390.254 289.804C391.574 289.804 392.606 289.744 393.35 289.624C394.094 289.504 394.622 289.276 394.934 288.94C395.246 288.58 395.402 288.052 395.402 287.356C395.402 286.492 395.15 285.916 394.646 285.628C394.142 285.34 393.47 285.1 392.63 284.908L387.59 283.756C386.63 283.516 385.862 283.204 385.286 282.82C384.71 282.412 384.29 281.896 384.026 281.272C383.762 280.624 383.63 279.82 383.63 278.86C383.63 277.492 383.87 276.46 384.35 275.764C384.83 275.068 385.574 274.6 386.582 274.36C387.59 274.12 388.886 274.012 390.47 274.036ZM407.311 269.284V287.176C407.311 288.016 407.491 288.616 407.851 288.976C408.211 289.336 408.823 289.516 409.687 289.516H412.351L412.711 291.856C412.327 291.952 411.883 292.036 411.379 292.108C410.875 292.18 410.383 292.228 409.903 292.252C409.423 292.3 409.039 292.324 408.751 292.324C407.287 292.324 406.171 291.916 405.403 291.1C404.635 290.284 404.251 289.108 404.251 287.572V269.284H407.311ZM412.891 274.468V276.88H401.083V274.648L404.539 274.468H412.891ZM419.006 274.468L419.402 277.816L419.69 278.356V292H416.63V274.468H419.006ZM427.61 274.036L427.25 276.916H426.242C425.21 276.916 424.178 277.132 423.146 277.564C422.114 277.972 420.854 278.56 419.366 279.328L419.114 277.42C420.41 276.364 421.706 275.536 423.002 274.936C424.322 274.336 425.594 274.036 426.818 274.036H427.61ZM438.038 274.036C440.054 274.036 441.662 274.336 442.862 274.936C444.086 275.536 444.962 276.52 445.49 277.888C446.018 279.232 446.282 281.02 446.282 283.252C446.282 285.484 446.018 287.284 445.49 288.652C444.962 289.996 444.086 290.968 442.862 291.568C441.662 292.168 440.054 292.468 438.038 292.468C436.046 292.468 434.438 292.168 433.214 291.568C432.014 290.968 431.138 289.996 430.586 288.652C430.058 287.284 429.794 285.484 429.794 283.252C429.794 281.02 430.058 279.232 430.586 277.888C431.138 276.52 432.014 275.536 433.214 274.936C434.438 274.336 436.046 274.036 438.038 274.036ZM438.038 276.628C436.766 276.628 435.758 276.832 435.014 277.24C434.294 277.624 433.778 278.296 433.466 279.256C433.154 280.216 432.998 281.548 432.998 283.252C432.998 284.956 433.154 286.288 433.466 287.248C433.778 288.208 434.294 288.892 435.014 289.3C435.758 289.684 436.766 289.876 438.038 289.876C439.31 289.876 440.318 289.684 441.062 289.3C441.806 288.892 442.334 288.208 442.646 287.248C442.958 286.288 443.114 284.956 443.114 283.252C443.114 281.548 442.958 280.216 442.646 279.256C442.334 278.296 441.806 277.624 441.062 277.24C440.318 276.832 439.31 276.628 438.038 276.628ZM461.739 274.036C464.907 274.036 466.491 275.644 466.491 278.86V292H463.431V279.724C463.431 278.548 463.239 277.744 462.855 277.312C462.471 276.856 461.823 276.628 460.911 276.628C459.831 276.628 458.751 276.892 457.671 277.42C456.591 277.948 455.307 278.668 453.819 279.58L453.675 277.384C455.043 276.328 456.399 275.512 457.743 274.936C459.087 274.336 460.419 274.036 461.739 274.036ZM453.675 274.468L453.927 277.816L454.143 278.356V292H451.083V274.468H453.675ZM478.949 274.036C480.821 274.036 482.297 274.228 483.377 274.612C484.481 274.996 485.261 275.596 485.717 276.412C486.197 277.228 486.437 278.296 486.437 279.616C486.437 280.888 486.197 281.944 485.717 282.784C485.261 283.6 484.481 284.212 483.377 284.62C482.273 285.004 480.785 285.196 478.913 285.196C477.041 285.196 475.553 285.004 474.449 284.62C473.369 284.212 472.589 283.6 472.109 282.784C471.653 281.968 471.425 280.924 471.425 279.652C471.425 278.332 471.653 277.264 472.109 276.448C472.589 275.608 473.381 274.996 474.485 274.612C475.589 274.228 477.077 274.036 478.949 274.036ZM478.913 276.376C477.161 276.376 475.937 276.628 475.241 277.132C474.569 277.612 474.233 278.44 474.233 279.616C474.233 280.768 474.569 281.596 475.241 282.1C475.937 282.604 477.161 282.856 478.913 282.856C480.689 282.856 481.913 282.604 482.585 282.1C483.257 281.596 483.593 280.768 483.593 279.616C483.593 278.44 483.257 277.612 482.585 277.132C481.913 276.628 480.689 276.376 478.913 276.376ZM488.489 274.468L488.309 276.16L483.845 276.52L482.585 274.468H488.489ZM473.981 284.044L475.745 284.296C475.337 284.656 475.061 285.1 474.917 285.628C474.773 286.132 474.809 286.6 475.025 287.032C475.265 287.464 475.757 287.74 476.501 287.86L483.053 288.904C484.709 289.144 485.861 289.66 486.509 290.452C487.157 291.244 487.481 292.372 487.481 293.836C487.481 295.204 487.217 296.284 486.689 297.076C486.185 297.868 485.321 298.432 484.097 298.768C482.873 299.104 481.217 299.272 479.129 299.272C477.545 299.272 476.213 299.176 475.133 298.984C474.053 298.816 473.177 298.516 472.505 298.084C471.857 297.676 471.389 297.136 471.101 296.464C470.813 295.792 470.669 294.952 470.669 293.944C470.669 293.176 470.777 292.528 470.993 292C471.233 291.496 471.593 291.04 472.073 290.632C472.577 290.224 473.225 289.828 474.017 289.444L476.177 288.256L477.581 288.76L475.817 290.092C475.337 290.452 474.929 290.812 474.593 291.172C474.281 291.508 474.041 291.868 473.873 292.252C473.729 292.66 473.657 293.14 473.657 293.692C473.657 294.508 473.813 295.132 474.125 295.564C474.437 295.996 474.989 296.284 475.781 296.428C476.573 296.596 477.677 296.68 479.093 296.68C480.509 296.68 481.601 296.596 482.369 296.428C483.161 296.26 483.713 295.96 484.025 295.528C484.337 295.096 484.493 294.484 484.493 293.692C484.493 293.092 484.409 292.636 484.241 292.324C484.097 292.012 483.809 291.772 483.377 291.604C482.945 291.436 482.309 291.292 481.469 291.172L475.169 290.308C474.425 290.212 473.825 289.972 473.369 289.588C472.937 289.204 472.637 288.748 472.469 288.22C472.301 287.692 472.253 287.164 472.325 286.636C472.397 286.084 472.577 285.58 472.865 285.124C473.153 284.644 473.525 284.284 473.981 284.044ZM130.88 317.036C131.408 317.036 131.996 317.06 132.644 317.108C133.292 317.156 133.952 317.24 134.624 317.36C135.32 317.48 135.956 317.648 136.532 317.864L136.136 319.844C135.344 319.772 134.504 319.724 133.616 319.7C132.752 319.652 132.008 319.628 131.384 319.628C129.992 319.628 128.888 319.82 128.072 320.204C127.256 320.588 126.668 321.26 126.308 322.22C125.948 323.18 125.768 324.512 125.768 326.216C125.768 327.92 125.948 329.264 126.308 330.248C126.668 331.208 127.256 331.88 128.072 332.264C128.888 332.648 129.992 332.84 131.384 332.84C131.744 332.84 132.212 332.828 132.788 332.804C133.364 332.78 133.976 332.744 134.624 332.696C135.296 332.648 135.932 332.576 136.532 332.48L136.856 334.532C135.968 334.844 134.996 335.072 133.94 335.216C132.908 335.36 131.876 335.432 130.844 335.432C128.828 335.432 127.208 335.132 125.984 334.532C124.76 333.932 123.872 332.96 123.32 331.616C122.792 330.272 122.528 328.472 122.528 326.216C122.528 323.96 122.804 322.16 123.356 320.816C123.908 319.472 124.796 318.512 126.02 317.936C127.244 317.336 128.864 317.036 130.88 317.036ZM148.14 317.036C150.156 317.036 151.764 317.336 152.964 317.936C154.188 318.536 155.064 319.52 155.592 320.888C156.12 322.232 156.384 324.02 156.384 326.252C156.384 328.484 156.12 330.284 155.592 331.652C155.064 332.996 154.188 333.968 152.964 334.568C151.764 335.168 150.156 335.468 148.14 335.468C146.148 335.468 144.54 335.168 143.316 334.568C142.116 333.968 141.24 332.996 140.688 331.652C140.16 330.284 139.896 328.484 139.896 326.252C139.896 324.02 140.16 322.232 140.688 320.888C141.24 319.52 142.116 318.536 143.316 317.936C144.54 317.336 146.148 317.036 148.14 317.036ZM148.14 319.628C146.868 319.628 145.86 319.832 145.116 320.24C144.396 320.624 143.88 321.296 143.568 322.256C143.256 323.216 143.1 324.548 143.1 326.252C143.1 327.956 143.256 329.288 143.568 330.248C143.88 331.208 144.396 331.892 145.116 332.3C145.86 332.684 146.868 332.876 148.14 332.876C149.412 332.876 150.42 332.684 151.164 332.3C151.908 331.892 152.436 331.208 152.748 330.248C153.06 329.288 153.216 327.956 153.216 326.252C153.216 324.548 153.06 323.216 152.748 322.256C152.436 321.296 151.908 320.624 151.164 320.24C150.42 319.832 149.412 319.628 148.14 319.628ZM182.533 317.036C184.045 317.036 185.197 317.444 185.989 318.26C186.805 319.076 187.213 320.276 187.213 321.86V335H184.189V322.724C184.165 321.644 183.949 320.864 183.541 320.384C183.133 319.88 182.437 319.628 181.453 319.628C180.829 319.628 180.229 319.736 179.653 319.952C179.101 320.144 178.489 320.456 177.817 320.888C177.145 321.32 176.329 321.884 175.369 322.58L175.189 320.42C176.461 319.292 177.697 318.452 178.897 317.9C180.097 317.324 181.309 317.036 182.533 317.036ZM163.705 317.468L163.921 320.816L164.245 321.356V335H161.185V317.468H163.705ZM171.049 317.036C172.537 317.036 173.677 317.444 174.469 318.26C175.261 319.052 175.669 320.252 175.693 321.86V335H172.741V322.724C172.741 321.596 172.513 320.804 172.057 320.348C171.601 319.868 170.917 319.628 170.005 319.628C169.405 319.628 168.817 319.724 168.241 319.916C167.689 320.108 167.065 320.42 166.369 320.852C165.697 321.284 164.869 321.86 163.885 322.58L163.669 320.42C164.941 319.292 166.177 318.452 167.377 317.9C168.577 317.324 169.801 317.036 171.049 317.036ZM214.068 317.036C215.58 317.036 216.732 317.444 217.524 318.26C218.34 319.076 218.748 320.276 218.748 321.86V335H215.724V322.724C215.7 321.644 215.484 320.864 215.076 320.384C214.668 319.88 213.972 319.628 212.988 319.628C212.364 319.628 211.764 319.736 211.188 319.952C210.636 320.144 210.024 320.456 209.352 320.888C208.68 321.32 207.864 321.884 206.904 322.58L206.724 320.42C207.996 319.292 209.232 318.452 210.432 317.9C211.632 317.324 212.844 317.036 214.068 317.036ZM195.24 317.468L195.456 320.816L195.78 321.356V335H192.72V317.468H195.24ZM202.584 317.036C204.072 317.036 205.212 317.444 206.004 318.26C206.796 319.052 207.204 320.252 207.228 321.86V335H204.276V322.724C204.276 321.596 204.048 320.804 203.592 320.348C203.136 319.868 202.452 319.628 201.54 319.628C200.94 319.628 200.352 319.724 199.776 319.916C199.224 320.108 198.6 320.42 197.904 320.852C197.232 321.284 196.404 321.86 195.42 322.58L195.204 320.42C196.476 319.292 197.712 318.452 198.912 317.9C200.112 317.324 201.336 317.036 202.584 317.036ZM227.207 317.468V329.78C227.183 330.884 227.387 331.664 227.819 332.12C228.251 332.576 228.971 332.804 229.979 332.804C230.963 332.804 231.935 332.576 232.895 332.12C233.879 331.64 235.055 330.956 236.423 330.068L236.819 332.192C235.451 333.272 234.119 334.088 232.823 334.64C231.551 335.192 230.255 335.468 228.935 335.468C225.743 335.468 224.147 333.86 224.147 330.644V317.468H227.207ZM239.159 317.468V335H236.711L236.423 331.688L236.099 331.148V317.468H239.159ZM255.443 317.036C258.611 317.036 260.195 318.644 260.195 321.86V335H257.135V322.724C257.135 321.548 256.943 320.744 256.559 320.312C256.175 319.856 255.527 319.628 254.615 319.628C253.535 319.628 252.455 319.892 251.375 320.42C250.295 320.948 249.011 321.668 247.523 322.58L247.379 320.384C248.747 319.328 250.103 318.512 251.447 317.936C252.791 317.336 254.123 317.036 255.443 317.036ZM247.379 317.468L247.631 320.816L247.847 321.356V335H244.787V317.468H247.379ZM268.872 317.468V335H265.848V317.468H268.872ZM268.08 310.016C268.704 310.016 269.016 310.328 269.016 310.952V313.004C269.016 313.628 268.704 313.94 268.08 313.94H266.64C266.016 313.94 265.704 313.628 265.704 313.004V310.952C265.704 310.328 266.016 310.016 266.64 310.016H268.08ZM282.122 317.036C282.65 317.036 283.238 317.06 283.886 317.108C284.534 317.156 285.194 317.24 285.866 317.36C286.562 317.48 287.198 317.648 287.774 317.864L287.378 319.844C286.586 319.772 285.746 319.724 284.858 319.7C283.994 319.652 283.25 319.628 282.626 319.628C281.234 319.628 280.13 319.82 279.314 320.204C278.498 320.588 277.91 321.26 277.55 322.22C277.19 323.18 277.01 324.512 277.01 326.216C277.01 327.92 277.19 329.264 277.55 330.248C277.91 331.208 278.498 331.88 279.314 332.264C280.13 332.648 281.234 332.84 282.626 332.84C282.986 332.84 283.454 332.828 284.03 332.804C284.606 332.78 285.218 332.744 285.866 332.696C286.538 332.648 287.174 332.576 287.774 332.48L288.098 334.532C287.21 334.844 286.238 335.072 285.182 335.216C284.15 335.36 283.118 335.432 282.086 335.432C280.07 335.432 278.45 335.132 277.226 334.532C276.002 333.932 275.114 332.96 274.562 331.616C274.034 330.272 273.77 328.472 273.77 326.216C273.77 323.96 274.046 322.16 274.598 320.816C275.15 319.472 276.038 318.512 277.262 317.936C278.486 317.336 280.106 317.036 282.122 317.036ZM300.527 317.036C301.823 317.036 302.915 317.216 303.803 317.576C304.715 317.912 305.399 318.488 305.855 319.304C306.311 320.12 306.539 321.236 306.539 322.652V335H304.127L303.659 331.184L303.443 330.788V322.652C303.443 321.572 303.191 320.804 302.687 320.348C302.207 319.868 301.271 319.628 299.879 319.628C298.967 319.628 297.815 319.676 296.423 319.772C295.055 319.868 293.699 319.976 292.355 320.096L292.067 317.828C292.883 317.684 293.771 317.552 294.731 317.432C295.715 317.312 296.711 317.216 297.719 317.144C298.727 317.072 299.663 317.036 300.527 317.036ZM305.099 324.2L305.063 326.504L296.675 326.54C295.835 326.564 295.247 326.792 294.911 327.224C294.575 327.632 294.407 328.208 294.407 328.952V330.068C294.407 330.98 294.623 331.652 295.055 332.084C295.487 332.492 296.183 332.696 297.143 332.696C297.815 332.696 298.571 332.576 299.411 332.336C300.275 332.072 301.139 331.676 302.003 331.148C302.867 330.62 303.659 329.948 304.379 329.132V331.4C304.115 331.736 303.731 332.132 303.227 332.588C302.747 333.02 302.159 333.452 301.463 333.884C300.791 334.292 300.035 334.64 299.195 334.928C298.379 335.192 297.491 335.324 296.531 335.324C295.499 335.324 294.587 335.144 293.795 334.784C293.003 334.4 292.379 333.848 291.923 333.128C291.491 332.384 291.275 331.484 291.275 330.428V328.52C291.275 327.152 291.695 326.096 292.535 325.352C293.399 324.584 294.599 324.2 296.135 324.2H305.099ZM316.397 312.284V330.176C316.397 331.016 316.577 331.616 316.937 331.976C317.297 332.336 317.909 332.516 318.773 332.516H321.437L321.797 334.856C321.413 334.952 320.969 335.036 320.465 335.108C319.961 335.18 319.469 335.228 318.989 335.252C318.509 335.3 318.125 335.324 317.837 335.324C316.373 335.324 315.257 334.916 314.489 334.1C313.721 333.284 313.337 332.108 313.337 330.572V312.284H316.397ZM321.977 317.468V319.88H310.169V317.648L313.625 317.468H321.977ZM328.884 317.468V335H325.86V317.468H328.884ZM328.092 310.016C328.716 310.016 329.028 310.328 329.028 310.952V313.004C329.028 313.628 328.716 313.94 328.092 313.94H326.652C326.028 313.94 325.716 313.628 325.716 313.004V310.952C325.716 310.328 326.028 310.016 326.652 310.016H328.092ZM342.062 317.036C344.078 317.036 345.686 317.336 346.886 317.936C348.11 318.536 348.986 319.52 349.514 320.888C350.042 322.232 350.306 324.02 350.306 326.252C350.306 328.484 350.042 330.284 349.514 331.652C348.986 332.996 348.11 333.968 346.886 334.568C345.686 335.168 344.078 335.468 342.062 335.468C340.07 335.468 338.462 335.168 337.238 334.568C336.038 333.968 335.162 332.996 334.61 331.652C334.082 330.284 333.818 328.484 333.818 326.252C333.818 324.02 334.082 322.232 334.61 320.888C335.162 319.52 336.038 318.536 337.238 317.936C338.462 317.336 340.07 317.036 342.062 317.036ZM342.062 319.628C340.79 319.628 339.782 319.832 339.038 320.24C338.318 320.624 337.802 321.296 337.49 322.256C337.178 323.216 337.022 324.548 337.022 326.252C337.022 327.956 337.178 329.288 337.49 330.248C337.802 331.208 338.318 331.892 339.038 332.3C339.782 332.684 340.79 332.876 342.062 332.876C343.334 332.876 344.342 332.684 345.086 332.3C345.83 331.892 346.358 331.208 346.67 330.248C346.982 329.288 347.138 327.956 347.138 326.252C347.138 324.548 346.982 323.216 346.67 322.256C346.358 321.296 345.83 320.624 345.086 320.24C344.342 319.832 343.334 319.628 342.062 319.628ZM365.763 317.036C368.931 317.036 370.515 318.644 370.515 321.86V335H367.455V322.724C367.455 321.548 367.263 320.744 366.879 320.312C366.495 319.856 365.847 319.628 364.935 319.628C363.855 319.628 362.775 319.892 361.695 320.42C360.615 320.948 359.331 321.668 357.843 322.58L357.699 320.384C359.067 319.328 360.423 318.512 361.767 317.936C363.111 317.336 364.443 317.036 365.763 317.036ZM357.699 317.468L357.951 320.816L358.167 321.356V335H355.107V317.468H357.699ZM389.872 317.036C390.64 317.036 391.456 317.06 392.32 317.108C393.184 317.156 394.036 317.216 394.876 317.288C395.74 317.36 396.532 317.456 397.252 317.576L397 319.808C395.896 319.76 394.78 319.724 393.652 319.7C392.548 319.652 391.444 319.628 390.34 319.628C389.26 319.604 388.408 319.628 387.784 319.7C387.16 319.772 386.704 319.964 386.416 320.276C386.152 320.588 386.02 321.116 386.02 321.86C386.02 322.772 386.236 323.372 386.668 323.66C387.1 323.948 387.736 324.188 388.576 324.38L393.688 325.532C395.08 325.868 396.1 326.384 396.748 327.08C397.42 327.776 397.756 328.868 397.756 330.356C397.756 331.796 397.48 332.876 396.928 333.596C396.4 334.316 395.584 334.796 394.48 335.036C393.376 335.276 391.972 335.396 390.268 335.396C389.644 335.396 388.708 335.372 387.46 335.324C386.236 335.276 384.88 335.132 383.392 334.892L383.608 332.66C384.184 332.684 384.796 332.72 385.444 332.768C386.092 332.792 386.764 332.804 387.46 332.804C388.18 332.804 388.912 332.804 389.656 332.804C390.976 332.804 392.008 332.744 392.752 332.624C393.496 332.504 394.024 332.276 394.336 331.94C394.648 331.58 394.804 331.052 394.804 330.356C394.804 329.492 394.552 328.916 394.048 328.628C393.544 328.34 392.872 328.1 392.032 327.908L386.992 326.756C386.032 326.516 385.264 326.204 384.688 325.82C384.112 325.412 383.692 324.896 383.428 324.272C383.164 323.624 383.032 322.82 383.032 321.86C383.032 320.492 383.272 319.46 383.752 318.764C384.232 318.068 384.976 317.6 385.984 317.36C386.992 317.12 388.288 317.012 389.872 317.036ZM416.65 317.468L411.142 323.912C410.974 324.128 410.77 324.356 410.53 324.596C410.29 324.812 410.086 324.98 409.918 325.1V325.172C410.086 325.292 410.29 325.496 410.53 325.784C410.77 326.048 410.974 326.312 411.142 326.576L417.226 335H413.662L406.714 324.956L413.086 317.468H416.65ZM405.382 309.8L405.418 320.996C405.418 321.74 405.382 322.436 405.31 323.084C405.262 323.708 405.178 324.368 405.058 325.064C405.178 325.736 405.262 326.408 405.31 327.08C405.358 327.752 405.382 328.4 405.382 329.024V335H402.322V309.8H405.382ZM408.37 323.984V326.216H404.302V323.984H408.37ZM423.806 317.468V335H420.782V317.468H423.806ZM423.014 310.016C423.638 310.016 423.95 310.328 423.95 310.952V313.004C423.95 313.628 423.638 313.94 423.014 313.94H421.574C420.95 313.94 420.638 313.628 420.638 313.004V310.952C420.638 310.328 420.95 310.016 421.574 310.016H423.014ZM432.664 309.8L432.628 330.176C432.628 330.944 432.832 331.532 433.24 331.94C433.672 332.324 434.272 332.516 435.04 332.516H436.732L437.092 334.856C436.876 334.952 436.564 335.036 436.156 335.108C435.772 335.18 435.364 335.228 434.932 335.252C434.524 335.3 434.176 335.324 433.888 335.324C432.592 335.324 431.548 334.94 430.756 334.172C429.988 333.404 429.604 332.3 429.604 330.86V309.8H432.664ZM443.351 309.8L443.315 330.176C443.315 330.944 443.519 331.532 443.927 331.94C444.359 332.324 444.959 332.516 445.727 332.516H447.419L447.779 334.856C447.563 334.952 447.251 335.036 446.843 335.108C446.459 335.18 446.051 335.228 445.619 335.252C445.211 335.3 444.863 335.324 444.575 335.324C443.279 335.324 442.235 334.94 441.443 334.172C440.675 333.404 440.291 332.3 440.291 330.86V309.8H443.351ZM456.775 317.036C457.543 317.036 458.359 317.06 459.223 317.108C460.087 317.156 460.939 317.216 461.779 317.288C462.643 317.36 463.435 317.456 464.155 317.576L463.903 319.808C462.799 319.76 461.683 319.724 460.555 319.7C459.451 319.652 458.347 319.628 457.243 319.628C456.163 319.604 455.311 319.628 454.687 319.7C454.063 319.772 453.607 319.964 453.319 320.276C453.055 320.588 452.923 321.116 452.923 321.86C452.923 322.772 453.139 323.372 453.571 323.66C454.003 323.948 454.639 324.188 455.479 324.38L460.591 325.532C461.983 325.868 463.003 326.384 463.651 327.08C464.323 327.776 464.659 328.868 464.659 330.356C464.659 331.796 464.383 332.876 463.831 333.596C463.303 334.316 462.487 334.796 461.383 335.036C460.279 335.276 458.875 335.396 457.171 335.396C456.547 335.396 455.611 335.372 454.363 335.324C453.139 335.276 451.783 335.132 450.295 334.892L450.511 332.66C451.087 332.684 451.699 332.72 452.347 332.768C452.995 332.792 453.667 332.804 454.363 332.804C455.083 332.804 455.815 332.804 456.559 332.804C457.879 332.804 458.911 332.744 459.655 332.624C460.399 332.504 460.927 332.276 461.239 331.94C461.551 331.58 461.707 331.052 461.707 330.356C461.707 329.492 461.455 328.916 460.951 328.628C460.447 328.34 459.775 328.1 458.935 327.908L453.895 326.756C452.935 326.516 452.167 326.204 451.591 325.82C451.015 325.412 450.595 324.896 450.331 324.272C450.067 323.624 449.935 322.82 449.935 321.86C449.935 320.492 450.175 319.46 450.655 318.764C451.135 318.068 451.879 317.6 452.887 317.36C453.895 317.12 455.191 317.012 456.775 317.036Z" fill="white"/>
</svg>
