<svg width="612" height="554" viewBox="0 0 612 554" fill="none" xmlns="http://www.w3.org/2000/svg">
<path d="M190 18.5C177.167 52.5 148.4 126.8 114 94C100.5 94 76.4999 79.5001 76.4999 147.5C76.4999 199.5 76.4999 183.5 29 188C-18.4999 192.5 29 217.5 47 267.5C65 317.5 29.0001 281 6.50006 322C-15.9999 363 45.0001 344.5 95.0001 371.5C145 398.5 90.4999 410 76.4999 435C62.4999 460 85.4999 480 138 480C190.5 480 162.5 480 190 534.5C217.5 589 215 500.5 271.5 500.5C328 500.5 321 523.5 359.5 534.5C398 545.5 359.5 500.5 396 480C432.5 459.5 421 494 459.5 500.5C498 507 475 466.5 493 435C511 403.5 504.5 446.5 550 435C595.5 423.5 538.5 389.5 550 344.5C561.5 299.5 584 331 604 308C624 285 593 260.5 550 247C507 233.5 538.5 188 550 147.5C561.5 107 516 116 475 109C434 102 468.5 79.5001 421 18.5C373.5 -42.5 339.5 102 287 36.5C245 -15.9 204.833 2.66672 190 18.5Z" fill="#FF9D4E" stroke="#FF9D4E" stroke-width="3"/>
<path d="M117.575 204.84V249H111.943V204.84H117.575ZM138.631 222.952V227.816H117.063V222.952H138.631ZM143.559 204.84V249H137.927V204.84H143.559ZM170.501 204.84V249H164.869V204.84H170.501ZM184.773 204.84V209.832H150.661V204.84H184.773ZM233.609 204.84C235.145 204.84 235.913 205.629 235.913 207.208L237.769 249H232.137L230.537 209.512H229.193L219.337 242.088C218.995 243.368 218.185 244.008 216.905 244.008H211.849C210.526 244.008 209.673 243.368 209.289 242.088L199.433 209.512H198.153L196.617 249H190.985L192.713 207.208C192.798 205.629 193.587 204.84 195.081 204.84H201.481C202.675 204.84 203.465 205.48 203.849 206.76L212.105 233.704C212.446 234.685 212.723 235.667 212.937 236.648C213.193 237.629 213.47 238.632 213.769 239.656H214.921C215.219 238.632 215.497 237.629 215.753 236.648C216.009 235.667 216.286 234.643 216.585 233.576L224.841 206.76C225.182 205.48 225.993 204.84 227.273 204.84H233.609ZM253.446 204.84V240.04C253.446 241.491 253.787 242.557 254.47 243.24C255.195 243.923 256.283 244.264 257.734 244.264H273.67L273.926 248.616C271.152 248.829 268.315 248.957 265.414 249C262.555 249.043 259.696 249.064 256.838 249.064C253.595 249.064 251.291 248.275 249.926 246.696C248.56 245.117 247.878 243.133 247.878 240.744V204.84H253.446ZM306.673 204.84L281.521 253.224H277.041L302.193 204.84H306.673ZM328.811 204.072C330.688 204.072 332.288 204.115 333.611 204.2C334.976 204.285 336.213 204.435 337.323 204.648C338.475 204.819 339.648 205.053 340.843 205.352L340.267 209.64C338.987 209.512 337.792 209.405 336.683 209.32C335.616 209.235 334.464 209.171 333.227 209.128C331.989 209.085 330.517 209.064 328.811 209.064C325.952 209.064 323.691 209.619 322.027 210.728C320.363 211.837 319.168 213.693 318.443 216.296C317.76 218.899 317.419 222.44 317.419 226.92C317.419 231.4 317.76 234.941 318.443 237.544C319.168 240.147 320.363 242.003 322.027 243.112C323.691 244.221 325.952 244.776 328.811 244.776C331.541 244.776 333.824 244.733 335.659 244.648C337.536 244.52 339.371 244.328 341.163 244.072L341.739 248.296C339.904 248.808 338.005 249.171 336.043 249.384C334.123 249.64 331.712 249.768 328.811 249.768C324.587 249.768 321.195 249.043 318.635 247.592C316.117 246.099 314.283 243.688 313.131 240.36C312.021 237.032 311.467 232.552 311.467 226.92C311.467 221.288 312.021 216.808 313.131 213.48C314.283 210.152 316.117 207.763 318.635 206.312C321.195 204.819 324.587 204.072 328.811 204.072ZM361.919 204.072C364.009 204.115 366.164 204.221 368.383 204.392C370.601 204.563 372.82 204.883 375.039 205.352L374.655 209.448C372.82 209.363 370.793 209.299 368.575 209.256C366.356 209.171 364.223 209.128 362.175 209.128C360.596 209.128 359.231 209.192 358.079 209.32C356.969 209.405 356.052 209.661 355.327 210.088C354.601 210.472 354.068 211.133 353.727 212.072C353.428 212.968 353.279 214.227 353.279 215.848C353.279 218.28 353.705 219.987 354.559 220.968C355.455 221.907 356.884 222.611 358.847 223.08L367.807 225.32C371.22 226.131 373.545 227.56 374.783 229.608C376.063 231.613 376.703 234.323 376.703 237.736C376.703 240.296 376.404 242.365 375.807 243.944C375.252 245.523 374.377 246.739 373.183 247.592C371.988 248.403 370.452 248.957 368.575 249.256C366.697 249.597 364.479 249.768 361.919 249.768C360.468 249.768 358.569 249.704 356.223 249.576C353.919 249.448 351.252 249.107 348.223 248.552L348.607 244.392C351.124 244.477 353.151 244.563 354.687 244.648C356.223 244.691 357.545 244.712 358.655 244.712C359.764 244.712 360.916 244.712 362.111 244.712C364.372 244.712 366.143 244.541 367.423 244.2C368.745 243.859 369.663 243.176 370.175 242.152C370.729 241.128 371.007 239.613 371.007 237.608C371.007 235.901 370.815 234.579 370.431 233.64C370.047 232.701 369.428 231.997 368.575 231.528C367.764 231.016 366.719 230.611 365.439 230.312L356.287 228.008C353.087 227.197 350.825 225.789 349.503 223.784C348.223 221.779 347.583 219.091 347.583 215.72C347.583 213.16 347.86 211.112 348.415 209.576C349.012 207.997 349.887 206.824 351.039 206.056C352.233 205.245 353.727 204.712 355.519 204.456C357.311 204.2 359.444 204.072 361.919 204.072ZM397.794 204.072C399.884 204.115 402.039 204.221 404.258 204.392C406.476 204.563 408.695 204.883 410.914 205.352L410.53 209.448C408.695 209.363 406.668 209.299 404.45 209.256C402.231 209.171 400.098 209.128 398.05 209.128C396.471 209.128 395.106 209.192 393.954 209.32C392.844 209.405 391.927 209.661 391.202 210.088C390.476 210.472 389.943 211.133 389.602 212.072C389.303 212.968 389.154 214.227 389.154 215.848C389.154 218.28 389.58 219.987 390.434 220.968C391.33 221.907 392.759 222.611 394.722 223.08L403.682 225.32C407.095 226.131 409.42 227.56 410.658 229.608C411.938 231.613 412.578 234.323 412.578 237.736C412.578 240.296 412.279 242.365 411.682 243.944C411.127 245.523 410.252 246.739 409.058 247.592C407.863 248.403 406.327 248.957 404.45 249.256C402.572 249.597 400.354 249.768 397.794 249.768C396.343 249.768 394.444 249.704 392.098 249.576C389.794 249.448 387.127 249.107 384.098 248.552L384.482 244.392C386.999 244.477 389.026 244.563 390.562 244.648C392.098 244.691 393.42 244.712 394.53 244.712C395.639 244.712 396.791 244.712 397.986 244.712C400.247 244.712 402.018 244.541 403.298 244.2C404.62 243.859 405.538 243.176 406.05 242.152C406.604 241.128 406.882 239.613 406.882 237.608C406.882 235.901 406.69 234.579 406.306 233.64C405.922 232.701 405.303 231.997 404.45 231.528C403.639 231.016 402.594 230.611 401.314 230.312L392.162 228.008C388.962 227.197 386.7 225.789 385.378 223.784C384.098 221.779 383.458 219.091 383.458 215.72C383.458 213.16 383.735 211.112 384.29 209.576C384.887 207.997 385.762 206.824 386.914 206.056C388.108 205.245 389.602 204.712 391.394 204.456C393.186 204.2 395.319 204.072 397.794 204.072ZM447.173 204.84L422.021 253.224H417.541L442.693 204.84H447.173ZM463.384 204.84V239.72C463.384 242.963 462.637 245.416 461.144 247.08C459.693 248.744 457.581 249.576 454.808 249.576C454.253 249.576 453.592 249.533 452.824 249.448C452.099 249.405 451.373 249.32 450.648 249.192C449.965 249.064 449.389 248.915 448.92 248.744L449.56 244.776H452.76C456.088 244.776 457.752 243.155 457.752 239.912V204.84H463.384ZM486.606 204.072C488.697 204.115 490.851 204.221 493.07 204.392C495.289 204.563 497.507 204.883 499.726 205.352L499.342 209.448C497.507 209.363 495.481 209.299 493.262 209.256C491.043 209.171 488.91 209.128 486.862 209.128C485.283 209.128 483.918 209.192 482.766 209.32C481.657 209.405 480.739 209.661 480.014 210.088C479.289 210.472 478.755 211.133 478.414 212.072C478.115 212.968 477.966 214.227 477.966 215.848C477.966 218.28 478.393 219.987 479.246 220.968C480.142 221.907 481.571 222.611 483.534 223.08L492.494 225.32C495.907 226.131 498.233 227.56 499.47 229.608C500.75 231.613 501.39 234.323 501.39 237.736C501.39 240.296 501.091 242.365 500.494 243.944C499.939 245.523 499.065 246.739 497.87 247.592C496.675 248.403 495.139 248.957 493.262 249.256C491.385 249.597 489.166 249.768 486.606 249.768C485.155 249.768 483.257 249.704 480.91 249.576C478.606 249.448 475.939 249.107 472.91 248.552L473.294 244.392C475.811 244.477 477.838 244.563 479.374 244.648C480.91 244.691 482.233 244.712 483.342 244.712C484.451 244.712 485.603 244.712 486.798 244.712C489.059 244.712 490.83 244.541 492.11 244.2C493.433 243.859 494.35 243.176 494.862 242.152C495.417 241.128 495.694 239.613 495.694 237.608C495.694 235.901 495.502 234.579 495.118 233.64C494.734 232.701 494.115 231.997 493.262 231.528C492.451 231.016 491.406 230.611 490.126 230.312L480.974 228.008C477.774 227.197 475.513 225.789 474.19 223.784C472.91 221.779 472.27 219.091 472.27 215.72C472.27 213.16 472.547 211.112 473.102 209.576C473.699 207.997 474.574 206.824 475.726 206.056C476.921 205.245 478.414 204.712 480.206 204.456C481.998 204.2 484.131 204.072 486.606 204.072ZM112.266 294.064C113.632 294.064 115.082 294.107 116.618 294.192C118.154 294.277 119.669 294.384 121.162 294.512C122.698 294.64 124.106 294.811 125.386 295.024L124.938 298.992C122.976 298.907 120.992 298.843 118.986 298.8C117.024 298.715 115.061 298.672 113.098 298.672C111.178 298.629 109.664 298.672 108.554 298.8C107.445 298.928 106.634 299.269 106.122 299.824C105.653 300.379 105.418 301.317 105.418 302.64C105.418 304.261 105.802 305.328 106.57 305.84C107.338 306.352 108.469 306.779 109.962 307.12L119.05 309.168C121.525 309.765 123.338 310.683 124.49 311.92C125.685 313.157 126.282 315.099 126.282 317.744C126.282 320.304 125.792 322.224 124.81 323.504C123.872 324.784 122.421 325.637 120.458 326.064C118.496 326.491 116 326.704 112.97 326.704C111.861 326.704 110.197 326.661 107.978 326.576C105.802 326.491 103.392 326.235 100.746 325.808L101.13 321.84C102.154 321.883 103.242 321.947 104.394 322.032C105.546 322.075 106.741 322.096 107.978 322.096C109.258 322.096 110.56 322.096 111.882 322.096C114.229 322.096 116.064 321.989 117.386 321.776C118.709 321.563 119.648 321.157 120.202 320.56C120.757 319.92 121.034 318.981 121.034 317.744C121.034 316.208 120.586 315.184 119.69 314.672C118.794 314.16 117.6 313.733 116.106 313.392L107.146 311.344C105.44 310.917 104.074 310.363 103.05 309.68C102.026 308.955 101.28 308.037 100.81 306.928C100.341 305.776 100.106 304.347 100.106 302.64C100.106 300.208 100.533 298.373 101.386 297.136C102.24 295.899 103.562 295.067 105.354 294.64C107.146 294.213 109.45 294.021 112.266 294.064ZM142.206 285.616V317.424C142.206 318.917 142.526 319.984 143.166 320.624C143.806 321.264 144.894 321.584 146.43 321.584H151.166L151.806 325.744C151.124 325.915 150.334 326.064 149.438 326.192C148.542 326.32 147.668 326.405 146.814 326.448C145.961 326.533 145.278 326.576 144.766 326.576C142.164 326.576 140.18 325.851 138.814 324.4C137.449 322.949 136.766 320.859 136.766 318.128V285.616H142.206ZM152.126 294.832V299.12H131.134V295.152L137.278 294.832H152.126ZM186.421 294.832L173.941 327.728C173.429 329.093 172.789 330.437 172.021 331.76C171.253 333.083 170.315 334.277 169.205 335.344C168.139 336.453 166.859 337.349 165.365 338.032C163.915 338.715 162.229 339.099 160.309 339.184L159.797 335.6C162.315 334.789 164.256 333.701 165.621 332.336C166.987 330.971 168.075 329.307 168.885 327.344L170.421 323.632C170.763 322.779 171.104 321.84 171.445 320.816C171.787 319.792 172.107 318.875 172.405 318.064L180.533 294.832H186.421ZM160.757 294.832L169.013 318.064C169.227 318.704 169.44 319.344 169.653 319.984C169.867 320.581 170.037 321.2 170.165 321.84H171.637L169.845 326H168.181C167.755 326 167.349 325.872 166.965 325.616C166.624 325.36 166.389 325.019 166.261 324.592L154.933 294.832H160.757ZM198.152 281.2L198.088 317.424C198.088 318.789 198.451 319.835 199.176 320.56C199.944 321.243 201.011 321.584 202.376 321.584H205.384L206.024 325.744C205.64 325.915 205.086 326.064 204.36 326.192C203.678 326.32 202.952 326.405 202.184 326.448C201.459 326.533 200.84 326.576 200.328 326.576C198.024 326.576 196.168 325.893 194.76 324.528C193.395 323.163 192.712 321.2 192.712 318.64V281.2H198.152ZM217.28 294.832V326H211.904V294.832H217.28ZM215.872 281.584C216.982 281.584 217.536 282.139 217.536 283.248V286.896C217.536 288.005 216.982 288.56 215.872 288.56H213.312C212.203 288.56 211.648 288.005 211.648 286.896V283.248C211.648 282.139 212.203 281.584 213.312 281.584H215.872ZM246.467 294.064C252.099 294.064 254.915 296.923 254.915 302.64V326H249.475V304.176C249.475 302.085 249.134 300.656 248.451 299.888C247.769 299.077 246.617 298.672 244.995 298.672C243.075 298.672 241.155 299.141 239.235 300.08C237.315 301.019 235.033 302.299 232.387 303.92L232.131 300.016C234.563 298.139 236.974 296.688 239.363 295.664C241.753 294.597 244.121 294.064 246.467 294.064ZM232.131 294.832L232.579 300.784L232.963 301.744V326H227.523V294.832H232.131ZM277.063 294.064C280.391 294.064 283.015 294.405 284.935 295.088C286.897 295.771 288.284 296.837 289.095 298.288C289.948 299.739 290.375 301.637 290.375 303.984C290.375 306.245 289.948 308.123 289.095 309.616C288.284 311.067 286.897 312.155 284.935 312.88C282.972 313.563 280.327 313.904 276.999 313.904C273.671 313.904 271.025 313.563 269.063 312.88C267.143 312.155 265.756 311.067 264.903 309.616C264.092 308.165 263.687 306.309 263.687 304.048C263.687 301.701 264.092 299.803 264.903 298.352C265.756 296.859 267.164 295.771 269.127 295.088C271.089 294.405 273.735 294.064 277.063 294.064ZM276.999 298.224C273.884 298.224 271.708 298.672 270.471 299.568C269.276 300.421 268.679 301.893 268.679 303.984C268.679 306.032 269.276 307.504 270.471 308.4C271.708 309.296 273.884 309.744 276.999 309.744C280.156 309.744 282.332 309.296 283.527 308.4C284.721 307.504 285.319 306.032 285.319 303.984C285.319 301.893 284.721 300.421 283.527 299.568C282.332 298.672 280.156 298.224 276.999 298.224ZM294.023 294.832L293.703 297.84L285.767 298.48L283.527 294.832H294.023ZM268.231 311.856L271.367 312.304C270.641 312.944 270.151 313.733 269.895 314.672C269.639 315.568 269.703 316.4 270.087 317.168C270.513 317.936 271.388 318.427 272.711 318.64L284.359 320.496C287.303 320.923 289.351 321.84 290.503 323.248C291.655 324.656 292.231 326.661 292.231 329.264C292.231 331.696 291.761 333.616 290.823 335.024C289.927 336.432 288.391 337.435 286.215 338.032C284.039 338.629 281.095 338.928 277.383 338.928C274.567 338.928 272.199 338.757 270.279 338.416C268.359 338.117 266.801 337.584 265.607 336.816C264.455 336.091 263.623 335.131 263.111 333.936C262.599 332.741 262.343 331.248 262.343 329.456C262.343 328.091 262.535 326.939 262.919 326C263.345 325.104 263.985 324.293 264.839 323.568C265.735 322.843 266.887 322.139 268.295 321.456L272.135 319.344L274.631 320.24L271.495 322.608C270.641 323.248 269.916 323.888 269.319 324.528C268.764 325.125 268.337 325.765 268.039 326.448C267.783 327.173 267.655 328.027 267.655 329.008C267.655 330.459 267.932 331.568 268.487 332.336C269.041 333.104 270.023 333.616 271.431 333.872C272.839 334.171 274.801 334.32 277.319 334.32C279.836 334.32 281.777 334.171 283.143 333.872C284.551 333.573 285.532 333.04 286.087 332.272C286.641 331.504 286.919 330.416 286.919 329.008C286.919 327.941 286.769 327.131 286.471 326.576C286.215 326.021 285.703 325.595 284.935 325.296C284.167 324.997 283.036 324.741 281.543 324.528L270.343 322.992C269.02 322.821 267.953 322.395 267.143 321.712C266.375 321.029 265.841 320.219 265.543 319.28C265.244 318.341 265.159 317.403 265.287 316.464C265.415 315.483 265.735 314.587 266.247 313.776C266.759 312.923 267.42 312.283 268.231 311.856ZM332.504 294.064C336.302 294.064 339.032 295.472 340.696 298.288C342.36 301.061 343.192 305.157 343.192 310.576C343.192 314.587 342.766 317.787 341.912 320.176C341.059 322.523 339.758 324.208 338.008 325.232C336.302 326.256 334.104 326.768 331.416 326.768C329.368 326.768 327.342 326.491 325.336 325.936C323.374 325.381 321.454 324.528 319.576 323.376L319.896 320.112C321.902 320.667 323.672 321.136 325.208 321.52C326.744 321.861 328.366 322.032 330.072 322.032C331.907 322.032 333.358 321.712 334.424 321.072C335.534 320.432 336.344 319.28 336.856 317.616C337.368 315.952 337.624 313.605 337.624 310.576C337.624 307.632 337.39 305.307 336.92 303.6C336.451 301.893 335.704 300.677 334.68 299.952C333.699 299.184 332.376 298.8 330.712 298.8C329.006 298.8 327.32 299.205 325.656 300.016C323.992 300.827 322.051 302.064 319.832 303.728L319.32 300.08C320.472 298.843 321.774 297.776 323.224 296.88C324.675 295.984 326.19 295.301 327.768 294.832C329.39 294.32 330.968 294.064 332.504 294.064ZM319.128 294.832L319.704 301.296L320.088 302.128V322.096L319.832 322.864C319.96 324.059 320.024 325.211 320.024 326.32C320.067 327.429 320.088 328.603 320.088 329.84V338.864H314.648V294.832H319.128ZM355.997 294.832L356.701 300.784L357.213 301.744V326H351.773V294.832H355.997ZM371.293 294.064L370.653 299.184H368.861C367.027 299.184 365.192 299.568 363.357 300.336C361.523 301.061 359.283 302.107 356.637 303.472L356.189 300.08C358.493 298.203 360.797 296.731 363.101 295.664C365.448 294.597 367.709 294.064 369.885 294.064H371.293ZM389.832 294.064C393.416 294.064 396.275 294.597 398.408 295.664C400.584 296.731 402.142 298.48 403.08 300.912C404.019 303.301 404.488 306.48 404.488 310.448C404.488 314.416 404.019 317.616 403.08 320.048C402.142 322.437 400.584 324.165 398.408 325.232C396.275 326.299 393.416 326.832 389.832 326.832C386.291 326.832 383.432 326.299 381.256 325.232C379.123 324.165 377.566 322.437 376.584 320.048C375.646 317.616 375.176 314.416 375.176 310.448C375.176 306.48 375.646 303.301 376.584 300.912C377.566 298.48 379.123 296.731 381.256 295.664C383.432 294.597 386.291 294.064 389.832 294.064ZM389.832 298.672C387.571 298.672 385.779 299.035 384.456 299.76C383.176 300.443 382.259 301.637 381.704 303.344C381.15 305.051 380.872 307.419 380.872 310.448C380.872 313.477 381.15 315.845 381.704 317.552C382.259 319.259 383.176 320.475 384.456 321.2C385.779 321.883 387.571 322.224 389.832 322.224C392.094 322.224 393.886 321.883 395.208 321.2C396.531 320.475 397.47 319.259 398.024 317.552C398.579 315.845 398.856 313.477 398.856 310.448C398.856 307.419 398.579 305.051 398.024 303.344C397.47 301.637 396.531 300.443 395.208 299.76C393.886 299.035 392.094 298.672 389.832 298.672ZM418.783 294.832V326.768C418.783 328.432 418.527 330.011 418.015 331.504C417.546 333.04 416.863 334.427 415.967 335.664C415.071 336.944 414.005 338.053 412.767 338.992L409.759 336.624C410.997 335.131 411.893 333.616 412.447 332.08C413.045 330.544 413.343 328.773 413.343 326.768V294.832H418.783ZM417.375 281.584C418.442 281.584 418.975 282.139 418.975 283.248V286.896C418.975 288.005 418.442 288.56 417.375 288.56H414.815C413.706 288.56 413.151 288.005 413.151 286.896V283.248C413.151 282.139 413.706 281.584 414.815 281.584H417.375ZM441.823 294.064C446.517 294.064 449.909 294.917 451.999 296.624C454.133 298.331 455.199 300.869 455.199 304.24C455.242 307.013 454.666 309.189 453.471 310.768C452.277 312.304 450.378 313.072 447.775 313.072H429.599V308.848H446.367C447.775 308.848 448.693 308.379 449.119 307.44C449.546 306.459 449.759 305.392 449.759 304.24C449.717 302.235 449.119 300.805 447.967 299.952C446.815 299.099 444.853 298.672 442.079 298.672C439.818 298.672 438.026 299.013 436.703 299.696C435.423 300.336 434.506 301.488 433.951 303.152C433.439 304.773 433.183 307.056 433.183 310C433.183 313.328 433.503 315.867 434.143 317.616C434.826 319.365 435.893 320.56 437.343 321.2C438.794 321.84 440.714 322.16 443.103 322.16C444.767 322.16 446.581 322.096 448.543 321.968C450.549 321.797 452.341 321.605 453.919 321.392L454.495 325.04C453.514 325.424 452.298 325.744 450.847 326C449.439 326.256 447.967 326.448 446.431 326.576C444.938 326.704 443.594 326.768 442.399 326.768C438.815 326.768 435.935 326.235 433.759 325.168C431.583 324.059 429.983 322.309 428.959 319.92C427.978 317.488 427.487 314.288 427.487 310.32C427.487 306.224 427.978 303.003 428.959 300.656C429.983 298.267 431.541 296.581 433.631 295.6C435.765 294.576 438.495 294.064 441.823 294.064ZM476.71 294.064C477.649 294.064 478.694 294.107 479.846 294.192C480.998 294.277 482.172 294.427 483.366 294.64C484.604 294.853 485.734 295.152 486.758 295.536L486.054 299.056C484.646 298.928 483.153 298.843 481.574 298.8C480.038 298.715 478.716 298.672 477.606 298.672C475.132 298.672 473.169 299.013 471.718 299.696C470.268 300.379 469.222 301.573 468.582 303.28C467.942 304.987 467.622 307.355 467.622 310.384C467.622 313.413 467.942 315.803 468.582 317.552C469.222 319.259 470.268 320.453 471.718 321.136C473.169 321.819 475.132 322.16 477.606 322.16C478.246 322.16 479.078 322.139 480.102 322.096C481.126 322.053 482.214 321.989 483.366 321.904C484.561 321.819 485.692 321.691 486.758 321.52L487.334 325.168C485.756 325.723 484.028 326.128 482.15 326.384C480.316 326.64 478.481 326.768 476.646 326.768C473.062 326.768 470.182 326.235 468.006 325.168C465.83 324.101 464.252 322.373 463.27 319.984C462.332 317.595 461.862 314.395 461.862 310.384C461.862 306.373 462.353 303.173 463.334 300.784C464.316 298.395 465.894 296.688 468.07 295.664C470.246 294.597 473.126 294.064 476.71 294.064ZM502.519 285.616V317.424C502.519 318.917 502.839 319.984 503.479 320.624C504.119 321.264 505.207 321.584 506.743 321.584H511.479L512.119 325.744C511.436 325.915 510.647 326.064 509.751 326.192C508.855 326.32 507.98 326.405 507.127 326.448C506.273 326.533 505.591 326.576 505.079 326.576C502.476 326.576 500.492 325.851 499.127 324.4C497.761 322.949 497.079 320.859 497.079 318.128V285.616H502.519ZM512.439 294.832V299.12H491.447V295.152L497.591 294.832H512.439Z" fill="#373737"/>
</svg>
