<svg width="556" height="556" viewBox="0 0 556 556" fill="none" xmlns="http://www.w3.org/2000/svg">
<circle cx="278" cy="278" r="276.5" fill="#373737" stroke="#99B4FF" stroke-width="3" />
<path d="M89.575 192.84V237H83.943V192.84H89.575ZM110.631 210.952V215.816H89.063V210.952H110.631ZM115.559 192.84V237H109.927V192.84H115.559ZM142.501 192.84V237H136.869V192.84H142.501ZM156.773 192.84V197.832H122.661V192.84H156.773ZM205.609 192.84C207.145 192.84 207.913 193.629 207.913 195.208L209.769 237H204.137L202.537 197.512H201.193L191.337 230.088C190.995 231.368 190.185 232.008 188.905 232.008H183.849C182.526 232.008 181.673 231.368 181.289 230.088L171.433 197.512H170.153L168.617 237H162.985L164.713 195.208C164.798 193.629 165.587 192.84 167.081 192.84H173.481C174.675 192.84 175.465 193.48 175.849 194.76L184.105 221.704C184.446 222.685 184.723 223.667 184.937 224.648C185.193 225.629 185.47 226.632 185.769 227.656H186.921C187.219 226.632 187.497 225.629 187.753 224.648C188.009 223.667 188.286 222.643 188.585 221.576L196.841 194.76C197.182 193.48 197.993 192.84 199.273 192.84H205.609ZM225.446 192.84V228.04C225.446 229.491 225.787 230.557 226.47 231.24C227.195 231.923 228.283 232.264 229.734 232.264H245.67L245.926 236.616C243.152 236.829 240.315 236.957 237.414 237C234.555 237.043 231.696 237.064 228.838 237.064C225.595 237.064 223.291 236.275 221.926 234.696C220.56 233.117 219.878 231.133 219.878 228.744V192.84H225.446ZM278.673 192.84L253.521 241.224H249.041L274.193 192.84H278.673ZM300.811 192.072C302.688 192.072 304.288 192.115 305.611 192.2C306.976 192.285 308.213 192.435 309.323 192.648C310.475 192.819 311.648 193.053 312.843 193.352L312.267 197.64C310.987 197.512 309.792 197.405 308.683 197.32C307.616 197.235 306.464 197.171 305.227 197.128C303.989 197.085 302.517 197.064 300.811 197.064C297.952 197.064 295.691 197.619 294.027 198.728C292.363 199.837 291.168 201.693 290.443 204.296C289.76 206.899 289.419 210.44 289.419 214.92C289.419 219.4 289.76 222.941 290.443 225.544C291.168 228.147 292.363 230.003 294.027 231.112C295.691 232.221 297.952 232.776 300.811 232.776C303.541 232.776 305.824 232.733 307.659 232.648C309.536 232.52 311.371 232.328 313.163 232.072L313.739 236.296C311.904 236.808 310.005 237.171 308.043 237.384C306.123 237.64 303.712 237.768 300.811 237.768C296.587 237.768 293.195 237.043 290.635 235.592C288.117 234.099 286.283 231.688 285.131 228.36C284.021 225.032 283.467 220.552 283.467 214.92C283.467 209.288 284.021 204.808 285.131 201.48C286.283 198.152 288.117 195.763 290.635 194.312C293.195 192.819 296.587 192.072 300.811 192.072ZM333.919 192.072C336.009 192.115 338.164 192.221 340.383 192.392C342.601 192.563 344.82 192.883 347.039 193.352L346.655 197.448C344.82 197.363 342.793 197.299 340.575 197.256C338.356 197.171 336.223 197.128 334.175 197.128C332.596 197.128 331.231 197.192 330.079 197.32C328.969 197.405 328.052 197.661 327.327 198.088C326.601 198.472 326.068 199.133 325.727 200.072C325.428 200.968 325.279 202.227 325.279 203.848C325.279 206.28 325.705 207.987 326.559 208.968C327.455 209.907 328.884 210.611 330.847 211.08L339.807 213.32C343.22 214.131 345.545 215.56 346.783 217.608C348.063 219.613 348.703 222.323 348.703 225.736C348.703 228.296 348.404 230.365 347.807 231.944C347.252 233.523 346.377 234.739 345.183 235.592C343.988 236.403 342.452 236.957 340.575 237.256C338.697 237.597 336.479 237.768 333.919 237.768C332.468 237.768 330.569 237.704 328.223 237.576C325.919 237.448 323.252 237.107 320.223 236.552L320.607 232.392C323.124 232.477 325.151 232.563 326.687 232.648C328.223 232.691 329.545 232.712 330.655 232.712C331.764 232.712 332.916 232.712 334.111 232.712C336.372 232.712 338.143 232.541 339.423 232.2C340.745 231.859 341.663 231.176 342.175 230.152C342.729 229.128 343.007 227.613 343.007 225.608C343.007 223.901 342.815 222.579 342.431 221.64C342.047 220.701 341.428 219.997 340.575 219.528C339.764 219.016 338.719 218.611 337.439 218.312L328.287 216.008C325.087 215.197 322.825 213.789 321.503 211.784C320.223 209.779 319.583 207.091 319.583 203.72C319.583 201.16 319.86 199.112 320.415 197.576C321.012 195.997 321.887 194.824 323.039 194.056C324.233 193.245 325.727 192.712 327.519 192.456C329.311 192.2 331.444 192.072 333.919 192.072ZM369.794 192.072C371.884 192.115 374.039 192.221 376.258 192.392C378.476 192.563 380.695 192.883 382.914 193.352L382.53 197.448C380.695 197.363 378.668 197.299 376.45 197.256C374.231 197.171 372.098 197.128 370.05 197.128C368.471 197.128 367.106 197.192 365.954 197.32C364.844 197.405 363.927 197.661 363.202 198.088C362.476 198.472 361.943 199.133 361.602 200.072C361.303 200.968 361.154 202.227 361.154 203.848C361.154 206.28 361.58 207.987 362.434 208.968C363.33 209.907 364.759 210.611 366.722 211.08L375.682 213.32C379.095 214.131 381.42 215.56 382.658 217.608C383.938 219.613 384.578 222.323 384.578 225.736C384.578 228.296 384.279 230.365 383.682 231.944C383.127 233.523 382.252 234.739 381.058 235.592C379.863 236.403 378.327 236.957 376.45 237.256C374.572 237.597 372.354 237.768 369.794 237.768C368.343 237.768 366.444 237.704 364.098 237.576C361.794 237.448 359.127 237.107 356.098 236.552L356.482 232.392C358.999 232.477 361.026 232.563 362.562 232.648C364.098 232.691 365.42 232.712 366.53 232.712C367.639 232.712 368.791 232.712 369.986 232.712C372.247 232.712 374.018 232.541 375.298 232.2C376.62 231.859 377.538 231.176 378.05 230.152C378.604 229.128 378.882 227.613 378.882 225.608C378.882 223.901 378.69 222.579 378.306 221.64C377.922 220.701 377.303 219.997 376.45 219.528C375.639 219.016 374.594 218.611 373.314 218.312L364.162 216.008C360.962 215.197 358.7 213.789 357.378 211.784C356.098 209.779 355.458 207.091 355.458 203.72C355.458 201.16 355.735 199.112 356.29 197.576C356.887 195.997 357.762 194.824 358.914 194.056C360.108 193.245 361.602 192.712 363.394 192.456C365.186 192.2 367.319 192.072 369.794 192.072ZM419.173 192.84L394.021 241.224H389.541L414.693 192.84H419.173ZM435.384 192.84V227.72C435.384 230.963 434.637 233.416 433.144 235.08C431.693 236.744 429.581 237.576 426.808 237.576C426.253 237.576 425.592 237.533 424.824 237.448C424.099 237.405 423.373 237.32 422.648 237.192C421.965 237.064 421.389 236.915 420.92 236.744L421.56 232.776H424.76C428.088 232.776 429.752 231.155 429.752 227.912V192.84H435.384ZM458.606 192.072C460.697 192.115 462.851 192.221 465.07 192.392C467.289 192.563 469.507 192.883 471.726 193.352L471.342 197.448C469.507 197.363 467.481 197.299 465.262 197.256C463.043 197.171 460.91 197.128 458.862 197.128C457.283 197.128 455.918 197.192 454.766 197.32C453.657 197.405 452.739 197.661 452.014 198.088C451.289 198.472 450.755 199.133 450.414 200.072C450.115 200.968 449.966 202.227 449.966 203.848C449.966 206.28 450.393 207.987 451.246 208.968C452.142 209.907 453.571 210.611 455.534 211.08L464.494 213.32C467.907 214.131 470.233 215.56 471.47 217.608C472.75 219.613 473.39 222.323 473.39 225.736C473.39 228.296 473.091 230.365 472.494 231.944C471.939 233.523 471.065 234.739 469.87 235.592C468.675 236.403 467.139 236.957 465.262 237.256C463.385 237.597 461.166 237.768 458.606 237.768C457.155 237.768 455.257 237.704 452.91 237.576C450.606 237.448 447.939 237.107 444.91 236.552L445.294 232.392C447.811 232.477 449.838 232.563 451.374 232.648C452.91 232.691 454.233 232.712 455.342 232.712C456.451 232.712 457.603 232.712 458.798 232.712C461.059 232.712 462.83 232.541 464.11 232.2C465.433 231.859 466.35 231.176 466.862 230.152C467.417 229.128 467.694 227.613 467.694 225.608C467.694 223.901 467.502 222.579 467.118 221.64C466.734 220.701 466.115 219.997 465.262 219.528C464.451 219.016 463.406 218.611 462.126 218.312L452.974 216.008C449.774 215.197 447.513 213.789 446.19 211.784C444.91 209.779 444.27 207.091 444.27 203.72C444.27 201.16 444.547 199.112 445.102 197.576C445.699 195.997 446.574 194.824 447.726 194.056C448.921 193.245 450.414 192.712 452.206 192.456C453.998 192.2 456.131 192.072 458.606 192.072ZM84.2663 282.064C85.6316 282.064 87.0823 282.107 88.6183 282.192C90.1543 282.277 91.6689 282.384 93.1623 282.512C94.6983 282.64 96.1063 282.811 97.3863 283.024L96.9383 286.992C94.9756 286.907 92.9916 286.843 90.9863 286.8C89.0236 286.715 87.0609 286.672 85.0983 286.672C83.1783 286.629 81.6636 286.672 80.5543 286.8C79.4449 286.928 78.6343 287.269 78.1223 287.824C77.6529 288.379 77.4183 289.317 77.4183 290.64C77.4183 292.261 77.8023 293.328 78.5703 293.84C79.3383 294.352 80.4689 294.779 81.9623 295.12L91.0503 297.168C93.5249 297.765 95.3383 298.683 96.4903 299.92C97.6849 301.157 98.2823 303.099 98.2823 305.744C98.2823 308.304 97.7916 310.224 96.8103 311.504C95.8716 312.784 94.4209 313.637 92.4583 314.064C90.4956 314.491 87.9996 314.704 84.9703 314.704C83.8609 314.704 82.1969 314.661 79.9783 314.576C77.8023 314.491 75.3916 314.235 72.7463 313.808L73.1302 309.84C74.1543 309.883 75.2423 309.947 76.3943 310.032C77.5463 310.075 78.7409 310.096 79.9783 310.096C81.2583 310.096 82.5596 310.096 83.8823 310.096C86.2289 310.096 88.0636 309.989 89.3863 309.776C90.7089 309.563 91.6476 309.157 92.2023 308.56C92.7569 307.92 93.0343 306.981 93.0343 305.744C93.0343 304.208 92.5863 303.184 91.6903 302.672C90.7943 302.16 89.5996 301.733 88.1063 301.392L79.1463 299.344C77.4396 298.917 76.0743 298.363 75.0503 297.68C74.0263 296.955 73.2796 296.037 72.8103 294.928C72.3409 293.776 72.1063 292.347 72.1063 290.64C72.1063 288.208 72.5329 286.373 73.3863 285.136C74.2396 283.899 75.5623 283.067 77.3542 282.64C79.1463 282.213 81.4503 282.021 84.2663 282.064ZM114.206 273.616V305.424C114.206 306.917 114.526 307.984 115.166 308.624C115.806 309.264 116.894 309.584 118.43 309.584H123.166L123.806 313.744C123.124 313.915 122.334 314.064 121.438 314.192C120.542 314.32 119.668 314.405 118.814 314.448C117.961 314.533 117.278 314.576 116.766 314.576C114.164 314.576 112.18 313.851 110.814 312.4C109.449 310.949 108.766 308.859 108.766 306.128V273.616H114.206ZM124.126 282.832V287.12H103.134V283.152L109.278 282.832H124.126ZM158.421 282.832L145.941 315.728C145.429 317.093 144.789 318.437 144.021 319.76C143.253 321.083 142.315 322.277 141.205 323.344C140.139 324.453 138.859 325.349 137.365 326.032C135.915 326.715 134.229 327.099 132.309 327.184L131.797 323.6C134.315 322.789 136.256 321.701 137.621 320.336C138.987 318.971 140.075 317.307 140.885 315.344L142.421 311.632C142.763 310.779 143.104 309.84 143.445 308.816C143.787 307.792 144.107 306.875 144.405 306.064L152.533 282.832H158.421ZM132.757 282.832L141.013 306.064C141.227 306.704 141.44 307.344 141.653 307.984C141.867 308.581 142.037 309.2 142.165 309.84H143.637L141.845 314H140.181C139.755 314 139.349 313.872 138.965 313.616C138.624 313.36 138.389 313.019 138.261 312.592L126.933 282.832H132.757ZM170.152 269.2L170.088 305.424C170.088 306.789 170.451 307.835 171.176 308.56C171.944 309.243 173.011 309.584 174.376 309.584H177.384L178.024 313.744C177.64 313.915 177.086 314.064 176.36 314.192C175.678 314.32 174.952 314.405 174.184 314.448C173.459 314.533 172.84 314.576 172.328 314.576C170.024 314.576 168.168 313.893 166.76 312.528C165.395 311.163 164.712 309.2 164.712 306.64V269.2H170.152ZM189.28 282.832V314H183.904V282.832H189.28ZM187.872 269.584C188.982 269.584 189.536 270.139 189.536 271.248V274.896C189.536 276.005 188.982 276.56 187.872 276.56H185.312C184.203 276.56 183.648 276.005 183.648 274.896V271.248C183.648 270.139 184.203 269.584 185.312 269.584H187.872ZM218.467 282.064C224.099 282.064 226.915 284.923 226.915 290.64V314H221.475V292.176C221.475 290.085 221.134 288.656 220.451 287.888C219.769 287.077 218.617 286.672 216.995 286.672C215.075 286.672 213.155 287.141 211.235 288.08C209.315 289.019 207.033 290.299 204.387 291.92L204.131 288.016C206.563 286.139 208.974 284.688 211.363 283.664C213.753 282.597 216.121 282.064 218.467 282.064ZM204.131 282.832L204.579 288.784L204.963 289.744V314H199.523V282.832H204.131ZM249.063 282.064C252.391 282.064 255.015 282.405 256.935 283.088C258.897 283.771 260.284 284.837 261.095 286.288C261.948 287.739 262.375 289.637 262.375 291.984C262.375 294.245 261.948 296.123 261.095 297.616C260.284 299.067 258.897 300.155 256.935 300.88C254.972 301.563 252.327 301.904 248.999 301.904C245.671 301.904 243.025 301.563 241.063 300.88C239.143 300.155 237.756 299.067 236.903 297.616C236.092 296.165 235.687 294.309 235.687 292.048C235.687 289.701 236.092 287.803 236.903 286.352C237.756 284.859 239.164 283.771 241.127 283.088C243.089 282.405 245.735 282.064 249.063 282.064ZM248.999 286.224C245.884 286.224 243.708 286.672 242.471 287.568C241.276 288.421 240.679 289.893 240.679 291.984C240.679 294.032 241.276 295.504 242.471 296.4C243.708 297.296 245.884 297.744 248.999 297.744C252.156 297.744 254.332 297.296 255.527 296.4C256.721 295.504 257.319 294.032 257.319 291.984C257.319 289.893 256.721 288.421 255.527 287.568C254.332 286.672 252.156 286.224 248.999 286.224ZM266.023 282.832L265.703 285.84L257.767 286.48L255.527 282.832H266.023ZM240.231 299.856L243.367 300.304C242.641 300.944 242.151 301.733 241.895 302.672C241.639 303.568 241.703 304.4 242.087 305.168C242.513 305.936 243.388 306.427 244.711 306.64L256.359 308.496C259.303 308.923 261.351 309.84 262.503 311.248C263.655 312.656 264.231 314.661 264.231 317.264C264.231 319.696 263.761 321.616 262.823 323.024C261.927 324.432 260.391 325.435 258.215 326.032C256.039 326.629 253.095 326.928 249.383 326.928C246.567 326.928 244.199 326.757 242.279 326.416C240.359 326.117 238.801 325.584 237.607 324.816C236.455 324.091 235.623 323.131 235.111 321.936C234.599 320.741 234.343 319.248 234.343 317.456C234.343 316.091 234.535 314.939 234.919 314C235.345 313.104 235.985 312.293 236.839 311.568C237.735 310.843 238.887 310.139 240.295 309.456L244.135 307.344L246.631 308.24L243.495 310.608C242.641 311.248 241.916 311.888 241.319 312.528C240.764 313.125 240.337 313.765 240.039 314.448C239.783 315.173 239.655 316.027 239.655 317.008C239.655 318.459 239.932 319.568 240.487 320.336C241.041 321.104 242.023 321.616 243.431 321.872C244.839 322.171 246.801 322.32 249.319 322.32C251.836 322.32 253.777 322.171 255.143 321.872C256.551 321.573 257.532 321.04 258.087 320.272C258.641 319.504 258.919 318.416 258.919 317.008C258.919 315.941 258.769 315.131 258.471 314.576C258.215 314.021 257.703 313.595 256.935 313.296C256.167 312.997 255.036 312.741 253.543 312.528L242.343 310.992C241.02 310.821 239.953 310.395 239.143 309.712C238.375 309.029 237.841 308.219 237.543 307.28C237.244 306.341 237.159 305.403 237.287 304.464C237.415 303.483 237.735 302.587 238.247 301.776C238.759 300.923 239.42 300.283 240.231 299.856ZM304.504 282.064C308.302 282.064 311.032 283.472 312.696 286.288C314.36 289.061 315.192 293.157 315.192 298.576C315.192 302.587 314.766 305.787 313.912 308.176C313.059 310.523 311.758 312.208 310.008 313.232C308.302 314.256 306.104 314.768 303.416 314.768C301.368 314.768 299.342 314.491 297.336 313.936C295.374 313.381 293.454 312.528 291.576 311.376L291.896 308.112C293.902 308.667 295.672 309.136 297.208 309.52C298.744 309.861 300.366 310.032 302.072 310.032C303.907 310.032 305.358 309.712 306.424 309.072C307.534 308.432 308.344 307.28 308.856 305.616C309.368 303.952 309.624 301.605 309.624 298.576C309.624 295.632 309.39 293.307 308.92 291.6C308.451 289.893 307.704 288.677 306.68 287.952C305.699 287.184 304.376 286.8 302.712 286.8C301.006 286.8 299.32 287.205 297.656 288.016C295.992 288.827 294.051 290.064 291.832 291.728L291.32 288.08C292.472 286.843 293.774 285.776 295.224 284.88C296.675 283.984 298.19 283.301 299.768 282.832C301.39 282.32 302.968 282.064 304.504 282.064ZM291.128 282.832L291.704 289.296L292.088 290.128V310.096L291.832 310.864C291.96 312.059 292.024 313.211 292.024 314.32C292.067 315.429 292.088 316.603 292.088 317.84V326.864H286.648V282.832H291.128ZM327.997 282.832L328.701 288.784L329.213 289.744V314H323.773V282.832H327.997ZM343.293 282.064L342.653 287.184H340.861C339.027 287.184 337.192 287.568 335.357 288.336C333.523 289.061 331.283 290.107 328.637 291.472L328.189 288.08C330.493 286.203 332.797 284.731 335.101 283.664C337.448 282.597 339.709 282.064 341.885 282.064H343.293ZM361.832 282.064C365.416 282.064 368.275 282.597 370.408 283.664C372.584 284.731 374.142 286.48 375.08 288.912C376.019 291.301 376.488 294.48 376.488 298.448C376.488 302.416 376.019 305.616 375.08 308.048C374.142 310.437 372.584 312.165 370.408 313.232C368.275 314.299 365.416 314.832 361.832 314.832C358.291 314.832 355.432 314.299 353.256 313.232C351.123 312.165 349.566 310.437 348.584 308.048C347.646 305.616 347.176 302.416 347.176 298.448C347.176 294.48 347.646 291.301 348.584 288.912C349.566 286.48 351.123 284.731 353.256 283.664C355.432 282.597 358.291 282.064 361.832 282.064ZM361.832 286.672C359.571 286.672 357.779 287.035 356.456 287.76C355.176 288.443 354.259 289.637 353.704 291.344C353.15 293.051 352.872 295.419 352.872 298.448C352.872 301.477 353.15 303.845 353.704 305.552C354.259 307.259 355.176 308.475 356.456 309.2C357.779 309.883 359.571 310.224 361.832 310.224C364.094 310.224 365.886 309.883 367.208 309.2C368.531 308.475 369.47 307.259 370.024 305.552C370.579 303.845 370.856 301.477 370.856 298.448C370.856 295.419 370.579 293.051 370.024 291.344C369.47 289.637 368.531 288.443 367.208 287.76C365.886 287.035 364.094 286.672 361.832 286.672ZM390.783 282.832V314.768C390.783 316.432 390.527 318.011 390.015 319.504C389.546 321.04 388.863 322.427 387.967 323.664C387.071 324.944 386.005 326.053 384.767 326.992L381.759 324.624C382.997 323.131 383.893 321.616 384.447 320.08C385.045 318.544 385.343 316.773 385.343 314.768V282.832H390.783ZM389.375 269.584C390.442 269.584 390.975 270.139 390.975 271.248V274.896C390.975 276.005 390.442 276.56 389.375 276.56H386.815C385.706 276.56 385.151 276.005 385.151 274.896V271.248C385.151 270.139 385.706 269.584 386.815 269.584H389.375ZM413.823 282.064C418.517 282.064 421.909 282.917 423.999 284.624C426.133 286.331 427.199 288.869 427.199 292.24C427.242 295.013 426.666 297.189 425.471 298.768C424.277 300.304 422.378 301.072 419.775 301.072H401.599V296.848H418.367C419.775 296.848 420.693 296.379 421.119 295.44C421.546 294.459 421.759 293.392 421.759 292.24C421.717 290.235 421.119 288.805 419.967 287.952C418.815 287.099 416.853 286.672 414.079 286.672C411.818 286.672 410.026 287.013 408.703 287.696C407.423 288.336 406.506 289.488 405.951 291.152C405.439 292.773 405.183 295.056 405.183 298C405.183 301.328 405.503 303.867 406.143 305.616C406.826 307.365 407.893 308.56 409.343 309.2C410.794 309.84 412.714 310.16 415.103 310.16C416.767 310.16 418.581 310.096 420.543 309.968C422.549 309.797 424.341 309.605 425.919 309.392L426.495 313.04C425.514 313.424 424.298 313.744 422.847 314C421.439 314.256 419.967 314.448 418.431 314.576C416.938 314.704 415.594 314.768 414.399 314.768C410.815 314.768 407.935 314.235 405.759 313.168C403.583 312.059 401.983 310.309 400.959 307.92C399.978 305.488 399.487 302.288 399.487 298.32C399.487 294.224 399.978 291.003 400.959 288.656C401.983 286.267 403.541 284.581 405.631 283.6C407.765 282.576 410.495 282.064 413.823 282.064ZM448.71 282.064C449.649 282.064 450.694 282.107 451.846 282.192C452.998 282.277 454.172 282.427 455.366 282.64C456.604 282.853 457.734 283.152 458.758 283.536L458.054 287.056C456.646 286.928 455.153 286.843 453.574 286.8C452.038 286.715 450.716 286.672 449.606 286.672C447.132 286.672 445.169 287.013 443.718 287.696C442.268 288.379 441.222 289.573 440.582 291.28C439.942 292.987 439.622 295.355 439.622 298.384C439.622 301.413 439.942 303.803 440.582 305.552C441.222 307.259 442.268 308.453 443.718 309.136C445.169 309.819 447.132 310.16 449.606 310.16C450.246 310.16 451.078 310.139 452.102 310.096C453.126 310.053 454.214 309.989 455.366 309.904C456.561 309.819 457.692 309.691 458.758 309.52L459.334 313.168C457.756 313.723 456.028 314.128 454.15 314.384C452.316 314.64 450.481 314.768 448.646 314.768C445.062 314.768 442.182 314.235 440.006 313.168C437.83 312.101 436.252 310.373 435.27 307.984C434.332 305.595 433.862 302.395 433.862 298.384C433.862 294.373 434.353 291.173 435.334 288.784C436.316 286.395 437.894 284.688 440.07 283.664C442.246 282.597 445.126 282.064 448.71 282.064ZM474.519 273.616V305.424C474.519 306.917 474.839 307.984 475.479 308.624C476.119 309.264 477.207 309.584 478.743 309.584H483.479L484.119 313.744C483.436 313.915 482.647 314.064 481.751 314.192C480.855 314.32 479.98 314.405 479.127 314.448C478.273 314.533 477.591 314.576 477.079 314.576C474.476 314.576 472.492 313.851 471.127 312.4C469.761 310.949 469.079 308.859 469.079 306.128V273.616H474.519ZM484.439 282.832V287.12H463.447V283.152L469.591 282.832H484.439Z" fill="#FF9D4E"/>
</svg>
