<svg width="1728" height="1117" viewBox="0 0 1728 1117" fill="none" xmlns="http://www.w3.org/2000/svg">
<rect width="1728" height="1117" fill="#484848"/>
<path d="M214.248 202.072C216.125 202.072 217.725 202.115 219.048 202.2C220.413 202.285 221.651 202.435 222.76 202.648C223.912 202.819 225.085 203.053 226.28 203.352L225.704 207.64C224.424 207.512 223.229 207.405 222.12 207.32C221.053 207.235 219.901 207.171 218.664 207.128C217.427 207.085 215.955 207.064 214.248 207.064C211.389 207.064 209.128 207.619 207.464 208.728C205.8 209.837 204.605 211.693 203.88 214.296C203.197 216.899 202.856 220.44 202.856 224.92C202.856 229.4 203.197 232.941 203.88 235.544C204.605 238.147 205.8 240.003 207.464 241.112C209.128 242.221 211.389 242.776 214.248 242.776C216.979 242.776 219.261 242.733 221.096 242.648C222.973 242.52 224.808 242.328 226.6 242.072L227.176 246.296C225.341 246.808 223.443 247.171 221.48 247.384C219.56 247.64 217.149 247.768 214.248 247.768C210.024 247.768 206.632 247.043 204.072 245.592C201.555 244.099 199.72 241.688 198.568 238.36C197.459 235.032 196.904 230.552 196.904 224.92C196.904 219.288 197.459 214.808 198.568 211.48C199.72 208.152 201.555 205.763 204.072 204.312C206.632 202.819 210.024 202.072 214.248 202.072ZM247.676 215.064C251.26 215.064 254.119 215.597 256.252 216.664C258.428 217.731 259.985 219.48 260.924 221.912C261.863 224.301 262.332 227.48 262.332 231.448C262.332 235.416 261.863 238.616 260.924 241.048C259.985 243.437 258.428 245.165 256.252 246.232C254.119 247.299 251.26 247.832 247.676 247.832C244.135 247.832 241.276 247.299 239.1 246.232C236.967 245.165 235.409 243.437 234.428 241.048C233.489 238.616 233.02 235.416 233.02 231.448C233.02 227.48 233.489 224.301 234.428 221.912C235.409 219.48 236.967 217.731 239.1 216.664C241.276 215.597 244.135 215.064 247.676 215.064ZM247.676 219.672C245.415 219.672 243.623 220.035 242.3 220.76C241.02 221.443 240.103 222.637 239.548 224.344C238.993 226.051 238.716 228.419 238.716 231.448C238.716 234.477 238.993 236.845 239.548 238.552C240.103 240.259 241.02 241.475 242.3 242.2C243.623 242.883 245.415 243.224 247.676 243.224C249.937 243.224 251.729 242.883 253.052 242.2C254.375 241.475 255.313 240.259 255.868 238.552C256.423 236.845 256.7 234.477 256.7 231.448C256.7 228.419 256.423 226.051 255.868 224.344C255.313 222.637 254.375 221.443 253.052 220.76C251.729 220.035 249.937 219.672 247.676 219.672ZM276.371 202.2L276.307 238.424C276.307 239.789 276.67 240.835 277.395 241.56C278.163 242.243 279.23 242.584 280.595 242.584H283.603L284.243 246.744C283.859 246.915 283.304 247.064 282.579 247.192C281.896 247.32 281.171 247.405 280.403 247.448C279.678 247.533 279.059 247.576 278.547 247.576C276.243 247.576 274.387 246.893 272.979 245.528C271.614 244.163 270.931 242.2 270.931 239.64V202.2H276.371ZM303.051 215.064C306.635 215.064 309.494 215.597 311.627 216.664C313.803 217.731 315.36 219.48 316.299 221.912C317.238 224.301 317.707 227.48 317.707 231.448C317.707 235.416 317.238 238.616 316.299 241.048C315.36 243.437 313.803 245.165 311.627 246.232C309.494 247.299 306.635 247.832 303.051 247.832C299.51 247.832 296.651 247.299 294.475 246.232C292.342 245.165 290.784 243.437 289.803 241.048C288.864 238.616 288.395 235.416 288.395 231.448C288.395 227.48 288.864 224.301 289.803 221.912C290.784 219.48 292.342 217.731 294.475 216.664C296.651 215.597 299.51 215.064 303.051 215.064ZM303.051 219.672C300.79 219.672 298.998 220.035 297.675 220.76C296.395 221.443 295.478 222.637 294.923 224.344C294.368 226.051 294.091 228.419 294.091 231.448C294.091 234.477 294.368 236.845 294.923 238.552C295.478 240.259 296.395 241.475 297.675 242.2C298.998 242.883 300.79 243.224 303.051 243.224C305.312 243.224 307.104 242.883 308.427 242.2C309.75 241.475 310.688 240.259 311.243 238.552C311.798 236.845 312.075 234.477 312.075 231.448C312.075 228.419 311.798 226.051 311.243 224.344C310.688 222.637 309.75 221.443 308.427 220.76C307.104 220.035 305.312 219.672 303.051 219.672ZM330.466 215.832L331.17 221.784L331.682 222.744V247H326.242V215.832H330.466ZM345.762 215.064L345.122 220.184H343.33C341.495 220.184 339.661 220.568 337.826 221.336C335.991 222.061 333.751 223.107 331.106 224.472L330.658 221.08C332.962 219.203 335.266 217.731 337.57 216.664C339.917 215.597 342.178 215.064 344.354 215.064H345.762ZM377.669 202.072C379.759 202.115 381.914 202.221 384.133 202.392C386.351 202.563 388.57 202.883 390.789 203.352L390.405 207.448C388.57 207.363 386.543 207.299 384.325 207.256C382.106 207.171 379.973 207.128 377.925 207.128C376.346 207.128 374.981 207.192 373.829 207.32C372.719 207.405 371.802 207.661 371.077 208.088C370.351 208.472 369.818 209.133 369.477 210.072C369.178 210.968 369.029 212.227 369.029 213.848C369.029 216.28 369.455 217.987 370.309 218.968C371.205 219.907 372.634 220.611 374.597 221.08L383.557 223.32C386.97 224.131 389.295 225.56 390.533 227.608C391.813 229.613 392.453 232.323 392.453 235.736C392.453 238.296 392.154 240.365 391.557 241.944C391.002 243.523 390.127 244.739 388.933 245.592C387.738 246.403 386.202 246.957 384.325 247.256C382.447 247.597 380.229 247.768 377.669 247.768C376.218 247.768 374.319 247.704 371.973 247.576C369.669 247.448 367.002 247.107 363.973 246.552L364.357 242.392C366.874 242.477 368.901 242.563 370.437 242.648C371.973 242.691 373.295 242.712 374.405 242.712C375.514 242.712 376.666 242.712 377.861 242.712C380.122 242.712 381.893 242.541 383.173 242.2C384.495 241.859 385.413 241.176 385.925 240.152C386.479 239.128 386.757 237.613 386.757 235.608C386.757 233.901 386.565 232.579 386.181 231.64C385.797 230.701 385.178 229.997 384.325 229.528C383.514 229.016 382.469 228.611 381.189 228.312L372.037 226.008C368.837 225.197 366.575 223.789 365.253 221.784C363.973 219.779 363.333 217.091 363.333 213.72C363.333 211.16 363.61 209.112 364.165 207.576C364.762 205.997 365.637 204.824 366.789 204.056C367.983 203.245 369.477 202.712 371.269 202.456C373.061 202.2 375.194 202.072 377.669 202.072ZM413.992 215.064C414.93 215.064 415.976 215.107 417.128 215.192C418.28 215.277 419.453 215.427 420.648 215.64C421.885 215.853 423.016 216.152 424.04 216.536L423.336 220.056C421.928 219.928 420.434 219.843 418.856 219.8C417.32 219.715 415.997 219.672 414.888 219.672C412.413 219.672 410.45 220.013 409 220.696C407.549 221.379 406.504 222.573 405.864 224.28C405.224 225.987 404.904 228.355 404.904 231.384C404.904 234.413 405.224 236.803 405.864 238.552C406.504 240.259 407.549 241.453 409 242.136C410.45 242.819 412.413 243.16 414.888 243.16C415.528 243.16 416.36 243.139 417.384 243.096C418.408 243.053 419.496 242.989 420.648 242.904C421.842 242.819 422.973 242.691 424.04 242.52L424.616 246.168C423.037 246.723 421.309 247.128 419.432 247.384C417.597 247.64 415.762 247.768 413.928 247.768C410.344 247.768 407.464 247.235 405.288 246.168C403.112 245.101 401.533 243.373 400.552 240.984C399.613 238.595 399.144 235.395 399.144 231.384C399.144 227.373 399.634 224.173 400.616 221.784C401.597 219.395 403.176 217.688 405.352 216.664C407.528 215.597 410.408 215.064 413.992 215.064ZM450.936 215.064C456.568 215.064 459.384 217.923 459.384 223.64V247H453.88V225.176C453.88 223.085 453.539 221.656 452.856 220.888C452.216 220.077 451.085 219.672 449.464 219.672C447.544 219.672 445.624 220.12 443.704 221.016C441.784 221.912 439.501 223.213 436.856 224.92L436.6 221.016C439.032 219.181 441.443 217.731 443.832 216.664C446.221 215.597 448.589 215.064 450.936 215.064ZM437.432 202.2L437.496 214.552C437.496 215.96 437.432 217.283 437.304 218.52C437.219 219.757 437.069 220.845 436.856 221.784L437.432 222.744V247H431.992V202.2H437.432ZM481.98 215.064C486.673 215.064 490.065 215.917 492.156 217.624C494.289 219.331 495.356 221.869 495.356 225.24C495.398 228.013 494.822 230.189 493.628 231.768C492.433 233.304 490.534 234.072 487.932 234.072H469.756V229.848H486.524C487.932 229.848 488.849 229.379 489.276 228.44C489.702 227.459 489.916 226.392 489.916 225.24C489.873 223.235 489.276 221.805 488.124 220.952C486.972 220.099 485.009 219.672 482.236 219.672C479.974 219.672 478.182 220.013 476.86 220.696C475.58 221.336 474.662 222.488 474.108 224.152C473.596 225.773 473.34 228.056 473.34 231C473.34 234.328 473.66 236.867 474.3 238.616C474.982 240.365 476.049 241.56 477.5 242.2C478.95 242.84 480.87 243.16 483.26 243.16C484.924 243.16 486.737 243.096 488.7 242.968C490.705 242.797 492.497 242.605 494.076 242.392L494.652 246.04C493.67 246.424 492.454 246.744 491.004 247C489.596 247.256 488.124 247.448 486.588 247.576C485.094 247.704 483.75 247.768 482.556 247.768C478.972 247.768 476.092 247.235 473.916 246.168C471.74 245.059 470.14 243.309 469.116 240.92C468.134 238.488 467.644 235.288 467.644 231.32C467.644 227.224 468.134 224.003 469.116 221.656C470.14 219.267 471.697 217.581 473.788 216.6C475.921 215.576 478.652 215.064 481.98 215.064ZM541.507 215.064C544.195 215.064 546.243 215.789 547.651 217.24C549.101 218.691 549.827 220.824 549.827 223.64V247H544.451V225.176C544.408 223.256 544.024 221.869 543.299 221.016C542.573 220.12 541.336 219.672 539.587 219.672C538.477 219.672 537.411 219.864 536.387 220.248C535.405 220.589 534.317 221.144 533.123 221.912C531.928 222.68 530.477 223.683 528.771 224.92L528.451 221.08C530.712 219.075 532.909 217.581 535.043 216.6C537.176 215.576 539.331 215.064 541.507 215.064ZM508.035 215.832L508.419 221.784L508.995 222.744V247H503.555V215.832H508.035ZM521.091 215.064C523.736 215.064 525.763 215.789 527.171 217.24C528.579 218.648 529.304 220.781 529.347 223.64V247H524.099V225.176C524.099 223.171 523.693 221.763 522.883 220.952C522.072 220.099 520.856 219.672 519.235 219.672C518.168 219.672 517.123 219.843 516.099 220.184C515.117 220.525 514.008 221.08 512.771 221.848C511.576 222.616 510.104 223.64 508.355 224.92L507.97 221.08C510.232 219.075 512.429 217.581 514.562 216.6C516.696 215.576 518.872 215.064 521.091 215.064ZM572.417 215.064C577.11 215.064 580.502 215.917 582.593 217.624C584.726 219.331 585.793 221.869 585.793 225.24C585.836 228.013 585.26 230.189 584.065 231.768C582.87 233.304 580.972 234.072 578.369 234.072H560.193V229.848H576.961C578.369 229.848 579.286 229.379 579.713 228.44C580.14 227.459 580.353 226.392 580.353 225.24C580.31 223.235 579.713 221.805 578.561 220.952C577.409 220.099 575.446 219.672 572.673 219.672C570.412 219.672 568.62 220.013 567.297 220.696C566.017 221.336 565.1 222.488 564.545 224.152C564.033 225.773 563.777 228.056 563.777 231C563.777 234.328 564.097 236.867 564.737 238.616C565.42 240.365 566.486 241.56 567.937 242.2C569.388 242.84 571.308 243.16 573.697 243.16C575.361 243.16 577.174 243.096 579.137 242.968C581.142 242.797 582.934 242.605 584.513 242.392L585.089 246.04C584.108 246.424 582.892 246.744 581.441 247C580.033 247.256 578.561 247.448 577.025 247.576C575.532 247.704 574.188 247.768 572.993 247.768C569.409 247.768 566.529 247.235 564.353 246.168C562.177 245.059 560.577 243.309 559.553 240.92C558.572 238.488 558.081 235.288 558.081 231.32C558.081 227.224 558.572 224.003 559.553 221.656C560.577 219.267 562.134 217.581 564.225 216.6C566.358 215.576 569.089 215.064 572.417 215.064Z" fill="white"/>
<rect x="1082" y="686" width="244" height="244" fill="white"/>
<rect x="195" y="686" width="244" height="244" fill="#A13978"/>
<rect x="639" y="368" width="244" height="244" fill="#CDBDA0"/>
<rect x="639" y="686" width="244" height="244" fill="black"/>
<rect x="439" y="686" width="69" height="244" fill="#D9D9D9"/>
<path d="M462.92 872.576C462.92 872.32 462.995 872.096 463.144 871.904C463.272 871.712 463.453 871.584 463.688 871.52L485 864.416V867.328L466.888 873.056C466.589 873.141 466.291 873.237 465.992 873.344C465.672 873.429 465.373 873.515 465.096 873.6V874.496C465.373 874.581 465.672 874.667 465.992 874.752C466.291 874.837 466.589 874.933 466.888 875.04L485 880.768V883.68L463.688 876.576C463.453 876.512 463.272 876.384 463.144 876.192C462.995 876 462.92 875.776 462.92 875.52V872.576ZM475.656 868.48H478.088V879.68H475.656V868.48ZM462.92 855.973H485V858.789H467.496C467.176 858.789 466.856 858.778 466.536 858.757C466.216 858.736 465.896 858.693 465.576 858.629L467.272 864.037L465.192 864.421L462.92 858.789V855.973ZM462.504 844.119C462.504 842.498 462.664 841.196 462.984 840.215C463.283 839.212 463.805 838.476 464.552 838.007C465.299 837.538 466.323 837.303 467.624 837.303C468.563 837.303 469.427 837.399 470.216 837.591C470.984 837.783 471.635 838.114 472.168 838.583C472.68 839.031 473.021 839.682 473.192 840.535H473.32C473.555 839.084 474.163 838.092 475.144 837.559C476.104 837.004 477.341 836.716 478.856 836.695C480.349 836.674 481.587 836.887 482.568 837.335C483.528 837.783 484.243 838.519 484.712 839.543C485.181 840.567 485.416 841.954 485.416 843.703C485.416 844.876 485.352 846.06 485.224 847.255C485.117 848.428 484.989 849.58 484.84 850.711L482.568 850.519C482.632 849.794 482.696 849.1 482.76 848.439C482.803 847.756 482.835 847.084 482.856 846.423C482.877 845.762 482.888 845.09 482.888 844.407C482.888 843.212 482.76 842.263 482.504 841.559C482.227 840.834 481.768 840.311 481.128 839.991C480.488 839.65 479.635 839.479 478.568 839.479C477.757 839.479 477.053 839.596 476.456 839.831C475.837 840.044 475.357 840.471 475.016 841.111C474.675 841.73 474.504 842.647 474.504 843.863V847.959H472.296V843.863C472.296 842.988 472.179 842.295 471.944 841.783C471.709 841.25 471.411 840.855 471.048 840.599C470.664 840.343 470.237 840.183 469.768 840.119C469.277 840.034 468.776 839.991 468.264 839.991C467.325 840.012 466.632 840.162 466.184 840.439C465.715 840.716 465.405 841.186 465.256 841.847C465.085 842.487 465 843.372 465 844.503C465 845.548 465.032 846.562 465.096 847.543C465.139 848.503 465.192 849.356 465.256 850.103L463.08 850.327C462.888 849.239 462.749 848.194 462.664 847.191C462.557 846.167 462.504 845.143 462.504 844.119ZM462.536 825.762C462.536 824.162 462.728 822.882 463.112 821.922C463.475 820.94 464.083 820.204 464.936 819.714C465.789 819.223 466.931 818.903 468.36 818.754C469.789 818.583 471.571 818.498 473.704 818.498C476.179 818.498 478.184 818.658 479.72 818.978C481.256 819.298 482.44 819.799 483.272 820.482C484.083 821.143 484.637 822.018 484.936 823.106C485.235 824.194 485.384 825.506 485.384 827.042C485.384 827.532 485.363 828.204 485.32 829.058C485.277 829.89 485.139 830.807 484.904 831.81L482.824 831.554C482.867 831.042 482.899 830.583 482.92 830.178C482.941 829.772 482.952 829.335 482.952 828.866C482.952 828.375 482.952 827.767 482.952 827.042C482.952 825.932 482.824 825.004 482.568 824.258C482.312 823.511 481.853 822.914 481.192 822.466C480.509 822.018 479.56 821.698 478.344 821.506C477.128 821.314 475.56 821.218 473.64 821.218C471.955 821.218 470.557 821.26 469.448 821.346C468.317 821.41 467.421 821.58 466.76 821.858C466.099 822.135 465.629 822.583 465.352 823.202C465.075 823.82 464.936 824.684 464.936 825.794C464.936 827.01 465.139 827.938 465.544 828.578C465.949 829.196 466.536 829.612 467.304 829.826C468.072 830.039 469.011 830.146 470.12 830.146C471.187 830.146 472.093 830.039 472.84 829.826C473.565 829.591 474.12 829.175 474.504 828.578C474.888 827.98 475.08 827.159 475.08 826.114C475.08 825.41 474.995 824.77 474.824 824.194C474.632 823.596 474.323 822.988 473.896 822.37C473.448 821.751 472.84 821.036 472.072 820.226L473.448 820.098C474.451 820.78 475.24 821.452 475.816 822.114C476.371 822.754 476.765 823.447 477 824.194C477.213 824.94 477.32 825.826 477.32 826.85C477.32 828.364 477.011 829.559 476.392 830.434C475.773 831.308 474.92 831.927 473.832 832.29C472.744 832.652 471.507 832.834 470.12 832.834C468.435 832.834 467.037 832.62 465.928 832.194C464.797 831.746 463.955 831.01 463.4 829.986C462.824 828.94 462.536 827.532 462.536 825.762ZM462.92 802.553C462.92 802.105 463.005 801.753 463.176 801.497C463.325 801.241 463.549 801.081 463.848 801.017C464.125 800.932 464.467 800.953 464.872 801.081L485 807.961V810.777L466.952 804.569C466.653 804.463 466.376 804.356 466.12 804.249C465.843 804.143 465.576 804.025 465.32 803.897V814.905L462.92 815.033V802.553ZM462.6 790.178C462.6 788.77 462.717 787.618 462.952 786.722C463.187 785.805 463.539 785.09 464.008 784.578C464.477 784.045 465.085 783.682 465.832 783.49C466.557 783.277 467.421 783.17 468.424 783.17C469.384 783.17 470.227 783.277 470.952 783.49C471.677 783.704 472.264 784.045 472.712 784.514C473.139 784.962 473.395 785.56 473.48 786.306H473.608C473.693 785.368 473.992 784.642 474.504 784.13C474.995 783.597 475.667 783.224 476.52 783.01C477.352 782.797 478.344 782.69 479.496 782.69C480.84 782.69 481.949 782.893 482.824 783.298C483.677 783.704 484.307 784.45 484.712 785.538C485.117 786.605 485.32 788.152 485.32 790.178C485.32 792.162 485.117 793.698 484.712 794.786C484.307 795.874 483.677 796.632 482.824 797.058C481.949 797.485 480.84 797.698 479.496 797.698C478.344 797.698 477.352 797.592 476.52 797.378C475.667 797.144 474.995 796.76 474.504 796.226C473.992 795.693 473.693 794.968 473.608 794.05H473.48C473.395 794.797 473.139 795.405 472.712 795.874C472.264 796.344 471.677 796.685 470.952 796.898C470.227 797.112 469.384 797.218 468.424 797.218C467.421 797.218 466.557 797.112 465.832 796.898C465.085 796.685 464.477 796.322 464.008 795.81C463.539 795.277 463.187 794.562 462.952 793.666C462.717 792.749 462.6 791.586 462.6 790.178ZM474.664 790.114C474.664 791.117 474.728 791.938 474.856 792.578C474.984 793.218 475.208 793.72 475.528 794.082C475.827 794.445 476.253 794.701 476.808 794.85C477.363 794.978 478.067 795.042 478.92 795.042C479.901 795.042 480.691 794.914 481.288 794.658C481.864 794.381 482.28 793.89 482.536 793.186C482.771 792.461 482.888 791.448 482.888 790.146C482.888 788.845 482.771 787.853 482.536 787.17C482.28 786.488 481.864 786.018 481.288 785.762C480.691 785.506 479.901 785.378 478.92 785.378C478.045 785.378 477.331 785.453 476.776 785.602C476.221 785.73 475.795 785.965 475.496 786.306C475.176 786.648 474.963 787.128 474.856 787.746C474.728 788.365 474.664 789.154 474.664 790.114ZM464.872 790.146C464.872 791.362 464.989 792.29 465.224 792.93C465.459 793.57 465.853 794.018 466.408 794.274C466.963 794.509 467.72 794.626 468.68 794.626C469.683 794.626 470.461 794.509 471.016 794.274C471.549 794.018 471.923 793.57 472.136 792.93C472.328 792.269 472.424 791.33 472.424 790.114C472.424 788.877 472.317 787.949 472.104 787.33C471.891 786.69 471.517 786.264 470.984 786.05C470.429 785.837 469.661 785.73 468.68 785.73C467.72 785.73 466.963 785.848 466.408 786.082C465.853 786.296 465.459 786.722 465.224 787.362C464.989 788.002 464.872 788.93 464.872 790.146Z" fill="#373737"/>
<rect x="883" y="686" width="69" height="244" fill="#D9D9D9"/>
<path d="M908.504 858.368C908.504 856.469 908.899 854.965 909.688 853.856C910.477 852.747 911.715 851.957 913.4 851.488C915.085 850.997 917.272 850.752 919.96 850.752C922.648 850.752 924.835 850.997 926.52 851.488C928.205 851.957 929.443 852.747 930.232 853.856C931.021 854.965 931.416 856.469 931.416 858.368C931.416 860.245 931.021 861.739 930.232 862.848C929.443 863.957 928.205 864.757 926.52 865.248C924.835 865.717 922.648 865.952 919.96 865.952C917.272 865.952 915.085 865.717 913.4 865.248C911.715 864.757 910.477 863.957 909.688 862.848C908.899 861.739 908.504 860.245 908.504 858.368ZM910.968 858.368C910.968 859.285 911.139 860.053 911.48 860.672C911.8 861.291 912.312 861.792 913.016 862.176C913.72 862.539 914.648 862.805 915.8 862.976C916.931 863.125 918.317 863.2 919.96 863.2C921.581 863.2 922.968 863.125 924.12 862.976C925.272 862.805 926.2 862.539 926.904 862.176C927.608 861.792 928.131 861.291 928.472 860.672C928.792 860.053 928.952 859.285 928.952 858.368C928.952 857.451 928.792 856.683 928.472 856.064C928.131 855.424 927.608 854.923 926.904 854.56C926.2 854.176 925.272 853.909 924.12 853.76C922.968 853.589 921.581 853.504 919.96 853.504C918.317 853.504 916.931 853.589 915.8 853.76C914.648 853.909 913.72 854.176 913.016 854.56C912.312 854.923 911.8 855.424 911.48 856.064C911.139 856.683 910.968 857.451 910.968 858.368ZM908.504 839.087C908.504 837.188 908.899 835.684 909.688 834.575C910.477 833.465 911.715 832.676 913.4 832.207C915.085 831.716 917.272 831.471 919.96 831.471C922.648 831.471 924.835 831.716 926.52 832.207C928.205 832.676 929.443 833.465 930.232 834.575C931.021 835.684 931.416 837.188 931.416 839.087C931.416 840.964 931.021 842.457 930.232 843.567C929.443 844.676 928.205 845.476 926.52 845.967C924.835 846.436 922.648 846.671 919.96 846.671C917.272 846.671 915.085 846.436 913.4 845.967C911.715 845.476 910.477 844.676 909.688 843.567C908.899 842.457 908.504 840.964 908.504 839.087ZM910.968 839.087C910.968 840.004 911.139 840.772 911.48 841.391C911.8 842.009 912.312 842.511 913.016 842.895C913.72 843.257 914.648 843.524 915.8 843.695C916.931 843.844 918.317 843.919 919.96 843.919C921.581 843.919 922.968 843.844 924.12 843.695C925.272 843.524 926.2 843.257 926.904 842.895C927.608 842.511 928.131 842.009 928.472 841.391C928.792 840.772 928.952 840.004 928.952 839.087C928.952 838.169 928.792 837.401 928.472 836.783C928.131 836.143 927.608 835.641 926.904 835.279C926.2 834.895 925.272 834.628 924.12 834.479C922.968 834.308 921.581 834.223 919.96 834.223C918.317 834.223 916.931 834.308 915.8 834.479C914.648 834.628 913.72 834.895 913.016 835.279C912.312 835.641 911.8 836.143 911.48 836.783C911.139 837.401 910.968 838.169 910.968 839.087ZM908.504 819.805C908.504 817.907 908.899 816.403 909.688 815.293C910.477 814.184 911.715 813.395 913.4 812.925C915.085 812.435 917.272 812.189 919.96 812.189C922.648 812.189 924.835 812.435 926.52 812.925C928.205 813.395 929.443 814.184 930.232 815.293C931.021 816.403 931.416 817.907 931.416 819.805C931.416 821.683 931.021 823.176 930.232 824.285C929.443 825.395 928.205 826.195 926.52 826.685C924.835 827.155 922.648 827.389 919.96 827.389C917.272 827.389 915.085 827.155 913.4 826.685C911.715 826.195 910.477 825.395 909.688 824.285C908.899 823.176 908.504 821.683 908.504 819.805ZM910.968 819.805C910.968 820.723 911.139 821.491 911.48 822.109C911.8 822.728 912.312 823.229 913.016 823.613C913.72 823.976 914.648 824.243 915.8 824.413C916.931 824.563 918.317 824.637 919.96 824.637C921.581 824.637 922.968 824.563 924.12 824.413C925.272 824.243 926.2 823.976 926.904 823.613C927.608 823.229 928.131 822.728 928.472 822.109C928.792 821.491 928.952 820.723 928.952 819.805C928.952 818.888 928.792 818.12 928.472 817.501C928.131 816.861 927.608 816.36 926.904 815.997C926.2 815.613 925.272 815.347 924.12 815.197C922.968 815.027 921.581 814.941 919.96 814.941C918.317 814.941 916.931 815.027 915.8 815.197C914.648 815.347 913.72 815.613 913.016 815.997C912.312 816.36 911.8 816.861 911.48 817.501C911.139 818.12 910.968 818.888 910.968 819.805ZM908.504 800.524C908.504 798.626 908.899 797.122 909.688 796.012C910.477 794.903 911.715 794.114 913.4 793.644C915.085 793.154 917.272 792.908 919.96 792.908C922.648 792.908 924.835 793.154 926.52 793.644C928.205 794.114 929.443 794.903 930.232 796.012C931.021 797.122 931.416 798.626 931.416 800.524C931.416 802.402 931.021 803.895 930.232 805.004C929.443 806.114 928.205 806.914 926.52 807.404C924.835 807.874 922.648 808.108 919.96 808.108C917.272 808.108 915.085 807.874 913.4 807.404C911.715 806.914 910.477 806.114 909.688 805.004C908.899 803.895 908.504 802.402 908.504 800.524ZM910.968 800.524C910.968 801.442 911.139 802.21 911.48 802.828C911.8 803.447 912.312 803.948 913.016 804.332C913.72 804.695 914.648 804.962 915.8 805.132C916.931 805.282 918.317 805.356 919.96 805.356C921.581 805.356 922.968 805.282 924.12 805.132C925.272 804.962 926.2 804.695 926.904 804.332C927.608 803.948 928.131 803.447 928.472 802.828C928.792 802.21 928.952 801.442 928.952 800.524C928.952 799.607 928.792 798.839 928.472 798.22C928.131 797.58 927.608 797.079 926.904 796.716C926.2 796.332 925.272 796.066 924.12 795.916C922.968 795.746 921.581 795.66 919.96 795.66C918.317 795.66 916.931 795.746 915.8 795.916C914.648 796.066 913.72 796.332 913.016 796.716C912.312 797.079 911.8 797.58 911.48 798.22C911.139 798.839 910.968 799.607 910.968 800.524ZM908.504 781.243C908.504 779.344 908.899 777.84 909.688 776.731C910.477 775.622 911.715 774.832 913.4 774.363C915.085 773.872 917.272 773.627 919.96 773.627C922.648 773.627 924.835 773.872 926.52 774.363C928.205 774.832 929.443 775.622 930.232 776.731C931.021 777.84 931.416 779.344 931.416 781.243C931.416 783.12 931.021 784.614 930.232 785.723C929.443 786.832 928.205 787.632 926.52 788.123C924.835 788.592 922.648 788.827 919.96 788.827C917.272 788.827 915.085 788.592 913.4 788.123C911.715 787.632 910.477 786.832 909.688 785.723C908.899 784.614 908.504 783.12 908.504 781.243ZM910.968 781.243C910.968 782.16 911.139 782.928 911.48 783.547C911.8 784.166 912.312 784.667 913.016 785.051C913.72 785.414 914.648 785.68 915.8 785.851C916.931 786 918.317 786.075 919.96 786.075C921.581 786.075 922.968 786 924.12 785.851C925.272 785.68 926.2 785.414 926.904 785.051C927.608 784.667 928.131 784.166 928.472 783.547C928.792 782.928 928.952 782.16 928.952 781.243C928.952 780.326 928.792 779.558 928.472 778.939C928.131 778.299 927.608 777.798 926.904 777.435C926.2 777.051 925.272 776.784 924.12 776.635C922.968 776.464 921.581 776.379 919.96 776.379C918.317 776.379 916.931 776.464 915.8 776.635C914.648 776.784 913.72 777.051 913.016 777.435C912.312 777.798 911.8 778.299 911.48 778.939C911.139 779.558 910.968 780.326 910.968 781.243ZM908.504 761.962C908.504 760.063 908.899 758.559 909.688 757.45C910.477 756.34 911.715 755.551 913.4 755.082C915.085 754.591 917.272 754.346 919.96 754.346C922.648 754.346 924.835 754.591 926.52 755.082C928.205 755.551 929.443 756.34 930.232 757.45C931.021 758.559 931.416 760.063 931.416 761.962C931.416 763.839 931.021 765.332 930.232 766.442C929.443 767.551 928.205 768.351 926.52 768.842C924.835 769.311 922.648 769.546 919.96 769.546C917.272 769.546 915.085 769.311 913.4 768.842C911.715 768.351 910.477 767.551 909.688 766.442C908.899 765.332 908.504 763.839 908.504 761.962ZM910.968 761.962C910.968 762.879 911.139 763.647 911.48 764.266C911.8 764.884 912.312 765.386 913.016 765.77C913.72 766.132 914.648 766.399 915.8 766.57C916.931 766.719 918.317 766.794 919.96 766.794C921.581 766.794 922.968 766.719 924.12 766.57C925.272 766.399 926.2 766.132 926.904 765.77C927.608 765.386 928.131 764.884 928.472 764.266C928.792 763.647 928.952 762.879 928.952 761.962C928.952 761.044 928.792 760.276 928.472 759.658C928.131 759.018 927.608 758.516 926.904 758.154C926.2 757.77 925.272 757.503 924.12 757.354C922.968 757.183 921.581 757.098 919.96 757.098C918.317 757.098 916.931 757.183 915.8 757.354C914.648 757.503 913.72 757.77 913.016 758.154C912.312 758.516 911.8 759.018 911.48 759.658C911.139 760.276 910.968 761.044 910.968 761.962Z" fill="#373737"/>
<rect x="883" y="368" width="69" height="244" fill="#D9D9D9"/>
<path d="M908.536 539.376C908.536 538.437 908.557 537.637 908.6 536.976C908.643 536.293 908.717 535.675 908.824 535.12C908.909 534.544 909.027 533.957 909.176 533.36L911.32 533.648C911.256 534.288 911.203 534.885 911.16 535.44C911.117 535.973 911.085 536.549 911.064 537.168C911.043 537.787 911.032 538.523 911.032 539.376C911.032 540.805 911.309 541.936 911.864 542.768C912.419 543.6 913.347 544.197 914.648 544.56C915.949 544.901 917.72 545.072 919.96 545.072C922.2 545.072 923.971 544.901 925.272 544.56C926.573 544.197 927.501 543.6 928.056 542.768C928.611 541.936 928.888 540.805 928.888 539.376C928.888 538.011 928.867 536.869 928.824 535.952C928.76 535.013 928.664 534.096 928.536 533.2L930.648 532.912C930.904 533.829 931.085 534.779 931.192 535.76C931.32 536.72 931.384 537.925 931.384 539.376C931.384 541.488 931.021 543.184 930.296 544.464C929.549 545.723 928.344 546.64 926.68 547.216C925.016 547.771 922.776 548.048 919.96 548.048C917.144 548.048 914.904 547.771 913.24 547.216C911.576 546.64 910.381 545.723 909.656 544.464C908.909 543.184 908.536 541.488 908.536 539.376ZM908.632 521.094C908.632 519.515 908.824 518.182 909.208 517.094C909.592 515.985 910.221 515.099 911.096 514.438C911.971 513.755 913.133 513.265 914.584 512.966C916.035 512.646 917.827 512.486 919.96 512.486C922.093 512.486 923.885 512.646 925.336 512.966C926.787 513.265 927.949 513.755 928.824 514.438C929.699 515.099 930.328 515.985 930.712 517.094C931.096 518.182 931.288 519.515 931.288 521.094C931.288 522.609 931.256 524.017 931.192 525.318C931.149 526.598 931.085 527.814 931 528.966L928.696 527.75C928.717 526.854 928.749 525.862 928.792 524.774C928.813 523.665 928.824 522.438 928.824 521.094C928.824 519.686 928.557 518.566 928.024 517.734C927.469 516.902 926.552 516.315 925.272 515.974C923.971 515.611 922.2 515.43 919.96 515.43C917.72 515.43 915.96 515.611 914.68 515.974C913.379 516.315 912.451 516.902 911.896 517.734C911.341 518.566 911.064 519.686 911.064 521.094C911.064 522.417 911.075 523.611 911.096 524.678C911.117 525.723 911.139 526.747 911.16 527.75L908.92 528.966C908.835 527.814 908.771 526.598 908.728 525.318C908.664 524.017 908.632 522.609 908.632 521.094ZM908.92 526.15H931V528.966H908.92V526.15ZM908.664 500.548C908.664 498.735 908.835 497.295 909.176 496.228C909.496 495.161 910.072 494.393 910.904 493.924C911.736 493.433 912.909 493.188 914.424 493.188C916.003 493.188 917.208 493.487 918.04 494.084C918.872 494.66 919.352 495.609 919.48 496.932H919.608C919.757 495.289 920.333 494.148 921.336 493.508C922.339 492.847 923.725 492.516 925.496 492.516C927.011 492.516 928.184 492.751 929.016 493.22C929.848 493.689 930.435 494.447 930.776 495.492C931.096 496.516 931.256 497.871 931.256 499.556C931.256 500.815 931.245 501.903 931.224 502.82C931.224 503.716 931.203 504.548 931.16 505.316C931.117 506.084 931.064 506.884 931 507.716L928.76 507.268C928.781 506.799 928.803 505.913 928.824 504.612C928.845 503.289 928.856 501.753 928.856 500.004C928.856 498.831 928.76 497.913 928.568 497.252C928.355 496.569 927.971 496.089 927.416 495.812C926.861 495.513 926.061 495.364 925.016 495.364C923.864 495.364 922.979 495.513 922.36 495.812C921.741 496.111 921.304 496.612 921.048 497.316C920.792 498.02 920.653 498.98 920.632 500.196V507.3H918.488V500.228C918.467 499.161 918.36 498.319 918.168 497.7C917.955 497.06 917.581 496.601 917.048 496.324C916.493 496.047 915.725 495.908 914.744 495.908C913.741 495.908 912.973 496.057 912.44 496.356C911.907 496.655 911.544 497.156 911.352 497.86C911.16 498.543 911.064 499.481 911.064 500.676C911.064 501.721 911.064 502.66 911.064 503.492C911.064 504.324 911.075 505.06 911.096 505.7C911.096 506.319 911.117 506.841 911.16 507.268L908.92 507.716C908.835 506.969 908.781 506.265 908.76 505.604C908.717 504.921 908.696 504.185 908.696 503.396C908.675 502.585 908.664 501.636 908.664 500.548ZM908.92 504.964H931V507.716H908.92V504.964ZM908.632 480C908.632 478.422 908.824 477.088 909.208 476C909.592 474.891 910.221 474.006 911.096 473.344C911.971 472.662 913.133 472.171 914.584 471.872C916.035 471.552 917.827 471.392 919.96 471.392C922.093 471.392 923.885 471.552 925.336 471.872C926.787 472.171 927.949 472.662 928.824 473.344C929.699 474.006 930.328 474.891 930.712 476C931.096 477.088 931.288 478.422 931.288 480C931.288 481.515 931.256 482.923 931.192 484.224C931.149 485.504 931.085 486.72 931 487.872L928.696 486.656C928.717 485.76 928.749 484.768 928.792 483.68C928.813 482.571 928.824 481.344 928.824 480C928.824 478.592 928.557 477.472 928.024 476.64C927.469 475.808 926.552 475.222 925.272 474.88C923.971 474.518 922.2 474.336 919.96 474.336C917.72 474.336 915.96 474.518 914.68 474.88C913.379 475.222 912.451 475.808 911.896 476.64C911.341 477.472 911.064 478.592 911.064 480C911.064 481.323 911.075 482.518 911.096 483.584C911.117 484.63 911.139 485.654 911.16 486.656L908.92 487.872C908.835 486.72 908.771 485.504 908.728 484.224C908.664 482.923 908.632 481.515 908.632 480ZM908.92 485.056H931V487.872H908.92V485.056ZM908.92 458.107C908.92 457.851 908.995 457.627 909.144 457.435C909.272 457.243 909.453 457.115 909.688 457.051L931 449.947V452.859L912.888 458.587C912.589 458.673 912.291 458.769 911.992 458.875C911.672 458.961 911.373 459.046 911.096 459.131V460.027C911.373 460.113 911.672 460.198 911.992 460.283C912.291 460.369 912.589 460.465 912.888 460.571L931 466.299V469.211L909.688 462.107C909.453 462.043 909.272 461.915 909.144 461.723C908.995 461.531 908.92 461.307 908.92 461.051V458.107ZM921.656 454.011H924.088V465.211H921.656V454.011ZM908.504 439.993C908.504 438.094 908.899 436.59 909.688 435.481C910.477 434.372 911.715 433.582 913.4 433.113C915.085 432.622 917.272 432.377 919.96 432.377C922.648 432.377 924.835 432.622 926.52 433.113C928.205 433.582 929.443 434.372 930.232 435.481C931.021 436.59 931.416 438.094 931.416 439.993C931.416 441.87 931.021 443.364 930.232 444.473C929.443 445.582 928.205 446.382 926.52 446.873C924.835 447.342 922.648 447.577 919.96 447.577C917.272 447.577 915.085 447.342 913.4 446.873C911.715 446.382 910.477 445.582 909.688 444.473C908.899 443.364 908.504 441.87 908.504 439.993ZM910.968 439.993C910.968 440.91 911.139 441.678 911.48 442.297C911.8 442.916 912.312 443.417 913.016 443.801C913.72 444.164 914.648 444.43 915.8 444.601C916.931 444.75 918.317 444.825 919.96 444.825C921.581 444.825 922.968 444.75 924.12 444.601C925.272 444.43 926.2 444.164 926.904 443.801C927.608 443.417 928.131 442.916 928.472 442.297C928.792 441.678 928.952 440.91 928.952 439.993C928.952 439.076 928.792 438.308 928.472 437.689C928.131 437.049 927.608 436.548 926.904 436.185C926.2 435.801 925.272 435.534 924.12 435.385C922.968 435.214 921.581 435.129 919.96 435.129C918.317 435.129 916.931 435.214 915.8 435.385C914.648 435.534 913.72 435.801 913.016 436.185C912.312 436.548 911.8 437.049 911.48 437.689C911.139 438.308 910.968 439.076 910.968 439.993Z" fill="#373737"/>
<rect x="193" y="368" width="244" height="244" fill="#F09800"/>
<rect x="437" y="368" width="69" height="244" fill="#D9D9D9"/>
<path d="M462.888 543.024C462.888 542 462.899 540.965 462.92 539.92C462.92 538.875 462.931 537.84 462.952 536.816C462.973 535.792 463.027 534.811 463.112 533.872L465.288 534.032V542.32C465.288 543.067 465.459 543.611 465.8 543.952C466.12 544.293 466.653 544.464 467.4 544.464H485V547.28H466.856C465.597 547.28 464.627 546.896 463.944 546.128C463.24 545.36 462.888 544.325 462.888 543.024ZM472.52 546.736V535.248H474.792V546.736H472.52ZM462.504 523.118C462.504 521.219 462.899 519.715 463.688 518.606C464.477 517.497 465.715 516.707 467.4 516.238C469.085 515.747 471.272 515.502 473.96 515.502C476.648 515.502 478.835 515.747 480.52 516.238C482.205 516.707 483.443 517.497 484.232 518.606C485.021 519.715 485.416 521.219 485.416 523.118C485.416 524.995 485.021 526.489 484.232 527.598C483.443 528.707 482.205 529.507 480.52 529.998C478.835 530.467 476.648 530.702 473.96 530.702C471.272 530.702 469.085 530.467 467.4 529.998C465.715 529.507 464.477 528.707 463.688 527.598C462.899 526.489 462.504 524.995 462.504 523.118ZM464.968 523.118C464.968 524.035 465.139 524.803 465.48 525.422C465.8 526.041 466.312 526.542 467.016 526.926C467.72 527.289 468.648 527.555 469.8 527.726C470.931 527.875 472.317 527.95 473.96 527.95C475.581 527.95 476.968 527.875 478.12 527.726C479.272 527.555 480.2 527.289 480.904 526.926C481.608 526.542 482.131 526.041 482.472 525.422C482.792 524.803 482.952 524.035 482.952 523.118C482.952 522.201 482.792 521.433 482.472 520.814C482.131 520.174 481.608 519.673 480.904 519.31C480.2 518.926 479.272 518.659 478.12 518.51C476.968 518.339 475.581 518.254 473.96 518.254C472.317 518.254 470.931 518.339 469.8 518.51C468.648 518.659 467.72 518.926 467.016 519.31C466.312 519.673 465.8 520.174 465.48 520.814C465.139 521.433 464.968 522.201 464.968 523.118ZM462.536 504.637C462.536 503.037 462.728 501.757 463.112 500.797C463.475 499.815 464.083 499.079 464.936 498.589C465.789 498.098 466.931 497.778 468.36 497.629C469.789 497.458 471.571 497.373 473.704 497.373C476.179 497.373 478.184 497.533 479.72 497.853C481.256 498.173 482.44 498.674 483.272 499.357C484.083 500.018 484.637 500.893 484.936 501.981C485.235 503.069 485.384 504.381 485.384 505.917C485.384 506.407 485.363 507.079 485.32 507.933C485.277 508.765 485.139 509.682 484.904 510.685L482.824 510.429C482.867 509.917 482.899 509.458 482.92 509.053C482.941 508.647 482.952 508.21 482.952 507.741C482.952 507.25 482.952 506.642 482.952 505.917C482.952 504.807 482.824 503.879 482.568 503.133C482.312 502.386 481.853 501.789 481.192 501.341C480.509 500.893 479.56 500.573 478.344 500.381C477.128 500.189 475.56 500.093 473.64 500.093C471.955 500.093 470.557 500.135 469.448 500.221C468.317 500.285 467.421 500.455 466.76 500.733C466.099 501.01 465.629 501.458 465.352 502.077C465.075 502.695 464.936 503.559 464.936 504.669C464.936 505.885 465.139 506.813 465.544 507.453C465.949 508.071 466.536 508.487 467.304 508.701C468.072 508.914 469.011 509.021 470.12 509.021C471.187 509.021 472.093 508.914 472.84 508.701C473.565 508.466 474.12 508.05 474.504 507.453C474.888 506.855 475.08 506.034 475.08 504.989C475.08 504.285 474.995 503.645 474.824 503.069C474.632 502.471 474.323 501.863 473.896 501.245C473.448 500.626 472.84 499.911 472.072 499.101L473.448 498.973C474.451 499.655 475.24 500.327 475.816 500.989C476.371 501.629 476.765 502.322 477 503.069C477.213 503.815 477.32 504.701 477.32 505.725C477.32 507.239 477.011 508.434 476.392 509.309C475.773 510.183 474.92 510.802 473.832 511.165C472.744 511.527 471.507 511.709 470.12 511.709C468.435 511.709 467.037 511.495 465.928 511.069C464.797 510.621 463.955 509.885 463.4 508.861C462.824 507.815 462.536 506.407 462.536 504.637ZM462.6 485.428C462.6 484.02 462.717 482.868 462.952 481.972C463.187 481.055 463.539 480.34 464.008 479.828C464.477 479.295 465.085 478.932 465.832 478.74C466.557 478.527 467.421 478.42 468.424 478.42C469.384 478.42 470.227 478.527 470.952 478.74C471.677 478.954 472.264 479.295 472.712 479.764C473.139 480.212 473.395 480.81 473.48 481.556H473.608C473.693 480.618 473.992 479.892 474.504 479.38C474.995 478.847 475.667 478.474 476.52 478.26C477.352 478.047 478.344 477.94 479.496 477.94C480.84 477.94 481.949 478.143 482.824 478.548C483.677 478.954 484.307 479.7 484.712 480.788C485.117 481.855 485.32 483.402 485.32 485.428C485.32 487.412 485.117 488.948 484.712 490.036C484.307 491.124 483.677 491.882 482.824 492.308C481.949 492.735 480.84 492.948 479.496 492.948C478.344 492.948 477.352 492.842 476.52 492.628C475.667 492.394 474.995 492.01 474.504 491.476C473.992 490.943 473.693 490.218 473.608 489.3H473.48C473.395 490.047 473.139 490.655 472.712 491.124C472.264 491.594 471.677 491.935 470.952 492.148C470.227 492.362 469.384 492.468 468.424 492.468C467.421 492.468 466.557 492.362 465.832 492.148C465.085 491.935 464.477 491.572 464.008 491.06C463.539 490.527 463.187 489.812 462.952 488.916C462.717 487.999 462.6 486.836 462.6 485.428ZM474.664 485.364C474.664 486.367 474.728 487.188 474.856 487.828C474.984 488.468 475.208 488.97 475.528 489.332C475.827 489.695 476.253 489.951 476.808 490.1C477.363 490.228 478.067 490.292 478.92 490.292C479.901 490.292 480.691 490.164 481.288 489.908C481.864 489.631 482.28 489.14 482.536 488.436C482.771 487.711 482.888 486.698 482.888 485.396C482.888 484.095 482.771 483.103 482.536 482.42C482.28 481.738 481.864 481.268 481.288 481.012C480.691 480.756 479.901 480.628 478.92 480.628C478.045 480.628 477.331 480.703 476.776 480.852C476.221 480.98 475.795 481.215 475.496 481.556C475.176 481.898 474.963 482.378 474.856 482.996C474.728 483.615 474.664 484.404 474.664 485.364ZM464.872 485.396C464.872 486.612 464.989 487.54 465.224 488.18C465.459 488.82 465.853 489.268 466.408 489.524C466.963 489.759 467.72 489.876 468.68 489.876C469.683 489.876 470.461 489.759 471.016 489.524C471.549 489.268 471.923 488.82 472.136 488.18C472.328 487.519 472.424 486.58 472.424 485.364C472.424 484.127 472.317 483.199 472.104 482.58C471.891 481.94 471.517 481.514 470.984 481.3C470.429 481.087 469.661 480.98 468.68 480.98C467.72 480.98 466.963 481.098 466.408 481.332C465.853 481.546 465.459 481.972 465.224 482.612C464.989 483.252 464.872 484.18 464.872 485.396ZM462.504 466.087C462.504 464.188 462.899 462.684 463.688 461.575C464.477 460.465 465.715 459.676 467.4 459.207C469.085 458.716 471.272 458.471 473.96 458.471C476.648 458.471 478.835 458.716 480.52 459.207C482.205 459.676 483.443 460.465 484.232 461.575C485.021 462.684 485.416 464.188 485.416 466.087C485.416 467.964 485.021 469.457 484.232 470.567C483.443 471.676 482.205 472.476 480.52 472.967C478.835 473.436 476.648 473.671 473.96 473.671C471.272 473.671 469.085 473.436 467.4 472.967C465.715 472.476 464.477 471.676 463.688 470.567C462.899 469.457 462.504 467.964 462.504 466.087ZM464.968 466.087C464.968 467.004 465.139 467.772 465.48 468.391C465.8 469.009 466.312 469.511 467.016 469.895C467.72 470.257 468.648 470.524 469.8 470.695C470.931 470.844 472.317 470.919 473.96 470.919C475.581 470.919 476.968 470.844 478.12 470.695C479.272 470.524 480.2 470.257 480.904 469.895C481.608 469.511 482.131 469.009 482.472 468.391C482.792 467.772 482.952 467.004 482.952 466.087C482.952 465.169 482.792 464.401 482.472 463.783C482.131 463.143 481.608 462.641 480.904 462.279C480.2 461.895 479.272 461.628 478.12 461.479C476.968 461.308 475.581 461.223 473.96 461.223C472.317 461.223 470.931 461.308 469.8 461.479C468.648 461.628 467.72 461.895 467.016 462.279C466.312 462.641 465.8 463.143 465.48 463.783C465.139 464.401 464.968 465.169 464.968 466.087ZM462.504 446.805C462.504 444.907 462.899 443.403 463.688 442.293C464.477 441.184 465.715 440.395 467.4 439.925C469.085 439.435 471.272 439.189 473.96 439.189C476.648 439.189 478.835 439.435 480.52 439.925C482.205 440.395 483.443 441.184 484.232 442.293C485.021 443.403 485.416 444.907 485.416 446.805C485.416 448.683 485.021 450.176 484.232 451.285C483.443 452.395 482.205 453.195 480.52 453.685C478.835 454.155 476.648 454.389 473.96 454.389C471.272 454.389 469.085 454.155 467.4 453.685C465.715 453.195 464.477 452.395 463.688 451.285C462.899 450.176 462.504 448.683 462.504 446.805ZM464.968 446.805C464.968 447.723 465.139 448.491 465.48 449.109C465.8 449.728 466.312 450.229 467.016 450.613C467.72 450.976 468.648 451.243 469.8 451.413C470.931 451.563 472.317 451.637 473.96 451.637C475.581 451.637 476.968 451.563 478.12 451.413C479.272 451.243 480.2 450.976 480.904 450.613C481.608 450.229 482.131 449.728 482.472 449.109C482.792 448.491 482.952 447.723 482.952 446.805C482.952 445.888 482.792 445.12 482.472 444.501C482.131 443.861 481.608 443.36 480.904 442.997C480.2 442.613 479.272 442.347 478.12 442.197C476.968 442.027 475.581 441.941 473.96 441.941C472.317 441.941 470.931 442.027 469.8 442.197C468.648 442.347 467.72 442.613 467.016 442.997C466.312 443.36 465.8 443.861 465.48 444.501C465.139 445.12 464.968 445.888 464.968 446.805Z" fill="black"/>
<rect x="1326" y="686" width="69" height="244" fill="#D9D9D9"/>
<path d="M1351.89 861.024C1351.89 860 1351.9 858.965 1351.92 857.92C1351.92 856.875 1351.93 855.84 1351.95 854.816C1351.97 853.792 1352.03 852.811 1352.11 851.872L1354.29 852.032V860.32C1354.29 861.067 1354.46 861.611 1354.8 861.952C1355.12 862.293 1355.65 862.464 1356.4 862.464H1374V865.28H1355.86C1354.6 865.28 1353.63 864.896 1352.94 864.128C1352.24 863.36 1351.89 862.325 1351.89 861.024ZM1361.52 864.736V853.248H1363.79V864.736H1361.52ZM1351.89 843.774C1351.89 842.75 1351.9 841.715 1351.92 840.67C1351.92 839.625 1351.93 838.59 1351.95 837.566C1351.97 836.542 1352.03 835.561 1352.11 834.622L1354.29 834.782V843.07C1354.29 843.817 1354.46 844.361 1354.8 844.702C1355.12 845.043 1355.65 845.214 1356.4 845.214H1374V848.03H1355.86C1354.6 848.03 1353.63 847.646 1352.94 846.878C1352.24 846.11 1351.89 845.075 1351.89 843.774ZM1361.52 847.486V835.998H1363.79V847.486H1361.52ZM1351.89 826.524C1351.89 825.5 1351.9 824.465 1351.92 823.42C1351.92 822.375 1351.93 821.34 1351.95 820.316C1351.97 819.292 1352.03 818.311 1352.11 817.372L1354.29 817.532V825.82C1354.29 826.567 1354.46 827.111 1354.8 827.452C1355.12 827.793 1355.65 827.964 1356.4 827.964H1374V830.78H1355.86C1354.6 830.78 1353.63 830.396 1352.94 829.628C1352.24 828.86 1351.89 827.825 1351.89 826.524ZM1361.52 830.236V818.748H1363.79V830.236H1361.52ZM1351.89 809.274C1351.89 808.25 1351.9 807.215 1351.92 806.17C1351.92 805.125 1351.93 804.09 1351.95 803.066C1351.97 802.042 1352.03 801.061 1352.11 800.122L1354.29 800.282V808.57C1354.29 809.317 1354.46 809.861 1354.8 810.202C1355.12 810.543 1355.65 810.714 1356.4 810.714H1374V813.53H1355.86C1354.6 813.53 1353.63 813.146 1352.94 812.378C1352.24 811.61 1351.89 810.575 1351.89 809.274ZM1361.52 812.986V801.498H1363.79V812.986H1361.52ZM1351.89 792.024C1351.89 791 1351.9 789.965 1351.92 788.92C1351.92 787.875 1351.93 786.84 1351.95 785.816C1351.97 784.792 1352.03 783.811 1352.11 782.872L1354.29 783.032V791.32C1354.29 792.067 1354.46 792.611 1354.8 792.952C1355.12 793.293 1355.65 793.464 1356.4 793.464H1374V796.28H1355.86C1354.6 796.28 1353.63 795.896 1352.94 795.128C1352.24 794.36 1351.89 793.325 1351.89 792.024ZM1361.52 795.736V784.248H1363.79V795.736H1361.52ZM1351.89 774.774C1351.89 773.75 1351.9 772.715 1351.92 771.67C1351.92 770.625 1351.93 769.59 1351.95 768.566C1351.97 767.542 1352.03 766.561 1352.11 765.622L1354.29 765.782V774.07C1354.29 774.817 1354.46 775.361 1354.8 775.702C1355.12 776.043 1355.65 776.214 1356.4 776.214H1374V779.03H1355.86C1354.6 779.03 1353.63 778.646 1352.94 777.878C1352.24 777.11 1351.89 776.075 1351.89 774.774ZM1361.52 778.486V766.998H1363.79V778.486H1361.52Z" fill="#373737"/>
<path d="M72.84 1072.2L68.66 1085.5C68.6067 1085.63 68.52 1085.75 68.4 1085.86C68.28 1085.95 68.14 1086 67.98 1086H66.2C66.0267 1086 65.88 1085.95 65.76 1085.86C65.64 1085.75 65.56 1085.63 65.52 1085.5L61.34 1072.2H63.16L66.42 1083.14C66.4867 1083.39 66.5533 1083.65 66.62 1083.9C66.7 1084.14 66.7667 1084.39 66.82 1084.64H67.36C67.4267 1084.39 67.4933 1084.13 67.56 1083.88C67.6267 1083.63 67.7 1083.37 67.78 1083.12L71.02 1072.2H72.84ZM76.5075 1076.26V1086H74.8275V1076.26H76.5075ZM76.0675 1072.12C76.4142 1072.12 76.5875 1072.29 76.5875 1072.64V1073.78C76.5875 1074.13 76.4142 1074.3 76.0675 1074.3H75.2675C74.9208 1074.3 74.7475 1074.13 74.7475 1073.78V1072.64C74.7475 1072.29 74.9208 1072.12 75.2675 1072.12H76.0675ZM82.9484 1076.02C83.3751 1076.02 83.8284 1076.03 84.3084 1076.06C84.7884 1076.09 85.2618 1076.12 85.7284 1076.16C86.2084 1076.2 86.6484 1076.25 87.0484 1076.32L86.9084 1077.56C86.2951 1077.53 85.6751 1077.51 85.0484 1077.5C84.4351 1077.47 83.8218 1077.46 83.2084 1077.46C82.6084 1077.45 82.1351 1077.46 81.7884 1077.5C81.4418 1077.54 81.1884 1077.65 81.0284 1077.82C80.8818 1077.99 80.8084 1078.29 80.8084 1078.7C80.8084 1079.21 80.9284 1079.54 81.1684 1079.7C81.4084 1079.86 81.7618 1079.99 82.2284 1080.1L85.0684 1080.74C85.8418 1080.93 86.4084 1081.21 86.7684 1081.6C87.1418 1081.99 87.3284 1082.59 87.3284 1083.42C87.3284 1084.22 87.1751 1084.82 86.8684 1085.22C86.5751 1085.62 86.1218 1085.89 85.5084 1086.02C84.8951 1086.15 84.1151 1086.22 83.1684 1086.22C82.8218 1086.22 82.3018 1086.21 81.6084 1086.18C80.9284 1086.15 80.1751 1086.07 79.3484 1085.94L79.4684 1084.7C79.7884 1084.71 80.1284 1084.73 80.4884 1084.76C80.8484 1084.77 81.2218 1084.78 81.6084 1084.78C82.0084 1084.78 82.4151 1084.78 82.8284 1084.78C83.5618 1084.78 84.1351 1084.75 84.5484 1084.68C84.9618 1084.61 85.2551 1084.49 85.4284 1084.3C85.6018 1084.1 85.6884 1083.81 85.6884 1083.42C85.6884 1082.94 85.5484 1082.62 85.2684 1082.46C84.9884 1082.3 84.6151 1082.17 84.1484 1082.06L81.3484 1081.42C80.8151 1081.29 80.3884 1081.11 80.0684 1080.9C79.7484 1080.67 79.5151 1080.39 79.3684 1080.04C79.2218 1079.68 79.1484 1079.23 79.1484 1078.7C79.1484 1077.94 79.2818 1077.37 79.5484 1076.98C79.8151 1076.59 80.2284 1076.33 80.7884 1076.2C81.3484 1076.07 82.0684 1076.01 82.9484 1076.02ZM91.5047 1076.26V1083.1C91.4914 1083.71 91.6047 1084.15 91.8447 1084.4C92.0847 1084.65 92.4847 1084.78 93.0447 1084.78C93.5914 1084.78 94.1314 1084.65 94.6647 1084.4C95.2114 1084.13 95.8647 1083.75 96.6247 1083.26L96.8447 1084.44C96.0847 1085.04 95.3447 1085.49 94.6247 1085.8C93.918 1086.11 93.198 1086.26 92.4647 1086.26C90.6914 1086.26 89.8047 1085.37 89.8047 1083.58V1076.26H91.5047ZM98.1447 1076.26V1086H96.7847L96.6247 1084.16L96.4447 1083.86V1076.26H98.1447ZM105.871 1076.02C106.591 1076.02 107.198 1076.12 107.691 1076.32C108.198 1076.51 108.578 1076.83 108.831 1077.28C109.084 1077.73 109.211 1078.35 109.211 1079.14V1086H107.871L107.611 1083.88L107.491 1083.66V1079.14C107.491 1078.54 107.351 1078.11 107.071 1077.86C106.804 1077.59 106.284 1077.46 105.511 1077.46C105.004 1077.46 104.364 1077.49 103.591 1077.54C102.831 1077.59 102.078 1077.65 101.331 1077.72L101.171 1076.46C101.624 1076.38 102.118 1076.31 102.651 1076.24C103.198 1076.17 103.751 1076.12 104.311 1076.08C104.871 1076.04 105.391 1076.02 105.871 1076.02ZM108.411 1080L108.391 1081.28L103.731 1081.3C103.264 1081.31 102.938 1081.44 102.751 1081.68C102.564 1081.91 102.471 1082.23 102.471 1082.64V1083.26C102.471 1083.77 102.591 1084.14 102.831 1084.38C103.071 1084.61 103.458 1084.72 103.991 1084.72C104.364 1084.72 104.784 1084.65 105.251 1084.52C105.731 1084.37 106.211 1084.15 106.691 1083.86C107.171 1083.57 107.611 1083.19 108.011 1082.74V1084C107.864 1084.19 107.651 1084.41 107.371 1084.66C107.104 1084.9 106.778 1085.14 106.391 1085.38C106.018 1085.61 105.598 1085.8 105.131 1085.96C104.678 1086.11 104.184 1086.18 103.651 1086.18C103.078 1086.18 102.571 1086.08 102.131 1085.88C101.691 1085.67 101.344 1085.36 101.091 1084.96C100.851 1084.55 100.731 1084.05 100.731 1083.46V1082.4C100.731 1081.64 100.964 1081.05 101.431 1080.64C101.911 1080.21 102.578 1080 103.431 1080H108.411ZM113.968 1072L113.948 1083.32C113.948 1083.75 114.061 1084.07 114.288 1084.3C114.528 1084.51 114.861 1084.62 115.288 1084.62H116.228L116.428 1085.92C116.308 1085.97 116.134 1086.02 115.908 1086.06C115.694 1086.1 115.468 1086.13 115.228 1086.14C115.001 1086.17 114.808 1086.18 114.648 1086.18C113.928 1086.18 113.348 1085.97 112.908 1085.54C112.481 1085.11 112.268 1084.5 112.268 1083.7V1072H113.968ZM119.945 1076.26V1086H118.265V1076.26H119.945ZM119.505 1072.12C119.852 1072.12 120.025 1072.29 120.025 1072.64V1073.78C120.025 1074.13 119.852 1074.3 119.505 1074.3H118.705C118.358 1074.3 118.185 1074.13 118.185 1073.78V1072.64C118.185 1072.29 118.358 1072.12 118.705 1072.12H119.505ZM126.386 1076.02C126.813 1076.02 127.266 1076.03 127.746 1076.06C128.226 1076.09 128.699 1076.12 129.166 1076.16C129.646 1076.2 130.086 1076.25 130.486 1076.32L130.346 1077.56C129.733 1077.53 129.113 1077.51 128.486 1077.5C127.873 1077.47 127.259 1077.46 126.646 1077.46C126.046 1077.45 125.573 1077.46 125.226 1077.5C124.879 1077.54 124.626 1077.65 124.466 1077.82C124.319 1077.99 124.246 1078.29 124.246 1078.7C124.246 1079.21 124.366 1079.54 124.606 1079.7C124.846 1079.86 125.199 1079.99 125.666 1080.1L128.506 1080.74C129.279 1080.93 129.846 1081.21 130.206 1081.6C130.579 1081.99 130.766 1082.59 130.766 1083.42C130.766 1084.22 130.613 1084.82 130.306 1085.22C130.013 1085.62 129.559 1085.89 128.946 1086.02C128.333 1086.15 127.553 1086.22 126.606 1086.22C126.259 1086.22 125.739 1086.21 125.046 1086.18C124.366 1086.15 123.613 1086.07 122.786 1085.94L122.906 1084.7C123.226 1084.71 123.566 1084.73 123.926 1084.76C124.286 1084.77 124.659 1084.78 125.046 1084.78C125.446 1084.78 125.853 1084.78 126.266 1084.78C126.999 1084.78 127.573 1084.75 127.986 1084.68C128.399 1084.61 128.693 1084.49 128.866 1084.3C129.039 1084.1 129.126 1083.81 129.126 1083.42C129.126 1082.94 128.986 1082.62 128.706 1082.46C128.426 1082.3 128.053 1082.17 127.586 1082.06L124.786 1081.42C124.253 1081.29 123.826 1081.11 123.506 1080.9C123.186 1080.67 122.953 1080.39 122.806 1080.04C122.659 1079.68 122.586 1079.23 122.586 1078.7C122.586 1077.94 122.719 1077.37 122.986 1076.98C123.253 1076.59 123.666 1076.33 124.226 1076.2C124.786 1076.07 125.506 1076.01 126.386 1076.02ZM137.302 1076.02C138.769 1076.02 139.829 1076.29 140.482 1076.82C141.149 1077.35 141.482 1078.15 141.482 1079.2C141.496 1080.07 141.316 1080.75 140.942 1081.24C140.569 1081.72 139.976 1081.96 139.162 1081.96H133.482V1080.64H138.722C139.162 1080.64 139.449 1080.49 139.582 1080.2C139.716 1079.89 139.782 1079.56 139.782 1079.2C139.769 1078.57 139.582 1078.13 139.222 1077.86C138.862 1077.59 138.249 1077.46 137.382 1077.46C136.676 1077.46 136.116 1077.57 135.702 1077.78C135.302 1077.98 135.016 1078.34 134.842 1078.86C134.682 1079.37 134.602 1080.08 134.602 1081C134.602 1082.04 134.702 1082.83 134.902 1083.38C135.116 1083.93 135.449 1084.3 135.902 1084.5C136.356 1084.7 136.956 1084.8 137.702 1084.8C138.222 1084.8 138.789 1084.78 139.402 1084.74C140.029 1084.69 140.589 1084.63 141.082 1084.56L141.262 1085.7C140.956 1085.82 140.576 1085.92 140.122 1086C139.682 1086.08 139.222 1086.14 138.742 1086.18C138.276 1086.22 137.856 1086.24 137.482 1086.24C136.362 1086.24 135.462 1086.07 134.782 1085.74C134.102 1085.39 133.602 1084.85 133.282 1084.1C132.976 1083.34 132.822 1082.34 132.822 1081.1C132.822 1079.82 132.976 1078.81 133.282 1078.08C133.602 1077.33 134.089 1076.81 134.742 1076.5C135.409 1076.18 136.262 1076.02 137.302 1076.02ZM154.478 1080.3V1081.6H148.378V1080.3H154.478ZM167.027 1072.2C167.187 1072.2 167.327 1072.25 167.447 1072.34C167.567 1072.42 167.647 1072.53 167.687 1072.68L172.127 1086H170.307L166.727 1074.68C166.673 1074.49 166.613 1074.31 166.547 1074.12C166.493 1073.92 166.44 1073.73 166.387 1073.56H165.827C165.773 1073.73 165.72 1073.92 165.667 1074.12C165.613 1074.31 165.553 1074.49 165.487 1074.68L161.907 1086H160.087L164.527 1072.68C164.567 1072.53 164.647 1072.42 164.767 1072.34C164.887 1072.25 165.027 1072.2 165.187 1072.2H167.027ZM169.587 1080.16V1081.68H162.587V1080.16H169.587ZM175.828 1072.2V1086H174.068V1072.2H175.828ZM185.103 1080.3V1081.6H179.003V1080.3H185.103ZM193.027 1072.02C194.134 1072.02 195.007 1072.15 195.647 1072.4C196.3 1072.65 196.767 1073.09 197.047 1073.72C197.327 1074.33 197.467 1075.21 197.467 1076.34C197.467 1077.47 197.327 1078.35 197.047 1078.98C196.78 1079.61 196.334 1080.05 195.707 1080.3C195.094 1080.54 194.267 1080.66 193.227 1080.66C192.667 1080.66 192.127 1080.65 191.607 1080.62C191.1 1080.59 190.634 1080.56 190.207 1080.52C189.78 1080.47 189.414 1080.41 189.107 1080.36C188.814 1080.31 188.607 1080.26 188.487 1080.22L188.547 1079.14C189.254 1079.14 189.987 1079.14 190.747 1079.14C191.507 1079.14 192.26 1079.14 193.007 1079.14C193.674 1079.13 194.2 1079.05 194.587 1078.9C194.987 1078.74 195.267 1078.46 195.427 1078.06C195.6 1077.65 195.687 1077.07 195.687 1076.34C195.687 1075.59 195.6 1075.02 195.427 1074.62C195.267 1074.22 194.987 1073.94 194.587 1073.78C194.2 1073.62 193.674 1073.54 193.007 1073.54C191.914 1073.54 190.967 1073.55 190.167 1073.56C189.38 1073.57 188.847 1073.59 188.567 1073.62L188.287 1072.2C188.794 1072.15 189.267 1072.11 189.707 1072.08C190.147 1072.05 190.627 1072.04 191.147 1072.04C191.667 1072.03 192.294 1072.02 193.027 1072.02ZM190.047 1072.2V1086H188.287V1072.2H190.047ZM203.907 1076.02C205.027 1076.02 205.92 1076.19 206.587 1076.52C207.267 1076.85 207.753 1077.4 208.047 1078.16C208.34 1078.91 208.487 1079.9 208.487 1081.14C208.487 1082.38 208.34 1083.38 208.047 1084.14C207.753 1084.89 207.267 1085.43 206.587 1085.76C205.92 1086.09 205.027 1086.26 203.907 1086.26C202.8 1086.26 201.907 1086.09 201.227 1085.76C200.56 1085.43 200.073 1084.89 199.767 1084.14C199.473 1083.38 199.327 1082.38 199.327 1081.14C199.327 1079.9 199.473 1078.91 199.767 1078.16C200.073 1077.4 200.56 1076.85 201.227 1076.52C201.907 1076.19 202.8 1076.02 203.907 1076.02ZM203.907 1077.46C203.2 1077.46 202.64 1077.57 202.227 1077.8C201.827 1078.01 201.54 1078.39 201.367 1078.92C201.193 1079.45 201.107 1080.19 201.107 1081.14C201.107 1082.09 201.193 1082.83 201.367 1083.36C201.54 1083.89 201.827 1084.27 202.227 1084.5C202.64 1084.71 203.2 1084.82 203.907 1084.82C204.613 1084.82 205.173 1084.71 205.587 1084.5C206 1084.27 206.293 1083.89 206.467 1083.36C206.64 1082.83 206.727 1082.09 206.727 1081.14C206.727 1080.19 206.64 1079.45 206.467 1078.92C206.293 1078.39 206 1078.01 205.587 1077.8C205.173 1077.57 204.613 1077.46 203.907 1077.46ZM225.515 1076.26L222.675 1085.52C222.635 1085.67 222.555 1085.79 222.435 1085.88C222.315 1085.96 222.175 1086 222.015 1086H220.475C220.315 1086 220.168 1085.95 220.035 1085.86C219.915 1085.75 219.842 1085.62 219.815 1085.46L218.215 1078.84C218.162 1078.59 218.108 1078.33 218.055 1078.08C218.015 1077.83 217.962 1077.57 217.895 1077.3H217.655C217.602 1077.57 217.542 1077.83 217.475 1078.08C217.422 1078.33 217.368 1078.59 217.315 1078.84L215.735 1085.46C215.695 1085.62 215.615 1085.75 215.495 1085.86C215.375 1085.95 215.228 1086 215.055 1086H213.535C213.375 1086 213.235 1085.96 213.115 1085.88C212.995 1085.79 212.915 1085.67 212.875 1085.52L210.035 1076.26H211.795L213.815 1083.44C213.882 1083.68 213.942 1083.93 213.995 1084.18C214.048 1084.42 214.095 1084.66 214.135 1084.9H214.395C214.462 1084.66 214.522 1084.42 214.575 1084.18C214.642 1083.93 214.702 1083.68 214.755 1083.44L216.375 1076.8C216.402 1076.64 216.468 1076.51 216.575 1076.42C216.695 1076.31 216.842 1076.26 217.015 1076.26H218.555C218.715 1076.26 218.848 1076.31 218.955 1076.42C219.075 1076.51 219.155 1076.65 219.195 1076.82L220.795 1083.44C220.848 1083.68 220.902 1083.92 220.955 1084.16C221.022 1084.4 221.082 1084.65 221.135 1084.9H221.395C221.462 1084.65 221.515 1084.41 221.555 1084.18C221.595 1083.94 221.655 1083.69 221.735 1083.44L223.755 1076.26H225.515ZM231.521 1076.02C232.988 1076.02 234.048 1076.29 234.701 1076.82C235.368 1077.35 235.701 1078.15 235.701 1079.2C235.714 1080.07 235.534 1080.75 235.161 1081.24C234.788 1081.72 234.194 1081.96 233.381 1081.96H227.701V1080.64H232.941C233.381 1080.64 233.668 1080.49 233.801 1080.2C233.934 1079.89 234.001 1079.56 234.001 1079.2C233.988 1078.57 233.801 1078.13 233.441 1077.86C233.081 1077.59 232.468 1077.46 231.601 1077.46C230.894 1077.46 230.334 1077.57 229.921 1077.78C229.521 1077.98 229.234 1078.34 229.061 1078.86C228.901 1079.37 228.821 1080.08 228.821 1081C228.821 1082.04 228.921 1082.83 229.121 1083.38C229.334 1083.93 229.668 1084.3 230.121 1084.5C230.574 1084.7 231.174 1084.8 231.921 1084.8C232.441 1084.8 233.008 1084.78 233.621 1084.74C234.248 1084.69 234.808 1084.63 235.301 1084.56L235.481 1085.7C235.174 1085.82 234.794 1085.92 234.341 1086C233.901 1086.08 233.441 1086.14 232.961 1086.18C232.494 1086.22 232.074 1086.24 231.701 1086.24C230.581 1086.24 229.681 1086.07 229.001 1085.74C228.321 1085.39 227.821 1084.85 227.501 1084.1C227.194 1083.34 227.041 1082.34 227.041 1081.1C227.041 1079.82 227.194 1078.81 227.501 1078.08C227.821 1077.33 228.308 1076.81 228.961 1076.5C229.628 1076.18 230.481 1076.02 231.521 1076.02ZM239.583 1076.26L239.803 1078.12L239.963 1078.42V1086H238.263V1076.26H239.583ZM244.363 1076.02L244.163 1077.62H243.603C243.03 1077.62 242.456 1077.74 241.883 1077.98C241.31 1078.21 240.61 1078.53 239.783 1078.96L239.643 1077.9C240.363 1077.31 241.083 1076.85 241.803 1076.52C242.536 1076.19 243.243 1076.02 243.923 1076.02H244.363ZM250.037 1076.02C251.503 1076.02 252.563 1076.29 253.217 1076.82C253.883 1077.35 254.217 1078.15 254.217 1079.2C254.23 1080.07 254.05 1080.75 253.677 1081.24C253.303 1081.72 252.71 1081.96 251.897 1081.96H246.217V1080.64H251.457C251.897 1080.64 252.183 1080.49 252.317 1080.2C252.45 1079.89 252.517 1079.56 252.517 1079.2C252.503 1078.57 252.317 1078.13 251.957 1077.86C251.597 1077.59 250.983 1077.46 250.117 1077.46C249.41 1077.46 248.85 1077.57 248.437 1077.78C248.037 1077.98 247.75 1078.34 247.577 1078.86C247.417 1079.37 247.337 1080.08 247.337 1081C247.337 1082.04 247.437 1082.83 247.637 1083.38C247.85 1083.93 248.183 1084.3 248.637 1084.5C249.09 1084.7 249.69 1084.8 250.437 1084.8C250.957 1084.8 251.523 1084.78 252.137 1084.74C252.763 1084.69 253.323 1084.63 253.817 1084.56L253.997 1085.7C253.69 1085.82 253.31 1085.92 252.857 1086C252.417 1086.08 251.957 1086.14 251.477 1086.18C251.01 1086.22 250.59 1086.24 250.217 1086.24C249.097 1086.24 248.197 1086.07 247.517 1085.74C246.837 1085.39 246.337 1084.85 246.017 1084.1C245.71 1083.34 245.557 1082.34 245.557 1081.1C245.557 1079.82 245.71 1078.81 246.017 1078.08C246.337 1077.33 246.823 1076.81 247.477 1076.5C248.143 1076.18 248.997 1076.02 250.037 1076.02ZM260.019 1076.02C260.659 1076.02 261.292 1076.11 261.919 1076.28C262.545 1076.44 263.145 1076.69 263.719 1077.04L263.619 1078.1C262.992 1077.91 262.439 1077.77 261.959 1077.66C261.479 1077.55 260.965 1077.5 260.419 1077.5C259.859 1077.5 259.405 1077.6 259.059 1077.8C258.725 1077.99 258.479 1078.34 258.319 1078.86C258.159 1079.38 258.079 1080.12 258.079 1081.08C258.079 1082.04 258.152 1082.79 258.299 1083.32C258.459 1083.85 258.705 1084.23 259.039 1084.44C259.372 1084.65 259.799 1084.76 260.319 1084.76C260.705 1084.76 261.052 1084.71 261.359 1084.62C261.679 1084.51 262.012 1084.35 262.359 1084.12C262.719 1083.89 263.139 1083.61 263.619 1083.26L263.779 1084.46C263.245 1084.95 262.639 1085.37 261.959 1085.72C261.279 1086.07 260.545 1086.24 259.759 1086.24C258.532 1086.24 257.652 1085.81 257.119 1084.94C256.599 1084.07 256.339 1082.79 256.339 1081.1C256.339 1079.83 256.472 1078.83 256.739 1078.1C257.005 1077.35 257.412 1076.82 257.959 1076.5C258.505 1076.18 259.192 1076.02 260.019 1076.02ZM265.099 1072V1086H263.779L263.579 1084.3L263.399 1084.16V1077.48L263.519 1077.18C263.465 1076.81 263.432 1076.45 263.419 1076.1C263.405 1075.75 263.399 1075.39 263.399 1075V1072H265.099ZM282.488 1072.2L278.308 1085.5C278.255 1085.63 278.168 1085.75 278.048 1085.86C277.928 1085.95 277.788 1086 277.628 1086H275.848C275.675 1086 275.528 1085.95 275.408 1085.86C275.288 1085.75 275.208 1085.63 275.168 1085.5L270.988 1072.2H272.808L276.068 1083.14C276.135 1083.39 276.202 1083.65 276.268 1083.9C276.348 1084.14 276.415 1084.39 276.468 1084.64H277.008C277.075 1084.39 277.142 1084.13 277.208 1083.88C277.275 1083.63 277.348 1083.37 277.428 1083.12L280.668 1072.2H282.488ZM286.156 1076.26V1086H284.476V1076.26H286.156ZM285.716 1072.12C286.063 1072.12 286.236 1072.29 286.236 1072.64V1073.78C286.236 1074.13 286.063 1074.3 285.716 1074.3H284.916C284.569 1074.3 284.396 1074.13 284.396 1073.78V1072.64C284.396 1072.29 284.569 1072.12 284.916 1072.12H285.716ZM290.677 1076.26L290.897 1078.12L291.057 1078.42V1086H289.357V1076.26H290.677ZM295.457 1076.02L295.257 1077.62H294.697C294.124 1077.62 293.55 1077.74 292.977 1077.98C292.404 1078.21 291.704 1078.53 290.877 1078.96L290.737 1077.9C291.457 1077.31 292.177 1076.85 292.897 1076.52C293.63 1076.19 294.337 1076.02 295.017 1076.02H295.457ZM299.824 1073.38V1083.32C299.824 1083.79 299.924 1084.12 300.124 1084.32C300.324 1084.52 300.664 1084.62 301.144 1084.62H302.624L302.824 1085.92C302.611 1085.97 302.364 1086.02 302.084 1086.06C301.804 1086.1 301.531 1086.13 301.264 1086.14C300.998 1086.17 300.784 1086.18 300.624 1086.18C299.811 1086.18 299.191 1085.95 298.764 1085.5C298.338 1085.05 298.124 1084.39 298.124 1083.54V1073.38H299.824ZM302.924 1076.26V1077.6H296.364V1076.36L298.284 1076.26H302.924ZM306.641 1076.26V1083.1C306.628 1083.71 306.741 1084.15 306.981 1084.4C307.221 1084.65 307.621 1084.78 308.181 1084.78C308.728 1084.78 309.268 1084.65 309.801 1084.4C310.348 1084.13 311.001 1083.75 311.761 1083.26L311.981 1084.44C311.221 1085.04 310.481 1085.49 309.761 1085.8C309.055 1086.11 308.335 1086.26 307.601 1086.26C305.828 1086.26 304.941 1085.37 304.941 1083.58V1076.26H306.641ZM313.281 1076.26V1086H311.921L311.761 1084.16L311.581 1083.86V1076.26H313.281ZM321.008 1076.02C321.728 1076.02 322.334 1076.12 322.828 1076.32C323.334 1076.51 323.714 1076.83 323.968 1077.28C324.221 1077.73 324.348 1078.35 324.348 1079.14V1086H323.008L322.748 1083.88L322.628 1083.66V1079.14C322.628 1078.54 322.488 1078.11 322.208 1077.86C321.941 1077.59 321.421 1077.46 320.648 1077.46C320.141 1077.46 319.501 1077.49 318.728 1077.54C317.968 1077.59 317.214 1077.65 316.468 1077.72L316.308 1076.46C316.761 1076.38 317.254 1076.31 317.788 1076.24C318.334 1076.17 318.888 1076.12 319.448 1076.08C320.008 1076.04 320.528 1076.02 321.008 1076.02ZM323.548 1080L323.528 1081.28L318.868 1081.3C318.401 1081.31 318.074 1081.44 317.888 1081.68C317.701 1081.91 317.608 1082.23 317.608 1082.64V1083.26C317.608 1083.77 317.728 1084.14 317.968 1084.38C318.208 1084.61 318.594 1084.72 319.128 1084.72C319.501 1084.72 319.921 1084.65 320.388 1084.52C320.868 1084.37 321.348 1084.15 321.828 1083.86C322.308 1083.57 322.748 1083.19 323.148 1082.74V1084C323.001 1084.19 322.788 1084.41 322.508 1084.66C322.241 1084.9 321.914 1085.14 321.528 1085.38C321.154 1085.61 320.734 1085.8 320.268 1085.96C319.814 1086.11 319.321 1086.18 318.788 1086.18C318.214 1086.18 317.708 1086.08 317.268 1085.88C316.828 1085.67 316.481 1085.36 316.228 1084.96C315.988 1084.55 315.868 1084.05 315.868 1083.46V1082.4C315.868 1081.64 316.101 1081.05 316.568 1080.64C317.048 1080.21 317.714 1080 318.568 1080H323.548ZM329.104 1072L329.084 1083.32C329.084 1083.75 329.198 1084.07 329.424 1084.3C329.664 1084.51 329.998 1084.62 330.424 1084.62H331.364L331.564 1085.92C331.444 1085.97 331.271 1086.02 331.044 1086.06C330.831 1086.1 330.604 1086.13 330.364 1086.14C330.138 1086.17 329.944 1086.18 329.784 1086.18C329.064 1086.18 328.484 1085.97 328.044 1085.54C327.618 1085.11 327.404 1084.5 327.404 1083.7V1072H329.104ZM353.793 1072.2L350.993 1085.48C350.953 1085.63 350.873 1085.75 350.753 1085.86C350.633 1085.95 350.48 1086 350.293 1086H348.293C348.12 1086 347.966 1085.95 347.833 1085.86C347.713 1085.75 347.64 1085.62 347.613 1085.46L345.453 1075.08C345.4 1074.81 345.346 1074.55 345.293 1074.3C345.24 1074.03 345.186 1073.77 345.133 1073.52H344.713C344.66 1073.77 344.606 1074.03 344.553 1074.3C344.513 1074.57 344.466 1074.83 344.413 1075.08L342.273 1085.46C342.233 1085.62 342.146 1085.75 342.013 1085.86C341.893 1085.95 341.746 1086 341.573 1086H339.553C339.38 1086 339.226 1085.95 339.093 1085.86C338.973 1085.75 338.9 1085.63 338.873 1085.48L336.073 1072.2H337.933L340.093 1082.96C340.146 1083.21 340.193 1083.49 340.233 1083.78C340.273 1084.06 340.32 1084.35 340.373 1084.66H340.833C340.886 1084.35 340.94 1084.06 340.993 1083.78C341.046 1083.5 341.1 1083.23 341.153 1082.96L343.293 1072.78C343.32 1072.61 343.393 1072.47 343.513 1072.36C343.646 1072.25 343.8 1072.2 343.973 1072.2H345.893C346.066 1072.2 346.213 1072.25 346.333 1072.36C346.453 1072.47 346.533 1072.61 346.573 1072.78L348.713 1082.96C348.78 1083.25 348.833 1083.54 348.873 1083.82C348.926 1084.1 348.966 1084.38 348.993 1084.66H349.493C349.533 1084.38 349.573 1084.1 349.613 1083.82C349.653 1083.53 349.7 1083.25 349.753 1082.98L351.933 1072.2H353.793ZM359.746 1076.02C360.866 1076.02 361.76 1076.19 362.426 1076.52C363.106 1076.85 363.593 1077.4 363.886 1078.16C364.18 1078.91 364.326 1079.9 364.326 1081.14C364.326 1082.38 364.18 1083.38 363.886 1084.14C363.593 1084.89 363.106 1085.43 362.426 1085.76C361.76 1086.09 360.866 1086.26 359.746 1086.26C358.64 1086.26 357.746 1086.09 357.066 1085.76C356.4 1085.43 355.913 1084.89 355.606 1084.14C355.313 1083.38 355.166 1082.38 355.166 1081.14C355.166 1079.9 355.313 1078.91 355.606 1078.16C355.913 1077.4 356.4 1076.85 357.066 1076.52C357.746 1076.19 358.64 1076.02 359.746 1076.02ZM359.746 1077.46C359.04 1077.46 358.48 1077.57 358.066 1077.8C357.666 1078.01 357.38 1078.39 357.206 1078.92C357.033 1079.45 356.946 1080.19 356.946 1081.14C356.946 1082.09 357.033 1082.83 357.206 1083.36C357.38 1083.89 357.666 1084.27 358.066 1084.5C358.48 1084.71 359.04 1084.82 359.746 1084.82C360.453 1084.82 361.013 1084.71 361.426 1084.5C361.84 1084.27 362.133 1083.89 362.306 1083.36C362.48 1082.83 362.566 1082.09 362.566 1081.14C362.566 1080.19 362.48 1079.45 362.306 1078.92C362.133 1078.39 361.84 1078.01 361.426 1077.8C361.013 1077.57 360.453 1077.46 359.746 1077.46ZM368.314 1076.26L368.534 1078.12L368.694 1078.42V1086H366.994V1076.26H368.314ZM373.094 1076.02L372.894 1077.62H372.334C371.76 1077.62 371.187 1077.74 370.614 1077.98C370.04 1078.21 369.34 1078.53 368.514 1078.96L368.374 1077.9C369.094 1077.31 369.814 1076.85 370.534 1076.52C371.267 1076.19 371.974 1076.02 372.654 1076.02H373.094ZM376.741 1072L376.721 1083.32C376.721 1083.75 376.834 1084.07 377.061 1084.3C377.301 1084.51 377.634 1084.62 378.061 1084.62H379.001L379.201 1085.92C379.081 1085.97 378.908 1086.02 378.681 1086.06C378.468 1086.1 378.241 1086.13 378.001 1086.14C377.774 1086.17 377.581 1086.18 377.421 1086.18C376.701 1086.18 376.121 1085.97 375.681 1085.54C375.254 1085.11 375.041 1084.5 375.041 1083.7V1072H376.741ZM384.198 1076.02C384.838 1076.02 385.472 1076.11 386.098 1076.28C386.725 1076.44 387.325 1076.69 387.898 1077.04L387.798 1078.1C387.172 1077.91 386.618 1077.77 386.138 1077.66C385.658 1077.55 385.145 1077.5 384.598 1077.5C384.038 1077.5 383.585 1077.6 383.238 1077.8C382.905 1077.99 382.658 1078.34 382.498 1078.86C382.338 1079.38 382.258 1080.12 382.258 1081.08C382.258 1082.04 382.332 1082.79 382.478 1083.32C382.638 1083.85 382.885 1084.23 383.218 1084.44C383.552 1084.65 383.978 1084.76 384.498 1084.76C384.885 1084.76 385.232 1084.71 385.538 1084.62C385.858 1084.51 386.192 1084.35 386.538 1084.12C386.898 1083.89 387.318 1083.61 387.798 1083.26L387.958 1084.46C387.425 1084.95 386.818 1085.37 386.138 1085.72C385.458 1086.07 384.725 1086.24 383.938 1086.24C382.712 1086.24 381.832 1085.81 381.298 1084.94C380.778 1084.07 380.518 1082.79 380.518 1081.1C380.518 1079.83 380.652 1078.83 380.918 1078.1C381.185 1077.35 381.592 1076.82 382.138 1076.5C382.685 1076.18 383.372 1076.02 384.198 1076.02ZM389.278 1072V1086H387.958L387.758 1084.3L387.578 1084.16V1077.48L387.698 1077.18C387.645 1076.81 387.612 1076.45 387.598 1076.1C387.585 1075.75 387.578 1075.39 387.578 1075V1072H389.278ZM401.956 1071.96C402.543 1071.96 403.043 1071.97 403.456 1072C403.883 1072.03 404.27 1072.07 404.616 1072.14C404.976 1072.19 405.343 1072.27 405.716 1072.36L405.536 1073.7C405.136 1073.66 404.763 1073.63 404.416 1073.6C404.083 1073.57 403.723 1073.55 403.336 1073.54C402.95 1073.53 402.49 1073.52 401.956 1073.52C401.063 1073.52 400.356 1073.69 399.836 1074.04C399.316 1074.39 398.943 1074.97 398.716 1075.78C398.503 1076.59 398.396 1077.7 398.396 1079.1C398.396 1080.5 398.503 1081.61 398.716 1082.42C398.943 1083.23 399.316 1083.81 399.836 1084.16C400.356 1084.51 401.063 1084.68 401.956 1084.68C402.81 1084.68 403.523 1084.67 404.096 1084.64C404.683 1084.6 405.256 1084.54 405.816 1084.46L405.996 1085.78C405.423 1085.94 404.83 1086.05 404.216 1086.12C403.616 1086.2 402.863 1086.24 401.956 1086.24C400.636 1086.24 399.576 1086.01 398.776 1085.56C397.99 1085.09 397.416 1084.34 397.056 1083.3C396.71 1082.26 396.536 1080.86 396.536 1079.1C396.536 1077.34 396.71 1075.94 397.056 1074.9C397.416 1073.86 397.99 1073.11 398.776 1072.66C399.576 1072.19 400.636 1071.96 401.956 1071.96ZM409.603 1076.26L409.823 1078.12L409.983 1078.42V1086H408.283V1076.26H409.603ZM414.383 1076.02L414.183 1077.62H413.623C413.049 1077.62 412.476 1077.74 411.903 1077.98C411.329 1078.21 410.629 1078.53 409.803 1078.96L409.663 1077.9C410.383 1077.31 411.103 1076.85 411.823 1076.52C412.556 1076.19 413.263 1076.02 413.943 1076.02H414.383ZM420.056 1076.02C421.523 1076.02 422.583 1076.29 423.236 1076.82C423.903 1077.35 424.236 1078.15 424.236 1079.2C424.249 1080.07 424.069 1080.75 423.696 1081.24C423.323 1081.72 422.729 1081.96 421.916 1081.96H416.236V1080.64H421.476C421.916 1080.64 422.203 1080.49 422.336 1080.2C422.469 1079.89 422.536 1079.56 422.536 1079.2C422.523 1078.57 422.336 1078.13 421.976 1077.86C421.616 1077.59 421.003 1077.46 420.136 1077.46C419.429 1077.46 418.869 1077.57 418.456 1077.78C418.056 1077.98 417.769 1078.34 417.596 1078.86C417.436 1079.37 417.356 1080.08 417.356 1081C417.356 1082.04 417.456 1082.83 417.656 1083.38C417.869 1083.93 418.203 1084.3 418.656 1084.5C419.109 1084.7 419.709 1084.8 420.456 1084.8C420.976 1084.8 421.543 1084.78 422.156 1084.74C422.783 1084.69 423.343 1084.63 423.836 1084.56L424.016 1085.7C423.709 1085.82 423.329 1085.92 422.876 1086C422.436 1086.08 421.976 1086.14 421.496 1086.18C421.029 1086.22 420.609 1086.24 420.236 1086.24C419.116 1086.24 418.216 1086.07 417.536 1085.74C416.856 1085.39 416.356 1084.85 416.036 1084.1C415.729 1083.34 415.576 1082.34 415.576 1081.1C415.576 1079.82 415.729 1078.81 416.036 1078.08C416.356 1077.33 416.843 1076.81 417.496 1076.5C418.163 1076.18 419.016 1076.02 420.056 1076.02ZM431.398 1076.02C432.118 1076.02 432.725 1076.12 433.218 1076.32C433.725 1076.51 434.105 1076.83 434.358 1077.28C434.612 1077.73 434.738 1078.35 434.738 1079.14V1086H433.398L433.138 1083.88L433.018 1083.66V1079.14C433.018 1078.54 432.878 1078.11 432.598 1077.86C432.332 1077.59 431.812 1077.46 431.038 1077.46C430.532 1077.46 429.892 1077.49 429.118 1077.54C428.358 1077.59 427.605 1077.65 426.858 1077.72L426.698 1076.46C427.152 1076.38 427.645 1076.31 428.178 1076.24C428.725 1076.17 429.278 1076.12 429.838 1076.08C430.398 1076.04 430.918 1076.02 431.398 1076.02ZM433.938 1080L433.918 1081.28L429.258 1081.3C428.792 1081.31 428.465 1081.44 428.278 1081.68C428.092 1081.91 427.998 1082.23 427.998 1082.64V1083.26C427.998 1083.77 428.118 1084.14 428.358 1084.38C428.598 1084.61 428.985 1084.72 429.518 1084.72C429.892 1084.72 430.312 1084.65 430.778 1084.52C431.258 1084.37 431.738 1084.15 432.218 1083.86C432.698 1083.57 433.138 1083.19 433.538 1082.74V1084C433.392 1084.19 433.178 1084.41 432.898 1084.66C432.632 1084.9 432.305 1085.14 431.918 1085.38C431.545 1085.61 431.125 1085.8 430.658 1085.96C430.205 1086.11 429.712 1086.18 429.178 1086.18C428.605 1086.18 428.098 1086.08 427.658 1085.88C427.218 1085.67 426.872 1085.36 426.618 1084.96C426.378 1084.55 426.258 1084.05 426.258 1083.46V1082.4C426.258 1081.64 426.492 1081.05 426.958 1080.64C427.438 1080.21 428.105 1080 428.958 1080H433.938ZM440.215 1073.38V1083.32C440.215 1083.79 440.315 1084.12 440.515 1084.32C440.715 1084.52 441.055 1084.62 441.535 1084.62H443.015L443.215 1085.92C443.002 1085.97 442.755 1086.02 442.475 1086.06C442.195 1086.1 441.922 1086.13 441.655 1086.14C441.388 1086.17 441.175 1086.18 441.015 1086.18C440.202 1086.18 439.582 1085.95 439.155 1085.5C438.728 1085.05 438.515 1084.39 438.515 1083.54V1073.38H440.215ZM443.315 1076.26V1077.6H436.755V1076.36L438.675 1076.26H443.315ZM447.152 1076.26V1086H445.472V1076.26H447.152ZM446.712 1072.12C447.059 1072.12 447.232 1072.29 447.232 1072.64V1073.78C447.232 1074.13 447.059 1074.3 446.712 1074.3H445.912C445.565 1074.3 445.392 1074.13 445.392 1073.78V1072.64C445.392 1072.29 445.565 1072.12 445.912 1072.12H446.712ZM454.473 1076.02C455.593 1076.02 456.486 1076.19 457.153 1076.52C457.833 1076.85 458.32 1077.4 458.613 1078.16C458.906 1078.91 459.053 1079.9 459.053 1081.14C459.053 1082.38 458.906 1083.38 458.613 1084.14C458.32 1084.89 457.833 1085.43 457.153 1085.76C456.486 1086.09 455.593 1086.26 454.473 1086.26C453.366 1086.26 452.473 1086.09 451.793 1085.76C451.126 1085.43 450.64 1084.89 450.333 1084.14C450.04 1083.38 449.893 1082.38 449.893 1081.14C449.893 1079.9 450.04 1078.91 450.333 1078.16C450.64 1077.4 451.126 1076.85 451.793 1076.52C452.473 1076.19 453.366 1076.02 454.473 1076.02ZM454.473 1077.46C453.766 1077.46 453.206 1077.57 452.793 1077.8C452.393 1078.01 452.106 1078.39 451.933 1078.92C451.76 1079.45 451.673 1080.19 451.673 1081.14C451.673 1082.09 451.76 1082.83 451.933 1083.36C452.106 1083.89 452.393 1084.27 452.793 1084.5C453.206 1084.71 453.766 1084.82 454.473 1084.82C455.18 1084.82 455.74 1084.71 456.153 1084.5C456.566 1084.27 456.86 1083.89 457.033 1083.36C457.206 1082.83 457.293 1082.09 457.293 1081.14C457.293 1080.19 457.206 1079.45 457.033 1078.92C456.86 1078.39 456.566 1078.01 456.153 1077.8C455.74 1077.57 455.18 1077.46 454.473 1077.46ZM467.64 1076.02C469.4 1076.02 470.28 1076.91 470.28 1078.7V1086H468.58V1079.18C468.58 1078.53 468.473 1078.08 468.26 1077.84C468.047 1077.59 467.687 1077.46 467.18 1077.46C466.58 1077.46 465.98 1077.61 465.38 1077.9C464.78 1078.19 464.067 1078.59 463.24 1079.1L463.16 1077.88C463.92 1077.29 464.673 1076.84 465.42 1076.52C466.167 1076.19 466.907 1076.02 467.64 1076.02ZM463.16 1076.26L463.3 1078.12L463.42 1078.42V1086H461.72V1076.26H463.16Z" fill="#AEACAC"/>
</svg>
