<svg width="572" height="568" viewBox="0 0 572 568" fill="none" xmlns="http://www.w3.org/2000/svg">
<path d="M283 8.5C301.981 29.9355 304.505 26.889 330.978 20.4085C357.451 13.928 371.437 -8.00602 381.427 11.4355C391.417 30.8771 380.927 49.8201 404.903 46.3306C428.878 42.8411 459.347 56.3006 455.851 68.2646C452.354 80.2287 448.858 102.661 463.843 101.664C478.827 100.667 523.282 109.64 523.282 122.103C523.282 134.565 504.301 144.535 523.282 155.004C542.262 165.472 561.743 168.962 549.255 183.418C536.768 197.875 524.281 205.352 536.768 216.319C549.255 227.286 574.729 248.223 569.235 257.196C563.74 266.169 549.255 271.154 549.255 290.097C549.255 309.04 574.23 320.506 561.742 329.479C549.255 338.452 536.768 361.882 536.768 373.846C536.768 385.81 558.746 414.723 543.261 416.717C527.777 418.711 506.299 396.278 503.802 416.717C501.304 437.155 516.289 468.062 496.809 469.558C477.329 471.053 481.824 458.092 463.843 469.558C445.861 481.023 466.34 504.453 449.357 506.945C432.375 509.438 421.386 494.483 410.397 506.945C399.408 519.408 402.905 553.306 381.427 547.822C359.949 542.339 352.956 518.909 336.972 533.366C320.989 547.822 329.48 573.745 303.007 563.774C276.534 553.804 287.523 525.39 264.047 533.366C240.571 541.342 252.059 562.279 231.58 547.822C211.101 533.366 218.593 528.879 200.612 533.366C182.63 537.852 171.142 559.786 161.152 533.366C154.872 518.044 156.824 511.263 160.148 508.391C148.628 511.514 127.043 517.462 122.691 502.459C117.197 483.516 133.18 469.558 102.212 469.558C71.2436 469.558 59.2558 470.555 64.7502 457.594C70.2446 444.633 79.2351 425.69 64.7502 421.203C50.2654 416.717 32.7833 439.149 37.2787 416.717C41.7741 394.284 52.7628 393.786 37.2787 383.816C21.7945 373.846 -2.68048 365.87 4.31237 358.891C11.3052 351.912 37.2787 352.41 37.2787 340.945C37.2787 329.479 -8.67465 318.512 4.31237 311.533C17.2994 304.554 32.2835 303.059 26.2896 290.097C20.2957 277.136 -7.67565 256.698 9.30698 252.211C26.2896 247.725 48.2677 235.262 37.2787 222.8C26.2896 210.337 19.7963 183.418 26.2896 183.418C32.783 183.418 72.742 188.902 64.7502 171.953C56.7585 155.004 40.7748 122.103 49.7656 122.103C58.7564 122.103 89.2253 135.064 88.2263 114.625C87.2273 94.1867 67.7472 68.2646 88.2263 68.2646C108.705 68.2646 118.196 84.7152 122.691 68.2646C126.287 55.1042 142.171 37.5237 149.663 30.3785C162.151 21.904 180.132 35.3636 187.125 27.886C194.118 20.4085 184.128 12.931 196.615 13.928C209.103 14.925 214.597 27.886 222.589 20.907C230.581 13.928 228.583 -1.02701 241.57 3.958C254.556 8.94301 263.048 11.934 264.047 3.958C264.846 -2.42281 280.17 10.494 283 8.5Z" fill="#C493EA"/>
<path d="M283 8.5C301.981 29.9355 304.505 26.889 330.978 20.4085C357.451 13.928 371.437 -8.00602 381.427 11.4355C391.417 30.8771 380.927 49.8201 404.903 46.3306C428.878 42.8411 459.347 56.3006 455.851 68.2646C452.354 80.2287 448.858 102.661 463.843 101.664C478.827 100.667 523.282 109.64 523.282 122.103C523.282 134.565 504.301 144.535 523.282 155.004C542.262 165.472 561.743 168.962 549.255 183.418C536.768 197.875 524.281 205.352 536.768 216.319C549.255 227.286 574.729 248.223 569.235 257.196C563.74 266.169 549.255 271.154 549.255 290.097C549.255 309.041 574.23 320.506 561.742 329.479C549.255 338.452 536.768 361.882 536.768 373.846C536.768 385.81 558.746 414.723 543.261 416.717C527.777 418.711 506.299 396.278 503.802 416.717C501.304 437.155 516.289 468.062 496.809 469.558C477.329 471.053 481.824 458.092 463.843 469.558C445.861 481.023 466.34 504.453 449.357 506.945C432.375 509.438 421.386 494.483 410.397 506.945C399.408 519.408 402.905 553.306 381.427 547.822C359.949 542.339 352.956 518.909 336.972 533.366C320.989 547.822 329.48 573.744 303.007 563.774C276.534 553.804 287.523 525.39 264.047 533.366C240.571 541.342 252.059 562.279 231.58 547.822C211.101 533.366 218.593 528.879 200.612 533.366C182.63 537.852 171.142 559.786 161.152 533.366C147.666 500.465 172.141 506.945 166.646 506.945C161.152 506.945 128.185 521.402 122.691 502.459C117.197 483.516 133.18 469.558 102.212 469.558C71.2436 469.558 59.2558 470.555 64.7502 457.594C70.2446 444.633 79.2351 425.69 64.7502 421.203C50.2654 416.717 32.7833 439.149 37.2787 416.717C41.7741 394.284 52.7628 393.786 37.2787 383.816C21.7945 373.846 -2.68048 365.87 4.31237 358.891C11.3052 351.912 37.2787 352.41 37.2787 340.945C37.2787 329.479 -8.67465 318.512 4.31237 311.533C17.2994 304.554 32.2835 303.058 26.2896 290.097C20.2957 277.136 -7.67565 256.698 9.30698 252.211C26.2896 247.725 48.2677 235.262 37.2787 222.8C26.2896 210.337 19.7963 183.418 26.2896 183.418C32.783 183.418 72.742 188.902 64.7502 171.953C56.7585 155.004 40.7748 122.103 49.7656 122.103C58.7564 122.103 89.2253 135.064 88.2263 114.625C87.2273 94.1867 67.7472 68.2646 88.2263 68.2646C108.705 68.2646 118.196 84.7152 122.691 68.2646C126.287 55.1042 142.171 37.5237 149.663 30.3785C162.151 21.904 180.132 35.3636 187.125 27.886C194.118 20.4085 184.128 12.931 196.615 13.928C209.103 14.925 214.597 27.886 222.589 20.907C230.581 13.928 228.583 -1.02701 241.57 3.958C254.556 8.94301 263.048 11.934 264.047 3.958C264.846 -2.42281 280.17 10.494 283 8.5Z" stroke="#C493EA" stroke-width="3"/>
<path d="M230.751 158.84V186.104C230.751 190.371 230.239 193.805 229.215 196.408C228.191 199.011 226.527 200.909 224.223 202.104C221.919 203.256 218.826 203.832 214.943 203.832C210.975 203.832 207.796 203.256 205.407 202.104C203.018 200.909 201.29 199.011 200.223 196.408C199.156 193.805 198.623 190.371 198.623 186.104V158.84H204.255V186.104C204.255 189.261 204.575 191.779 205.215 193.656C205.898 195.491 207.007 196.813 208.543 197.624C210.079 198.392 212.127 198.776 214.687 198.776C217.247 198.776 219.274 198.392 220.767 197.624C222.303 196.813 223.412 195.491 224.095 193.656C224.778 191.779 225.119 189.261 225.119 186.104V158.84H230.751ZM247.2 158.84V203H241.568V158.84H247.2ZM284.11 158.84L258.958 207.224H254.478L279.63 158.84H284.11ZM323.189 158.84V186.104C323.189 190.371 322.677 193.805 321.653 196.408C320.629 199.011 318.965 200.909 316.661 202.104C314.357 203.256 311.263 203.832 307.381 203.832C303.413 203.832 300.234 203.256 297.845 202.104C295.455 200.909 293.727 199.011 292.661 196.408C291.594 193.805 291.061 190.371 291.061 186.104V158.84H296.693V186.104C296.693 189.261 297.013 191.779 297.653 193.656C298.335 195.491 299.445 196.813 300.981 197.624C302.517 198.392 304.565 198.776 307.125 198.776C309.685 198.776 311.711 198.392 313.205 197.624C314.741 196.813 315.85 195.491 316.533 193.656C317.215 191.779 317.557 189.261 317.557 186.104V158.84H323.189ZM365.11 158.84L353.462 180.152L365.942 203H359.798L347.702 180.152L359.03 158.84H365.11ZM336.95 158.84L348.278 180.152L336.182 203H330.038L342.454 180.152L330.87 158.84H336.95ZM351.35 177.912V182.264H344.566V177.912H351.35ZM121.855 248.064C126.548 248.064 129.94 248.917 132.031 250.624C134.164 252.331 135.231 254.869 135.231 258.24C135.273 261.013 134.697 263.189 133.503 264.768C132.308 266.304 130.409 267.072 127.807 267.072H109.631V262.848H126.399C127.807 262.848 128.724 262.379 129.151 261.44C129.577 260.459 129.791 259.392 129.791 258.24C129.748 256.235 129.151 254.805 127.999 253.952C126.847 253.099 124.884 252.672 122.111 252.672C119.849 252.672 118.057 253.013 116.735 253.696C115.455 254.336 114.537 255.488 113.983 257.152C113.471 258.773 113.215 261.056 113.215 264C113.215 267.328 113.535 269.867 114.175 271.616C114.857 273.365 115.924 274.56 117.375 275.2C118.825 275.84 120.745 276.16 123.135 276.16C124.799 276.16 126.612 276.096 128.575 275.968C130.58 275.797 132.372 275.605 133.951 275.392L134.527 279.04C133.545 279.424 132.329 279.744 130.879 280C129.471 280.256 127.999 280.448 126.463 280.576C124.969 280.704 123.625 280.768 122.431 280.768C118.847 280.768 115.967 280.235 113.791 279.168C111.615 278.059 110.015 276.309 108.991 273.92C108.009 271.488 107.519 268.288 107.519 264.32C107.519 260.224 108.009 257.003 108.991 254.656C110.015 252.267 111.572 250.581 113.663 249.6C115.796 248.576 118.527 248.064 121.855 248.064ZM162.566 261.76V265.92H143.046V261.76H162.566ZM185.492 248.064C186.43 248.064 187.476 248.107 188.628 248.192C189.78 248.277 190.953 248.427 192.148 248.64C193.385 248.853 194.516 249.152 195.54 249.536L194.836 253.056C193.428 252.928 191.934 252.843 190.356 252.8C188.82 252.715 187.497 252.672 186.388 252.672C183.913 252.672 181.95 253.013 180.5 253.696C179.049 254.379 178.004 255.573 177.364 257.28C176.724 258.987 176.404 261.355 176.404 264.384C176.404 267.413 176.724 269.803 177.364 271.552C178.004 273.259 179.049 274.453 180.5 275.136C181.95 275.819 183.913 276.16 186.388 276.16C187.028 276.16 187.86 276.139 188.884 276.096C189.908 276.053 190.996 275.989 192.148 275.904C193.342 275.819 194.473 275.691 195.54 275.52L196.116 279.168C194.537 279.723 192.809 280.128 190.932 280.384C189.097 280.64 187.262 280.768 185.428 280.768C181.844 280.768 178.964 280.235 176.788 279.168C174.612 278.101 173.033 276.373 172.052 273.984C171.113 271.595 170.644 268.395 170.644 264.384C170.644 260.373 171.134 257.173 172.116 254.784C173.097 252.395 174.676 250.688 176.852 249.664C179.028 248.597 181.908 248.064 185.492 248.064ZM216.176 248.064C219.76 248.064 222.619 248.597 224.752 249.664C226.928 250.731 228.485 252.48 229.424 254.912C230.363 257.301 230.832 260.48 230.832 264.448C230.832 268.416 230.363 271.616 229.424 274.048C228.485 276.437 226.928 278.165 224.752 279.232C222.619 280.299 219.76 280.832 216.176 280.832C212.635 280.832 209.776 280.299 207.6 279.232C205.467 278.165 203.909 276.437 202.928 274.048C201.989 271.616 201.52 268.416 201.52 264.448C201.52 260.48 201.989 257.301 202.928 254.912C203.909 252.48 205.467 250.731 207.6 249.664C209.776 248.597 212.635 248.064 216.176 248.064ZM216.176 252.672C213.915 252.672 212.123 253.035 210.8 253.76C209.52 254.443 208.603 255.637 208.048 257.344C207.493 259.051 207.216 261.419 207.216 264.448C207.216 267.477 207.493 269.845 208.048 271.552C208.603 273.259 209.52 274.475 210.8 275.2C212.123 275.883 213.915 276.224 216.176 276.224C218.437 276.224 220.229 275.883 221.552 275.2C222.875 274.475 223.813 273.259 224.368 271.552C224.923 269.845 225.2 267.477 225.2 264.448C225.2 261.419 224.923 259.051 224.368 257.344C223.813 255.637 222.875 254.443 221.552 253.76C220.229 253.035 218.437 252.672 216.176 252.672ZM277.319 248.064C280.007 248.064 282.055 248.789 283.463 250.24C284.914 251.691 285.639 253.824 285.639 256.64V280H280.263V258.176C280.22 256.256 279.836 254.869 279.111 254.016C278.386 253.12 277.148 252.672 275.399 252.672C274.29 252.672 273.223 252.864 272.199 253.248C271.218 253.589 270.13 254.144 268.935 254.912C267.74 255.68 266.29 256.683 264.583 257.92L264.263 254.08C266.524 252.075 268.722 250.581 270.855 249.6C272.988 248.576 275.143 248.064 277.319 248.064ZM243.847 248.832L244.231 254.784L244.807 255.744V280H239.367V248.832H243.847ZM256.903 248.064C259.548 248.064 261.575 248.789 262.983 250.24C264.391 251.648 265.116 253.781 265.159 256.64V280H259.911V258.176C259.911 256.171 259.506 254.763 258.695 253.952C257.884 253.099 256.668 252.672 255.047 252.672C253.98 252.672 252.935 252.843 251.911 253.184C250.93 253.525 249.82 254.08 248.583 254.848C247.388 255.616 245.916 256.64 244.167 257.92L243.783 254.08C246.044 252.075 248.242 250.581 250.375 249.6C252.508 248.576 254.684 248.064 256.903 248.064ZM333.382 248.064C336.07 248.064 338.118 248.789 339.526 250.24C340.976 251.691 341.702 253.824 341.702 256.64V280H336.326V258.176C336.283 256.256 335.899 254.869 335.174 254.016C334.448 253.12 333.211 252.672 331.462 252.672C330.352 252.672 329.286 252.864 328.262 253.248C327.28 253.589 326.192 254.144 324.998 254.912C323.803 255.68 322.352 256.683 320.646 257.92L320.326 254.08C322.587 252.075 324.784 250.581 326.918 249.6C329.051 248.576 331.206 248.064 333.382 248.064ZM299.91 248.832L300.294 254.784L300.87 255.744V280H295.43V248.832H299.91ZM312.966 248.064C315.611 248.064 317.638 248.789 319.046 250.24C320.454 251.648 321.179 253.781 321.222 256.64V280H315.974V258.176C315.974 256.171 315.568 254.763 314.758 253.952C313.947 253.099 312.731 252.672 311.11 252.672C310.043 252.672 308.998 252.843 307.974 253.184C306.992 253.525 305.883 254.08 304.646 254.848C303.451 255.616 301.979 256.64 300.23 257.92L299.845 254.08C302.107 252.075 304.304 250.581 306.438 249.6C308.571 248.576 310.747 248.064 312.966 248.064ZM364.292 248.064C368.985 248.064 372.377 248.917 374.468 250.624C376.601 252.331 377.668 254.869 377.668 258.24C377.711 261.013 377.135 263.189 375.94 264.768C374.745 266.304 372.847 267.072 370.244 267.072H352.068V262.848H368.836C370.244 262.848 371.161 262.379 371.588 261.44C372.015 260.459 372.228 259.392 372.228 258.24C372.185 256.235 371.588 254.805 370.436 253.952C369.284 253.099 367.321 252.672 364.548 252.672C362.287 252.672 360.495 253.013 359.172 253.696C357.892 254.336 356.975 255.488 356.42 257.152C355.908 258.773 355.652 261.056 355.652 264C355.652 267.328 355.972 269.867 356.612 271.616C357.295 273.365 358.361 274.56 359.812 275.2C361.263 275.84 363.183 276.16 365.572 276.16C367.236 276.16 369.049 276.096 371.012 275.968C373.017 275.797 374.809 275.605 376.388 275.392L376.964 279.04C375.983 279.424 374.767 279.744 373.316 280C371.908 280.256 370.436 280.448 368.9 280.576C367.407 280.704 366.063 280.768 364.868 280.768C361.284 280.768 358.404 280.235 356.228 279.168C354.052 278.059 352.452 276.309 351.428 273.92C350.447 271.488 349.956 268.288 349.956 264.32C349.956 260.224 350.447 257.003 351.428 254.656C352.452 252.267 354.009 250.581 356.1 249.6C358.233 248.576 360.964 248.064 364.292 248.064ZM390.091 248.832L390.795 254.784L391.307 255.744V280H385.867V248.832H390.091ZM405.387 248.064L404.747 253.184H402.955C401.12 253.184 399.286 253.568 397.451 254.336C395.616 255.061 393.376 256.107 390.731 257.472L390.283 254.08C392.587 252.203 394.891 250.731 397.195 249.664C399.542 248.597 401.803 248.064 403.979 248.064H405.387ZM424.054 248.064C424.993 248.064 426.038 248.107 427.19 248.192C428.342 248.277 429.515 248.427 430.71 248.64C431.947 248.853 433.078 249.152 434.102 249.536L433.398 253.056C431.99 252.928 430.497 252.843 428.918 252.8C427.382 252.715 426.059 252.672 424.95 252.672C422.475 252.672 420.513 253.013 419.062 253.696C417.611 254.379 416.566 255.573 415.926 257.28C415.286 258.987 414.966 261.355 414.966 264.384C414.966 267.413 415.286 269.803 415.926 271.552C416.566 273.259 417.611 274.453 419.062 275.136C420.513 275.819 422.475 276.16 424.95 276.16C425.59 276.16 426.422 276.139 427.446 276.096C428.47 276.053 429.558 275.989 430.71 275.904C431.905 275.819 433.035 275.691 434.102 275.52L434.678 279.168C433.099 279.723 431.371 280.128 429.494 280.384C427.659 280.64 425.825 280.768 423.99 280.768C420.406 280.768 417.526 280.235 415.35 279.168C413.174 278.101 411.595 276.373 410.614 273.984C409.675 271.595 409.206 268.395 409.206 264.384C409.206 260.373 409.697 257.173 410.678 254.784C411.659 252.395 413.238 250.688 415.414 249.664C417.59 248.597 420.47 248.064 424.054 248.064ZM454.355 248.064C459.048 248.064 462.44 248.917 464.531 250.624C466.664 252.331 467.731 254.869 467.731 258.24C467.773 261.013 467.197 263.189 466.003 264.768C464.808 266.304 462.909 267.072 460.307 267.072H442.131V262.848H458.899C460.307 262.848 461.224 262.379 461.651 261.44C462.077 260.459 462.291 259.392 462.291 258.24C462.248 256.235 461.651 254.805 460.499 253.952C459.347 253.099 457.384 252.672 454.611 252.672C452.349 252.672 450.557 253.013 449.235 253.696C447.955 254.336 447.037 255.488 446.483 257.152C445.971 258.773 445.715 261.056 445.715 264C445.715 267.328 446.035 269.867 446.675 271.616C447.357 273.365 448.424 274.56 449.875 275.2C451.325 275.84 453.245 276.16 455.635 276.16C457.299 276.16 459.112 276.096 461.075 275.968C463.08 275.797 464.872 275.605 466.451 275.392L467.027 279.04C466.045 279.424 464.829 279.744 463.379 280C461.971 280.256 460.499 280.448 458.963 280.576C457.469 280.704 456.125 280.768 454.931 280.768C451.347 280.768 448.467 280.235 446.291 279.168C444.115 278.059 442.515 276.309 441.491 273.92C440.509 271.488 440.019 268.288 440.019 264.32C440.019 260.224 440.509 257.003 441.491 254.656C442.515 252.267 444.072 250.581 446.163 249.6C448.296 248.576 451.027 248.064 454.355 248.064ZM120.074 325.832L110.986 355.464C110.858 355.933 110.602 356.317 110.218 356.616C109.834 356.872 109.386 357 108.874 357H103.946C103.434 357 102.964 356.851 102.538 356.552C102.154 356.211 101.919 355.784 101.833 355.272L96.7135 334.088C96.5428 333.277 96.3722 332.467 96.2015 331.656C96.0735 330.845 95.9028 330.013 95.6895 329.16H94.9215C94.7508 330.013 94.5588 330.845 94.3455 331.656C94.1748 332.467 94.0042 333.277 93.8335 334.088L88.7775 355.272C88.6495 355.784 88.3935 356.211 88.0095 356.552C87.6255 356.851 87.1562 357 86.6015 357H81.7375C81.2255 357 80.7775 356.872 80.3935 356.616C80.0095 356.317 79.7535 355.933 79.6255 355.464L70.5375 325.832H76.1695L82.6335 348.808C82.8468 349.576 83.0388 350.365 83.2095 351.176C83.3802 351.944 83.5295 352.712 83.6575 353.48H84.4895C84.7028 352.712 84.8948 351.944 85.0655 351.176C85.2788 350.365 85.4708 349.576 85.6415 348.808L90.8255 327.56C90.9108 327.048 91.1242 326.643 91.4655 326.344C91.8495 326.003 92.3188 325.832 92.8735 325.832H97.8015C98.3135 325.832 98.7402 326.003 99.0815 326.344C99.4655 326.643 99.7215 327.069 99.8495 327.624L104.97 348.808C105.14 349.576 105.311 350.344 105.482 351.112C105.695 351.88 105.887 352.669 106.058 353.48H106.89C107.103 352.669 107.274 351.901 107.402 351.176C107.53 350.408 107.722 349.619 107.978 348.808L114.442 325.832H120.074ZM139.292 325.064C143.985 325.064 147.377 325.917 149.468 327.624C151.601 329.331 152.668 331.869 152.668 335.24C152.711 338.013 152.135 340.189 150.94 341.768C149.745 343.304 147.847 344.072 145.244 344.072H127.068V339.848H143.836C145.244 339.848 146.161 339.379 146.588 338.44C147.015 337.459 147.228 336.392 147.228 335.24C147.185 333.235 146.588 331.805 145.436 330.952C144.284 330.099 142.321 329.672 139.548 329.672C137.287 329.672 135.495 330.013 134.172 330.696C132.892 331.336 131.975 332.488 131.42 334.152C130.908 335.773 130.652 338.056 130.652 341C130.652 344.328 130.972 346.867 131.612 348.616C132.295 350.365 133.361 351.56 134.812 352.2C136.263 352.84 138.183 353.16 140.572 353.16C142.236 353.16 144.049 353.096 146.012 352.968C148.017 352.797 149.809 352.605 151.388 352.392L151.964 356.04C150.983 356.424 149.767 356.744 148.316 357C146.908 357.256 145.436 357.448 143.9 357.576C142.407 357.704 141.063 357.768 139.868 357.768C136.284 357.768 133.404 357.235 131.228 356.168C129.052 355.059 127.452 353.309 126.428 350.92C125.447 348.488 124.956 345.288 124.956 341.32C124.956 337.224 125.447 334.003 126.428 331.656C127.452 329.267 129.009 327.581 131.1 326.6C133.233 325.576 135.964 325.064 139.292 325.064ZM177.635 325.064C181.475 325.064 184.312 326.323 186.147 328.84C187.982 331.315 188.899 335.475 188.899 341.32C188.899 344.008 188.664 346.376 188.195 348.424C187.768 350.472 187.022 352.2 185.955 353.608C184.931 354.973 183.523 356.019 181.731 356.744C179.982 357.427 177.763 357.768 175.075 357.768C174.008 357.768 172.856 357.725 171.619 357.64C170.382 357.555 169.123 357.405 167.843 357.192C166.563 357.021 165.304 356.808 164.067 356.552C162.872 356.253 161.763 355.912 160.739 355.528L165.091 351.816C166.243 352.157 167.374 352.435 168.483 352.648C169.635 352.861 170.744 353.011 171.811 353.096C172.92 353.139 173.966 353.16 174.947 353.16C176.952 353.117 178.552 352.733 179.747 352.008C180.984 351.283 181.88 350.067 182.435 348.36C182.99 346.611 183.267 344.264 183.267 341.32C183.267 338.461 183.054 336.2 182.627 334.536C182.2 332.829 181.432 331.613 180.323 330.888C179.256 330.163 177.72 329.8 175.715 329.8C174.008 329.8 172.387 330.269 170.851 331.208C169.315 332.104 167.544 333.341 165.539 334.92L165.155 331.272C166.435 329.907 167.736 328.776 169.059 327.88C170.424 326.941 171.832 326.237 173.283 325.768C174.734 325.299 176.184 325.064 177.635 325.064ZM166.179 312.2V323.848C166.179 325.171 166.136 326.387 166.051 327.496C166.008 328.605 165.859 329.736 165.603 330.888L166.115 331.784L166.179 355.784L160.739 355.528V312.2H166.179ZM207.735 325.064C209.1 325.064 210.551 325.107 212.087 325.192C213.623 325.277 215.138 325.384 216.631 325.512C218.167 325.64 219.575 325.811 220.855 326.024L220.407 329.992C218.444 329.907 216.46 329.843 214.455 329.8C212.492 329.715 210.53 329.672 208.567 329.672C206.647 329.629 205.132 329.672 204.023 329.8C202.914 329.928 202.103 330.269 201.591 330.824C201.122 331.379 200.887 332.317 200.887 333.64C200.887 335.261 201.271 336.328 202.039 336.84C202.807 337.352 203.938 337.779 205.431 338.12L214.519 340.168C216.994 340.765 218.807 341.683 219.959 342.92C221.154 344.157 221.751 346.099 221.751 348.744C221.751 351.304 221.26 353.224 220.279 354.504C219.34 355.784 217.89 356.637 215.927 357.064C213.964 357.491 211.468 357.704 208.439 357.704C207.33 357.704 205.666 357.661 203.447 357.576C201.271 357.491 198.86 357.235 196.215 356.808L196.599 352.84C197.623 352.883 198.711 352.947 199.863 353.032C201.015 353.075 202.21 353.096 203.447 353.096C204.727 353.096 206.028 353.096 207.351 353.096C209.698 353.096 211.532 352.989 212.855 352.776C214.178 352.563 215.116 352.157 215.671 351.56C216.226 350.92 216.503 349.981 216.503 348.744C216.503 347.208 216.055 346.184 215.159 345.672C214.263 345.16 213.068 344.733 211.575 344.392L202.615 342.344C200.908 341.917 199.543 341.363 198.519 340.68C197.495 339.955 196.748 339.037 196.279 337.928C195.81 336.776 195.575 335.347 195.575 333.64C195.575 331.208 196.002 329.373 196.855 328.136C197.708 326.899 199.031 326.067 200.823 325.64C202.615 325.213 204.919 325.021 207.735 325.064ZM235.499 325.832V357H230.123V325.832H235.499ZM234.091 312.584C235.2 312.584 235.755 313.139 235.755 314.248V317.896C235.755 319.005 235.2 319.56 234.091 319.56H231.531C230.422 319.56 229.867 319.005 229.867 317.896V314.248C229.867 313.139 230.422 312.584 231.531 312.584H234.091ZM253.55 316.616V348.424C253.55 349.917 253.87 350.984 254.51 351.624C255.15 352.264 256.238 352.584 257.774 352.584H262.51L263.15 356.744C262.467 356.915 261.678 357.064 260.782 357.192C259.886 357.32 259.011 357.405 258.158 357.448C257.305 357.533 256.622 357.576 256.11 357.576C253.507 357.576 251.523 356.851 250.158 355.4C248.793 353.949 248.11 351.859 248.11 349.128V316.616H253.55ZM263.47 325.832V330.12H242.478V326.152L248.622 325.832H263.47ZM282.917 325.064C287.61 325.064 291.002 325.917 293.093 327.624C295.226 329.331 296.293 331.869 296.293 335.24C296.336 338.013 295.76 340.189 294.565 341.768C293.37 343.304 291.472 344.072 288.869 344.072H270.693V339.848H287.461C288.869 339.848 289.786 339.379 290.213 338.44C290.64 337.459 290.853 336.392 290.853 335.24C290.81 333.235 290.213 331.805 289.061 330.952C287.909 330.099 285.946 329.672 283.173 329.672C280.912 329.672 279.12 330.013 277.797 330.696C276.517 331.336 275.6 332.488 275.045 334.152C274.533 335.773 274.277 338.056 274.277 341C274.277 344.328 274.597 346.867 275.237 348.616C275.92 350.365 276.986 351.56 278.437 352.2C279.888 352.84 281.808 353.16 284.197 353.16C285.861 353.16 287.674 353.096 289.637 352.968C291.642 352.797 293.434 352.605 295.013 352.392L295.589 356.04C294.608 356.424 293.392 356.744 291.941 357C290.533 357.256 289.061 357.448 287.525 357.576C286.032 357.704 284.688 357.768 283.493 357.768C279.909 357.768 277.029 357.235 274.853 356.168C272.677 355.059 271.077 353.309 270.053 350.92C269.072 348.488 268.581 345.288 268.581 341.32C268.581 337.224 269.072 334.003 270.053 331.656C271.077 329.267 272.634 327.581 274.725 326.6C276.858 325.576 279.589 325.064 282.917 325.064ZM329.11 325.064C331.158 325.064 333.185 325.341 335.19 325.896C337.195 326.408 339.115 327.219 340.95 328.328L340.63 331.72C338.625 331.123 336.854 330.653 335.318 330.312C333.782 329.971 332.139 329.8 330.39 329.8C328.598 329.8 327.147 330.12 326.038 330.76C324.971 331.357 324.182 332.488 323.67 334.152C323.158 335.816 322.902 338.184 322.902 341.256C322.902 344.328 323.137 346.717 323.606 348.424C324.118 350.131 324.907 351.325 325.974 352.008C327.041 352.691 328.406 353.032 330.07 353.032C331.307 353.032 332.417 352.883 333.398 352.584C334.422 352.243 335.489 351.709 336.598 350.984C337.75 350.259 339.094 349.341 340.63 348.232L341.142 352.072C339.435 353.651 337.494 354.995 335.318 356.104C333.142 357.213 330.795 357.768 328.278 357.768C324.353 357.768 321.537 356.381 319.83 353.608C318.166 350.835 317.334 346.739 317.334 341.32C317.334 337.267 317.761 334.067 318.614 331.72C319.467 329.331 320.769 327.624 322.518 326.6C324.267 325.576 326.465 325.064 329.11 325.064ZM345.366 312.2V357H341.142L340.502 351.56L339.926 351.112V329.736L340.31 328.776C340.139 327.581 340.033 326.429 339.99 325.32C339.947 324.211 339.926 323.037 339.926 321.8V312.2H345.366ZM368.23 325.064C372.923 325.064 376.315 325.917 378.406 327.624C380.539 329.331 381.606 331.869 381.606 335.24C381.648 338.013 381.072 340.189 379.878 341.768C378.683 343.304 376.784 344.072 374.182 344.072H356.006V339.848H372.774C374.182 339.848 375.099 339.379 375.526 338.44C375.952 337.459 376.166 336.392 376.166 335.24C376.123 333.235 375.526 331.805 374.374 330.952C373.222 330.099 371.259 329.672 368.486 329.672C366.224 329.672 364.432 330.013 363.11 330.696C361.83 331.336 360.912 332.488 360.358 334.152C359.846 335.773 359.59 338.056 359.59 341C359.59 344.328 359.91 346.867 360.55 348.616C361.232 350.365 362.299 351.56 363.75 352.2C365.2 352.84 367.12 353.16 369.51 353.16C371.174 353.16 372.987 353.096 374.95 352.968C376.955 352.797 378.747 352.605 380.326 352.392L380.902 356.04C379.92 356.424 378.704 356.744 377.254 357C375.846 357.256 374.374 357.448 372.838 357.576C371.344 357.704 370 357.768 368.806 357.768C365.222 357.768 362.342 357.235 360.166 356.168C357.99 355.059 356.39 353.309 355.366 350.92C354.384 348.488 353.894 345.288 353.894 341.32C353.894 337.224 354.384 334.003 355.366 331.656C356.39 329.267 357.947 327.581 360.038 326.6C362.171 325.576 364.902 325.064 368.23 325.064ZM400.173 325.064C401.538 325.064 402.989 325.107 404.525 325.192C406.061 325.277 407.575 325.384 409.069 325.512C410.605 325.64 412.013 325.811 413.293 326.024L412.845 329.992C410.882 329.907 408.898 329.843 406.893 329.8C404.93 329.715 402.967 329.672 401.005 329.672C399.085 329.629 397.57 329.672 396.461 329.8C395.351 329.928 394.541 330.269 394.029 330.824C393.559 331.379 393.325 332.317 393.325 333.64C393.325 335.261 393.709 336.328 394.477 336.84C395.245 337.352 396.375 337.779 397.869 338.12L406.957 340.168C409.431 340.765 411.245 341.683 412.397 342.92C413.591 344.157 414.189 346.099 414.189 348.744C414.189 351.304 413.698 353.224 412.717 354.504C411.778 355.784 410.327 356.637 408.365 357.064C406.402 357.491 403.906 357.704 400.877 357.704C399.767 357.704 398.103 357.661 395.885 357.576C393.709 357.491 391.298 357.235 388.653 356.808L389.036 352.84C390.061 352.883 391.149 352.947 392.301 353.032C393.453 353.075 394.647 353.096 395.885 353.096C397.165 353.096 398.466 353.096 399.789 353.096C402.135 353.096 403.97 352.989 405.293 352.776C406.615 352.563 407.554 352.157 408.109 351.56C408.663 350.92 408.941 349.981 408.941 348.744C408.941 347.208 408.493 346.184 407.597 345.672C406.701 345.16 405.506 344.733 404.013 344.392L395.053 342.344C393.346 341.917 391.981 341.363 390.957 340.68C389.933 339.955 389.186 339.037 388.717 337.928C388.247 336.776 388.013 335.347 388.013 333.64C388.013 331.208 388.439 329.373 389.293 328.136C390.146 326.899 391.469 326.067 393.26 325.64C395.053 325.213 397.357 325.021 400.173 325.064ZM427.937 325.832V357H422.561V325.832H427.937ZM426.529 312.584C427.638 312.584 428.193 313.139 428.193 314.248V317.896C428.193 319.005 427.638 319.56 426.529 319.56H423.969C422.859 319.56 422.305 319.005 422.305 317.896V314.248C422.305 313.139 422.859 312.584 423.969 312.584H426.529ZM450.532 325.064C453.86 325.064 456.484 325.405 458.404 326.088C460.366 326.771 461.753 327.837 462.564 329.288C463.417 330.739 463.844 332.637 463.844 334.984C463.844 337.245 463.417 339.123 462.564 340.616C461.753 342.067 460.366 343.155 458.404 343.88C456.441 344.563 453.796 344.904 450.468 344.904C447.14 344.904 444.494 344.563 442.532 343.88C440.612 343.155 439.225 342.067 438.372 340.616C437.561 339.165 437.156 337.309 437.156 335.048C437.156 332.701 437.561 330.803 438.372 329.352C439.225 327.859 440.633 326.771 442.595 326.088C444.558 325.405 447.204 325.064 450.532 325.064ZM450.468 329.224C447.353 329.224 445.177 329.672 443.94 330.568C442.745 331.421 442.148 332.893 442.148 334.984C442.148 337.032 442.745 338.504 443.94 339.4C445.177 340.296 447.353 340.744 450.468 340.744C453.625 340.744 455.801 340.296 456.996 339.4C458.19 338.504 458.788 337.032 458.788 334.984C458.788 332.893 458.19 331.421 456.996 330.568C455.801 329.672 453.625 329.224 450.468 329.224ZM467.492 325.832L467.172 328.84L459.236 329.48L456.996 325.832H467.492ZM441.7 342.856L444.836 343.304C444.11 343.944 443.62 344.733 443.364 345.672C443.108 346.568 443.172 347.4 443.556 348.168C443.982 348.936 444.857 349.427 446.18 349.64L457.828 351.496C460.772 351.923 462.82 352.84 463.972 354.248C465.124 355.656 465.7 357.661 465.7 360.264C465.7 362.696 465.23 364.616 464.292 366.024C463.396 367.432 461.86 368.435 459.684 369.032C457.508 369.629 454.564 369.928 450.852 369.928C448.036 369.928 445.668 369.757 443.748 369.416C441.828 369.117 440.27 368.584 439.076 367.816C437.924 367.091 437.092 366.131 436.58 364.936C436.068 363.741 435.812 362.248 435.812 360.456C435.812 359.091 436.004 357.939 436.388 357C436.814 356.104 437.454 355.293 438.308 354.568C439.204 353.843 440.356 353.139 441.764 352.456L445.604 350.344L448.1 351.24L444.964 353.608C444.11 354.248 443.385 354.888 442.788 355.528C442.233 356.125 441.806 356.765 441.508 357.448C441.252 358.173 441.124 359.027 441.124 360.008C441.124 361.459 441.401 362.568 441.956 363.336C442.51 364.104 443.492 364.616 444.9 364.872C446.308 365.171 448.27 365.32 450.788 365.32C453.305 365.32 455.246 365.171 456.612 364.872C458.02 364.573 459.001 364.04 459.556 363.272C460.11 362.504 460.388 361.416 460.388 360.008C460.388 358.941 460.238 358.131 459.94 357.576C459.684 357.021 459.172 356.595 458.404 356.296C457.636 355.997 456.505 355.741 455.012 355.528L443.812 353.992C442.489 353.821 441.422 353.395 440.612 352.712C439.844 352.029 439.31 351.219 439.012 350.28C438.713 349.341 438.628 348.403 438.756 347.464C438.884 346.483 439.204 345.587 439.716 344.776C440.228 343.923 440.889 343.283 441.7 342.856ZM492.811 325.064C498.443 325.064 501.259 327.923 501.259 333.64V357H495.819V335.176C495.819 333.085 495.478 331.656 494.795 330.888C494.112 330.077 492.96 329.672 491.339 329.672C489.419 329.672 487.499 330.141 485.579 331.08C483.659 332.019 481.376 333.299 478.731 334.92L478.475 331.016C480.907 329.139 483.318 327.688 485.707 326.664C488.096 325.597 490.464 325.064 492.811 325.064ZM478.475 325.832L478.923 331.784L479.307 332.744V357H473.867V325.832H478.475Z" fill="#373737"/>
</svg>
