<svg width="550" height="550" viewBox="0 0 550 550" fill="none" xmlns="http://www.w3.org/2000/svg">
<circle cx="275" cy="275" r="273.5" fill="#373737" stroke="#99B4FF" stroke-width="3"/>
<path d="M217.751 153.84V181.104C217.751 185.371 217.239 188.805 216.215 191.408C215.191 194.011 213.527 195.909 211.223 197.104C208.919 198.256 205.826 198.832 201.943 198.832C197.975 198.832 194.796 198.256 192.407 197.104C190.018 195.909 188.29 194.011 187.223 191.408C186.156 188.805 185.623 185.371 185.623 181.104V153.84H191.255V181.104C191.255 184.261 191.575 186.779 192.215 188.656C192.898 190.491 194.007 191.813 195.543 192.624C197.079 193.392 199.127 193.776 201.687 193.776C204.247 193.776 206.274 193.392 207.767 192.624C209.303 191.813 210.412 190.491 211.095 188.656C211.778 186.779 212.119 184.261 212.119 181.104V153.84H217.751ZM234.2 153.84V198H228.568V153.84H234.2ZM271.11 153.84L245.958 202.224H241.478L266.63 153.84H271.11ZM310.189 153.84V181.104C310.189 185.371 309.677 188.805 308.653 191.408C307.629 194.011 305.965 195.909 303.661 197.104C301.357 198.256 298.263 198.832 294.381 198.832C290.413 198.832 287.234 198.256 284.845 197.104C282.455 195.909 280.727 194.011 279.661 191.408C278.594 188.805 278.061 185.371 278.061 181.104V153.84H283.693V181.104C283.693 184.261 284.013 186.779 284.653 188.656C285.335 190.491 286.445 191.813 287.981 192.624C289.517 193.392 291.565 193.776 294.125 193.776C296.685 193.776 298.711 193.392 300.205 192.624C301.741 191.813 302.85 190.491 303.533 188.656C304.215 186.779 304.557 184.261 304.557 181.104V153.84H310.189ZM352.11 153.84L340.462 175.152L352.942 198H346.798L334.702 175.152L346.03 153.84H352.11ZM323.95 153.84L335.278 175.152L323.182 198H317.038L329.454 175.152L317.87 153.84H323.95ZM338.35 172.912V177.264H331.566V172.912H338.35ZM108.855 243.064C113.548 243.064 116.94 243.917 119.031 245.624C121.164 247.331 122.231 249.869 122.231 253.24C122.273 256.013 121.697 258.189 120.503 259.768C119.308 261.304 117.409 262.072 114.807 262.072H96.6305V257.848H113.399C114.807 257.848 115.724 257.379 116.151 256.44C116.577 255.459 116.791 254.392 116.791 253.24C116.748 251.235 116.151 249.805 114.999 248.952C113.847 248.099 111.884 247.672 109.111 247.672C106.849 247.672 105.057 248.013 103.735 248.696C102.455 249.336 101.537 250.488 100.983 252.152C100.471 253.773 100.215 256.056 100.215 259C100.215 262.328 100.535 264.867 101.175 266.616C101.857 268.365 102.924 269.56 104.375 270.2C105.825 270.84 107.745 271.16 110.135 271.16C111.799 271.16 113.612 271.096 115.575 270.968C117.58 270.797 119.372 270.605 120.951 270.392L121.527 274.04C120.545 274.424 119.329 274.744 117.879 275C116.471 275.256 114.999 275.448 113.463 275.576C111.969 275.704 110.625 275.768 109.431 275.768C105.847 275.768 102.967 275.235 100.791 274.168C98.6145 273.059 97.0145 271.309 95.9905 268.92C95.0092 266.488 94.5185 263.288 94.5185 259.32C94.5185 255.224 95.0092 252.003 95.9905 249.656C97.0145 247.267 98.5718 245.581 100.663 244.6C102.796 243.576 105.527 243.064 108.855 243.064ZM149.566 256.76V260.92H130.046V256.76H149.566ZM172.492 243.064C173.43 243.064 174.476 243.107 175.628 243.192C176.78 243.277 177.953 243.427 179.148 243.64C180.385 243.853 181.516 244.152 182.54 244.536L181.836 248.056C180.428 247.928 178.934 247.843 177.356 247.8C175.82 247.715 174.497 247.672 173.388 247.672C170.913 247.672 168.95 248.013 167.5 248.696C166.049 249.379 165.004 250.573 164.364 252.28C163.724 253.987 163.404 256.355 163.404 259.384C163.404 262.413 163.724 264.803 164.364 266.552C165.004 268.259 166.049 269.453 167.5 270.136C168.95 270.819 170.913 271.16 173.388 271.16C174.028 271.16 174.86 271.139 175.884 271.096C176.908 271.053 177.996 270.989 179.148 270.904C180.342 270.819 181.473 270.691 182.54 270.52L183.116 274.168C181.537 274.723 179.809 275.128 177.932 275.384C176.097 275.64 174.262 275.768 172.428 275.768C168.844 275.768 165.964 275.235 163.788 274.168C161.612 273.101 160.033 271.373 159.052 268.984C158.113 266.595 157.644 263.395 157.644 259.384C157.644 255.373 158.134 252.173 159.116 249.784C160.097 247.395 161.676 245.688 163.852 244.664C166.028 243.597 168.908 243.064 172.492 243.064ZM203.176 243.064C206.76 243.064 209.619 243.597 211.752 244.664C213.928 245.731 215.485 247.48 216.424 249.912C217.363 252.301 217.832 255.48 217.832 259.448C217.832 263.416 217.363 266.616 216.424 269.048C215.485 271.437 213.928 273.165 211.752 274.232C209.619 275.299 206.76 275.832 203.176 275.832C199.635 275.832 196.776 275.299 194.6 274.232C192.467 273.165 190.909 271.437 189.928 269.048C188.989 266.616 188.52 263.416 188.52 259.448C188.52 255.48 188.989 252.301 189.928 249.912C190.909 247.48 192.467 245.731 194.6 244.664C196.776 243.597 199.635 243.064 203.176 243.064ZM203.176 247.672C200.915 247.672 199.123 248.035 197.8 248.76C196.52 249.443 195.603 250.637 195.048 252.344C194.493 254.051 194.216 256.419 194.216 259.448C194.216 262.477 194.493 264.845 195.048 266.552C195.603 268.259 196.52 269.475 197.8 270.2C199.123 270.883 200.915 271.224 203.176 271.224C205.437 271.224 207.229 270.883 208.552 270.2C209.875 269.475 210.813 268.259 211.368 266.552C211.923 264.845 212.2 262.477 212.2 259.448C212.2 256.419 211.923 254.051 211.368 252.344C210.813 250.637 209.875 249.443 208.552 248.76C207.229 248.035 205.437 247.672 203.176 247.672ZM264.319 243.064C267.007 243.064 269.055 243.789 270.463 245.24C271.914 246.691 272.639 248.824 272.639 251.64V275H267.263V253.176C267.22 251.256 266.836 249.869 266.111 249.016C265.386 248.12 264.148 247.672 262.399 247.672C261.29 247.672 260.223 247.864 259.199 248.248C258.218 248.589 257.13 249.144 255.935 249.912C254.74 250.68 253.29 251.683 251.583 252.92L251.263 249.08C253.524 247.075 255.722 245.581 257.855 244.6C259.988 243.576 262.143 243.064 264.319 243.064ZM230.847 243.832L231.231 249.784L231.807 250.744V275H226.367V243.832H230.847ZM243.903 243.064C246.548 243.064 248.575 243.789 249.983 245.24C251.391 246.648 252.116 248.781 252.159 251.64V275H246.911V253.176C246.911 251.171 246.506 249.763 245.695 248.952C244.884 248.099 243.668 247.672 242.047 247.672C240.98 247.672 239.935 247.843 238.911 248.184C237.93 248.525 236.82 249.08 235.583 249.848C234.388 250.616 232.916 251.64 231.167 252.92L230.783 249.08C233.044 247.075 235.242 245.581 237.375 244.6C239.508 243.576 241.684 243.064 243.903 243.064ZM320.382 243.064C323.07 243.064 325.118 243.789 326.526 245.24C327.976 246.691 328.702 248.824 328.702 251.64V275H323.326V253.176C323.283 251.256 322.899 249.869 322.174 249.016C321.448 248.12 320.211 247.672 318.462 247.672C317.352 247.672 316.286 247.864 315.262 248.248C314.28 248.589 313.192 249.144 311.998 249.912C310.803 250.68 309.352 251.683 307.646 252.92L307.326 249.08C309.587 247.075 311.784 245.581 313.918 244.6C316.051 243.576 318.206 243.064 320.382 243.064ZM286.91 243.832L287.294 249.784L287.87 250.744V275H282.43V243.832H286.91ZM299.966 243.064C302.611 243.064 304.638 243.789 306.046 245.24C307.454 246.648 308.179 248.781 308.222 251.64V275H302.974V253.176C302.974 251.171 302.568 249.763 301.758 248.952C300.947 248.099 299.731 247.672 298.11 247.672C297.043 247.672 295.998 247.843 294.974 248.184C293.992 248.525 292.883 249.08 291.646 249.848C290.451 250.616 288.979 251.64 287.23 252.92L286.845 249.08C289.107 247.075 291.304 245.581 293.438 244.6C295.571 243.576 297.747 243.064 299.966 243.064ZM351.292 243.064C355.985 243.064 359.377 243.917 361.468 245.624C363.601 247.331 364.668 249.869 364.668 253.24C364.711 256.013 364.135 258.189 362.94 259.768C361.745 261.304 359.847 262.072 357.244 262.072H339.068V257.848H355.836C357.244 257.848 358.161 257.379 358.588 256.44C359.015 255.459 359.228 254.392 359.228 253.24C359.185 251.235 358.588 249.805 357.436 248.952C356.284 248.099 354.321 247.672 351.548 247.672C349.287 247.672 347.495 248.013 346.172 248.696C344.892 249.336 343.975 250.488 343.42 252.152C342.908 253.773 342.652 256.056 342.652 259C342.652 262.328 342.972 264.867 343.612 266.616C344.295 268.365 345.361 269.56 346.812 270.2C348.263 270.84 350.183 271.16 352.572 271.16C354.236 271.16 356.049 271.096 358.012 270.968C360.017 270.797 361.809 270.605 363.388 270.392L363.964 274.04C362.983 274.424 361.767 274.744 360.316 275C358.908 275.256 357.436 275.448 355.9 275.576C354.407 275.704 353.063 275.768 351.868 275.768C348.284 275.768 345.404 275.235 343.228 274.168C341.052 273.059 339.452 271.309 338.428 268.92C337.447 266.488 336.956 263.288 336.956 259.32C336.956 255.224 337.447 252.003 338.428 249.656C339.452 247.267 341.009 245.581 343.1 244.6C345.233 243.576 347.964 243.064 351.292 243.064ZM377.091 243.832L377.795 249.784L378.307 250.744V275H372.867V243.832H377.091ZM392.387 243.064L391.747 248.184H389.955C388.12 248.184 386.286 248.568 384.451 249.336C382.616 250.061 380.376 251.107 377.731 252.472L377.283 249.08C379.587 247.203 381.891 245.731 384.195 244.664C386.542 243.597 388.803 243.064 390.979 243.064H392.387ZM411.054 243.064C411.993 243.064 413.038 243.107 414.19 243.192C415.342 243.277 416.515 243.427 417.71 243.64C418.947 243.853 420.078 244.152 421.102 244.536L420.398 248.056C418.99 247.928 417.497 247.843 415.918 247.8C414.382 247.715 413.059 247.672 411.95 247.672C409.475 247.672 407.513 248.013 406.062 248.696C404.611 249.379 403.566 250.573 402.926 252.28C402.286 253.987 401.966 256.355 401.966 259.384C401.966 262.413 402.286 264.803 402.926 266.552C403.566 268.259 404.611 269.453 406.062 270.136C407.513 270.819 409.475 271.16 411.95 271.16C412.59 271.16 413.422 271.139 414.446 271.096C415.47 271.053 416.558 270.989 417.71 270.904C418.905 270.819 420.035 270.691 421.102 270.52L421.678 274.168C420.099 274.723 418.371 275.128 416.494 275.384C414.659 275.64 412.825 275.768 410.99 275.768C407.406 275.768 404.526 275.235 402.35 274.168C400.174 273.101 398.595 271.373 397.614 268.984C396.675 266.595 396.206 263.395 396.206 259.384C396.206 255.373 396.697 252.173 397.678 249.784C398.659 247.395 400.238 245.688 402.414 244.664C404.59 243.597 407.47 243.064 411.054 243.064ZM441.355 243.064C446.048 243.064 449.44 243.917 451.531 245.624C453.664 247.331 454.731 249.869 454.731 253.24C454.773 256.013 454.197 258.189 453.003 259.768C451.808 261.304 449.909 262.072 447.307 262.072H429.131V257.848H445.899C447.307 257.848 448.224 257.379 448.651 256.44C449.077 255.459 449.291 254.392 449.291 253.24C449.248 251.235 448.651 249.805 447.499 248.952C446.347 248.099 444.384 247.672 441.611 247.672C439.349 247.672 437.557 248.013 436.235 248.696C434.955 249.336 434.037 250.488 433.483 252.152C432.971 253.773 432.715 256.056 432.715 259C432.715 262.328 433.035 264.867 433.675 266.616C434.357 268.365 435.424 269.56 436.875 270.2C438.325 270.84 440.245 271.16 442.635 271.16C444.299 271.16 446.112 271.096 448.075 270.968C450.08 270.797 451.872 270.605 453.451 270.392L454.027 274.04C453.045 274.424 451.829 274.744 450.379 275C448.971 275.256 447.499 275.448 445.963 275.576C444.469 275.704 443.125 275.768 441.931 275.768C438.347 275.768 435.467 275.235 433.291 274.168C431.115 273.059 429.515 271.309 428.491 268.92C427.509 266.488 427.019 263.288 427.019 259.32C427.019 255.224 427.509 252.003 428.491 249.656C429.515 247.267 431.072 245.581 433.163 244.6C435.296 243.576 438.027 243.064 441.355 243.064ZM107.074 320.832L97.9855 350.464C97.8575 350.933 97.6015 351.317 97.2175 351.616C96.8335 351.872 96.3855 352 95.8735 352H90.9455C90.4335 352 89.9642 351.851 89.5375 351.552C89.1535 351.211 88.9188 350.784 88.8335 350.272L83.7135 329.088C83.5428 328.277 83.3722 327.467 83.2015 326.656C83.0735 325.845 82.9028 325.013 82.6895 324.16H81.9215C81.7508 325.013 81.5588 325.845 81.3455 326.656C81.1748 327.467 81.0042 328.277 80.8335 329.088L75.7775 350.272C75.6495 350.784 75.3935 351.211 75.0095 351.552C74.6255 351.851 74.1562 352 73.6015 352H68.7375C68.2255 352 67.7775 351.872 67.3935 351.616C67.0095 351.317 66.7535 350.933 66.6255 350.464L57.5375 320.832H63.1695L69.6335 343.808C69.8468 344.576 70.0388 345.365 70.2095 346.176C70.3802 346.944 70.5295 347.712 70.6575 348.48H71.4895C71.7028 347.712 71.8948 346.944 72.0655 346.176C72.2788 345.365 72.4708 344.576 72.6415 343.808L77.8255 322.56C77.9108 322.048 78.1242 321.643 78.4655 321.344C78.8495 321.003 79.3188 320.832 79.8735 320.832H84.8015C85.3135 320.832 85.7402 321.003 86.0815 321.344C86.4655 321.643 86.7215 322.069 86.8495 322.624L91.9695 343.808C92.1402 344.576 92.3108 345.344 92.4815 346.112C92.6948 346.88 92.8868 347.669 93.0575 348.48H93.8895C94.1028 347.669 94.2735 346.901 94.4015 346.176C94.5295 345.408 94.7215 344.619 94.9775 343.808L101.442 320.832H107.074ZM126.292 320.064C130.985 320.064 134.377 320.917 136.468 322.624C138.601 324.331 139.668 326.869 139.668 330.24C139.711 333.013 139.135 335.189 137.94 336.768C136.745 338.304 134.847 339.072 132.244 339.072H114.068V334.848H130.836C132.244 334.848 133.161 334.379 133.588 333.44C134.015 332.459 134.228 331.392 134.228 330.24C134.185 328.235 133.588 326.805 132.436 325.952C131.284 325.099 129.321 324.672 126.548 324.672C124.287 324.672 122.495 325.013 121.172 325.696C119.892 326.336 118.975 327.488 118.42 329.152C117.908 330.773 117.652 333.056 117.652 336C117.652 339.328 117.972 341.867 118.612 343.616C119.295 345.365 120.361 346.56 121.812 347.2C123.263 347.84 125.183 348.16 127.572 348.16C129.236 348.16 131.049 348.096 133.012 347.968C135.017 347.797 136.809 347.605 138.388 347.392L138.964 351.04C137.983 351.424 136.767 351.744 135.316 352C133.908 352.256 132.436 352.448 130.9 352.576C129.407 352.704 128.063 352.768 126.868 352.768C123.284 352.768 120.404 352.235 118.228 351.168C116.052 350.059 114.452 348.309 113.428 345.92C112.447 343.488 111.956 340.288 111.956 336.32C111.956 332.224 112.447 329.003 113.428 326.656C114.452 324.267 116.009 322.581 118.1 321.6C120.233 320.576 122.964 320.064 126.292 320.064ZM164.635 320.064C168.475 320.064 171.312 321.323 173.147 323.84C174.982 326.315 175.899 330.475 175.899 336.32C175.899 339.008 175.664 341.376 175.195 343.424C174.768 345.472 174.022 347.2 172.955 348.608C171.931 349.973 170.523 351.019 168.731 351.744C166.982 352.427 164.763 352.768 162.075 352.768C161.008 352.768 159.856 352.725 158.619 352.64C157.382 352.555 156.123 352.405 154.843 352.192C153.563 352.021 152.304 351.808 151.067 351.552C149.872 351.253 148.763 350.912 147.739 350.528L152.091 346.816C153.243 347.157 154.374 347.435 155.483 347.648C156.635 347.861 157.744 348.011 158.811 348.096C159.92 348.139 160.966 348.16 161.947 348.16C163.952 348.117 165.552 347.733 166.747 347.008C167.984 346.283 168.88 345.067 169.435 343.36C169.99 341.611 170.267 339.264 170.267 336.32C170.267 333.461 170.054 331.2 169.627 329.536C169.2 327.829 168.432 326.613 167.323 325.888C166.256 325.163 164.72 324.8 162.715 324.8C161.008 324.8 159.387 325.269 157.851 326.208C156.315 327.104 154.544 328.341 152.539 329.92L152.155 326.272C153.435 324.907 154.736 323.776 156.059 322.88C157.424 321.941 158.832 321.237 160.283 320.768C161.734 320.299 163.184 320.064 164.635 320.064ZM153.179 307.2V318.848C153.179 320.171 153.136 321.387 153.051 322.496C153.008 323.605 152.859 324.736 152.603 325.888L153.115 326.784L153.179 350.784L147.739 350.528V307.2H153.179ZM194.735 320.064C196.1 320.064 197.551 320.107 199.087 320.192C200.623 320.277 202.138 320.384 203.631 320.512C205.167 320.64 206.575 320.811 207.855 321.024L207.407 324.992C205.444 324.907 203.46 324.843 201.455 324.8C199.492 324.715 197.53 324.672 195.567 324.672C193.647 324.629 192.132 324.672 191.023 324.8C189.914 324.928 189.103 325.269 188.591 325.824C188.122 326.379 187.887 327.317 187.887 328.64C187.887 330.261 188.271 331.328 189.039 331.84C189.807 332.352 190.938 332.779 192.431 333.12L201.519 335.168C203.994 335.765 205.807 336.683 206.959 337.92C208.154 339.157 208.751 341.099 208.751 343.744C208.751 346.304 208.26 348.224 207.279 349.504C206.34 350.784 204.89 351.637 202.927 352.064C200.964 352.491 198.468 352.704 195.439 352.704C194.33 352.704 192.666 352.661 190.447 352.576C188.271 352.491 185.86 352.235 183.215 351.808L183.599 347.84C184.623 347.883 185.711 347.947 186.863 348.032C188.015 348.075 189.21 348.096 190.447 348.096C191.727 348.096 193.028 348.096 194.351 348.096C196.698 348.096 198.532 347.989 199.855 347.776C201.178 347.563 202.116 347.157 202.671 346.56C203.226 345.92 203.503 344.981 203.503 343.744C203.503 342.208 203.055 341.184 202.159 340.672C201.263 340.16 200.068 339.733 198.575 339.392L189.615 337.344C187.908 336.917 186.543 336.363 185.519 335.68C184.495 334.955 183.748 334.037 183.279 332.928C182.81 331.776 182.575 330.347 182.575 328.64C182.575 326.208 183.002 324.373 183.855 323.136C184.708 321.899 186.031 321.067 187.823 320.64C189.615 320.213 191.919 320.021 194.735 320.064ZM222.499 320.832V352H217.123V320.832H222.499ZM221.091 307.584C222.2 307.584 222.755 308.139 222.755 309.248V312.896C222.755 314.005 222.2 314.56 221.091 314.56H218.531C217.422 314.56 216.867 314.005 216.867 312.896V309.248C216.867 308.139 217.422 307.584 218.531 307.584H221.091ZM240.55 311.616V343.424C240.55 344.917 240.87 345.984 241.51 346.624C242.15 347.264 243.238 347.584 244.774 347.584H249.51L250.15 351.744C249.467 351.915 248.678 352.064 247.782 352.192C246.886 352.32 246.011 352.405 245.158 352.448C244.305 352.533 243.622 352.576 243.11 352.576C240.507 352.576 238.523 351.851 237.158 350.4C235.793 348.949 235.11 346.859 235.11 344.128V311.616H240.55ZM250.47 320.832V325.12H229.478V321.152L235.622 320.832H250.47ZM269.917 320.064C274.61 320.064 278.002 320.917 280.093 322.624C282.226 324.331 283.293 326.869 283.293 330.24C283.336 333.013 282.76 335.189 281.565 336.768C280.37 338.304 278.472 339.072 275.869 339.072H257.693V334.848H274.461C275.869 334.848 276.786 334.379 277.213 333.44C277.64 332.459 277.853 331.392 277.853 330.24C277.81 328.235 277.213 326.805 276.061 325.952C274.909 325.099 272.946 324.672 270.173 324.672C267.912 324.672 266.12 325.013 264.797 325.696C263.517 326.336 262.6 327.488 262.045 329.152C261.533 330.773 261.277 333.056 261.277 336C261.277 339.328 261.597 341.867 262.237 343.616C262.92 345.365 263.986 346.56 265.437 347.2C266.888 347.84 268.808 348.16 271.197 348.16C272.861 348.16 274.674 348.096 276.637 347.968C278.642 347.797 280.434 347.605 282.013 347.392L282.589 351.04C281.608 351.424 280.392 351.744 278.941 352C277.533 352.256 276.061 352.448 274.525 352.576C273.032 352.704 271.688 352.768 270.493 352.768C266.909 352.768 264.029 352.235 261.853 351.168C259.677 350.059 258.077 348.309 257.053 345.92C256.072 343.488 255.581 340.288 255.581 336.32C255.581 332.224 256.072 329.003 257.053 326.656C258.077 324.267 259.634 322.581 261.725 321.6C263.858 320.576 266.589 320.064 269.917 320.064ZM316.11 320.064C318.158 320.064 320.185 320.341 322.19 320.896C324.195 321.408 326.115 322.219 327.95 323.328L327.63 326.72C325.625 326.123 323.854 325.653 322.318 325.312C320.782 324.971 319.139 324.8 317.39 324.8C315.598 324.8 314.147 325.12 313.038 325.76C311.971 326.357 311.182 327.488 310.67 329.152C310.158 330.816 309.902 333.184 309.902 336.256C309.902 339.328 310.137 341.717 310.606 343.424C311.118 345.131 311.907 346.325 312.974 347.008C314.041 347.691 315.406 348.032 317.07 348.032C318.307 348.032 319.417 347.883 320.398 347.584C321.422 347.243 322.489 346.709 323.598 345.984C324.75 345.259 326.094 344.341 327.63 343.232L328.142 347.072C326.435 348.651 324.494 349.995 322.318 351.104C320.142 352.213 317.795 352.768 315.278 352.768C311.353 352.768 308.537 351.381 306.83 348.608C305.166 345.835 304.334 341.739 304.334 336.32C304.334 332.267 304.761 329.067 305.614 326.72C306.467 324.331 307.769 322.624 309.518 321.6C311.267 320.576 313.465 320.064 316.11 320.064ZM332.366 307.2V352H328.142L327.502 346.56L326.926 346.112V324.736L327.31 323.776C327.139 322.581 327.033 321.429 326.99 320.32C326.947 319.211 326.926 318.037 326.926 316.8V307.2H332.366ZM355.23 320.064C359.923 320.064 363.315 320.917 365.406 322.624C367.539 324.331 368.606 326.869 368.606 330.24C368.648 333.013 368.072 335.189 366.878 336.768C365.683 338.304 363.784 339.072 361.182 339.072H343.006V334.848H359.774C361.182 334.848 362.099 334.379 362.526 333.44C362.952 332.459 363.166 331.392 363.166 330.24C363.123 328.235 362.526 326.805 361.374 325.952C360.222 325.099 358.259 324.672 355.486 324.672C353.224 324.672 351.432 325.013 350.11 325.696C348.83 326.336 347.912 327.488 347.358 329.152C346.846 330.773 346.59 333.056 346.59 336C346.59 339.328 346.91 341.867 347.55 343.616C348.232 345.365 349.299 346.56 350.75 347.2C352.2 347.84 354.12 348.16 356.51 348.16C358.174 348.16 359.987 348.096 361.95 347.968C363.955 347.797 365.747 347.605 367.326 347.392L367.902 351.04C366.92 351.424 365.704 351.744 364.254 352C362.846 352.256 361.374 352.448 359.838 352.576C358.344 352.704 357 352.768 355.806 352.768C352.222 352.768 349.342 352.235 347.166 351.168C344.99 350.059 343.39 348.309 342.366 345.92C341.384 343.488 340.894 340.288 340.894 336.32C340.894 332.224 341.384 329.003 342.366 326.656C343.39 324.267 344.947 322.581 347.038 321.6C349.171 320.576 351.902 320.064 355.23 320.064ZM387.173 320.064C388.538 320.064 389.989 320.107 391.525 320.192C393.061 320.277 394.575 320.384 396.069 320.512C397.605 320.64 399.013 320.811 400.293 321.024L399.845 324.992C397.882 324.907 395.898 324.843 393.893 324.8C391.93 324.715 389.967 324.672 388.005 324.672C386.085 324.629 384.57 324.672 383.461 324.8C382.351 324.928 381.541 325.269 381.029 325.824C380.559 326.379 380.325 327.317 380.325 328.64C380.325 330.261 380.709 331.328 381.477 331.84C382.245 332.352 383.375 332.779 384.869 333.12L393.957 335.168C396.431 335.765 398.245 336.683 399.397 337.92C400.591 339.157 401.189 341.099 401.189 343.744C401.189 346.304 400.698 348.224 399.717 349.504C398.778 350.784 397.327 351.637 395.365 352.064C393.402 352.491 390.906 352.704 387.877 352.704C386.767 352.704 385.103 352.661 382.885 352.576C380.709 352.491 378.298 352.235 375.653 351.808L376.036 347.84C377.061 347.883 378.149 347.947 379.301 348.032C380.453 348.075 381.647 348.096 382.885 348.096C384.165 348.096 385.466 348.096 386.789 348.096C389.135 348.096 390.97 347.989 392.293 347.776C393.615 347.563 394.554 347.157 395.109 346.56C395.663 345.92 395.941 344.981 395.941 343.744C395.941 342.208 395.493 341.184 394.597 340.672C393.701 340.16 392.506 339.733 391.013 339.392L382.053 337.344C380.346 336.917 378.981 336.363 377.957 335.68C376.933 334.955 376.186 334.037 375.717 332.928C375.247 331.776 375.013 330.347 375.013 328.64C375.013 326.208 375.439 324.373 376.293 323.136C377.146 321.899 378.469 321.067 380.26 320.64C382.053 320.213 384.357 320.021 387.173 320.064ZM414.937 320.832V352H409.561V320.832H414.937ZM413.529 307.584C414.638 307.584 415.193 308.139 415.193 309.248V312.896C415.193 314.005 414.638 314.56 413.529 314.56H410.969C409.859 314.56 409.305 314.005 409.305 312.896V309.248C409.305 308.139 409.859 307.584 410.969 307.584H413.529ZM437.532 320.064C440.86 320.064 443.484 320.405 445.404 321.088C447.366 321.771 448.753 322.837 449.564 324.288C450.417 325.739 450.844 327.637 450.844 329.984C450.844 332.245 450.417 334.123 449.564 335.616C448.753 337.067 447.366 338.155 445.404 338.88C443.441 339.563 440.796 339.904 437.468 339.904C434.14 339.904 431.494 339.563 429.532 338.88C427.612 338.155 426.225 337.067 425.372 335.616C424.561 334.165 424.156 332.309 424.156 330.048C424.156 327.701 424.561 325.803 425.372 324.352C426.225 322.859 427.633 321.771 429.595 321.088C431.558 320.405 434.204 320.064 437.532 320.064ZM437.468 324.224C434.353 324.224 432.177 324.672 430.94 325.568C429.745 326.421 429.148 327.893 429.148 329.984C429.148 332.032 429.745 333.504 430.94 334.4C432.177 335.296 434.353 335.744 437.468 335.744C440.625 335.744 442.801 335.296 443.996 334.4C445.19 333.504 445.788 332.032 445.788 329.984C445.788 327.893 445.19 326.421 443.996 325.568C442.801 324.672 440.625 324.224 437.468 324.224ZM454.492 320.832L454.172 323.84L446.236 324.48L443.996 320.832H454.492ZM428.7 337.856L431.836 338.304C431.11 338.944 430.62 339.733 430.364 340.672C430.108 341.568 430.172 342.4 430.556 343.168C430.982 343.936 431.857 344.427 433.18 344.64L444.828 346.496C447.772 346.923 449.82 347.84 450.972 349.248C452.124 350.656 452.7 352.661 452.7 355.264C452.7 357.696 452.23 359.616 451.292 361.024C450.396 362.432 448.86 363.435 446.684 364.032C444.508 364.629 441.564 364.928 437.852 364.928C435.036 364.928 432.668 364.757 430.748 364.416C428.828 364.117 427.27 363.584 426.076 362.816C424.924 362.091 424.092 361.131 423.58 359.936C423.068 358.741 422.812 357.248 422.812 355.456C422.812 354.091 423.004 352.939 423.388 352C423.814 351.104 424.454 350.293 425.308 349.568C426.204 348.843 427.356 348.139 428.764 347.456L432.604 345.344L435.1 346.24L431.964 348.608C431.11 349.248 430.385 349.888 429.788 350.528C429.233 351.125 428.806 351.765 428.508 352.448C428.252 353.173 428.124 354.027 428.124 355.008C428.124 356.459 428.401 357.568 428.956 358.336C429.51 359.104 430.492 359.616 431.9 359.872C433.308 360.171 435.27 360.32 437.788 360.32C440.305 360.32 442.246 360.171 443.612 359.872C445.02 359.573 446.001 359.04 446.556 358.272C447.11 357.504 447.388 356.416 447.388 355.008C447.388 353.941 447.238 353.131 446.94 352.576C446.684 352.021 446.172 351.595 445.404 351.296C444.636 350.997 443.505 350.741 442.012 350.528L430.812 348.992C429.489 348.821 428.422 348.395 427.612 347.712C426.844 347.029 426.31 346.219 426.012 345.28C425.713 344.341 425.628 343.403 425.756 342.464C425.884 341.483 426.204 340.587 426.716 339.776C427.228 338.923 427.889 338.283 428.7 337.856ZM479.811 320.064C485.443 320.064 488.259 322.923 488.259 328.64V352H482.819V330.176C482.819 328.085 482.478 326.656 481.795 325.888C481.112 325.077 479.96 324.672 478.339 324.672C476.419 324.672 474.499 325.141 472.579 326.08C470.659 327.019 468.376 328.299 465.731 329.92L465.475 326.016C467.907 324.139 470.318 322.688 472.707 321.664C475.096 320.597 477.464 320.064 479.811 320.064ZM465.475 320.832L465.923 326.784L466.307 327.744V352H460.867V320.832H465.475Z" fill="#C493EA"/>
</svg>
