<svg width="588" height="449" viewBox="0 0 588 449" fill="none" xmlns="http://www.w3.org/2000/svg">
<path d="M583 224.5C583 284.606 551.107 339.371 498.855 379.272C446.598 419.175 374.187 444 294 444C213.813 444 141.402 419.175 89.1451 379.272C36.8925 339.371 5 284.606 5 224.5C5 164.394 36.8925 109.629 89.1451 69.7284C141.402 29.8247 213.813 5 294 5C374.187 5 446.598 29.8247 498.855 69.7284C551.107 109.629 583 164.394 583 224.5Z" stroke="#99B4FF" stroke-width="10"/>
<path d="M233.883 129.8V162.6C233.883 168.307 233.136 172.893 231.643 176.36C230.203 179.773 227.829 182.253 224.523 183.8C221.216 185.347 216.789 186.12 211.243 186.12C205.269 186.12 200.496 185.347 196.923 183.8C193.403 182.253 190.869 179.773 189.323 176.36C187.776 172.893 187.003 168.307 187.003 162.6V129.8H202.043V162.6C202.043 165.747 202.283 168.2 202.763 169.96C203.243 171.72 204.096 172.947 205.323 173.64C206.603 174.333 208.309 174.68 210.443 174.68C212.629 174.68 214.336 174.333 215.563 173.64C216.789 172.947 217.643 171.72 218.123 169.96C218.603 168.2 218.843 165.747 218.843 162.6V129.8H233.883ZM255.266 129.8V185H240.386V129.8H255.266ZM301.635 129.8L270.195 191.08H258.755L290.195 129.8H301.635ZM351.577 129.8V162.6C351.577 168.307 350.83 172.893 349.337 176.36C347.897 179.773 345.523 182.253 342.217 183.8C338.91 185.347 334.483 186.12 328.937 186.12C322.963 186.12 318.19 185.347 314.617 183.8C311.097 182.253 308.563 179.773 307.017 176.36C305.47 172.893 304.697 168.307 304.697 162.6V129.8H319.737V162.6C319.737 165.747 319.977 168.2 320.457 169.96C320.937 171.72 321.79 172.947 323.017 173.64C324.297 174.333 326.003 174.68 328.137 174.68C330.323 174.68 332.03 174.333 333.257 173.64C334.483 172.947 335.337 171.72 335.817 169.96C336.297 168.2 336.537 165.747 336.537 162.6V129.8H351.577ZM404.88 129.8L391.92 156.76L406 185H390.96L377.92 156.76L389.92 129.8H404.88ZM369.44 129.8L381.44 156.76L368.4 185H353.36L367.44 156.76L354.48 129.8H369.44ZM386.56 152.28V160.92H371.76V152.28H386.56Z" fill="#99B4FF"/>
<path d="M130.325 225.36C131.605 225.36 132.899 225.373 134.205 225.4C135.512 225.4 136.805 225.413 138.085 225.44C139.365 225.467 140.592 225.533 141.765 225.64L141.565 228.36H131.205C130.272 228.36 129.592 228.573 129.165 229C128.739 229.4 128.525 230.067 128.525 231V253H125.005V230.32C125.005 228.747 125.485 227.533 126.445 226.68C127.405 225.8 128.699 225.36 130.325 225.36ZM125.685 237.4H140.045V240.24H125.685V237.4ZM149.808 233.52V253H146.448V233.52H149.808ZM148.928 225.24C149.621 225.24 149.968 225.587 149.968 226.28V228.56C149.968 229.253 149.621 229.6 148.928 229.6H147.328C146.635 229.6 146.288 229.253 146.288 228.56V226.28C146.288 225.587 146.635 225.24 147.328 225.24H148.928ZM163.93 233.04C166.01 233.04 167.65 233.253 168.85 233.68C170.077 234.107 170.943 234.773 171.45 235.68C171.983 236.587 172.25 237.773 172.25 239.24C172.25 240.653 171.983 241.827 171.45 242.76C170.943 243.667 170.077 244.347 168.85 244.8C167.623 245.227 165.97 245.44 163.89 245.44C161.81 245.44 160.157 245.227 158.93 244.8C157.73 244.347 156.863 243.667 156.33 242.76C155.823 241.853 155.57 240.693 155.57 239.28C155.57 237.813 155.823 236.627 156.33 235.72C156.863 234.787 157.743 234.107 158.97 233.68C160.197 233.253 161.85 233.04 163.93 233.04ZM163.89 235.64C161.943 235.64 160.583 235.92 159.81 236.48C159.063 237.013 158.69 237.933 158.69 239.24C158.69 240.52 159.063 241.44 159.81 242C160.583 242.56 161.943 242.84 163.89 242.84C165.863 242.84 167.223 242.56 167.97 242C168.717 241.44 169.09 240.52 169.09 239.24C169.09 237.933 168.717 237.013 167.97 236.48C167.223 235.92 165.863 235.64 163.89 235.64ZM174.53 233.52L174.33 235.4L169.37 235.8L167.97 233.52H174.53ZM158.41 244.16L160.37 244.44C159.917 244.84 159.61 245.333 159.45 245.92C159.29 246.48 159.33 247 159.57 247.48C159.837 247.96 160.383 248.267 161.21 248.4L168.49 249.56C170.33 249.827 171.61 250.4 172.33 251.28C173.05 252.16 173.41 253.413 173.41 255.04C173.41 256.56 173.117 257.76 172.53 258.64C171.97 259.52 171.01 260.147 169.65 260.52C168.29 260.893 166.45 261.08 164.13 261.08C162.37 261.08 160.89 260.973 159.69 260.76C158.49 260.573 157.517 260.24 156.77 259.76C156.05 259.307 155.53 258.707 155.21 257.96C154.89 257.213 154.73 256.28 154.73 255.16C154.73 254.307 154.85 253.587 155.09 253C155.357 252.44 155.757 251.933 156.29 251.48C156.85 251.027 157.57 250.587 158.45 250.16L160.85 248.84L162.41 249.4L160.45 250.88C159.917 251.28 159.463 251.68 159.09 252.08C158.743 252.453 158.477 252.853 158.29 253.28C158.13 253.733 158.05 254.267 158.05 254.88C158.05 255.787 158.223 256.48 158.57 256.96C158.917 257.44 159.53 257.76 160.41 257.92C161.29 258.107 162.517 258.2 164.09 258.2C165.663 258.2 166.877 258.107 167.73 257.92C168.61 257.733 169.223 257.4 169.57 256.92C169.917 256.44 170.09 255.76 170.09 254.88C170.09 254.213 169.997 253.707 169.81 253.36C169.65 253.013 169.33 252.747 168.85 252.56C168.37 252.373 167.663 252.213 166.73 252.08L159.73 251.12C158.903 251.013 158.237 250.747 157.73 250.32C157.25 249.893 156.917 249.387 156.73 248.8C156.543 248.213 156.49 247.627 156.57 247.04C156.65 246.427 156.85 245.867 157.17 245.36C157.49 244.827 157.903 244.427 158.41 244.16ZM202.235 233.04C203.915 233.04 205.195 233.493 206.075 234.4C206.981 235.307 207.435 236.64 207.435 238.4V253H204.075V239.36C204.048 238.16 203.808 237.293 203.355 236.76C202.901 236.2 202.128 235.92 201.035 235.92C200.341 235.92 199.675 236.04 199.035 236.28C198.421 236.493 197.741 236.84 196.995 237.32C196.248 237.8 195.341 238.427 194.275 239.2L194.075 236.8C195.488 235.547 196.861 234.613 198.195 234C199.528 233.36 200.875 233.04 202.235 233.04ZM181.315 233.52L181.555 237.24L181.915 237.84V253H178.515V233.52H181.315ZM189.475 233.04C191.128 233.04 192.395 233.493 193.275 234.4C194.155 235.28 194.608 236.613 194.635 238.4V253H191.355V239.36C191.355 238.107 191.101 237.227 190.595 236.72C190.088 236.187 189.328 235.92 188.315 235.92C187.648 235.92 186.995 236.027 186.355 236.24C185.741 236.453 185.048 236.8 184.275 237.28C183.528 237.76 182.608 238.4 181.515 239.2L181.275 236.8C182.688 235.547 184.061 234.613 185.395 234C186.728 233.36 188.088 233.04 189.475 233.04ZM222.754 233.04C224.194 233.04 225.407 233.24 226.394 233.64C227.407 234.013 228.167 234.653 228.674 235.56C229.18 236.467 229.434 237.707 229.434 239.28V253H226.754L226.234 248.76L225.994 248.32V239.28C225.994 238.08 225.714 237.227 225.154 236.72C224.62 236.187 223.58 235.92 222.034 235.92C221.02 235.92 219.74 235.973 218.194 236.08C216.674 236.187 215.167 236.307 213.674 236.44L213.354 233.92C214.26 233.76 215.247 233.613 216.314 233.48C217.407 233.347 218.514 233.24 219.634 233.16C220.754 233.08 221.794 233.04 222.754 233.04ZM227.834 241L227.794 243.56L218.474 243.6C217.54 243.627 216.887 243.88 216.514 244.36C216.14 244.813 215.954 245.453 215.954 246.28V247.52C215.954 248.533 216.194 249.28 216.674 249.76C217.154 250.213 217.927 250.44 218.994 250.44C219.74 250.44 220.58 250.307 221.514 250.04C222.474 249.747 223.434 249.307 224.394 248.72C225.354 248.133 226.234 247.387 227.034 246.48V249C226.74 249.373 226.314 249.813 225.754 250.32C225.22 250.8 224.567 251.28 223.794 251.76C223.047 252.213 222.207 252.6 221.274 252.92C220.367 253.213 219.38 253.36 218.314 253.36C217.167 253.36 216.154 253.16 215.274 252.76C214.394 252.333 213.7 251.72 213.194 250.92C212.714 250.093 212.474 249.093 212.474 247.92V245.8C212.474 244.28 212.94 243.107 213.874 242.28C214.834 241.427 216.167 241 217.874 241H227.834ZM237.467 248.28C237.947 248.28 238.267 248.373 238.427 248.56C238.613 248.747 238.707 249.08 238.707 249.56V252.12C238.707 252.867 238.64 253.6 238.507 254.32C238.4 255.04 238.24 255.72 238.027 256.36C237.84 257.027 237.6 257.667 237.307 258.28L235.707 257.8C235.84 256.973 235.933 256.213 235.987 255.52C236.067 254.827 236.107 253.987 236.107 253C235.467 253 235.147 252.627 235.147 251.88V249.56C235.173 249.08 235.293 248.747 235.507 248.56C235.72 248.373 236.04 248.28 236.467 248.28H237.467ZM263.355 225.04C265.568 225.04 267.315 225.293 268.595 225.8C269.901 226.307 270.835 227.187 271.395 228.44C271.955 229.667 272.235 231.413 272.235 233.68C272.235 235.947 271.955 237.707 271.395 238.96C270.861 240.213 269.968 241.093 268.715 241.6C267.488 242.08 265.835 242.32 263.755 242.32C262.635 242.32 261.555 242.293 260.515 242.24C259.501 242.187 258.568 242.12 257.715 242.04C256.861 241.933 256.128 241.827 255.515 241.72C254.928 241.613 254.515 241.52 254.275 241.44L254.395 239.28C255.808 239.28 257.275 239.28 258.795 239.28C260.315 239.28 261.821 239.28 263.315 239.28C264.648 239.253 265.701 239.093 266.475 238.8C267.275 238.48 267.835 237.92 268.155 237.12C268.501 236.293 268.675 235.147 268.675 233.68C268.675 232.187 268.501 231.04 268.155 230.24C267.835 229.44 267.275 228.88 266.475 228.56C265.701 228.24 264.648 228.08 263.315 228.08C261.128 228.08 259.235 228.093 257.635 228.12C256.061 228.147 254.995 228.187 254.435 228.24L253.875 225.4C254.888 225.293 255.835 225.213 256.715 225.16C257.595 225.107 258.555 225.08 259.595 225.08C260.635 225.053 261.888 225.04 263.355 225.04ZM257.395 225.4V253H253.875V225.4H257.395ZM288.948 233.04C292.468 233.04 294.228 234.827 294.228 238.4V253H290.788V239.36C290.788 238.053 290.575 237.16 290.148 236.68C289.748 236.173 289.042 235.92 288.028 235.92C286.828 235.92 285.628 236.2 284.428 236.76C283.228 237.32 281.802 238.133 280.148 239.2L279.988 236.76C281.508 235.613 283.015 234.707 284.508 234.04C286.002 233.373 287.482 233.04 288.948 233.04ZM280.508 225L280.548 232.72C280.548 233.6 280.508 234.427 280.428 235.2C280.375 235.973 280.282 236.653 280.148 237.24L280.508 237.84V253H277.108V225H280.508ZM308.59 233.04C310.83 233.04 312.617 233.373 313.95 234.04C315.31 234.707 316.284 235.8 316.87 237.32C317.457 238.813 317.75 240.8 317.75 243.28C317.75 245.76 317.457 247.76 316.87 249.28C316.284 250.773 315.31 251.853 313.95 252.52C312.617 253.187 310.83 253.52 308.59 253.52C306.377 253.52 304.59 253.187 303.23 252.52C301.897 251.853 300.924 250.773 300.31 249.28C299.724 247.76 299.43 245.76 299.43 243.28C299.43 240.8 299.724 238.813 300.31 237.32C300.924 235.8 301.897 234.707 303.23 234.04C304.59 233.373 306.377 233.04 308.59 233.04ZM308.59 235.92C307.177 235.92 306.057 236.147 305.23 236.6C304.43 237.027 303.857 237.773 303.51 238.84C303.164 239.907 302.99 241.387 302.99 243.28C302.99 245.173 303.164 246.653 303.51 247.72C303.857 248.787 304.43 249.547 305.23 250C306.057 250.427 307.177 250.64 308.59 250.64C310.004 250.64 311.124 250.427 311.95 250C312.777 249.547 313.364 248.787 313.71 247.72C314.057 246.653 314.23 245.173 314.23 243.28C314.23 241.387 314.057 239.907 313.71 238.84C313.364 237.773 312.777 237.027 311.95 236.6C311.124 236.147 310.004 235.92 308.59 235.92ZM327.926 227.76V247.64C327.926 248.573 328.126 249.24 328.526 249.64C328.926 250.04 329.606 250.24 330.566 250.24H333.526L333.926 252.84C333.499 252.947 333.006 253.04 332.446 253.12C331.886 253.2 331.339 253.253 330.806 253.28C330.272 253.333 329.846 253.36 329.526 253.36C327.899 253.36 326.659 252.907 325.806 252C324.952 251.093 324.526 249.787 324.526 248.08V227.76H327.926ZM334.126 233.52V236.2H321.006V233.72L324.846 233.52H334.126ZM346.52 233.04C348.76 233.04 350.547 233.373 351.88 234.04C353.24 234.707 354.213 235.8 354.8 237.32C355.387 238.813 355.68 240.8 355.68 243.28C355.68 245.76 355.387 247.76 354.8 249.28C354.213 250.773 353.24 251.853 351.88 252.52C350.547 253.187 348.76 253.52 346.52 253.52C344.307 253.52 342.52 253.187 341.16 252.52C339.827 251.853 338.853 250.773 338.24 249.28C337.653 247.76 337.36 245.76 337.36 243.28C337.36 240.8 337.653 238.813 338.24 237.32C338.853 235.8 339.827 234.707 341.16 234.04C342.52 233.373 344.307 233.04 346.52 233.04ZM346.52 235.92C345.107 235.92 343.987 236.147 343.16 236.6C342.36 237.027 341.787 237.773 341.44 238.84C341.093 239.907 340.92 241.387 340.92 243.28C340.92 245.173 341.093 246.653 341.44 247.72C341.787 248.787 342.36 249.547 343.16 250C343.987 250.427 345.107 250.64 346.52 250.64C347.933 250.64 349.053 250.427 349.88 250C350.707 249.547 351.293 248.787 351.64 247.72C351.987 246.653 352.16 245.173 352.16 243.28C352.16 241.387 351.987 239.907 351.64 238.84C351.293 237.773 350.707 237.027 349.88 236.6C349.053 236.147 347.933 235.92 346.52 235.92ZM367.495 233.04C368.348 233.04 369.255 233.067 370.215 233.12C371.175 233.173 372.121 233.24 373.055 233.32C374.015 233.4 374.895 233.507 375.695 233.64L375.415 236.12C374.188 236.067 372.948 236.027 371.695 236C370.468 235.947 369.241 235.92 368.015 235.92C366.815 235.893 365.868 235.92 365.175 236C364.481 236.08 363.975 236.293 363.655 236.64C363.361 236.987 363.215 237.573 363.215 238.4C363.215 239.413 363.455 240.08 363.935 240.4C364.415 240.72 365.121 240.987 366.055 241.2L371.735 242.48C373.281 242.853 374.415 243.427 375.135 244.2C375.881 244.973 376.255 246.187 376.255 247.84C376.255 249.44 375.948 250.64 375.335 251.44C374.748 252.24 373.841 252.773 372.615 253.04C371.388 253.307 369.828 253.44 367.935 253.44C367.241 253.44 366.201 253.413 364.815 253.36C363.455 253.307 361.948 253.147 360.295 252.88L360.535 250.4C361.175 250.427 361.855 250.467 362.575 250.52C363.295 250.547 364.041 250.56 364.815 250.56C365.615 250.56 366.428 250.56 367.255 250.56C368.721 250.56 369.868 250.493 370.695 250.36C371.521 250.227 372.108 249.973 372.455 249.6C372.801 249.2 372.975 248.613 372.975 247.84C372.975 246.88 372.695 246.24 372.135 245.92C371.575 245.6 370.828 245.333 369.895 245.12L364.295 243.84C363.228 243.573 362.375 243.227 361.735 242.8C361.095 242.347 360.628 241.773 360.335 241.08C360.041 240.36 359.895 239.467 359.895 238.4C359.895 236.88 360.161 235.733 360.695 234.96C361.228 234.187 362.055 233.667 363.175 233.4C364.295 233.133 365.735 233.013 367.495 233.04ZM393.167 233.04C396.687 233.04 398.447 234.827 398.447 238.4V253H395.007V239.36C395.007 238.053 394.794 237.16 394.367 236.68C393.967 236.173 393.26 235.92 392.247 235.92C391.047 235.92 389.847 236.2 388.647 236.76C387.447 237.32 386.02 238.133 384.367 239.2L384.207 236.76C385.727 235.613 387.234 234.707 388.727 234.04C390.22 233.373 391.7 233.04 393.167 233.04ZM384.727 225L384.767 232.72C384.767 233.6 384.727 234.427 384.647 235.2C384.594 235.973 384.5 236.653 384.367 237.24L384.727 237.84V253H381.327V225H384.727ZM412.809 233.04C415.049 233.04 416.836 233.373 418.169 234.04C419.529 234.707 420.503 235.8 421.089 237.32C421.676 238.813 421.969 240.8 421.969 243.28C421.969 245.76 421.676 247.76 421.089 249.28C420.503 250.773 419.529 251.853 418.169 252.52C416.836 253.187 415.049 253.52 412.809 253.52C410.596 253.52 408.809 253.187 407.449 252.52C406.116 251.853 405.143 250.773 404.529 249.28C403.943 247.76 403.649 245.76 403.649 243.28C403.649 240.8 403.943 238.813 404.529 237.32C405.143 235.8 406.116 234.707 407.449 234.04C408.809 233.373 410.596 233.04 412.809 233.04ZM412.809 235.92C411.396 235.92 410.276 236.147 409.449 236.6C408.649 237.027 408.076 237.773 407.729 238.84C407.383 239.907 407.209 241.387 407.209 243.28C407.209 245.173 407.383 246.653 407.729 247.72C408.076 248.787 408.649 249.547 409.449 250C410.276 250.427 411.396 250.64 412.809 250.64C414.223 250.64 415.343 250.427 416.169 250C416.996 249.547 417.583 248.787 417.929 247.72C418.276 246.653 418.449 245.173 418.449 243.28C418.449 241.387 418.276 239.907 417.929 238.84C417.583 237.773 416.996 237.027 416.169 236.6C415.343 236.147 414.223 235.92 412.809 235.92ZM438.464 233.04C440.837 233.04 442.544 233.92 443.584 235.68C444.624 237.413 445.144 239.973 445.144 243.36C445.144 245.867 444.877 247.867 444.344 249.36C443.81 250.827 442.997 251.88 441.904 252.52C440.837 253.16 439.464 253.48 437.784 253.48C436.504 253.48 435.237 253.307 433.984 252.96C432.757 252.613 431.557 252.08 430.384 251.36L430.584 249.32C431.837 249.667 432.944 249.96 433.904 250.2C434.864 250.413 435.877 250.52 436.944 250.52C438.09 250.52 438.997 250.32 439.664 249.92C440.357 249.52 440.864 248.8 441.184 247.76C441.504 246.72 441.664 245.253 441.664 243.36C441.664 241.52 441.517 240.067 441.224 239C440.93 237.933 440.464 237.173 439.824 236.72C439.21 236.24 438.384 236 437.344 236C436.277 236 435.224 236.253 434.184 236.76C433.144 237.267 431.93 238.04 430.544 239.08L430.224 236.8C430.944 236.027 431.757 235.36 432.664 234.8C433.57 234.24 434.517 233.813 435.504 233.52C436.517 233.2 437.504 233.04 438.464 233.04ZM430.104 233.52L430.464 237.56L430.704 238.08V250.56L430.544 251.04C430.624 251.787 430.664 252.507 430.664 253.2C430.69 253.893 430.704 254.627 430.704 255.4V261.04H427.304V233.52H430.104ZM452.467 248.28C452.947 248.28 453.267 248.373 453.427 248.56C453.613 248.747 453.707 249.08 453.707 249.56V252.12C453.707 252.867 453.64 253.6 453.507 254.32C453.4 255.04 453.24 255.72 453.027 256.36C452.84 257.027 452.6 257.667 452.307 258.28L450.707 257.8C450.84 256.973 450.933 256.213 450.987 255.52C451.067 254.827 451.107 253.987 451.107 253C450.467 253 450.147 252.627 450.147 251.88V249.56C450.173 249.08 450.293 248.747 450.507 248.56C450.72 248.373 451.04 248.28 451.467 248.28H452.467ZM114.523 273.4V301H111.003V273.4H114.523ZM132.952 281.04C136.472 281.04 138.232 282.827 138.232 286.4V301H134.832V287.36C134.832 286.053 134.619 285.16 134.192 284.68C133.766 284.173 133.046 283.92 132.032 283.92C130.832 283.92 129.632 284.213 128.432 284.8C127.232 285.387 125.806 286.187 124.152 287.2L123.992 284.76C125.512 283.587 127.019 282.68 128.512 282.04C130.006 281.373 131.486 281.04 132.952 281.04ZM123.992 281.52L124.272 285.24L124.512 285.84V301H121.112V281.52H123.992ZM154.554 273.04C156.528 273.04 158.194 273.28 159.554 273.76C160.941 274.24 162.048 275.027 162.874 276.12C163.728 277.213 164.341 278.667 164.714 280.48C165.114 282.293 165.314 284.533 165.314 287.2C165.314 289.867 165.114 292.107 164.714 293.92C164.341 295.733 163.728 297.187 162.874 298.28C162.048 299.373 160.941 300.16 159.554 300.64C158.194 301.12 156.528 301.36 154.554 301.36C152.661 301.36 150.901 301.32 149.274 301.24C147.674 301.187 146.154 301.107 144.714 301L146.234 298.12C147.354 298.147 148.594 298.187 149.954 298.24C151.341 298.267 152.874 298.28 154.554 298.28C156.314 298.28 157.714 297.947 158.754 297.28C159.794 296.587 160.528 295.44 160.954 293.84C161.408 292.213 161.634 290 161.634 287.2C161.634 284.4 161.408 282.2 160.954 280.6C160.528 278.973 159.794 277.813 158.754 277.12C157.714 276.427 156.314 276.08 154.554 276.08C152.901 276.08 151.408 276.093 150.074 276.12C148.768 276.147 147.488 276.173 146.234 276.2L144.714 273.4C146.154 273.293 147.674 273.213 149.274 273.16C150.901 273.08 152.661 273.04 154.554 273.04ZM148.234 273.4V301H144.714V273.4H148.234ZM178.917 281.04C181.85 281.04 183.97 281.573 185.277 282.64C186.61 283.707 187.277 285.293 187.277 287.4C187.304 289.133 186.944 290.493 186.197 291.48C185.45 292.44 184.264 292.92 182.637 292.92H171.277V290.28H181.757C182.637 290.28 183.21 289.987 183.477 289.4C183.744 288.787 183.877 288.12 183.877 287.4C183.85 286.147 183.477 285.253 182.757 284.72C182.037 284.187 180.81 283.92 179.077 283.92C177.664 283.92 176.544 284.133 175.717 284.56C174.917 284.96 174.344 285.68 173.997 286.72C173.677 287.733 173.517 289.16 173.517 291C173.517 293.08 173.717 294.667 174.117 295.76C174.544 296.853 175.21 297.6 176.117 298C177.024 298.4 178.224 298.6 179.717 298.6C180.757 298.6 181.89 298.56 183.117 298.48C184.37 298.373 185.49 298.253 186.477 298.12L186.837 300.4C186.224 300.64 185.464 300.84 184.557 301C183.677 301.16 182.757 301.28 181.797 301.36C180.864 301.44 180.024 301.48 179.277 301.48C177.037 301.48 175.237 301.147 173.877 300.48C172.517 299.787 171.517 298.693 170.877 297.2C170.264 295.68 169.957 293.68 169.957 291.2C169.957 288.64 170.264 286.627 170.877 285.16C171.517 283.667 172.49 282.613 173.797 282C175.13 281.36 176.837 281.04 178.917 281.04ZM198.881 281.04C199.735 281.04 200.641 281.067 201.601 281.12C202.561 281.173 203.508 281.24 204.441 281.32C205.401 281.4 206.281 281.507 207.081 281.64L206.801 284.12C205.575 284.067 204.335 284.027 203.081 284C201.855 283.947 200.628 283.92 199.401 283.92C198.201 283.893 197.255 283.92 196.561 284C195.868 284.08 195.361 284.293 195.041 284.64C194.748 284.987 194.601 285.573 194.601 286.4C194.601 287.413 194.841 288.08 195.321 288.4C195.801 288.72 196.508 288.987 197.441 289.2L203.121 290.48C204.668 290.853 205.801 291.427 206.521 292.2C207.268 292.973 207.641 294.187 207.641 295.84C207.641 297.44 207.335 298.64 206.721 299.44C206.135 300.24 205.228 300.773 204.001 301.04C202.775 301.307 201.215 301.44 199.321 301.44C198.628 301.44 197.588 301.413 196.201 301.36C194.841 301.307 193.335 301.147 191.681 300.88L191.921 298.4C192.561 298.427 193.241 298.467 193.961 298.52C194.681 298.547 195.428 298.56 196.201 298.56C197.001 298.56 197.815 298.56 198.641 298.56C200.108 298.56 201.255 298.493 202.081 298.36C202.908 298.227 203.495 297.973 203.841 297.6C204.188 297.2 204.361 296.613 204.361 295.84C204.361 294.88 204.081 294.24 203.521 293.92C202.961 293.6 202.215 293.333 201.281 293.12L195.681 291.84C194.615 291.573 193.761 291.227 193.121 290.8C192.481 290.347 192.015 289.773 191.721 289.08C191.428 288.36 191.281 287.467 191.281 286.4C191.281 284.88 191.548 283.733 192.081 282.96C192.615 282.187 193.441 281.667 194.561 281.4C195.681 281.133 197.121 281.013 198.881 281.04ZM216.234 281.52V301H212.874V281.52H216.234ZM215.354 273.24C216.047 273.24 216.394 273.587 216.394 274.28V276.56C216.394 277.253 216.047 277.6 215.354 277.6H213.754C213.06 277.6 212.714 277.253 212.714 276.56V274.28C212.714 273.587 213.06 273.24 213.754 273.24H215.354ZM230.356 281.04C232.436 281.04 234.076 281.253 235.276 281.68C236.502 282.107 237.369 282.773 237.876 283.68C238.409 284.587 238.676 285.773 238.676 287.24C238.676 288.653 238.409 289.827 237.876 290.76C237.369 291.667 236.502 292.347 235.276 292.8C234.049 293.227 232.396 293.44 230.316 293.44C228.236 293.44 226.582 293.227 225.356 292.8C224.156 292.347 223.289 291.667 222.756 290.76C222.249 289.853 221.996 288.693 221.996 287.28C221.996 285.813 222.249 284.627 222.756 283.72C223.289 282.787 224.169 282.107 225.396 281.68C226.622 281.253 228.276 281.04 230.356 281.04ZM230.316 283.64C228.369 283.64 227.009 283.92 226.236 284.48C225.489 285.013 225.116 285.933 225.116 287.24C225.116 288.52 225.489 289.44 226.236 290C227.009 290.56 228.369 290.84 230.316 290.84C232.289 290.84 233.649 290.56 234.396 290C235.142 289.44 235.516 288.52 235.516 287.24C235.516 285.933 235.142 285.013 234.396 284.48C233.649 283.92 232.289 283.64 230.316 283.64ZM240.956 281.52L240.756 283.4L235.796 283.8L234.396 281.52H240.956ZM224.836 292.16L226.796 292.44C226.342 292.84 226.036 293.333 225.876 293.92C225.716 294.48 225.756 295 225.996 295.48C226.262 295.96 226.809 296.267 227.636 296.4L234.916 297.56C236.756 297.827 238.036 298.4 238.756 299.28C239.476 300.16 239.836 301.413 239.836 303.04C239.836 304.56 239.542 305.76 238.956 306.64C238.396 307.52 237.436 308.147 236.076 308.52C234.716 308.893 232.876 309.08 230.556 309.08C228.796 309.08 227.316 308.973 226.116 308.76C224.916 308.573 223.942 308.24 223.196 307.76C222.476 307.307 221.956 306.707 221.636 305.96C221.316 305.213 221.156 304.28 221.156 303.16C221.156 302.307 221.276 301.587 221.516 301C221.782 300.44 222.182 299.933 222.716 299.48C223.276 299.027 223.996 298.587 224.876 298.16L227.276 296.84L228.836 297.4L226.876 298.88C226.342 299.28 225.889 299.68 225.516 300.08C225.169 300.453 224.902 300.853 224.716 301.28C224.556 301.733 224.476 302.267 224.476 302.88C224.476 303.787 224.649 304.48 224.996 304.96C225.342 305.44 225.956 305.76 226.836 305.92C227.716 306.107 228.942 306.2 230.516 306.2C232.089 306.2 233.302 306.107 234.156 305.92C235.036 305.733 235.649 305.4 235.996 304.92C236.342 304.44 236.516 303.76 236.516 302.88C236.516 302.213 236.422 301.707 236.236 301.36C236.076 301.013 235.756 300.747 235.276 300.56C234.796 300.373 234.089 300.213 233.156 300.08L226.156 299.12C225.329 299.013 224.662 298.747 224.156 298.32C223.676 297.893 223.342 297.387 223.156 296.8C222.969 296.213 222.916 295.627 222.996 295.04C223.076 294.427 223.276 293.867 223.596 293.36C223.916 292.827 224.329 292.427 224.836 292.16ZM256.78 281.04C260.3 281.04 262.06 282.827 262.06 286.4V301H258.66V287.36C258.66 286.053 258.447 285.16 258.02 284.68C257.594 284.173 256.874 283.92 255.86 283.92C254.66 283.92 253.46 284.213 252.26 284.8C251.06 285.387 249.634 286.187 247.98 287.2L247.82 284.76C249.34 283.587 250.847 282.68 252.34 282.04C253.834 281.373 255.314 281.04 256.78 281.04ZM247.82 281.52L248.1 285.24L248.34 285.84V301H244.94V281.52H247.82ZM270.143 296.28C270.623 296.28 270.943 296.373 271.103 296.56C271.289 296.747 271.383 297.08 271.383 297.56V300.12C271.383 300.867 271.316 301.6 271.183 302.32C271.076 303.04 270.916 303.72 270.703 304.36C270.516 305.027 270.276 305.667 269.983 306.28L268.383 305.8C268.516 304.973 268.609 304.213 268.663 303.52C268.743 302.827 268.783 301.987 268.783 301C268.143 301 267.823 300.627 267.823 299.88V297.56C267.849 297.08 267.969 296.747 268.183 296.56C268.396 296.373 268.716 296.28 269.143 296.28H270.143ZM289.95 273.4V295.4C289.95 296.307 290.164 296.973 290.59 297.4C291.044 297.827 291.724 298.04 292.63 298.04H302.59L302.75 300.76C301.017 300.893 299.244 300.973 297.43 301C295.644 301.027 293.857 301.04 292.07 301.04C290.044 301.04 288.604 300.547 287.75 299.56C286.897 298.573 286.47 297.333 286.47 295.84V273.4H289.95ZM310.257 281.52V301H306.897V281.52H310.257ZM309.377 273.24C310.071 273.24 310.417 273.587 310.417 274.28V276.56C310.417 277.253 310.071 277.6 309.377 277.6H307.777C307.084 277.6 306.737 277.253 306.737 276.56V274.28C306.737 273.587 307.084 273.24 307.777 273.24H309.377ZM324.379 281.04C326.459 281.04 328.099 281.253 329.299 281.68C330.526 282.107 331.392 282.773 331.899 283.68C332.432 284.587 332.699 285.773 332.699 287.24C332.699 288.653 332.432 289.827 331.899 290.76C331.392 291.667 330.526 292.347 329.299 292.8C328.072 293.227 326.419 293.44 324.339 293.44C322.259 293.44 320.606 293.227 319.379 292.8C318.179 292.347 317.312 291.667 316.779 290.76C316.272 289.853 316.019 288.693 316.019 287.28C316.019 285.813 316.272 284.627 316.779 283.72C317.312 282.787 318.192 282.107 319.419 281.68C320.646 281.253 322.299 281.04 324.379 281.04ZM324.339 283.64C322.392 283.64 321.032 283.92 320.259 284.48C319.512 285.013 319.139 285.933 319.139 287.24C319.139 288.52 319.512 289.44 320.259 290C321.032 290.56 322.392 290.84 324.339 290.84C326.312 290.84 327.672 290.56 328.419 290C329.166 289.44 329.539 288.52 329.539 287.24C329.539 285.933 329.166 285.013 328.419 284.48C327.672 283.92 326.312 283.64 324.339 283.64ZM334.979 281.52L334.779 283.4L329.819 283.8L328.419 281.52H334.979ZM318.859 292.16L320.819 292.44C320.366 292.84 320.059 293.333 319.899 293.92C319.739 294.48 319.779 295 320.019 295.48C320.286 295.96 320.832 296.267 321.659 296.4L328.939 297.56C330.779 297.827 332.059 298.4 332.779 299.28C333.499 300.16 333.859 301.413 333.859 303.04C333.859 304.56 333.566 305.76 332.979 306.64C332.419 307.52 331.459 308.147 330.099 308.52C328.739 308.893 326.899 309.08 324.579 309.08C322.819 309.08 321.339 308.973 320.139 308.76C318.939 308.573 317.966 308.24 317.219 307.76C316.499 307.307 315.979 306.707 315.659 305.96C315.339 305.213 315.179 304.28 315.179 303.16C315.179 302.307 315.299 301.587 315.539 301C315.806 300.44 316.206 299.933 316.739 299.48C317.299 299.027 318.019 298.587 318.899 298.16L321.299 296.84L322.859 297.4L320.899 298.88C320.366 299.28 319.912 299.68 319.539 300.08C319.192 300.453 318.926 300.853 318.739 301.28C318.579 301.733 318.499 302.267 318.499 302.88C318.499 303.787 318.672 304.48 319.019 304.96C319.366 305.44 319.979 305.76 320.859 305.92C321.739 306.107 322.966 306.2 324.539 306.2C326.112 306.2 327.326 306.107 328.179 305.92C329.059 305.733 329.672 305.4 330.019 304.92C330.366 304.44 330.539 303.76 330.539 302.88C330.539 302.213 330.446 301.707 330.259 301.36C330.099 301.013 329.779 300.747 329.299 300.56C328.819 300.373 328.112 300.213 327.179 300.08L320.179 299.12C319.352 299.013 318.686 298.747 318.179 298.32C317.699 297.893 317.366 297.387 317.179 296.8C316.992 296.213 316.939 295.627 317.019 295.04C317.099 294.427 317.299 293.867 317.619 293.36C317.939 292.827 318.352 292.427 318.859 292.16ZM350.804 281.04C354.324 281.04 356.084 282.827 356.084 286.4V301H352.644V287.36C352.644 286.053 352.43 285.16 352.004 284.68C351.604 284.173 350.897 283.92 349.884 283.92C348.684 283.92 347.484 284.2 346.284 284.76C345.084 285.32 343.657 286.133 342.004 287.2L341.844 284.76C343.364 283.613 344.87 282.707 346.364 282.04C347.857 281.373 349.337 281.04 350.804 281.04ZM342.364 273L342.404 280.72C342.404 281.6 342.364 282.427 342.284 283.2C342.23 283.973 342.137 284.653 342.004 285.24L342.364 285.84V301H338.964V273H342.364ZM367.086 275.76V295.64C367.086 296.573 367.286 297.24 367.686 297.64C368.086 298.04 368.766 298.24 369.726 298.24H372.686L373.086 300.84C372.659 300.947 372.166 301.04 371.606 301.12C371.046 301.2 370.499 301.253 369.966 301.28C369.433 301.333 369.006 301.36 368.686 301.36C367.059 301.36 365.819 300.907 364.966 300C364.113 299.093 363.686 297.787 363.686 296.08V275.76H367.086ZM373.286 281.52V284.2H360.166V281.72L364.006 281.52H373.286ZM380.08 281.52L380.52 285.24L380.84 285.84V301H377.44V281.52H380.08ZM389.64 281.04L389.24 284.24H388.12C386.974 284.24 385.827 284.48 384.68 284.96C383.534 285.413 382.134 286.067 380.48 286.92L380.2 284.8C381.64 283.627 383.08 282.707 384.52 282.04C385.987 281.373 387.4 281.04 388.76 281.04H389.64ZM401.227 281.04C403.467 281.04 405.254 281.373 406.587 282.04C407.947 282.707 408.921 283.8 409.507 285.32C410.094 286.813 410.387 288.8 410.387 291.28C410.387 293.76 410.094 295.76 409.507 297.28C408.921 298.773 407.947 299.853 406.587 300.52C405.254 301.187 403.467 301.52 401.227 301.52C399.014 301.52 397.227 301.187 395.867 300.52C394.534 299.853 393.561 298.773 392.947 297.28C392.361 295.76 392.067 293.76 392.067 291.28C392.067 288.8 392.361 286.813 392.947 285.32C393.561 283.8 394.534 282.707 395.867 282.04C397.227 281.373 399.014 281.04 401.227 281.04ZM401.227 283.92C399.814 283.92 398.694 284.147 397.867 284.6C397.067 285.027 396.494 285.773 396.147 286.84C395.801 287.907 395.627 289.387 395.627 291.28C395.627 293.173 395.801 294.653 396.147 295.72C396.494 296.787 397.067 297.547 397.867 298C398.694 298.427 399.814 298.64 401.227 298.64C402.641 298.64 403.761 298.427 404.587 298C405.414 297.547 406.001 296.787 406.347 295.72C406.694 294.653 406.867 293.173 406.867 291.28C406.867 289.387 406.694 287.907 406.347 286.84C406.001 285.773 405.414 285.027 404.587 284.6C403.761 284.147 402.641 283.92 401.227 283.92ZM423.962 281.04C426.202 281.04 427.988 281.373 429.322 282.04C430.682 282.707 431.655 283.8 432.242 285.32C432.828 286.813 433.122 288.8 433.122 291.28C433.122 293.76 432.828 295.76 432.242 297.28C431.655 298.773 430.682 299.853 429.322 300.52C427.988 301.187 426.202 301.52 423.962 301.52C421.748 301.52 419.962 301.187 418.602 300.52C417.268 299.853 416.295 298.773 415.682 297.28C415.095 295.76 414.802 293.76 414.802 291.28C414.802 288.8 415.095 286.813 415.682 285.32C416.295 283.8 417.268 282.707 418.602 282.04C419.962 281.373 421.748 281.04 423.962 281.04ZM423.962 283.92C422.548 283.92 421.428 284.147 420.602 284.6C419.802 285.027 419.228 285.773 418.882 286.84C418.535 287.907 418.362 289.387 418.362 291.28C418.362 293.173 418.535 294.653 418.882 295.72C419.228 296.787 419.802 297.547 420.602 298C421.428 298.427 422.548 298.64 423.962 298.64C425.375 298.64 426.495 298.427 427.322 298C428.148 297.547 428.735 296.787 429.082 295.72C429.428 294.653 429.602 293.173 429.602 291.28C429.602 289.387 429.428 287.907 429.082 286.84C428.735 285.773 428.148 285.027 427.322 284.6C426.495 284.147 425.375 283.92 423.962 283.92ZM462.176 281.04C463.856 281.04 465.136 281.493 466.016 282.4C466.923 283.307 467.376 284.64 467.376 286.4V301H464.016V287.36C463.989 286.16 463.749 285.293 463.296 284.76C462.843 284.2 462.069 283.92 460.976 283.92C460.283 283.92 459.616 284.04 458.976 284.28C458.363 284.493 457.683 284.84 456.936 285.32C456.189 285.8 455.283 286.427 454.216 287.2L454.016 284.8C455.429 283.547 456.803 282.613 458.136 282C459.469 281.36 460.816 281.04 462.176 281.04ZM441.256 281.52L441.496 285.24L441.856 285.84V301H438.456V281.52H441.256ZM449.416 281.04C451.069 281.04 452.336 281.493 453.216 282.4C454.096 283.28 454.549 284.613 454.576 286.4V301H451.296V287.36C451.296 286.107 451.043 285.227 450.536 284.72C450.029 284.187 449.269 283.92 448.256 283.92C447.589 283.92 446.936 284.027 446.296 284.24C445.683 284.453 444.989 284.8 444.216 285.28C443.469 285.76 442.549 286.4 441.456 287.2L441.216 284.8C442.629 283.547 444.003 282.613 445.336 282C446.669 281.36 448.029 281.04 449.416 281.04ZM475.455 296.28C475.935 296.28 476.255 296.373 476.415 296.56C476.602 296.747 476.695 297.08 476.695 297.56V300.12C476.695 300.867 476.628 301.6 476.495 302.32C476.388 303.04 476.228 303.72 476.015 304.36C475.828 305.027 475.588 305.667 475.295 306.28L473.695 305.8C473.828 304.973 473.922 304.213 473.975 303.52C474.055 302.827 474.095 301.987 474.095 301C473.455 301 473.135 300.627 473.135 299.88V297.56C473.162 297.08 473.282 296.747 473.495 296.56C473.708 296.373 474.028 296.28 474.455 296.28H475.455ZM188.177 321.36C189.457 321.36 190.75 321.373 192.057 321.4C193.364 321.4 194.657 321.413 195.937 321.44C197.217 321.467 198.444 321.533 199.617 321.64L199.417 324.36H189.057C188.124 324.36 187.444 324.573 187.017 325C186.59 325.4 186.377 326.067 186.377 327V349H182.857V326.32C182.857 324.747 183.337 323.533 184.297 322.68C185.257 321.8 186.55 321.36 188.177 321.36ZM183.537 333.4H197.897V336.24H183.537V333.4ZM207.66 329.52V349H204.3V329.52H207.66ZM206.78 321.24C207.473 321.24 207.82 321.587 207.82 322.28V324.56C207.82 325.253 207.473 325.6 206.78 325.6H205.18C204.486 325.6 204.14 325.253 204.14 324.56V322.28C204.14 321.587 204.486 321.24 205.18 321.24H206.78ZM225.901 329.04C229.421 329.04 231.181 330.827 231.181 334.4V349H227.781V335.36C227.781 334.053 227.568 333.16 227.141 332.68C226.715 332.173 225.995 331.92 224.981 331.92C223.781 331.92 222.581 332.213 221.381 332.8C220.181 333.387 218.755 334.187 217.101 335.2L216.941 332.76C218.461 331.587 219.968 330.68 221.461 330.04C222.955 329.373 224.435 329.04 225.901 329.04ZM216.941 329.52L217.221 333.24L217.461 333.84V349H214.061V329.52H216.941ZM246.504 329.04C247.944 329.04 249.157 329.24 250.144 329.64C251.157 330.013 251.917 330.653 252.424 331.56C252.93 332.467 253.184 333.707 253.184 335.28V349H250.504L249.984 344.76L249.744 344.32V335.28C249.744 334.08 249.464 333.227 248.904 332.72C248.37 332.187 247.33 331.92 245.784 331.92C244.77 331.92 243.49 331.973 241.944 332.08C240.424 332.187 238.917 332.307 237.424 332.44L237.104 329.92C238.01 329.76 238.997 329.613 240.064 329.48C241.157 329.347 242.264 329.24 243.384 329.16C244.504 329.08 245.544 329.04 246.504 329.04ZM251.584 337L251.544 339.56L242.224 339.6C241.29 339.627 240.637 339.88 240.264 340.36C239.89 340.813 239.704 341.453 239.704 342.28V343.52C239.704 344.533 239.944 345.28 240.424 345.76C240.904 346.213 241.677 346.44 242.744 346.44C243.49 346.44 244.33 346.307 245.264 346.04C246.224 345.747 247.184 345.307 248.144 344.72C249.104 344.133 249.984 343.387 250.784 342.48V345C250.49 345.373 250.064 345.813 249.504 346.32C248.97 346.8 248.317 347.28 247.544 347.76C246.797 348.213 245.957 348.6 245.024 348.92C244.117 349.213 243.13 349.36 242.064 349.36C240.917 349.36 239.904 349.16 239.024 348.76C238.144 348.333 237.45 347.72 236.944 346.92C236.464 346.093 236.224 345.093 236.224 343.92V341.8C236.224 340.28 236.69 339.107 237.624 338.28C238.584 337.427 239.917 337 241.624 337H251.584ZM262.697 321L262.657 343.64C262.657 344.493 262.883 345.147 263.337 345.6C263.817 346.027 264.483 346.24 265.337 346.24H267.217L267.617 348.84C267.377 348.947 267.03 349.04 266.577 349.12C266.15 349.2 265.697 349.253 265.217 349.28C264.763 349.333 264.377 349.36 264.057 349.36C262.617 349.36 261.457 348.933 260.577 348.08C259.723 347.227 259.297 346 259.297 344.4V321H262.697ZM289.182 320.92C290.356 320.92 291.356 320.947 292.182 321C293.036 321.053 293.809 321.147 294.502 321.28C295.222 321.387 295.956 321.533 296.702 321.72L296.342 324.4C295.542 324.32 294.796 324.253 294.102 324.2C293.436 324.147 292.716 324.107 291.942 324.08C291.169 324.053 290.249 324.04 289.182 324.04C287.396 324.04 285.982 324.387 284.942 325.08C283.902 325.773 283.156 326.933 282.702 328.56C282.276 330.187 282.062 332.4 282.062 335.2C282.062 338 282.276 340.213 282.702 341.84C283.156 343.467 283.902 344.627 284.942 345.32C285.982 346.013 287.396 346.36 289.182 346.36C290.889 346.36 292.316 346.333 293.462 346.28C294.636 346.2 295.782 346.08 296.902 345.92L297.262 348.56C296.116 348.88 294.929 349.107 293.702 349.24C292.502 349.4 290.996 349.48 289.182 349.48C286.542 349.48 284.422 349.027 282.822 348.12C281.249 347.187 280.102 345.68 279.382 343.6C278.689 341.52 278.342 338.72 278.342 335.2C278.342 331.68 278.689 328.88 279.382 326.8C280.102 324.72 281.249 323.227 282.822 322.32C284.422 321.387 286.542 320.92 289.182 320.92ZM305.115 329.52V343.2C305.088 344.427 305.315 345.293 305.795 345.8C306.275 346.307 307.075 346.56 308.195 346.56C309.288 346.56 310.368 346.307 311.435 345.8C312.528 345.267 313.835 344.507 315.355 343.52L315.795 345.88C314.275 347.08 312.795 347.987 311.355 348.6C309.942 349.213 308.502 349.52 307.035 349.52C303.488 349.52 301.715 347.733 301.715 344.16V329.52H305.115ZM318.395 329.52V349H315.675L315.355 345.32L314.995 344.72V329.52H318.395ZM329.527 323.76V343.64C329.527 344.573 329.727 345.24 330.127 345.64C330.527 346.04 331.207 346.24 332.167 346.24H335.127L335.527 348.84C335.101 348.947 334.607 349.04 334.047 349.12C333.487 349.2 332.941 349.253 332.407 349.28C331.874 349.333 331.447 349.36 331.127 349.36C329.501 349.36 328.261 348.907 327.407 348C326.554 347.093 326.127 345.787 326.127 344.08V323.76H329.527ZM335.727 329.52V332.2H322.607V329.72L326.447 329.52H335.727ZM358.628 321.04C360.841 321.04 362.588 321.293 363.868 321.8C365.175 322.307 366.108 323.187 366.668 324.44C367.228 325.667 367.508 327.413 367.508 329.68C367.508 331.947 367.228 333.707 366.668 334.96C366.135 336.213 365.241 337.093 363.988 337.6C362.761 338.08 361.108 338.32 359.028 338.32C357.908 338.32 356.828 338.293 355.788 338.24C354.775 338.187 353.841 338.12 352.988 338.04C352.135 337.933 351.401 337.827 350.788 337.72C350.201 337.613 349.788 337.52 349.548 337.44L349.668 335.28C351.081 335.28 352.548 335.28 354.068 335.28C355.588 335.28 357.095 335.28 358.588 335.28C359.921 335.253 360.975 335.093 361.748 334.8C362.548 334.48 363.108 333.92 363.428 333.12C363.775 332.293 363.948 331.147 363.948 329.68C363.948 328.187 363.775 327.04 363.428 326.24C363.108 325.44 362.548 324.88 361.748 324.56C360.975 324.24 359.921 324.08 358.588 324.08C356.401 324.08 354.508 324.093 352.908 324.12C351.335 324.147 350.268 324.187 349.708 324.24L349.148 321.4C350.161 321.293 351.108 321.213 351.988 321.16C352.868 321.107 353.828 321.08 354.868 321.08C355.908 321.053 357.161 321.04 358.628 321.04ZM352.668 321.4V349H349.148V321.4H352.668ZM375.022 329.52L375.462 333.24L375.782 333.84V349H372.382V329.52H375.022ZM384.582 329.04L384.182 332.24H383.062C381.915 332.24 380.768 332.48 379.622 332.96C378.475 333.413 377.075 334.067 375.422 334.92L375.142 332.8C376.582 331.627 378.022 330.707 379.462 330.04C380.928 329.373 382.342 329.04 383.702 329.04H384.582ZM396.169 329.04C398.409 329.04 400.195 329.373 401.529 330.04C402.889 330.707 403.862 331.8 404.449 333.32C405.035 334.813 405.329 336.8 405.329 339.28C405.329 341.76 405.035 343.76 404.449 345.28C403.862 346.773 402.889 347.853 401.529 348.52C400.195 349.187 398.409 349.52 396.169 349.52C393.955 349.52 392.169 349.187 390.809 348.52C389.475 347.853 388.502 346.773 387.889 345.28C387.302 343.76 387.009 341.76 387.009 339.28C387.009 336.8 387.302 334.813 387.889 333.32C388.502 331.8 389.475 330.707 390.809 330.04C392.169 329.373 393.955 329.04 396.169 329.04ZM396.169 331.92C394.755 331.92 393.635 332.147 392.809 332.6C392.009 333.027 391.435 333.773 391.089 334.84C390.742 335.907 390.569 337.387 390.569 339.28C390.569 341.173 390.742 342.653 391.089 343.72C391.435 344.787 392.009 345.547 392.809 346C393.635 346.427 394.755 346.64 396.169 346.64C397.582 346.64 398.702 346.427 399.529 346C400.355 345.547 400.942 344.787 401.289 343.72C401.635 342.653 401.809 341.173 401.809 339.28C401.809 337.387 401.635 335.907 401.289 334.84C400.942 333.773 400.355 333.027 399.529 332.6C398.702 332.147 397.582 331.92 396.169 331.92Z" fill="white"/>
</svg>
